<?xml version="1.0" encoding="utf-8" standalone="yes"?>
<!DOCTYPE svg PUBLIC "-//W3C//DTD SVG 1.1//EN" "http://www.w3.org/Graphics/SVG/1.1/DTD/svg11.dtd">
<svg width="1186" height="770" viewBox="0 0 1186 770" style="fill:none;stroke:none;fill-rule:evenodd;clip-rule:evenodd;stroke-linecap:round;stroke-linejoin:round;stroke-miterlimit:1.5;" version="1.1" xmlns="http://www.w3.org/2000/svg" xmlns:xlink="http://www.w3.org/1999/xlink"><style id="fontImports">@import url("https://fonts.googleapis.com/css2?family=Roboto:wght@400;700&amp;display=block");</style><g id="items" style="isolation: isolate"><g id="blend" style="mix-blend-mode: normal"><g id="g-root--1.line_fr_1uneh3m3xej2h-fill" data-item-order="-763335" transform="translate(146.5, 303)"></g><g id="g-root--1.line_1_fr_1q7kyz63xejur-fill" data-item-order="-763331" transform="translate(350.5, 303)"></g><g id="g-root--1.line_2_fr_1hbxyqa3xeknh-fill" data-item-order="-763327" transform="translate(554.5, 303)"></g><g id="g-root--1.line_3_fr_1cwqxoy3xei9z-fill" data-item-order="-763323" transform="translate(758.5, 303)"></g><g id="g-root--1.line_4_fr_18gxfki3xej29-fill" data-item-order="-763319" transform="translate(962.5, 303)"></g><g id="g-root-1.g-1_1_fr_zlafbm3xejuz-fill" data-item-order="-763316" transform="translate(85.00003051757812, 351)"><g id="1.g-1_1_fr_zlafbm3xejuz-fill" stroke="none" fill="#3e4e69"><g><path d="M 149.501973 13.1012C 145.370973 8.9678 138.668973 8.966 134.535973 13.0974C 130.403973 17.2272 130.403973 23.923 134.535973 28.0529L 153.913973 47.4222L 99.582673 47.4222C 93.737973 47.4222 88.999973 52.1581 88.999973 58.0001C 88.999973 63.842 93.737973 68.5779 99.582673 68.5779L 153.913973 68.5779L 134.535973 87.9471C 130.403973 92.077 130.403973 98.7728 134.535973 102.9026C 138.668973 107.034 145.370973 107.0322 149.501973 102.8988L 186.903973 65.4758C 191.031973 61.3458 191.031973 54.6542 186.903973 50.5242L 149.501973 13.1012ZM 42.906873 51.2384L 49.668873 58.0003L 42.906873 64.7623C 41.974373 65.6948 41.974373 67.2067 42.906873 68.1392C 43.839673 69.072 45.352273 69.0716 46.284673 68.1383L 54.725973 59.6884C 55.657573 58.7558 55.657573 57.2449 54.725973 56.3123L 46.284673 47.8623C 45.352273 46.929 43.839673 46.9286 42.906873 47.8615C 41.974373 48.794 41.974373 50.3059 42.906873 51.2384ZM 26.803073 51.2384L 33.565073 58.0003L 26.803073 64.7623C 25.870573 65.6948 25.870573 67.2067 26.803073 68.1392C 27.735973 69.072 29.248473 69.0716 30.180873 68.1383L 38.622273 59.6884C 39.553873 58.7558 39.553873 57.2449 38.622273 56.3123L 30.180873 47.8623C 29.248473 46.929 27.735973 46.9286 26.803073 47.8615C 25.870573 48.794 25.870573 50.3059 26.803073 51.2384ZM 10.699373 51.2381L 17.461273 58.0001L 10.699373 64.7621C 9.766873 65.6946 9.766873 67.2064 10.699373 68.1389C 11.632173 69.0718 13.144773 69.0714 14.077073 68.1381L 22.518473 59.6881C 23.450073 58.7556 23.450073 57.2446 22.518473 56.3121L 14.077073 47.8621C 13.144773 46.9288 11.632173 46.9284 10.699373 47.8612C 9.766873 48.7937 9.766873 50.3056 10.699373 51.2381ZM 71.949873 68.5775C 66.107873 68.5775 61.372073 63.8417 61.372073 57.9997C 61.372073 52.1577 66.107873 47.4219 71.949873 47.4219C 77.791873 47.4219 82.527673 52.1577 82.527673 57.9997C 82.527673 63.8417 77.791873 68.5775 71.949873 68.5775Z"></path></g></g></g><g id="g-root-2.g-2_fr_mage1e3xeia5-fill" data-item-order="-763312" transform="translate(289.0000305175781, 351)"><g id="2.g-2_fr_mage1e3xeia5-fill" stroke="none" fill="#3b5649"><g><path d="M 149.501969 13.1012C 145.370969 8.9678 138.668969 8.966 134.535969 13.0974C 130.403969 17.2272 130.403969 23.923 134.535969 28.0529L 153.913969 47.4222L 99.582669 47.4222C 93.737969 47.4222 88.999969 52.1581 88.999969 58.0001C 88.999969 63.842 93.737969 68.5779 99.582669 68.5779L 153.913969 68.5779L 134.535969 87.9471C 130.403969 92.077 130.403969 98.7728 134.535969 102.9026C 138.668969 107.034 145.370969 107.0322 149.501969 102.8988L 186.903969 65.4758C 191.031969 61.3458 191.031969 54.6542 186.903969 50.5242L 149.501969 13.1012ZM 42.906869 51.2384L 49.668869 58.0003L 42.906869 64.7623C 41.974369 65.6948 41.974369 67.2067 42.906869 68.1392C 43.839669 69.072 45.352269 69.0716 46.284669 68.1383L 54.725969 59.6884C 55.657569 58.7558 55.657569 57.2449 54.725969 56.3123L 46.284669 47.8623C 45.352269 46.929 43.839669 46.9286 42.906869 47.8615C 41.974369 48.794 41.974369 50.3059 42.906869 51.2384ZM 26.803069 51.2384L 33.565069 58.0003L 26.803069 64.7623C 25.870569 65.6948 25.870569 67.2067 26.803069 68.1392C 27.735969 69.072 29.248469 69.0716 30.180869 68.1383L 38.622269 59.6884C 39.553869 58.7558 39.553869 57.2449 38.622269 56.3123L 30.180869 47.8623C 29.248469 46.929 27.735969 46.9286 26.803069 47.8615C 25.870569 48.794 25.870569 50.3059 26.803069 51.2384ZM 10.699369 51.2381L 17.461269 58.0001L 10.699369 64.7621C 9.766869 65.6946 9.766869 67.2064 10.699369 68.1389C 11.632169 69.0718 13.144769 69.0714 14.077069 68.1381L 22.518469 59.6881C 23.450069 58.7556 23.450069 57.2446 22.518469 56.3121L 14.077069 47.8621C 13.144769 46.9288 11.632169 46.9284 10.699369 47.8612C 9.766869 48.7937 9.766869 50.3056 10.699369 51.2381ZM 71.949869 68.5775C 66.107869 68.5775 61.372069 63.8417 61.372069 57.9997C 61.372069 52.1577 66.107869 47.4219 71.949869 47.4219C 77.791869 47.4219 82.527669 52.1577 82.527669 57.9997C 82.527669 63.8417 77.791869 68.5775 71.949869 68.5775Z"></path></g></g></g><g id="g-root-3.g-3_1_fr_humvwy3xej2f-fill" data-item-order="-763308" transform="translate(493.0000305175781, 351)"><g id="3.g-3_1_fr_humvwy3xej2f-fill" stroke="none" fill="#4b533a"><g><path d="M 149.501969 13.1012C 145.370969 8.9678 138.668969 8.966 134.535969 13.0974C 130.403969 17.2272 130.403969 23.923 134.535969 28.0529L 153.913969 47.4222L 99.582669 47.4222C 93.737969 47.4222 88.999969 52.1581 88.999969 58.0001C 88.999969 63.842 93.737969 68.5779 99.582669 68.5779L 153.913969 68.5779L 134.535969 87.9471C 130.403969 92.077 130.403969 98.7728 134.535969 102.9026C 138.668969 107.034 145.370969 107.0322 149.501969 102.8988L 186.903969 65.4758C 191.031969 61.3458 191.031969 54.6542 186.903969 50.5242L 149.501969 13.1012ZM 42.906869 51.2384L 49.668869 58.0003L 42.906869 64.7623C 41.974369 65.6948 41.974369 67.2067 42.906869 68.1392C 43.839669 69.072 45.352269 69.0716 46.284669 68.1383L 54.725969 59.6884C 55.657569 58.7558 55.657569 57.2449 54.725969 56.3123L 46.284669 47.8623C 45.352269 46.929 43.839669 46.9286 42.906869 47.8615C 41.974369 48.794 41.974369 50.3059 42.906869 51.2384ZM 26.803069 51.2384L 33.565069 58.0003L 26.803069 64.7623C 25.870569 65.6948 25.870569 67.2067 26.803069 68.1392C 27.735969 69.072 29.248469 69.0716 30.180869 68.1383L 38.622269 59.6884C 39.553869 58.7558 39.553869 57.2449 38.622269 56.3123L 30.180869 47.8623C 29.248469 46.929 27.735969 46.9286 26.803069 47.8615C 25.870569 48.794 25.870569 50.3059 26.803069 51.2384ZM 10.699369 51.2381L 17.461269 58.0001L 10.699369 64.7621C 9.766869 65.6946 9.766869 67.2064 10.699369 68.1389C 11.632169 69.0718 13.144769 69.0714 14.077069 68.1381L 22.518469 59.6881C 23.450069 58.7556 23.450069 57.2446 22.518469 56.3121L 14.077069 47.8621C 13.144769 46.9288 11.632169 46.9284 10.699369 47.8612C 9.766869 48.7937 9.766869 50.3056 10.699369 51.2381ZM 71.949869 68.5775C 66.107869 68.5775 61.372069 63.8417 61.372069 57.9997C 61.372069 52.1577 66.107869 47.4219 71.949869 47.4219C 77.791869 47.4219 82.527669 52.1577 82.527669 57.9997C 82.527669 63.8417 77.791869 68.5775 71.949869 68.5775Z"></path></g></g></g><g id="g-root-4.g-4_fr_4j6djm3xeknd-fill" data-item-order="-763304" transform="translate(697, 351)"><g id="4.g-4_fr_4j6djm3xeknd-fill" stroke="none" fill="#344e57"><g><path d="M 149.502 13.1012C 145.371 8.9678 138.669 8.966 134.536 13.0974C 130.404 17.2272 130.404 23.923 134.536 28.0529L 153.914 47.4222L 99.5827 47.4222C 93.738 47.4222 89 52.1581 89 58.0001C 89 63.842 93.738 68.5779 99.5827 68.5779L 153.914 68.5779L 134.536 87.9471C 130.404 92.077 130.404 98.7728 134.536 102.9026C 138.669 107.034 145.371 107.0322 149.502 102.8988L 186.904 65.4758C 191.032 61.3458 191.032 54.6542 186.904 50.5242L 149.502 13.1012ZM 42.9069 51.2384L 49.6689 58.0003L 42.9069 64.7623C 41.9744 65.6948 41.9744 67.2067 42.9069 68.1392C 43.8397 69.072 45.3523 69.0716 46.2847 68.1383L 54.726 59.6884C 55.6576 58.7558 55.6576 57.2449 54.726 56.3123L 46.2847 47.8623C 45.3523 46.929 43.8397 46.9286 42.9069 47.8615C 41.9744 48.794 41.9744 50.3059 42.9069 51.2384ZM 26.8031 51.2384L 33.5651 58.0003L 26.8031 64.7623C 25.8706 65.6948 25.8706 67.2067 26.8031 68.1392C 27.736 69.072 29.2485 69.0716 30.1809 68.1383L 38.6223 59.6884C 39.5539 58.7558 39.5539 57.2449 38.6223 56.3123L 30.1809 47.8623C 29.2485 46.929 27.736 46.9286 26.8031 47.8615C 25.8706 48.794 25.8706 50.3059 26.8031 51.2384ZM 10.6994 51.2381L 17.4613 58.0001L 10.6994 64.7621C 9.7669 65.6946 9.7669 67.2064 10.6994 68.1389C 11.6322 69.0718 13.1448 69.0714 14.0771 68.1381L 22.5185 59.6881C 23.4501 58.7556 23.4501 57.2446 22.5185 56.3121L 14.0771 47.8621C 13.1448 46.9288 11.6322 46.9284 10.6994 47.8612C 9.7669 48.7937 9.7669 50.3056 10.6994 51.2381ZM 71.9499 68.5775C 66.1079 68.5775 61.3721 63.8417 61.3721 57.9997C 61.3721 52.1577 66.1079 47.4219 71.9499 47.4219C 77.7919 47.4219 82.5277 52.1577 82.5277 57.9997C 82.5277 63.8417 77.7919 68.5775 71.9499 68.5775Z"></path></g></g></g><g id="g-root-5.g-5_1_fr_1q9ge8i3xeivf-fill" data-item-order="-763300" transform="translate(901, 351)"><g id="5.g-5_1_fr_1q9ge8i3xeivf-fill" stroke="none" fill="#4c4371"><g><path d="M 149.502 13.1012C 145.371 8.9678 138.669 8.966 134.536 13.0974C 130.404 17.2272 130.404 23.923 134.536 28.0529L 153.914 47.4222L 99.5827 47.4222C 93.738 47.4222 89 52.1581 89 58.0001C 89 63.842 93.738 68.5779 99.5827 68.5779L 153.914 68.5779L 134.536 87.9471C 130.404 92.077 130.404 98.7728 134.536 102.9026C 138.669 107.034 145.371 107.0322 149.502 102.8988L 186.904 65.4758C 191.032 61.3458 191.032 54.6542 186.904 50.5242L 149.502 13.1012ZM 42.9069 51.2384L 49.6689 58.0003L 42.9069 64.7623C 41.9744 65.6948 41.9744 67.2067 42.9069 68.1392C 43.8397 69.072 45.3523 69.0716 46.2847 68.1383L 54.726 59.6884C 55.6576 58.7558 55.6576 57.2449 54.726 56.3123L 46.2847 47.8623C 45.3523 46.929 43.8397 46.9286 42.9069 47.8615C 41.9744 48.794 41.9744 50.3059 42.9069 51.2384ZM 26.8031 51.2384L 33.5651 58.0003L 26.8031 64.7623C 25.8706 65.6948 25.8706 67.2067 26.8031 68.1392C 27.736 69.072 29.2485 69.0716 30.1809 68.1383L 38.6223 59.6884C 39.5539 58.7558 39.5539 57.2449 38.6223 56.3123L 30.1809 47.8623C 29.2485 46.929 27.736 46.9286 26.8031 47.8615C 25.8706 48.794 25.8706 50.3059 26.8031 51.2384ZM 10.6994 51.2381L 17.4613 58.0001L 10.6994 64.7621C 9.7669 65.6946 9.7669 67.2064 10.6994 68.1389C 11.6322 69.0718 13.1448 69.0714 14.0771 68.1381L 22.5185 59.6881C 23.4501 58.7556 23.4501 57.2446 22.5185 56.3121L 14.0771 47.8621C 13.1448 46.9288 11.6322 46.9284 10.6994 47.8612C 9.7669 48.7937 9.7669 50.3056 10.6994 51.2381ZM 71.9499 68.5775C 66.1079 68.5775 61.3721 63.8417 61.3721 57.9997C 61.3721 52.1577 66.1079 47.4219 71.9499 47.4219C 77.7919 47.4219 82.5277 52.1577 82.5277 57.9997C 82.5277 63.8417 77.7919 68.5775 71.9499 68.5775Z"></path></g></g></g><g id="g-root-down_de7itu3xlkw9-fill" data-item-order="0" transform="translate(729, 231)"></g><g id="g-root-2_4l1ssy3xejns-fill" data-item-order="0" transform="translate(321, 231)"></g><g id="g-root-tx_ajusteme_1lza1hu3xk64g-fill" data-item-order="0" transform="translate(891, 195)"><g id="tx_ajusteme_1lza1hu3xk64g-fill" stroke="none" fill="#ababab"><g><text style="font: 15px Roboto, sans-serif; white-space: pre;" font-size="15px" font-family="Roboto, sans-serif"><tspan x="18.6" y="30.33" dominant-baseline="ideographic">Ajustement fin des </tspan><tspan x="18.79" y="48.33" dominant-baseline="ideographic">poids avec un taux </tspan><tspan x="13.6" y="66.33" dominant-baseline="ideographic">d'apprentissage très </tspan><tspan x="12.52" y="84.33" dominant-baseline="ideographic">faible et surveillance </tspan><tspan x="12.96" y="102.33" dominant-baseline="ideographic">du surapprentissage</tspan></text></g></g></g><g id="g-root-tx_apprenti_1cu9ngy3xll38-fill" data-item-order="0" transform="translate(483, 183)"><g id="tx_apprenti_1cu9ngy3xll38-fill" stroke="none" fill="#ababab"><g><text style="font: 15px Roboto, sans-serif; white-space: pre;" font-size="15px" font-family="Roboto, sans-serif"><tspan x="25.94" y="27.33" dominant-baseline="ideographic">Apprentissage </tspan><tspan x="20.58" y="45.33" dominant-baseline="ideographic">uniquement des </tspan><tspan x="12.42" y="63.33" dominant-baseline="ideographic">nouvelles couches </tspan><tspan x="32.23" y="81.33" dominant-baseline="ideographic">avec un taux </tspan><tspan x="21.4" y="99.33" dominant-baseline="ideographic">d'apprentissage </tspan><tspan x="48.63" y="117.33" dominant-baseline="ideographic">modéré</tspan></text></g></g></g><g id="g-root-tx_blocaged_mbpc7m3xekgf-fill" data-item-order="0" transform="translate(75, 195)"><g id="tx_blocaged_mbpc7m3xekgf-fill" stroke="none" fill="#ababab"><g><text style="font: 15px Roboto, sans-serif; white-space: pre;" font-size="15px" font-family="Roboto, sans-serif"><tspan x="25.75" y="30.33" dominant-baseline="ideographic">Blocage des poids </tspan><tspan x="17.06" y="48.33" dominant-baseline="ideographic">des couches initiales </tspan><tspan x="38.69" y="66.33" dominant-baseline="ideographic">pour préserver </tspan><tspan x="17.23" y="84.33" dominant-baseline="ideographic">l'extraction de motifs </tspan><tspan x="50" y="102.33" dominant-baseline="ideographic">génériques</tspan></text></g></g></g><g id="g-root-tx_rentrane_hyem1e3xk6j0-fill" data-item-order="0" transform="translate(891, 159)"><g id="tx_rentrane_hyem1e3xk6j0-fill" stroke="none" fill="#8769fd"><g><text style="font: bold 20px Roboto, sans-serif; white-space: pre;" font-weight="bold" font-size="20px" font-family="Roboto, sans-serif"><tspan x="16.16" y="34" dominant-baseline="ideographic">Réentraînement</tspan></text></g></g></g><g id="g-root-tx_geldumod_v7ccgi3xejnq-fill" data-item-order="0" transform="translate(75, 159)"><g id="tx_geldumod_v7ccgi3xejnq-fill" stroke="none" fill="#4f91fc"><g><text style="font: bold 20px Roboto, sans-serif; white-space: pre;" font-weight="bold" font-size="20px" font-family="Roboto, sans-serif"><tspan x="17.46" y="34" dominant-baseline="ideographic">Gel du Modèle</tspan></text></g></g></g><g id="g-root-tx_entranem_1d30aoi3xk4co-fill" data-item-order="0" transform="translate(483, 123)"><g id="tx_entranem_1d30aoi3xk4co-fill" stroke="none" fill="#a6da37"><g><text style="font: bold 20px Roboto, sans-serif; white-space: pre;" font-weight="bold" font-size="20px" font-family="Roboto, sans-serif"><tspan x="13.25" y="34" dominant-baseline="ideographic">Entraînement </tspan><tspan x="48.31" y="58" dominant-baseline="ideographic">Initial</tspan></text></g></g></g><g id="g-root-tx_processu_1cxzvv63xekgd-fill" data-item-order="0" transform="translate(403, 39)"><g id="tx_processu_1cxzvv63xekgd-fill" stroke="none" fill="#ababab"><g><text style="font: 20px Roboto, sans-serif; white-space: pre;" font-size="20px" font-family="Roboto, sans-serif"><tspan x="12.8" y="34" dominant-baseline="ideographic">Processus d'apprentissage par transfert</tspan></text></g></g></g><g id="g-root-slac_zp25g23xllhp-fill" data-item-order="0" transform="translate(117, 507)"></g><g id="g-root-tx_ajoutdec_1ulk6xe3xk5cb-fill" data-item-order="0" transform="translate(279, 507)"><g id="tx_ajoutdec_1ulk6xe3xk5cb-fill" stroke="none" fill="#43dd93"><g><text style="font: bold 20px Roboto, sans-serif; white-space: pre;" font-weight="bold" font-size="20px" font-family="Roboto, sans-serif"><tspan x="32.53" y="34" dominant-baseline="ideographic">Ajout de </tspan><tspan x="30.86" y="58" dominant-baseline="ideographic">Couches </tspan><tspan x="13.24" y="82" dominant-baseline="ideographic">Spécialisées</tspan></text></g></g></g><g id="g-root-inti_qnt4wi3xk6x9-fill" data-item-order="0" transform="translate(525, 507)"></g><g id="g-root-tx_phasedef_qwjv9u3xac5p-fill" data-item-order="0" transform="translate(687, 507)"><g id="tx_phasedef_qwjv9u3xac5p-fill" stroke="none" fill="#1ac3fb"><g><text style="font: bold 20px Roboto, sans-serif; white-space: pre;" font-weight="bold" font-size="20px" font-family="Roboto, sans-serif"><tspan x="14.98" y="34" dominant-baseline="ideographic">Phase de Fine-</tspan><tspan x="50.98" y="58" dominant-baseline="ideographic">Tuning</tspan></text></g></g></g><g id="g-root-cent_1lqjqxe3xboy7-fill" data-item-order="0" transform="translate(933, 507)"></g><g id="g-root-tx_remplace_1cuwniq3xk4jo-fill" data-item-order="0" transform="translate(279, 591)"><g id="tx_remplace_1cuwniq3xk4jo-fill" stroke="none" fill="#ababab"><g><text style="font: 15px Roboto, sans-serif; white-space: pre;" font-size="15px" font-family="Roboto, sans-serif"><tspan x="12.66" y="27.33" dominant-baseline="ideographic">Remplacement de la </tspan><tspan x="25.41" y="45.33" dominant-baseline="ideographic">couche de sortie </tspan><tspan x="25.51" y="63.33" dominant-baseline="ideographic">originale par des </tspan><tspan x="19.84" y="81.33" dominant-baseline="ideographic">couches adaptées </tspan><tspan x="35.43" y="99.33" dominant-baseline="ideographic">aux nouvelles </tspan><tspan x="55.41" y="117.33" dominant-baseline="ideographic">classes</tspan></text></g></g></g><g id="g-root-tx_libratio_8vwqhe3xbpxi-fill" data-item-order="0" transform="translate(687, 567)"><g id="tx_libratio_8vwqhe3xbpxi-fill" stroke="none" fill="#ababab"><g><text style="font: 15px Roboto, sans-serif; white-space: pre;" font-size="15px" font-family="Roboto, sans-serif"><tspan x="26.98" y="30.33" dominant-baseline="ideographic">Libération des </tspan><tspan x="13.02" y="48.33" dominant-baseline="ideographic">dernières couches </tspan><tspan x="24.46" y="66.33" dominant-baseline="ideographic">du modèle pré-</tspan><tspan x="19.96" y="84.33" dominant-baseline="ideographic">entraîné pour un </tspan><tspan x="26.52" y="102.33" dominant-baseline="ideographic">ajustement fin</tspan></text></g></g></g><g id="g-root--1.line_fr_1uneh3m3xej2h-stroke" data-item-order="-763335" transform="translate(146.5, 303)"><g id="-1.line_fr_1uneh3m3xej2h-stroke" fill="none" stroke-linecap="round" stroke-linejoin="round" stroke-miterlimit="4" stroke="#b7b7b7" stroke-width="2" stroke-dasharray="5.0, 7.0"><g><path d="M 10 202L 10 10"></path></g></g></g><g id="g-root--1.line_1_fr_1q7kyz63xejur-stroke" data-item-order="-763331" transform="translate(350.5, 303)"><g id="-1.line_1_fr_1q7kyz63xejur-stroke" fill="none" stroke-linecap="round" stroke-linejoin="round" stroke-miterlimit="4" stroke="#b7b7b7" stroke-width="2" stroke-dasharray="5.0, 7.0"><g><path d="M 10 202L 10 10"></path></g></g></g><g id="g-root--1.line_2_fr_1hbxyqa3xeknh-stroke" data-item-order="-763327" transform="translate(554.5, 303)"><g id="-1.line_2_fr_1hbxyqa3xeknh-stroke" fill="none" stroke-linecap="round" stroke-linejoin="round" stroke-miterlimit="4" stroke="#b7b7b7" stroke-width="2" stroke-dasharray="5.0, 7.0"><g><path d="M 9.999992 202L 9.999992 10"></path></g></g></g><g id="g-root--1.line_3_fr_1cwqxoy3xei9z-stroke" data-item-order="-763323" transform="translate(758.5, 303)"><g id="-1.line_3_fr_1cwqxoy3xei9z-stroke" fill="none" stroke-linecap="round" stroke-linejoin="round" stroke-miterlimit="4" stroke="#b7b7b7" stroke-width="2" stroke-dasharray="5.0, 7.0"><g><path d="M 10 202L 10 10"></path></g></g></g><g id="g-root--1.line_4_fr_18gxfki3xej29-stroke" data-item-order="-763319" transform="translate(962.5, 303)"><g id="-1.line_4_fr_18gxfki3xej29-stroke" fill="none" stroke-linecap="round" stroke-linejoin="round" stroke-miterlimit="4" stroke="#b7b7b7" stroke-width="2" stroke-dasharray="5.0, 7.0"><g><path d="M 9.999992 202L 9.999992 10"></path></g></g></g><g id="g-root-1.g-1_1_fr_zlafbm3xejuz-stroke" data-item-order="-763316" transform="translate(85.00003051757812, 351)"><g id="1.g-1_1_fr_zlafbm3xejuz-stroke" fill="none" stroke-linecap="round" stroke-linejoin="round" stroke-miterlimit="4" stroke="#4f91fc" stroke-width="2"><g><path d="M 149.501873 13.1012C 145.370773 8.9678 138.668973 8.9661 134.535673 13.0974C 130.403973 17.2272 130.403973 23.923 134.535673 28.0529L 153.913973 47.4222L 99.582673 47.4222C 93.737973 47.4222 88.999973 52.1581 88.999973 58.0001C 88.999973 63.842 93.737973 68.5779 99.582673 68.5779L 153.913873 68.5779L 134.535673 87.9471C 130.403973 92.077 130.403973 98.7728 134.535673 102.9026C 138.668973 107.0339 145.370773 107.0322 149.501973 102.8988L 186.904173 65.4758C 191.031873 61.3458 191.031873 54.6542 186.904173 50.5242L 149.501873 13.1012ZM 42.906873 51.2384L 49.668873 58.0003L 42.906873 64.7623C 41.974373 65.6948 41.974373 67.2067 42.906873 68.1392C 43.839673 69.072 45.352273 69.0716 46.284673 68.1383L 54.725973 59.6884C 55.657573 58.7558 55.657573 57.2449 54.725973 56.3123L 46.284673 47.8623C 45.352273 46.929 43.839673 46.9286 42.906873 47.8615C 41.974373 48.794 41.974373 50.3059 42.906873 51.2384ZM 26.803073 51.2384L 33.565073 58.0003L 26.803073 64.7623C 25.870573 65.6948 25.870573 67.2067 26.803073 68.1392C 27.735973 69.072 29.248473 69.0716 30.180873 68.1383L 38.622273 59.6884C 39.553873 58.7558 39.553873 57.2449 38.622273 56.3123L 30.180873 47.8623C 29.248473 46.929 27.735973 46.9286 26.803073 47.8615C 25.870573 48.794 25.870573 50.3059 26.803073 51.2384ZM 10.699373 51.2381L 17.461273 58.0001L 10.699373 64.7621C 9.766873 65.6946 9.766873 67.2064 10.699373 68.1389C 11.632173 69.0718 13.144773 69.0714 14.077073 68.1381L 22.518473 59.6881C 23.450073 58.7556 23.450073 57.2446 22.518473 56.3121L 14.077073 47.8621C 13.144773 46.9288 11.632173 46.9284 10.699373 47.8612C 9.766873 48.7937 9.766873 50.3056 10.699373 51.2381ZM 71.949873 68.5775C 66.107873 68.5775 61.372073 63.8417 61.372073 57.9997C 61.372073 52.1577 66.107873 47.4219 71.949873 47.4219C 77.791873 47.4219 82.527673 52.1577 82.527673 57.9997C 82.527673 63.8417 77.791873 68.5775 71.949873 68.5775Z"></path></g></g></g><g id="g-root-2.g-2_fr_mage1e3xeia5-stroke" data-item-order="-763312" transform="translate(289.0000305175781, 351)"><g id="2.g-2_fr_mage1e3xeia5-stroke" fill="none" stroke-linecap="round" stroke-linejoin="round" stroke-miterlimit="4" stroke="#43dd93" stroke-width="2"><g><path d="M 149.501869 13.1012C 145.370769 8.9678 138.668969 8.9661 134.535669 13.0974C 130.403969 17.2272 130.403969 23.923 134.535669 28.0529L 153.913969 47.4222L 99.582669 47.4222C 93.737969 47.4222 88.999969 52.1581 88.999969 58.0001C 88.999969 63.842 93.737969 68.5779 99.582669 68.5779L 153.913869 68.5779L 134.535669 87.9471C 130.403969 92.077 130.403969 98.7728 134.535669 102.9026C 138.668969 107.0339 145.370769 107.0322 149.501969 102.8988L 186.904169 65.4758C 191.031869 61.3458 191.031869 54.6542 186.904169 50.5242L 149.501869 13.1012ZM 42.906869 51.2384L 49.668869 58.0003L 42.906869 64.7623C 41.974369 65.6948 41.974369 67.2067 42.906869 68.1392C 43.839669 69.072 45.352269 69.0716 46.284669 68.1383L 54.725969 59.6884C 55.657569 58.7558 55.657569 57.2449 54.725969 56.3123L 46.284669 47.8623C 45.352269 46.929 43.839669 46.9286 42.906869 47.8615C 41.974369 48.794 41.974369 50.3059 42.906869 51.2384ZM 26.803069 51.2384L 33.565069 58.0003L 26.803069 64.7623C 25.870569 65.6948 25.870569 67.2067 26.803069 68.1392C 27.735969 69.072 29.248469 69.0716 30.180869 68.1383L 38.622269 59.6884C 39.553869 58.7558 39.553869 57.2449 38.622269 56.3123L 30.180869 47.8623C 29.248469 46.929 27.735969 46.9286 26.803069 47.8615C 25.870569 48.794 25.870569 50.3059 26.803069 51.2384ZM 10.699369 51.2381L 17.461269 58.0001L 10.699369 64.7621C 9.766869 65.6946 9.766869 67.2064 10.699369 68.1389C 11.632169 69.0718 13.144769 69.0714 14.077069 68.1381L 22.518469 59.6881C 23.450069 58.7556 23.450069 57.2446 22.518469 56.3121L 14.077069 47.8621C 13.144769 46.9288 11.632169 46.9284 10.699369 47.8612C 9.766869 48.7937 9.766869 50.3056 10.699369 51.2381ZM 71.949869 68.5775C 66.107869 68.5775 61.372069 63.8417 61.372069 57.9997C 61.372069 52.1577 66.107869 47.4219 71.949869 47.4219C 77.791869 47.4219 82.527669 52.1577 82.527669 57.9997C 82.527669 63.8417 77.791869 68.5775 71.949869 68.5775Z"></path></g></g></g><g id="g-root-3.g-3_1_fr_humvwy3xej2f-stroke" data-item-order="-763308" transform="translate(493.0000305175781, 351)"><g id="3.g-3_1_fr_humvwy3xej2f-stroke" fill="none" stroke-linecap="round" stroke-linejoin="round" stroke-miterlimit="4" stroke="#a6da37" stroke-width="2"><g><path d="M 149.501869 13.1012C 145.370769 8.9678 138.668969 8.9661 134.535669 13.0974C 130.403969 17.2272 130.403969 23.923 134.535669 28.0529L 153.913969 47.4222L 99.582669 47.4222C 93.737969 47.4222 88.999969 52.1581 88.999969 58.0001C 88.999969 63.842 93.737969 68.5779 99.582669 68.5779L 153.913869 68.5779L 134.535669 87.9471C 130.403969 92.077 130.403969 98.7728 134.535669 102.9026C 138.668969 107.0339 145.370769 107.0322 149.501969 102.8988L 186.904169 65.4758C 191.031869 61.3458 191.031869 54.6542 186.904169 50.5242L 149.501869 13.1012ZM 42.906869 51.2384L 49.668869 58.0003L 42.906869 64.7623C 41.974369 65.6948 41.974369 67.2067 42.906869 68.1392C 43.839669 69.072 45.352269 69.0716 46.284669 68.1383L 54.725969 59.6884C 55.657569 58.7558 55.657569 57.2449 54.725969 56.3123L 46.284669 47.8623C 45.352269 46.929 43.839669 46.9286 42.906869 47.8615C 41.974369 48.794 41.974369 50.3059 42.906869 51.2384ZM 26.803069 51.2384L 33.565069 58.0003L 26.803069 64.7623C 25.870569 65.6948 25.870569 67.2067 26.803069 68.1392C 27.735969 69.072 29.248469 69.0716 30.180869 68.1383L 38.622269 59.6884C 39.553869 58.7558 39.553869 57.2449 38.622269 56.3123L 30.180869 47.8623C 29.248469 46.929 27.735969 46.9286 26.803069 47.8615C 25.870569 48.794 25.870569 50.3059 26.803069 51.2384ZM 10.699369 51.2381L 17.461269 58.0001L 10.699369 64.7621C 9.766869 65.6946 9.766869 67.2064 10.699369 68.1389C 11.632169 69.0718 13.144769 69.0714 14.077069 68.1381L 22.518469 59.6881C 23.450069 58.7556 23.450069 57.2446 22.518469 56.3121L 14.077069 47.8621C 13.144769 46.9288 11.632169 46.9284 10.699369 47.8612C 9.766869 48.7937 9.766869 50.3056 10.699369 51.2381ZM 71.949869 68.5775C 66.107869 68.5775 61.372069 63.8417 61.372069 57.9997C 61.372069 52.1577 66.107869 47.4219 71.949869 47.4219C 77.791869 47.4219 82.527669 52.1577 82.527669 57.9997C 82.527669 63.8417 77.791869 68.5775 71.949869 68.5775Z"></path></g></g></g><g id="g-root-4.g-4_fr_4j6djm3xeknd-stroke" data-item-order="-763304" transform="translate(697, 351)"><g id="4.g-4_fr_4j6djm3xeknd-stroke" fill="none" stroke-linecap="round" stroke-linejoin="round" stroke-miterlimit="4" stroke="#1ac3fb" stroke-width="2"><g><path d="M 149.5019 13.1012C 145.3708 8.9678 138.669 8.9661 134.5357 13.0974C 130.404 17.2272 130.404 23.923 134.5357 28.0529L 153.914 47.4222L 99.5827 47.4222C 93.738 47.4222 89 52.1581 89 58.0001C 89 63.842 93.738 68.5779 99.5827 68.5779L 153.9139 68.5779L 134.5357 87.9471C 130.404 92.077 130.404 98.7728 134.5357 102.9026C 138.669 107.0339 145.3708 107.0322 149.502 102.8988L 186.9042 65.4758C 191.0319 61.3458 191.0319 54.6542 186.9042 50.5242L 149.5019 13.1012ZM 42.9069 51.2384L 49.6689 58.0003L 42.9069 64.7623C 41.9744 65.6948 41.9744 67.2067 42.9069 68.1392C 43.8397 69.072 45.3523 69.0716 46.2847 68.1383L 54.726 59.6884C 55.6576 58.7558 55.6576 57.2449 54.726 56.3123L 46.2847 47.8623C 45.3523 46.929 43.8397 46.9286 42.9069 47.8615C 41.9744 48.794 41.9744 50.3059 42.9069 51.2384ZM 26.8031 51.2384L 33.5651 58.0003L 26.8031 64.7623C 25.8706 65.6948 25.8706 67.2067 26.8031 68.1392C 27.736 69.072 29.2485 69.0716 30.1809 68.1383L 38.6223 59.6884C 39.5539 58.7558 39.5539 57.2449 38.6223 56.3123L 30.1809 47.8623C 29.2485 46.929 27.736 46.9286 26.8031 47.8615C 25.8706 48.794 25.8706 50.3059 26.8031 51.2384ZM 10.6994 51.2381L 17.4613 58.0001L 10.6994 64.7621C 9.7669 65.6946 9.7669 67.2064 10.6994 68.1389C 11.6322 69.0718 13.1448 69.0714 14.0771 68.1381L 22.5185 59.6881C 23.4501 58.7556 23.4501 57.2446 22.5185 56.3121L 14.0771 47.8621C 13.1448 46.9288 11.6322 46.9284 10.6994 47.8612C 9.7669 48.7937 9.7669 50.3056 10.6994 51.2381ZM 71.9499 68.5775C 66.1079 68.5775 61.3721 63.8417 61.3721 57.9997C 61.3721 52.1577 66.1079 47.4219 71.9499 47.4219C 77.7919 47.4219 82.5277 52.1577 82.5277 57.9997C 82.5277 63.8417 77.7919 68.5775 71.9499 68.5775Z"></path></g></g></g><g id="g-root-5.g-5_1_fr_1q9ge8i3xeivf-stroke" data-item-order="-763300" transform="translate(901, 351)"><g id="5.g-5_1_fr_1q9ge8i3xeivf-stroke" fill="none" stroke-linecap="round" stroke-linejoin="round" stroke-miterlimit="4" stroke="#8769fd" stroke-width="2"><g><path d="M 149.5019 13.1012C 145.3708 8.9678 138.669 8.9661 134.5357 13.0974C 130.404 17.2272 130.404 23.923 134.5357 28.0529L 153.914 47.4222L 99.5827 47.4222C 93.738 47.4222 89 52.1581 89 58.0001C 89 63.842 93.738 68.5779 99.5827 68.5779L 153.9139 68.5779L 134.5357 87.9471C 130.404 92.077 130.404 98.7728 134.5357 102.9026C 138.669 107.0339 145.3708 107.0322 149.502 102.8988L 186.9042 65.4758C 191.0319 61.3458 191.0319 54.6542 186.9042 50.5242L 149.5019 13.1012ZM 42.9069 51.2384L 49.6689 58.0003L 42.9069 64.7623C 41.9744 65.6948 41.9744 67.2067 42.9069 68.1392C 43.8397 69.072 45.3523 69.0716 46.2847 68.1383L 54.726 59.6884C 55.6576 58.7558 55.6576 57.2449 54.726 56.3123L 46.2847 47.8623C 45.3523 46.929 43.8397 46.9286 42.9069 47.8615C 41.9744 48.794 41.9744 50.3059 42.9069 51.2384ZM 26.8031 51.2384L 33.5651 58.0003L 26.8031 64.7623C 25.8706 65.6948 25.8706 67.2067 26.8031 68.1392C 27.736 69.072 29.2485 69.0716 30.1809 68.1383L 38.6223 59.6884C 39.5539 58.7558 39.5539 57.2449 38.6223 56.3123L 30.1809 47.8623C 29.2485 46.929 27.736 46.9286 26.8031 47.8615C 25.8706 48.794 25.8706 50.3059 26.8031 51.2384ZM 10.6994 51.2381L 17.4613 58.0001L 10.6994 64.7621C 9.7669 65.6946 9.7669 67.2064 10.6994 68.1389C 11.6322 69.0718 13.1448 69.0714 14.0771 68.1381L 22.5185 59.6881C 23.4501 58.7556 23.4501 57.2446 22.5185 56.3121L 14.0771 47.8621C 13.1448 46.9288 11.6322 46.9284 10.6994 47.8612C 9.7669 48.7937 9.7669 50.3056 10.6994 51.2381ZM 71.9499 68.5775C 66.1079 68.5775 61.3721 63.8417 61.3721 57.9997C 61.3721 52.1577 66.1079 47.4219 71.9499 47.4219C 77.7919 47.4219 82.5277 52.1577 82.5277 57.9997C 82.5277 63.8417 77.7919 68.5775 71.9499 68.5775Z"></path></g></g></g><g id="g-root-down_de7itu3xlkw9-stroke" data-item-order="0" transform="translate(729, 231)"><g id="down_de7itu3xlkw9-stroke" fill="none" stroke-linecap="round" stroke-linejoin="round" stroke-miterlimit="4" stroke="#1ac3fb" stroke-width="2"><g><path d="M 38.3125 40.022499C 38.311119 41.892387 36.794888 43.407501 34.924999 43.407501L 14.615 43.407501C 12.745516 43.407501 11.23 41.891983 11.23 40.022499L 11.23 14.635C 11.23 12.765516 12.745516 11.25 14.615 11.25L 27.8825 11.25C 28.781178 11.252273 29.642008 11.612077 30.275002 12.25L 37.32 19.2925C 37.958302 19.92626 38.318115 20.788012 38.32 21.6875ZM 34.355 60.162502L 23.105 60.162502C 21.724289 60.162502 20.605 59.043213 20.605 57.662502L 20.605 51.087498M 38.3125 34.945L 32.0975 27.844999C 31.672432 27.355364 31.056797 27.072908 30.408401 27.070034C 29.760006 27.067162 29.14189 27.344151 28.7125 27.83L 21.385 36.080002L 17.3225 32.830002C 16.426889 32.111462 15.133907 32.182575 14.3225 32.994999L 11.23 36.072498M 19.6675 20C 21.048212 20 22.1675 21.119287 22.1675 22.5C 22.1675 23.880713 21.048212 25 19.6675 25C 18.286787 25 17.1675 23.880713 17.1675 22.5C 17.1675 21.119287 18.286787 20 19.6675 20M 29.355 65.162498L 34.355 60.162502L 29.355 55.162502M 57.519997 47.149998C 63.732498 47.149998 68.769997 45.537498 68.769997 43.549999C 68.769997 41.5625 63.732498 39.949997 57.519997 39.949997C 51.307503 39.949997 46.27 41.5625 46.27 43.549999C 46.27 45.537498 51.305 47.149998 57.519997 47.149998ZM 46.27 54.349998L 46.27 43.549999M 68.769997 43.549999L 68.769997 54.349998M 68.769997 54.349998L 68.769997 65.150002C 68.769997 67.150002 63.732498 68.75 57.519997 68.75C 51.307503 68.75 46.27 67.137497 46.27 65.150002L 46.27 54.349998M 68.769997 50.599998C 68.769997 52.600002 63.732498 54.200001 57.519997 54.200001C 51.307503 54.200001 46.27 52.587502 46.27 50.599998M 68.769997 58.099998C 68.769997 60.100002 63.732498 61.700001 57.519997 61.700001C 51.307503 61.700001 46.27 60.087502 46.27 58.099998"></path></g></g></g><g id="g-root-2_4l1ssy3xejns-stroke" data-item-order="0" transform="translate(321, 231)"><g id="2_4l1ssy3xejns-stroke" fill="none" stroke-linecap="round" stroke-linejoin="round" stroke-miterlimit="4" stroke="#43dd93" stroke-width="2"><g><path d="M 30.625 31.875L 11.875 31.875L 11.875 16.875C 11.875 14.125 14.125 11.875 16.875 11.875L 30.625 11.875L 30.625 31.875ZM 10 10M 11.875 21.875L 30.625 21.875M 49.375 11.875L 30.625 11.875L 30.625 31.875L 49.375 31.875L 49.375 11.875ZM 10 10M 30.625 21.875L 49.375 21.875M 68.125 31.875L 49.375 31.875L 49.375 11.875L 63.125 11.875C 65.875 11.875 68.125 14.125 68.125 16.875L 68.125 31.875ZM 10 10M 49.375 21.875L 68.125 21.875M 30.625 68.125L 16.875 68.125C 14.125 68.125 11.875 65.875 11.875 63.125L 11.875 59.375L 30.625 59.375L 30.625 68.125ZM 49.375 59.375L 30.625 59.375L 30.625 68.125L 49.375 68.125L 49.375 59.375ZM 68.125 63.125C 68.125 65.875 65.875 68.125 63.125 68.125L 49.375 68.125L 49.375 59.375L 68.125 59.375L 68.125 63.125ZM 10 10M 17.062525 41.875L 21.562525 38.125L 26.062525 41.875M 10 10M 17.062525 49.375L 21.562525 53.125L 26.062525 49.375M 21.5625 38.125L 21.5625 53.125M 10 10M 53.9375 41.875L 58.4375 38.125L 62.9375 41.875M 10 10M 53.9375 49.375L 58.4375 53.125L 62.9375 49.375M 58.4375 38.125L 58.4375 53.125"></path></g></g></g><g id="g-root-tx_ajusteme_1lza1hu3xk64g-stroke" data-item-order="0" transform="translate(891, 195)"></g><g id="g-root-tx_apprenti_1cu9ngy3xll38-stroke" data-item-order="0" transform="translate(483, 183)"></g><g id="g-root-tx_blocaged_mbpc7m3xekgf-stroke" data-item-order="0" transform="translate(75, 195)"></g><g id="g-root-tx_rentrane_hyem1e3xk6j0-stroke" data-item-order="0" transform="translate(891, 159)"></g><g id="g-root-tx_geldumod_v7ccgi3xejnq-stroke" data-item-order="0" transform="translate(75, 159)"></g><g id="g-root-tx_entranem_1d30aoi3xk4co-stroke" data-item-order="0" transform="translate(483, 123)"></g><g id="g-root-tx_processu_1cxzvv63xekgd-stroke" data-item-order="0" transform="translate(403, 39)"></g><g id="g-root-slac_zp25g23xllhp-stroke" data-item-order="0" transform="translate(117, 507)"><g id="slac_zp25g23xllhp-stroke" fill="none" stroke-linecap="round" stroke-linejoin="round" stroke-miterlimit="4" stroke="#4f91fc" stroke-width="2"><g><path d="M 65.427498 50.395004L 47.067497 50.395004C 45.859207 50.428154 44.728233 49.802479 44.114311 48.761242C 43.500393 47.720001 43.500393 46.427498 44.114311 45.386261C 44.728233 44.345024 45.859207 43.719345 47.067501 43.752502L 65.427498 43.752502C 66.635796 43.719345 67.766769 44.345024 68.380692 45.386261C 68.994606 46.427498 68.994606 47.720001 68.380692 48.761242C 67.766769 49.802479 66.635796 50.428154 65.427498 50.395004ZM 43.764999 32.93L 43.764999 14.57C 43.731846 13.361706 44.357525 12.230733 45.398758 11.616813C 46.439999 11.002892 47.732502 11.002892 48.773739 11.616813C 49.81498 12.230733 50.440655 13.361706 50.407501 14.57L 50.407501 32.93C 50.440655 34.138294 49.81498 35.269268 48.773739 35.883186C 47.732502 36.497108 46.439999 36.497108 45.398758 35.883186C 44.357525 35.269268 43.731846 34.138294 43.764999 32.93ZM 14.5725 29.605L 32.932503 29.605C 34.140793 29.571846 35.271767 30.197523 35.885689 31.238762C 36.499607 32.279999 36.499607 33.572502 35.885689 34.613739C 35.271767 35.65498 34.140793 36.280655 32.932503 36.247501L 14.5725 36.247498C 13.364205 36.280655 12.233233 35.65498 11.619312 34.613739C 11.005392 33.572502 11.005392 32.279999 11.619312 31.238762C 12.233233 30.197523 13.364205 29.571846 14.5725 29.605ZM 32.912498 43.75C 34.747467 43.75 36.235001 45.237534 36.235001 47.072502L 36.235001 65.432503C 36.268154 66.640793 35.642479 67.771767 34.601242 68.385689C 33.560001 68.999611 32.267498 68.999611 31.226261 68.385689C 30.185022 67.771767 29.559347 66.640793 29.592499 65.432503L 29.592499 47.07C 29.592499 45.236412 31.078913 43.75 32.912498 43.75ZM 19.959999 48.047501C 19.959999 50.485836 17.983337 52.462502 15.545 52.462502C 13.172937 52.462502 11.25 50.539566 11.25 48.167503C 11.248619 45.728184 13.225686 43.75 15.665 43.75L 19.3675 43.75C 19.694729 43.750004 19.960001 44.015274 19.960001 44.342503ZM 36.25 15.6625C 36.248623 13.22709 34.275406 11.252758 31.84 11.25C 29.468914 11.25 27.546381 13.171413 27.545002 15.5425C 27.545 17.980837 29.521662 19.9575 31.959999 19.9575L 35.662502 19.9575C 35.989731 19.9575 36.255001 19.692228 36.255001 19.365002ZM 43.75 64.337502C 43.751377 66.772911 45.72459 68.747238 48.16 68.75C 50.532066 68.750008 52.455002 66.827072 52.455002 64.455002C 52.455002 62.016663 50.478333 60.039997 48.040001 60.039997L 44.337498 60.040001C 44.010273 60.040001 43.745003 60.305275 43.745003 60.6325ZM 60.040001 31.952499C 60.039997 29.514162 62.016663 27.5375 64.455002 27.5375C 66.827072 27.5375 68.750008 29.460438 68.750008 31.832502C 68.751381 34.271812 66.774307 36.25 64.334999 36.25L 60.6325 36.25C 60.305275 36.250004 60.040001 35.98473 60.040001 35.657501Z"></path></g></g></g><g id="g-root-tx_ajoutdec_1ulk6xe3xk5cb-stroke" data-item-order="0" transform="translate(279, 507)"></g><g id="g-root-inti_qnt4wi3xk6x9-stroke" data-item-order="0" transform="translate(525, 507)"><g id="inti_qnt4wi3xk6x9-stroke" fill="none" stroke-linecap="round" stroke-linejoin="round" stroke-miterlimit="4" stroke="#a6da37" stroke-width="2"><g><path d="M 11.25 11.25L 68.75 11.25L 68.75 68.75L 11.25 68.75ZM 17.5 17.5L 62.5 17.5L 62.5 62.5L 17.5 62.5ZM 50 23.75L 56.25 23.75L 56.25 30L 50 30ZM 50 36.25L 56.25 36.25L 56.25 56.25L 50 56.25ZM 30 50L 30 30L 43.75 30L 43.75 23.75L 23.75 23.75L 23.75 56.25L 43.75 56.25L 43.75 50L 30 50Z"></path></g></g></g><g id="g-root-tx_phasedef_qwjv9u3xac5p-stroke" data-item-order="0" transform="translate(687, 507)"></g><g id="g-root-cent_1lqjqxe3xboy7-stroke" data-item-order="0" transform="translate(933, 507)"><g id="cent_1lqjqxe3xboy7-stroke" fill="none" stroke-linecap="round" stroke-linejoin="round" stroke-miterlimit="4" stroke="#8769fd" stroke-width="2"><g><path d="M 67.85714 29.285713L 67.85714 55C 67.85714 55 67.85714 59.285713 63.571426 59.285713L 55 59.285713C 55 59.285713 50.714283 59.285713 50.714283 55L 50.714283 29.285713C 50.714283 29.285713 50.714283 25 55 25L 63.571426 25C 63.571426 25 67.85714 25 67.85714 29.285713M 29.285713 20.714285L 29.285713 59.285713C 29.285713 59.285713 29.285713 63.571426 25 63.571426L 16.428572 63.571426C 16.428572 63.571426 12.142857 63.571426 12.142857 59.285713L 12.142857 20.714285C 12.142857 20.714285 12.142857 16.428572 16.428572 16.428572L 25 16.428572C 25 16.428572 29.285713 16.428572 29.285713 20.714285M 50.714283 40L 29.285713 40"></path></g></g></g><g id="g-root-tx_remplace_1cuwniq3xk4jo-stroke" data-item-order="0" transform="translate(279, 591)"></g><g id="g-root-tx_libratio_8vwqhe3xbpxi-stroke" data-item-order="0" transform="translate(687, 567)"></g></g></g></svg>