<?xml version="1.0" encoding="utf-8" standalone="yes"?>
<!DOCTYPE svg PUBLIC "-//W3C//DTD SVG 1.1//EN" "http://www.w3.org/Graphics/SVG/1.1/DTD/svg11.dtd">
<svg width="1054" height="342" viewBox="0 0 1054 342" style="fill:none;stroke:none;fill-rule:evenodd;clip-rule:evenodd;stroke-linecap:round;stroke-linejoin:round;stroke-miterlimit:1.5;" version="1.1" xmlns="http://www.w3.org/2000/svg" xmlns:xlink="http://www.w3.org/1999/xlink"><style id="fontImports">@import url("https://fonts.googleapis.com/css2?family=Roboto:wght@400;700&amp;display=block");</style><g id="items" style="isolation: isolate"><g id="blend" style="mix-blend-mode: normal"><g id="g-root-ro_1heg1k03x7itj-fill" data-item-order="-12960" transform="translate(839, 123)"><g id="ro_1heg1k03x7itj-fill" stroke="none" fill="#344e57"><g><path d="M 22 10L 178 10C 178 10 190 10 190 22L 190 70C 190 70 190 82 178 82L 22 82C 22 82 10 82 10 70L 10 22C 10 22 10 10 22 10"></path></g></g></g><g id="g-root-ro_hz0e003xekga-fill" data-item-order="-12096" transform="translate(615, 183)"><g id="ro_hz0e003xekga-fill" stroke="none" fill="#344e57"><g><path d="M 22 10L 166 10C 166 10 178 10 178 22L 178 70C 178 70 178 82 166 82L 22 82C 22 82 10 82 10 70L 10 22C 10 22 10 10 22 10"></path></g></g></g><g id="g-root-ro_18gxiw03xirr6-fill" data-item-order="-11232" transform="translate(15, 146)"><g id="ro_18gxiw03xirr6-fill" stroke="none" fill="#545454"><g><path d="M 22 10L 154 10C 154 10 166 10 166 22L 166 70C 166 70 166 82 154 82L 22 82C 22 82 10 82 10 70L 10 22C 10 22 10 10 22 10"></path></g></g></g><g id="g-root-ro_hvvxeo3xk7b8-fill" data-item-order="-11232" transform="translate(227, 146)"><g id="ro_hvvxeo3xk7b8-fill" stroke="none" fill="#344e57"><g><path d="M 22 10L 154 10C 154 10 166 10 166 22L 166 70C 166 70 166 82 154 82L 22 82C 22 82 10 82 10 70L 10 22C 10 22 10 10 22 10"></path></g></g></g><g id="g-root-ro_1cy02cg3xbrpp-fill" data-item-order="-6480" transform="translate(439, 229)"><g id="ro_1cy02cg3xbrpp-fill" stroke="none" fill="#344e57"><g><path d="M 22 10L 118 10C 118 10 130 10 130 22L 130 52C 130 52 130 64 118 64L 22 64C 22 64 10 64 10 52L 10 22C 10 22 10 10 22 10"></path></g></g></g><g id="g-root-ro_1ur5i3k3xaayq-fill" data-item-order="-6480" transform="translate(439, 155)"><g id="ro_1ur5i3k3xaayq-fill" stroke="none" fill="#344e57"><g><path d="M 22 10L 118 10C 118 10 130 10 130 22L 130 52C 130 52 130 64 118 64L 22 64C 22 64 10 64 10 52L 10 22C 10 22 10 10 22 10"></path></g></g></g><g id="g-root-tx_processu_18gb4yo3xfz7r-fill" data-item-order="0" transform="translate(301, 39)"><g id="tx_processu_18gb4yo3xfz7r-fill" stroke="none" fill="#ababab"><g><text style="font: 25px Roboto, sans-serif; white-space: pre;" font-size="25px" font-family="Roboto, sans-serif"><tspan x="16.69" y="42.33" dominant-baseline="ideographic">Architecture des réseaux de neurones</tspan></text></g></g></g><g id="g-root-cu_1q7l5gg3xfwu9-fill" data-item-order="2" transform="translate(559, 219)"></g><g id="g-root-cu_1cw4n343xfyff-fill" data-item-order="2" transform="translate(383, 123)"></g><g id="g-root-cu_1q7l5gg3xfwuc-fill" data-item-order="2" transform="translate(559, 182)"></g><g id="g-root-cu_1lrrnc03xfxmp-fill" data-item-order="2" transform="translate(383, 182)"></g><g id="g-root-cu_1hby57k3xfxn2-fill" data-item-order="2" transform="translate(383, 182)"></g><g id="g-root-cu_1cw4n343xfyfg-fill" data-item-order="2" transform="translate(171, 182)"></g><g id="g-root-cu_1ums6hs3xfz7q-fill" data-item-order="2" transform="translate(783, 159)"></g><g id="g-root-kg_90vheo3xacqp-fill" data-item-order="1000000000" transform="translate(451, 167)"></g><g id="g-root-tx_couchesd_mb31ls3x7hfp-fill" data-item-order="1000000000" transform="translate(887, 135)"><g id="tx_couchesd_mb31ls3x7hfp-fill" stroke="none" fill="#1ac3fb"><g><text style="font: 20px Roboto, sans-serif; white-space: pre;" font-size="20px" font-family="Roboto, sans-serif"><tspan x="12" y="34" dominant-baseline="ideographic">Couches de </tspan><tspan x="12" y="58" dominant-baseline="ideographic">sortie</tspan></text></g></g></g><g id="g-root-tx_poids_mcbzs03xab5s-fill" data-item-order="1000000000" transform="translate(487, 170)"><g id="tx_poids_mcbzs03xab5s-fill" stroke="none" fill="#1ac3fb"><g><text style="font: 20px Roboto, sans-serif; white-space: pre;" font-size="20px" font-family="Roboto, sans-serif"><tspan x="12" y="34" dominant-baseline="ideographic">Poids</tspan></text></g></g></g><g id="g-root-tx_couchesc_1ltmzfk3xk5qa-fill" data-item-order="1000000000" transform="translate(275, 158)"><g id="tx_couchesc_1ltmzfk3xk5qa-fill" stroke="none" fill="#1ac3fb"><g><text style="font: 20px Roboto, sans-serif; white-space: pre;" font-size="20px" font-family="Roboto, sans-serif"><tspan x="12" y="34" dominant-baseline="ideographic">Couches </tspan><tspan x="12" y="58" dominant-baseline="ideographic">cachées</tspan></text></g></g></g><g id="g-root-decr_1upwjxc3x7h8m-fill" data-item-order="1000000000" transform="translate(851, 144)"></g><g id="g-root-math_qune8w3xejnl-fill" data-item-order="1000000000" transform="translate(627, 204)"></g><g id="g-root-tx_fonction_1463wm83xei2o-fill" data-item-order="1000000000" transform="translate(663, 195)"><g id="tx_fonction_1463wm83xei2o-fill" stroke="none" fill="#1ac3fb"><g><text style="font: 20px Roboto, sans-serif; white-space: pre;" font-size="20px" font-family="Roboto, sans-serif"><tspan x="12" y="34" dominant-baseline="ideographic">Fonctions </tspan><tspan x="12" y="58" dominant-baseline="ideographic">d'activation</tspan></text></g></g></g><g id="g-root-brai_v7cfs03xk5qb-fill" data-item-order="1000000000" transform="translate(239, 167)"></g><g id="g-root-exch_1lse19c3xiq69-fill" data-item-order="1000000000" transform="translate(27, 167)"></g><g id="g-root-slid_1q9gkps3xbq4s-fill" data-item-order="1000000000" transform="translate(451, 241)"></g><g id="g-root-tx_biais_detk9s3xbr43-fill" data-item-order="1000000000" transform="translate(487, 244)"><g id="tx_biais_detk9s3xbr43-fill" stroke="none" fill="#1ac3fb"><g><text style="font: 20px Roboto, sans-serif; white-space: pre;" font-size="20px" font-family="Roboto, sans-serif"><tspan x="12" y="34" dominant-baseline="ideographic">Biais</tspan></text></g></g></g><g id="g-root-tx_couchesd_240kg3xiry8-fill" data-item-order="1000000000" transform="translate(63, 158)"><g id="tx_couchesd_240kg3xiry8-fill" stroke="none" fill="#f4f4f4"><g><text style="font: 20px Roboto, sans-serif; white-space: pre;" font-size="20px" font-family="Roboto, sans-serif"><tspan x="12" y="34" dominant-baseline="ideographic">Couches </tspan><tspan x="12" y="58" dominant-baseline="ideographic">d'entrée</tspan></text></g></g></g><g id="g-root-ro_1heg1k03x7itj-stroke" data-item-order="-12960" transform="translate(839, 123)"><g id="ro_1heg1k03x7itj-stroke" fill="none" stroke-linecap="round" stroke-linejoin="round" stroke-miterlimit="4" stroke="#1ac3fb" stroke-width="2"><g><path d="M 22 10L 178 10C 178 10 190 10 190 22L 190 70C 190 70 190 82 178 82L 22 82C 22 82 10 82 10 70L 10 22C 10 22 10 10 22 10"></path></g></g></g><g id="g-root-ro_hz0e003xekga-stroke" data-item-order="-12096" transform="translate(615, 183)"><g id="ro_hz0e003xekga-stroke" fill="none" stroke-linecap="round" stroke-linejoin="round" stroke-miterlimit="4" stroke="#1ac3fb" stroke-width="2"><g><path d="M 22 10L 166 10C 166 10 178 10 178 22L 178 70C 178 70 178 82 166 82L 22 82C 22 82 10 82 10 70L 10 22C 10 22 10 10 22 10"></path></g></g></g><g id="g-root-ro_18gxiw03xirr6-stroke" data-item-order="-11232" transform="translate(15, 146)"><g id="ro_18gxiw03xirr6-stroke" fill="none" stroke-linecap="round" stroke-linejoin="round" stroke-miterlimit="4" stroke="#f4f4f4" stroke-width="2"><g><path d="M 22 10L 154 10C 154 10 166 10 166 22L 166 70C 166 70 166 82 154 82L 22 82C 22 82 10 82 10 70L 10 22C 10 22 10 10 22 10"></path></g></g></g><g id="g-root-ro_hvvxeo3xk7b8-stroke" data-item-order="-11232" transform="translate(227, 146)"><g id="ro_hvvxeo3xk7b8-stroke" fill="none" stroke-linecap="round" stroke-linejoin="round" stroke-miterlimit="4" stroke="#1ac3fb" stroke-width="2"><g><path d="M 22 10L 154 10C 154 10 166 10 166 22L 166 70C 166 70 166 82 154 82L 22 82C 22 82 10 82 10 70L 10 22C 10 22 10 10 22 10"></path></g></g></g><g id="g-root-ro_1cy02cg3xbrpp-stroke" data-item-order="-6480" transform="translate(439, 229)"><g id="ro_1cy02cg3xbrpp-stroke" fill="none" stroke-linecap="round" stroke-linejoin="round" stroke-miterlimit="4" stroke="#1ac3fb" stroke-width="2"><g><path d="M 22 10L 118 10C 118 10 130 10 130 22L 130 52C 130 52 130 64 118 64L 22 64C 22 64 10 64 10 52L 10 22C 10 22 10 10 22 10"></path></g></g></g><g id="g-root-ro_1ur5i3k3xaayq-stroke" data-item-order="-6480" transform="translate(439, 155)"><g id="ro_1ur5i3k3xaayq-stroke" fill="none" stroke-linecap="round" stroke-linejoin="round" stroke-miterlimit="4" stroke="#1ac3fb" stroke-width="2"><g><path d="M 22 10L 118 10C 118 10 130 10 130 22L 130 52C 130 52 130 64 118 64L 22 64C 22 64 10 64 10 52L 10 22C 10 22 10 10 22 10"></path></g></g></g><g id="g-root-tx_processu_18gb4yo3xfz7r-stroke" data-item-order="0" transform="translate(301, 39)"></g><g id="g-root-cu_1q7l5gg3xfwu9-stroke" data-item-order="2" transform="translate(559, 219)"><g id="cu_1q7l5gg3xfwu9-stroke" fill="none" stroke-linecap="round" stroke-linejoin="round" stroke-miterlimit="4" stroke="#f4f4f4" stroke-width="2"><g><path d="M 10 47L 24 47L 38 47L 38 28.5L 38 10L 52 10L 64 10"></path><path d="M 58 16.5L 64.5 10L 58 3.5" stroke-dasharray="none"></path></g></g></g><g id="g-root-cu_1cw4n343xfyff-stroke" data-item-order="2" transform="translate(383, 123)"><g id="cu_1cw4n343xfyff-stroke" fill="none" stroke-linecap="round" stroke-linejoin="round" stroke-miterlimit="4" stroke="#f4f4f4" stroke-width="2"><g><path d="M 10 69L 24 69L 38 69L 38 39.5L 38 10L 238 10L 438 10L 438 28L 438 46L 452 46L 464 46"></path><path d="M 458 52.5L 464.5 46L 458 39.5" stroke-dasharray="none"></path></g></g></g><g id="g-root-cu_1q7l5gg3xfwuc-stroke" data-item-order="2" transform="translate(559, 182)"><g id="cu_1q7l5gg3xfwuc-stroke" fill="none" stroke-linecap="round" stroke-linejoin="round" stroke-miterlimit="4" stroke="#f4f4f4" stroke-width="2"><g><path d="M 10 10L 24 10L 38 10L 38 28.5L 38 47L 52 47L 64 47"></path><path d="M 58 53.5L 64.5 47L 58 40.5" stroke-dasharray="none"></path></g></g></g><g id="g-root-cu_1lrrnc03xfxmp-stroke" data-item-order="2" transform="translate(383, 182)"><g id="cu_1lrrnc03xfxmp-stroke" fill="none" stroke-linecap="round" stroke-linejoin="round" stroke-miterlimit="4" stroke="#f4f4f4" stroke-width="2"><g><path d="M 10 10L 38 10L 64 10"></path><path d="M 58 16.5L 64.5 10L 58 3.5" stroke-dasharray="none"></path></g></g></g><g id="g-root-cu_1hby57k3xfxn2-stroke" data-item-order="2" transform="translate(383, 182)"><g id="cu_1hby57k3xfxn2-stroke" fill="none" stroke-linecap="round" stroke-linejoin="round" stroke-miterlimit="4" stroke="#f4f4f4" stroke-width="2"><g><path d="M 10 10L 24 10L 38 10L 38 47L 38 84L 52 84L 64 84"></path><path d="M 58 90.5L 64.5 84L 58 77.5" stroke-dasharray="none"></path></g></g></g><g id="g-root-cu_1cw4n343xfyfg-stroke" data-item-order="2" transform="translate(171, 182)"><g id="cu_1cw4n343xfyfg-stroke" fill="none" stroke-linecap="round" stroke-linejoin="round" stroke-miterlimit="4" stroke="#f4f4f4" stroke-width="2"><g><path d="M 10 10L 38 10L 64 10"></path><path d="M 58 16.5L 64.5 10L 58 3.5" stroke-dasharray="none"></path></g></g></g><g id="g-root-cu_1ums6hs3xfz7q-stroke" data-item-order="2" transform="translate(783, 159)"><g id="cu_1ums6hs3xfz7q-stroke" fill="none" stroke-linecap="round" stroke-linejoin="round" stroke-miterlimit="4" stroke="#f4f4f4" stroke-width="2"><g><path d="M 10 70L 24 70L 38 70L 38 40L 38 10L 52 10L 64 10"></path><path d="M 58 16.5L 64.5 10L 58 3.5" stroke-dasharray="none"></path></g></g></g><g id="g-root-kg_90vheo3xacqp-stroke" data-item-order="1000000000" transform="translate(451, 167)"><g id="kg_90vheo3xacqp-stroke" fill="none" stroke-linecap="round" stroke-linejoin="round" stroke-miterlimit="4" stroke="#1ac3fb" stroke-width="2"><g><path d="M 21.25 14.375C 21.25 16.446068 22.928932 18.125 25 18.125C 27.071068 18.125 28.75 16.446068 28.75 14.375C 28.75 12.303932 27.071068 10.625 25 10.625C 22.928932 10.625 21.25 12.303932 21.25 14.375ZM 39.375 35.625L 39.375 38.125C 39.375 38.815353 38.815353 39.375 38.125 39.375L 11.875 39.375C 11.184644 39.375 10.625 38.815353 10.625 38.125L 10.625 35.625L 14.8375 20.875C 15.303861 19.246849 16.792624 18.124794 18.48625 18.125L 31.51125 18.125C 33.204876 18.124794 34.693638 19.246849 35.159996 20.875ZM 24.375 24.375L 19.375 29.375L 24.375 34.375M 19.375 34.375L 19.375 24.375M 31.875 26.875C 31.875 25.494287 30.755713 24.375 29.375 24.375C 27.994287 24.375 26.875 25.494287 26.875 26.875L 26.875 31.875C 26.875 33.255714 27.994287 34.375 29.375 34.375C 30.755713 34.375 31.875 33.255714 31.875 31.875L 31.875 30.625L 30 30.625"></path></g></g></g><g id="g-root-tx_couchesd_mb31ls3x7hfp-stroke" data-item-order="1000000000" transform="translate(887, 135)"></g><g id="g-root-tx_poids_mcbzs03xab5s-stroke" data-item-order="1000000000" transform="translate(487, 170)"></g><g id="g-root-tx_couchesc_1ltmzfk3xk5qa-stroke" data-item-order="1000000000" transform="translate(275, 158)"></g><g id="g-root-decr_1upwjxc3x7h8m-stroke" data-item-order="1000000000" transform="translate(851, 144)"><g id="decr_1upwjxc3x7h8m-stroke" fill="none" stroke-linecap="round" stroke-linejoin="round" stroke-miterlimit="4" stroke="#1ac3fb" stroke-width="2"><g><path d="M 39.375 16.875L 39.375 23.125L 33.125 23.125M 39.375 23.125L 33.220001 15.851251C 32.810009 15.366026 32.101284 15.265471 31.572498 15.6175L 29.703749 16.8675C 29.164261 17.227596 28.438972 17.115219 28.033751 16.608749L 23.75 11.25M 13.125 15C 13.125 17.416246 15.083755 19.375 17.5 19.375C 19.916246 19.375 21.875 17.416246 21.875 15C 21.875 12.583755 19.916246 10.625 17.5 10.625C 15.083755 10.625 13.125 12.583755 13.125 15ZM 13.18375 15.721251C 14.843136 15.702597 16.414791 14.97298 17.5 13.7175C 18.585512 14.971394 20.156609 15.699595 21.814999 15.7175M 20.27125 22.143749L 17.5 26.5075L 14.752501 22.126251M 17.5 21.25C 19.700417 21.247814 21.614273 22.757175 22.125 24.897501L 24.375 33.125L 20.678751 33.125L 19.36125 39.375L 15.61125 39.375L 14.29375 33.125L 10.625 33.125L 12.88125 24.897501C 13.391436 22.759447 15.301919 21.250708 17.5 21.25Z"></path></g></g></g><g id="g-root-math_qune8w3xejnl-stroke" data-item-order="1000000000" transform="translate(627, 204)"><g id="math_qune8w3xejnl-stroke" fill="none" stroke-linecap="round" stroke-linejoin="round" stroke-miterlimit="4" stroke="#1ac3fb" stroke-width="2"><g><path d="M 10.937424 37.562374L 11.437412 37.562374C 14.062412 37.562374 16.312401 35.6875 16.812401 33.0625L 20.062412 16.937412C 20.562412 14.312412 22.812374 12.437437 25.437376 12.437437L 25.937374 12.437437M 26.437376 37.5625C 25.062374 36.1875 24.187376 33.6875 24.187376 30.6875C 24.187376 27.6875 25.062374 25.1875 26.437376 23.8125M 36.8125 37.5625C 38.1875 36.1875 39.0625 33.6875 39.0625 30.6875C 39.0625 27.6875 38.1875 25.1875 36.8125 23.8125M 10 10M 28.6875 25.93725L 34.4375 35.312248M 10 10M 34.4375 25.93725L 28.6875 35.312248M 14.812387 22.437437L 22.562374 22.437437"></path></g></g></g><g id="g-root-tx_fonction_1463wm83xei2o-stroke" data-item-order="1000000000" transform="translate(663, 195)"></g><g id="g-root-brai_v7cfs03xk5qb-stroke" data-item-order="1000000000" transform="translate(239, 167)"><g id="brai_v7cfs03xk5qb-stroke" fill="none" stroke-linecap="round" stroke-linejoin="round" stroke-miterlimit="4" stroke="#1ac3fb" stroke-width="2"><g><path d="M 39.478752 25C 39.475586 26.961422 37.956718 28.586712 36 28.7225C 37.142189 30.189625 37.300915 32.196011 36.40361 33.824478C 35.50631 35.452942 33.725403 36.390575 31.875 36.208752C 32.151989 37.139313 31.865149 38.146091 31.139307 38.790939C 30.413467 39.435783 29.379913 39.602062 28.488447 39.217407C 27.596981 38.832748 27.008846 37.966736 26.98 36.99625C 25.818159 37.66853 24.385592 37.66853 23.223751 36.99625C 23.193115 37.965523 22.604702 38.829636 21.714069 39.213299C 20.823437 39.596962 19.791271 39.430954 19.065859 38.787369C 18.340445 38.143784 18.052662 37.138744 18.327499 36.208748C 16.477098 36.390575 14.696191 35.452942 13.798889 33.824478C 12.901588 32.196011 13.060311 30.189625 14.2025 28.7225C 12.245504 28.58824 10.726631 26.961596 10.726631 25C 10.726631 23.038404 12.245504 21.411758 14.2025 21.2775C 13.060311 19.810375 12.901588 17.803989 13.798889 16.175524C 14.696191 14.547057 16.477098 13.609426 18.327499 13.79125C 18.052662 12.861256 18.340445 11.856216 19.065859 11.212632C 19.791271 10.569049 20.823437 10.403038 21.714069 10.786701C 22.604702 11.170364 23.193115 12.034478 23.223751 13.00375C 24.385592 12.331469 25.818159 12.331469 26.980001 13.00375C 27.008846 12.033265 27.596981 11.167251 28.488447 10.782595C 29.379913 10.397939 30.413467 10.564215 31.139307 11.209061C 31.865149 11.853908 32.151989 12.860686 31.875 13.79125C 33.725403 13.609426 35.50631 14.547057 36.40361 16.175524C 37.300915 17.803989 37.142189 19.810375 36 21.2775C 37.956718 21.413288 39.475586 23.038578 39.478752 25ZM 25.10375 30.625L 25.10375 31.875M 25.10375 26.875L 25.10375 28.125M 29.001251 26.875L 29.001251 28.125M 25.10375 19.375L 25.10375 20.625M 25.10375 15.625L 25.10375 16.875M 25.10375 34.375L 25.10375 35.625M 18.85375 17.5C 18.85375 18.535534 19.693216 19.375 20.72875 19.375C 21.764284 19.375 22.60375 18.535534 22.60375 17.5C 22.60375 16.464466 21.764284 15.625 20.72875 15.625C 19.693216 15.625 18.85375 16.464466 18.85375 17.5ZM 28.22875 20.625C 28.22875 21.660534 29.068218 22.5 30.10375 22.5C 31.139286 22.5 31.97875 21.660534 31.97875 20.625C 31.97875 19.589466 31.139286 18.75 30.10375 18.75C 29.068218 18.75 28.22875 19.589466 28.22875 20.625ZM 16.97875 31.25C 16.97875 32.285534 17.818216 33.125 18.85375 33.125C 19.889284 33.125 20.72875 32.285534 20.72875 31.25C 20.72875 30.214466 19.889284 29.375002 18.85375 29.375002C 17.818216 29.375002 16.97875 30.214466 16.97875 31.25ZM 27.60375 31.875C 27.60375 32.910534 28.443216 33.75 29.47875 33.75C 30.514286 33.75 31.35375 32.910534 31.35375 31.875C 31.35375 30.839466 30.514286 30 29.47875 30C 28.443216 30 27.60375 30.839466 27.60375 31.875ZM 30.72875 26.25C 30.72875 27.285534 31.568218 28.125 32.603752 28.125C 33.639286 28.125 34.478752 27.285534 34.478752 26.25C 34.478752 25.214466 33.639286 24.375 32.603752 24.375C 31.568218 24.375 30.72875 25.214466 30.72875 26.25ZM 31.98 20.625C 32.670357 20.625 33.23 20.065357 33.23 19.375L 33.23 17.5M 13.85375 25.625L 15.72875 25.625C 16.419106 25.625 16.97875 25.065357 16.97875 24.375L 16.97875 23.125C 16.97875 22.434643 17.538395 21.875 18.22875 21.875L 19.47875 21.875C 20.169106 21.875 20.72875 21.315357 20.72875 20.625L 20.72875 19.375M 20.72875 31.25C 21.419106 31.25 21.97875 31.809645 21.97875 32.5L 21.97875 35M 31.35375 31.875L 33.853752 31.875"></path></g></g></g><g id="g-root-exch_1lse19c3xiq69-stroke" data-item-order="1000000000" transform="translate(27, 167)"><g id="exch_1lse19c3xiq69-stroke" fill="none" stroke-linecap="round" stroke-linejoin="round" stroke-miterlimit="4" stroke="#f4f4f4" stroke-width="2"><g><path d="M 15.625 20L 15.625 17.1875C 15.624667 15.943545 16.118937 14.7505 16.998896 13.871243C 17.878857 12.991987 19.072296 12.498672 20.31625 12.5L 22.5 12.5M 18.12875 17.5L 15.62875 20L 13.12875 17.5M 20.62875 10.625L 22.50375 12.5L 20.62875 14.375M 16.25 35.3125C 16.077412 35.3125 15.9375 35.452412 15.9375 35.625C 15.9375 35.797588 16.077412 35.9375 16.25 35.9375C 16.422588 35.9375 16.5625 35.797588 16.5625 35.625C 16.5625 35.452412 16.422588 35.3125 16.25 35.3125L 16.25 35.3125M 21.875 38.125C 21.875 38.815353 21.315357 39.375 20.625 39.375L 11.875 39.375C 11.184644 39.375 10.625 38.815353 10.625 38.125L 10.625 24.375C 10.625 23.684643 11.184644 23.125 11.875 23.125L 20.625 23.125C 21.315357 23.125 21.875 23.684643 21.875 24.375ZM 39.375 13.125C 39.375 14.505712 38.255714 15.625 36.875 15.625L 30.625 15.625C 29.244287 15.625 28.125 14.505712 28.125 13.125C 28.125 11.744288 29.244287 10.625 30.625 10.625L 36.875 10.625C 38.255714 10.625 39.375 11.744288 39.375 13.125ZM 31.5625 12.8125C 31.389912 12.8125 31.25 12.952411 31.25 13.125C 31.25 13.297589 31.389912 13.4375 31.5625 13.4375C 31.735088 13.4375 31.875 13.297589 31.875 13.125C 31.875 12.952411 31.735088 12.8125 31.5625 12.8125L 31.5625 12.8125M 39.375 18.125C 39.375 19.505713 38.255714 20.625 36.875 20.625L 30.625 20.625C 29.244287 20.625 28.125 19.505713 28.125 18.125C 28.125 16.744287 29.244287 15.625 30.625 15.625L 36.875 15.625C 38.255714 15.625 39.375 16.744287 39.375 18.125ZM 31.5625 17.8125C 31.389912 17.8125 31.25 17.952412 31.25 18.125C 31.25 18.297588 31.389912 18.4375 31.5625 18.4375C 31.735088 18.4375 31.875 18.297588 31.875 18.125C 31.875 17.952412 31.735088 17.8125 31.5625 17.8125L 31.5625 17.8125M 39.375 23.125C 39.375 24.505713 38.255714 25.625 36.875 25.625L 30.625 25.625C 29.244287 25.625 28.125 24.505713 28.125 23.125C 28.125 21.744287 29.244287 20.625 30.625 20.625L 36.875 20.625C 38.255714 20.625 39.375 21.744287 39.375 23.125ZM 31.5625 22.8125C 31.389912 22.8125 31.25 22.952412 31.25 23.125C 31.25 23.297588 31.389912 23.4375 31.5625 23.4375C 31.735088 23.4375 31.875 23.297588 31.875 23.125C 31.875 22.952412 31.735088 22.8125 31.5625 22.8125L 31.5625 22.8125"></path></g></g></g><g id="g-root-slid_1q9gkps3xbq4s-stroke" data-item-order="1000000000" transform="translate(451, 241)"><g id="slid_1q9gkps3xbq4s-stroke" fill="none" stroke-linecap="round" stroke-linejoin="round" stroke-miterlimit="4" stroke="#1ac3fb" stroke-width="2"><g><path d="M 11.875 10.62625L 38.125 10.62625C 38.125 10.62625 39.375 10.62625 39.375 11.87625L 39.375 38.126251C 39.375 38.126251 39.375 39.376251 38.125 39.376251L 11.875 39.376251C 11.875 39.376251 10.625 39.376251 10.625 38.126251L 10.625 11.87625C 10.625 11.87625 10.625 10.62625 11.875 10.62625M 17.5 18.126249C 17.5 20.197317 19.178932 21.876251 21.25 21.876251C 23.321068 21.876251 25 20.197317 25 18.126251C 25 16.055182 23.321068 14.37625 21.25 14.37625C 19.178932 14.37625 17.5 16.055182 17.5 18.126251M 25.625 31.876249C 25.625 33.947319 27.303932 35.626251 29.375 35.626251C 31.446068 35.626251 33.125 33.947319 33.125 31.876251C 33.125 29.805183 31.446068 28.126251 29.375 28.126251C 27.303932 28.126251 25.625 29.805183 25.625 31.876251M 25.625 31.876249L 14.375 31.876249M 35.625 31.876249L 33.125 31.876249M 25 18.126249L 35.625 18.126249M 14.375 18.126249L 17.5 18.126249M 21.25 17.813749C 21.422588 17.813749 21.5625 17.953661 21.5625 18.126249C 21.5625 18.29884 21.422588 18.438749 21.25 18.438749C 21.077412 18.438749 20.9375 18.29884 20.9375 18.126249C 20.9375 17.953661 21.077412 17.813749 21.25 17.813749M 29.375 31.563749C 29.547588 31.563749 29.6875 31.703661 29.6875 31.876249C 29.6875 32.04884 29.547588 32.188751 29.375 32.188751C 29.202412 32.188751 29.0625 32.04884 29.0625 31.876249C 29.0625 31.703661 29.202412 31.563749 29.375 31.563749"></path></g></g></g><g id="g-root-tx_biais_detk9s3xbr43-stroke" data-item-order="1000000000" transform="translate(487, 244)"></g><g id="g-root-tx_couchesd_240kg3xiry8-stroke" data-item-order="1000000000" transform="translate(63, 158)"></g></g></g></svg>