<?xml version="1.0" encoding="utf-8" standalone="yes"?>
<!DOCTYPE svg PUBLIC "-//W3C//DTD SVG 1.1//EN" "http://www.w3.org/Graphics/SVG/1.1/DTD/svg11.dtd">
<svg width="854" height="554" viewBox="0 0 854 554" style="fill:none;stroke:none;fill-rule:evenodd;clip-rule:evenodd;stroke-linecap:round;stroke-linejoin:round;stroke-miterlimit:1.5;" version="1.1" xmlns="http://www.w3.org/2000/svg" xmlns:xlink="http://www.w3.org/1999/xlink"><style id="fontImports">@import url("https://fonts.googleapis.com/css2?family=Roboto:wght@400;700&amp;display=block");</style><g id="items" style="isolation: isolate"><g id="blend" style="mix-blend-mode: normal"><g id="g-root--1.cu_sy_v2zgnm1prkzw-fill" data-item-order="-120954" transform="translate(254, 197.99609375)"></g><g id="g-root-0.line-start_sy_qn5yj61prls5-fill" data-item-order="-120949" transform="translate(213, 299.99609375)"></g><g id="g-root-5.line_sy_hriyaa1prmku-fill" data-item-order="-120943" transform="translate(323.5, 299.99609375)"></g><g id="g-root-4.line_sy_dbpg5u1prnd3-fill" data-item-order="-120937" transform="translate(323.5, 299.99609375)"></g><g id="g-root-3.line_sy_8wif4i1prkzk-fill" data-item-order="-120931" transform="translate(324, 299.99609375)"></g><g id="g-root-2.line_sy_vevm1prls9-fill" data-item-order="-120925" transform="translate(323.5, 216.49609375)"></g><g id="g-root-1.line_sy_1um5yqa1prmde-fill" data-item-order="-120919" transform="translate(323.5, 131.99609375)"></g><g id="g-root-tx_amliorer_mgq0ia1pascu-fill" data-item-order="0" transform="translate(147, 39)"><g id="tx_amliorer_mgq0ia1pascu-fill" stroke="none" fill="#ababab"><g><text style="font: 20px Roboto, sans-serif; white-space: pre;" font-size="20px" font-family="Roboto, sans-serif"><tspan x="12.07" y="34" dominant-baseline="ideographic">Améliorer les modèles avec l'augmentation des données</tspan></text></g></g></g><g id="g-root-fron_7qwb61pq6fi-fill" data-item-order="0" transform="translate(591, 107.99609375)"></g><g id="g-root-tx_transfor_dju2361parr8-fill" data-item-order="0" transform="translate(651, 111)"><g id="tx_transfor_dju2361parr8-fill" stroke="none" fill="#ababab"><g><text style="font: 20px Roboto, sans-serif; white-space: pre;" font-size="20px" font-family="Roboto, sans-serif"><tspan x="12" y="34" dominant-baseline="ideographic">Transformations </tspan><tspan x="12" y="58" dominant-baseline="ideographic">géométriques</tspan></text></g></g></g><g id="g-root-2_4j72tu1pht6u-fill" data-item-order="0" transform="translate(591, 191.99609375)"></g><g id="g-root-tx_ajusteme_1464lqq1parr6-fill" data-item-order="0" transform="translate(651, 195)"><g id="tx_ajusteme_1464lqq1parr6-fill" stroke="none" fill="#ababab"><g><text style="font: 20px Roboto, sans-serif; white-space: pre;" font-size="20px" font-family="Roboto, sans-serif"><tspan x="12" y="34" dominant-baseline="ideographic">Ajustements de </tspan><tspan x="12" y="58" dominant-baseline="ideographic">couleur</tspan></text></g></g></g><g id="g-root-tx_augmenta_zn6q6q1parcx-fill" data-item-order="0" transform="translate(15, 279)"><g id="tx_augmenta_zn6q6q1parcx-fill" stroke="none" fill="#ababab"><g><text style="font: 20px Roboto, sans-serif; white-space: pre;" font-size="20px" font-family="Roboto, sans-serif"><tspan x="14.33" y="34" dominant-baseline="ideographic">Augmentation </tspan><tspan x="26.52" y="58" dominant-baseline="ideographic">des données</tspan></text></g></g></g><g id="g-root-exce_1lqiyhe1prn63-fill" data-item-order="0" transform="translate(159, 275.99609375)"></g><g id="g-root-stop_18gy4uq1pc7po-fill" data-item-order="0" transform="translate(591, 275.99609375)"></g><g id="g-root-tx_modifica_74ljm1par60-fill" data-item-order="0" transform="translate(651, 279)"><g id="tx_modifica_74ljm1par60-fill" stroke="none" fill="#ababab"><g><text style="font: 20px Roboto, sans-serif; white-space: pre;" font-size="20px" font-family="Roboto, sans-serif"><tspan x="12" y="34" dominant-baseline="ideographic">Modifications de </tspan><tspan x="12" y="58" dominant-baseline="ideographic">qualité</tspan></text></g></g></g><g id="g-root-asta_hvwjde1p6jux-fill" data-item-order="0" transform="translate(591, 359.99609375)"></g><g id="g-root-tx_augmenta_14496he1pasqt-fill" data-item-order="0" transform="translate(651, 363)"><g id="tx_augmenta_14496he1pasqt-fill" stroke="none" fill="#ababab"><g><text style="font: 20px Roboto, sans-serif; white-space: pre;" font-size="20px" font-family="Roboto, sans-serif"><tspan x="12" y="34" dominant-baseline="ideographic">Augmentation </tspan><tspan x="12" y="58" dominant-baseline="ideographic">textuelle</tspan></text></g></g></g><g id="g-root-imag_4hbh8y1pdkp1-fill" data-item-order="0" transform="translate(591, 443.99609375)"></g><g id="g-root-tx_techniqu_596aa1pas5n-fill" data-item-order="0" transform="translate(651, 447)"><g id="tx_techniqu_596aa1pas5n-fill" stroke="none" fill="#ababab"><g><text style="font: 20px Roboto, sans-serif; white-space: pre;" font-size="20px" font-family="Roboto, sans-serif"><tspan x="12" y="34" dominant-baseline="ideographic">Techniques </tspan><tspan x="12" y="58" dominant-baseline="ideographic">mixtes</tspan></text></g></g></g><g id="g-root--1.cu_sy_v2zgnm1prkzw-stroke" data-item-order="-120954" transform="translate(254, 197.99609375)"><g id="-1.cu_sy_v2zgnm1prkzw-stroke" fill="none" stroke-linecap="round" stroke-linejoin="round" stroke-miterlimit="4" stroke="#f4f4f4" stroke-width="2"><g><path d="M 125 34L 101 10L 10 166L 34 190L 125 34ZM 125 34L 34 190L 216 190L 125 34Z"></path></g></g></g><g id="g-root-0.line-start_sy_qn5yj61prls5-stroke" data-item-order="-120949" transform="translate(213, 299.99609375)"><g id="0.line-start_sy_qn5yj61prls5-stroke" fill="none" stroke-linecap="round" stroke-linejoin="round" stroke-miterlimit="4" stroke="#d3d3d3" stroke-width="2"><g><path d="M 10 10L 120.5 10"></path></g></g></g><g id="g-root-5.line_sy_hriyaa1prmku-stroke" data-item-order="-120943" transform="translate(323.5, 299.99609375)"><g id="5.line_sy_hriyaa1prmku-stroke" fill="none" stroke-linecap="round" stroke-linejoin="round" stroke-miterlimit="4" stroke="#f79438" stroke-width="2"><g><path d="M 258.08 176.59L 115 34L 10 10"></path><path d="M 249.2 177L 258.4 176.9L 258.4 167.7" stroke-dasharray="none"></path></g></g></g><g id="g-root-4.line_sy_dbpg5u1prnd3-stroke" data-item-order="-120937" transform="translate(323.5, 299.99609375)"><g id="4.line_sy_dbpg5u1prnd3-stroke" fill="none" stroke-linecap="round" stroke-linejoin="round" stroke-miterlimit="4" stroke="#ffe711" stroke-width="2"><g><path d="M 257.7 93.64L 108 22L 10 10"></path><path d="M 249.5 96.9L 258.1 93.9L 255.1 85.2" stroke-dasharray="none"></path></g></g></g><g id="g-root-3.line_sy_8wif4i1prkzk-stroke" data-item-order="-120931" transform="translate(324, 299.99609375)"><g id="3.line_sy_8wif4i1prkzk-stroke" fill="none" stroke-linecap="round" stroke-linejoin="round" stroke-miterlimit="4" stroke="#a6da37" stroke-width="2"><g><path d="M 257 10L 100.5 10L 10 10"></path><path d="M 251 16.5L 257.5 10L 251 3.5" stroke-dasharray="none"></path></g></g></g><g id="g-root-2.line_sy_vevm1prls9-stroke" data-item-order="-120925" transform="translate(323.5, 216.49609375)"><g id="2.line_sy_vevm1prls9-stroke" fill="none" stroke-linecap="round" stroke-linejoin="round" stroke-miterlimit="4" stroke="#43dd93" stroke-width="2"><g><path d="M 257.66 10.790039L 94 81.500039L 10 93.500039"></path><path d="M 254.7 19.090039L 258.1 10.590039L 249.6 7.190039" stroke-dasharray="none"></path></g></g></g><g id="g-root-1.line_sy_1um5yqa1prmde-stroke" data-item-order="-120919" transform="translate(323.5, 131.99609375)"><g id="1.line_sy_1um5yqa1prmde-stroke" fill="none" stroke-linecap="round" stroke-linejoin="round" stroke-miterlimit="4" stroke="#1ac3fb" stroke-width="2"><g><path d="M 10 178.000273L 87 154.000273L 257.96 11.280273"></path><path d="M 257.5 20.080273L 258.3 10.980273L 249.2 10.180273" stroke-dasharray="none"></path></g></g></g><g id="g-root-tx_amliorer_mgq0ia1pascu-stroke" data-item-order="0" transform="translate(147, 39)"></g><g id="g-root-fron_7qwb61pq6fi-stroke" data-item-order="0" transform="translate(591, 107.99609375)"><g id="fron_7qwb61pq6fi-stroke" fill="none" stroke-linecap="round" stroke-linejoin="round" stroke-miterlimit="4" stroke="#1ac3fb" stroke-width="2"><g><path d="M 45 12L 41 16L 45 20M 49 24L 53 28L 57 24M 41 16L 44 16C 48.970562 16 53 20.029438 53 25L 53 28M 13 20L 33 20C 33 20 35 20 35 22L 35 42C 35 42 35 44 33 44L 13 44C 13 44 11 44 11 42L 11 22C 11 22 11 20 13 20M 35 32L 45 32C 46.104568 32 47 32.895432 47 34L 47 54C 47 55.104568 46.104568 56 45 56L 25 56C 23.895432 56 23 55.104568 23 54L 23 44M 35 38L 40 38C 40.552284 38 41 38.447716 41 39L 41 49C 41 49.552284 40.552284 50 40 50L 30 50C 29.447716 50 29 49.552284 29 49L 29 44"></path></g></g></g><g id="g-root-tx_transfor_dju2361parr8-stroke" data-item-order="0" transform="translate(651, 111)"></g><g id="g-root-2_4j72tu1pht6u-stroke" data-item-order="0" transform="translate(591, 191.99609375)"><g id="2_4j72tu1pht6u-stroke" fill="none" stroke-linecap="round" stroke-linejoin="round" stroke-miterlimit="4" stroke="#43dd93" stroke-width="2"><g><path d="M 34 45.5L 34 56.5M 28.5 56.5L 39.5 56.5M 43.799999 43.100201C 44 43.700199 43.799999 44.300201 43.400002 44.700199C 43 45.100201 42.400002 45.500198 41.799999 45.500198L 26.200041 45.500198C 25.60004 45.500198 25.00004 45.300201 24.60004 44.700199C 24.200039 44.300201 24.00004 43.700199 24.200039 43.100201L 26.60004 31.100201C 26.800039 30.100201 27.60004 29.50012 28.60004 29.50012L 39.400002 29.50012C 40.400002 29.50012 41.200001 30.100201 41.400002 31.100201L 43.799999 43.100201ZM 52.5 44.799999C 54.709202 44.799999 56.5 43.009201 56.5 40.799999C 56.5 38.591 54.709202 36.799999 52.5 36.799999C 50.290798 36.799999 48.5 38.591 48.5 40.799999C 48.5 43.009201 50.290798 44.799999 52.5 44.799999ZM 14.90014 30.5C 14.90014 20.1 23.500141 11.5 33.9002 11.5C 44.300201 11.5 52.9002 20.1 52.9002 30.5M 10 10M 46.299999 22.300201L 51.900002 16.700199M 15.5001 41.4002C 15.83146 41.4002 16.1001 41.131599 16.1001 40.800201C 16.1001 40.4688 15.83146 40.200199 15.5001 40.200199M 15.50014 41.4002C 15.168779 41.4002 14.90014 41.131599 14.90014 40.800201C 14.90014 40.4688 15.168779 40.200199 15.50014 40.200199"></path></g></g></g><g id="g-root-tx_ajusteme_1464lqq1parr6-stroke" data-item-order="0" transform="translate(651, 195)"></g><g id="g-root-tx_augmenta_zn6q6q1parcx-stroke" data-item-order="0" transform="translate(15, 279)"></g><g id="g-root-exce_1lqiyhe1prn63-stroke" data-item-order="0" transform="translate(159, 275.99609375)"><g id="exce_1lqiyhe1prn63-stroke" fill="none" stroke-linecap="round" stroke-linejoin="round" stroke-miterlimit="4" stroke="#ababab" stroke-width="2"><g><path d="M 44.490002 51.226002L 49.292 56.986L 56.973999 56.986L 49.292 47.383999L 56.973999 37.781998L 49.292 37.781998L 44.490002 43.543999L 39.690002 37.781998L 32.007999 37.781998L 39.690002 47.383999L 32.007999 56.986L 39.690002 56.986L 44.490002 51.226002ZM 24.307999 54.674C 19.793949 54.675106 16.133999 51.016052 16.133999 46.501999L 16.133999 41.400002M 21.242001 46.501999L 16.133999 41.393997L 11.026 46.501999M 43.717999 13.414C 48.232052 13.412895 51.891998 17.071949 51.891998 21.586L 51.891998 27.716M 46.784 22.608L 51.891998 27.716L 57 22.608M 13.044 11.014L 35.517998 11.014C 35.517998 11.014 37.562 11.014 37.562 13.058001L 37.562 31.445999C 37.562 31.445999 37.562 33.489998 35.517998 33.489998L 13.044 33.489998C 13.044 33.489998 11 33.489998 11 31.445999L 11 13.058001C 11 13.058001 11 11.014 13.044 11.014M 11 17.216L 37.562 17.216M 11 22.608L 37.562 22.608M 11 28.152L 37.562 28.152M 23.144001 17.216L 23.144001 33.489998M 30.271999 17.216L 30.271999 33.489998"></path></g></g></g><g id="g-root-stop_18gy4uq1pc7po-stroke" data-item-order="0" transform="translate(591, 275.99609375)"><g id="stop_18gy4uq1pc7po-stroke" fill="none" stroke-linecap="round" stroke-linejoin="round" stroke-miterlimit="4" stroke="#a6da37" stroke-width="2"><g><path d="M 33 46C 33 52.075134 37.92487 57 44 57C 50.075134 57 55 52.075134 55 46C 55 39.92487 50.075134 35 44 35C 37.92487 35 33 39.92487 33 46ZM 32 37L 13 37C 11.895431 37 11 36.104568 11 35L 11 13C 11 11.895431 11.895431 11 13 11L 39 11C 40.104568 11 41 11.895431 41 13L 41 29.924M 57 31.764C 56.99963 32.456879 56.640663 33.100204 56.051212 33.46439C 55.461758 33.828571 54.725803 33.861717 54.105999 33.552002L 46.105999 29.552C 45.428539 29.213472 45.000404 28.521332 45 27.764L 45 20.236C 45.000404 19.478668 45.428539 18.786526 46.105999 18.448L 54.105999 14.448C 54.725803 14.138283 55.461758 14.171429 56.051212 14.535611C 56.640663 14.899793 56.99963 15.543119 57 16.236ZM 39 41L 49 41L 49 51L 39 51Z"></path></g></g></g><g id="g-root-tx_modifica_74ljm1par60-stroke" data-item-order="0" transform="translate(651, 279)"></g><g id="g-root-asta_hvwjde1p6jux-stroke" data-item-order="0" transform="translate(591, 359.99609375)"><g id="asta_hvwjde1p6jux-stroke" fill="none" stroke-linecap="round" stroke-linejoin="round" stroke-miterlimit="4" stroke="#ffe711" stroke-width="2"><g><path d="M 13 11L 55 11C 55 11 57 11 57 13L 57 55C 57 55 57 57 55 57L 13 57C 13 57 11 57 11 55L 11 13C 11 13 11 11 13 11M 24 48L 44 48M 22 43L 26.136 26.455999C 26.34915 25.600136 27.117992 24.99958 27.999998 25L 28 25C 28.879999 25 29.65 25.6 29.864 26.455999L 34 43M 23.5 37L 32.5 37M 40.25 25L 40.25 40C 40.25 41.656853 41.593147 43 43.25 43M 36.5 29.5L 44 29.5"></path></g></g></g><g id="g-root-tx_augmenta_14496he1pasqt-stroke" data-item-order="0" transform="translate(651, 363)"></g><g id="g-root-imag_4hbh8y1pdkp1-stroke" data-item-order="0" transform="translate(591, 443.99609375)"><g id="imag_4hbh8y1pdkp1-stroke" fill="none" stroke-linecap="round" stroke-linejoin="round" stroke-miterlimit="4" stroke="#f79438" stroke-width="2"><g><path d="M 18 38C 19.104568 38 20 38.895432 20 40C 20 41.104568 19.104568 42 18 42C 16.895432 42 16 41.104568 16 40C 16 38.895432 16.895432 38 18 38M 14 33L 38 33C 38 33 41 33 41 36L 41 54C 41 54 41 57 38 57L 14 57C 14 57 11 57 11 54L 11 36C 11 36 11 33 14 33M 17 14L 20 17L 17 20M 20 17L 14 17C 12.343145 17 11 18.343147 11 20L 11 24M 50 54L 47 51L 50 48M 47 51L 53 51C 54.656857 51 56 49.656857 56 48L 56 44M 40.200001 56.034L 33.316002 43.562C 32.927933 42.845741 32.192635 42.385502 31.378803 42.349457C 30.564972 42.313416 29.791866 42.706852 29.341999 43.385998L 23.702 51.872002L 20.232 48.821999C 19.741238 48.391033 19.09178 48.186474 18.442621 48.258389C 17.793465 48.330307 17.204531 48.672066 16.82 49.199997L 11.8 56.034M 46.717999 35L 54 35C 55.656857 35 57 33.656853 57 32L 57 14C 57 12.343145 55.656857 11 54 11L 30 11C 28.343145 11 27 12.343145 27 14L 27 27.200001M 34 16C 35.104568 16 36 16.895432 36 18C 36 19.104568 35.104568 20 34 20C 32.895432 20 32 19.104568 32 18C 32 16.895432 32.895432 16 34 16M 56.200001 34.034L 49.318001 21.562C 48.929932 20.845743 48.194633 20.385502 47.380802 20.349457C 46.566971 20.313416 45.793865 20.706854 45.343998 21.386L 39.704002 29.872L 36.232002 26.822001C 35.741234 26.391035 35.091782 26.186472 34.442619 26.25839C 33.793465 26.330307 33.204529 26.672066 32.82 27.199999L 32.194 28.052"></path></g></g></g><g id="g-root-tx_techniqu_596aa1pas5n-stroke" data-item-order="0" transform="translate(651, 447)"></g></g></g></svg>