<?xml version="1.0" encoding="utf-8" standalone="yes"?>
<!DOCTYPE svg PUBLIC "-//W3C//DTD SVG 1.1//EN" "http://www.w3.org/Graphics/SVG/1.1/DTD/svg11.dtd">
<svg width="866" height="758" viewBox="0 0 866 758" style="fill:none;stroke:none;fill-rule:evenodd;clip-rule:evenodd;stroke-linecap:round;stroke-linejoin:round;stroke-miterlimit:1.5;" version="1.1" xmlns="http://www.w3.org/2000/svg" xmlns:xlink="http://www.w3.org/1999/xlink"><style id="fontImports">@import url("https://fonts.googleapis.com/css2?family=Roboto:wght@400;700&amp;display=block");</style><g id="items" style="isolation: isolate"><g id="blend" style="mix-blend-mode: normal"><g id="g-root--1.cu_sy_m8l59s3nhrlw-fill" data-item-order="-224104" transform="translate(170, 579)"><g id="-1.cu_sy_m8l59s3nhrlw-fill" stroke="none" fill="#54502f"><g><path d="M 106 46C 106 72.5097 84.5097 94 58 94C 31.4903 94 10 72.5097 10 46C 10 31.6637 16.2851 18.7953 26.2501 10L 89.7499 10C 99.7149 18.7953 106 31.6637 106 46Z"></path></g></g></g><g id="g-root--1.cu_1_sy_8xr3zk3nhq11-fill" data-item-order="-224100" transform="translate(206, 135)"><g id="-1.cu_1_sy_8xr3zk3nhq11-fill" stroke="none" fill="#545454"><g><path d="M 106 58C 106 31.4903 84.5097 10 58 10C 31.4903 10 10 31.4903 10 58C 10 72.3363 16.2851 85.2047 26.2501 94L 89.7499 94C 99.7149 85.2047 106 72.3363 106 58Z"></path></g></g></g><g id="g-root--1.cu_2_sy_243qo3nhqtq-fill" data-item-order="-224098" transform="translate(320, 123)"><g id="-1.cu_2_sy_243qo3nhqtq-fill" stroke="none" fill="#545454"><g><path d="M 70 40C 70 56.5685 56.5685 70 40 70C 23.4315 70 10 56.5685 10 40C 10 23.4315 23.4315 10 40 10C 56.5685 10 70 23.4315 70 40Z"></path></g></g></g><g id="g-root--1.cu_3_sy_1lrrncg3nhs7j-fill" data-item-order="-224096" transform="translate(146, 111)"><g id="-1.cu_3_sy_1lrrncg3nhs7j-fill" stroke="none" fill="#545454"><g><path d="M 58 34C 58 47.2548 47.2548 58 34 58C 20.7452 58 10 47.2548 10 34C 10 20.7452 20.7452 10 34 10C 47.2548 10 58 20.7452 58 34Z"></path></g></g></g><g id="g-root--1.cu_4_sy_1hckmb43nhpu0-fill" data-item-order="-224094" transform="translate(62, 153)"><g id="-1.cu_4_sy_1hckmb43nhpu0-fill" stroke="none" fill="#545454"><g><path d="M 82 46C 82 26.1177 65.8823 10 46 10C 26.1177 10 10 26.1177 10 46C 10 58.5218 16.3931 69.5505 26.0932 76L 65.9068 76C 75.6069 69.5505 82 58.5218 82 46Z"></path></g></g></g><g id="g-root-5.cu_sy_14143xs3nhrex-fill" data-item-order="-224090" transform="translate(158.0615234375, 507)"><g id="5.cu_sy_14143xs3nhrex-fill" stroke="none" fill="#5c4938"><g><path d="M 108.7626 82C 112.076 82 114.763 79.3137 114.763 76L 114.763 37L 129.407 10L 10 10L 24.6447 37L 24.6447 76C 24.6447 79.3137 27.3309 82 30.6447 82L 108.7626 82Z"></path></g></g></g><g id="g-root-4.cu_sy_qqa2nk3nhpu2-fill" data-item-order="-224086" transform="translate(119.009765625, 435)"><g id="4.cu_sy_qqa2nk3nhpu2-fill" stroke="none" fill="#54502f"><g><path d="M 49.0524 82L 168.46 82L 207.512 10L 10 10L 49.0524 82Z"></path></g></g></g><g id="g-root-3.cu_sy_detka83nhrez-fill" data-item-order="-224082" transform="translate(79.95703125, 363)"><g id="3.cu_sy_detka83nhrez-fill" stroke="none" fill="#4b533a"><g><path d="M 49.0524 82L 246.565 82L 285.617 10L 10 10L 49.0524 82Z"></path></g></g></g><g id="g-root-2.cu_sy_8z025s3nhs78-fill" data-item-order="-224078" transform="translate(40.904296875, 291)"><g id="2.cu_sy_8z025s3nhs78-fill" stroke="none" fill="#3b5649"><g><path d="M 49.0524 82L 324.669 82L 363.722 10L 10 10L 49.0524 82Z"></path></g></g></g><g id="g-root-1.cu_sy_1upa2uo3nhqf9-fill" data-item-order="-224074" transform="translate(15, 219)"><g id="1.cu_sy_1upa2uo3nhqf9-fill" stroke="none" fill="#344e57"><g><path d="M 416 16C 416 12.6863 413.314 10 410 10L 16 10C 12.6863 10 10 12.6863 10 16L 10 49.0092C 10 52.3229 12.6863 55.0092 16 55.0092L 21.2647 55.0092L 35.9044 82L 389.626 82L 404.266 55.0092L 410 55.0092C 413.314 55.0092 416 52.3229 416 49.0092L 416 16Z"></path></g></g></g><g id="g-root-clou_v2zgts3n6hvx-fill" data-item-order="0" transform="translate(229.9991455078125, 158)"></g><g id="g-root-tx_importat_1hfpfjk3nc4co-fill" data-item-order="0" transform="translate(518.23828125, 182.8203125)"><g id="tx_importat_1hfpfjk3nc4co-fill" stroke="none" fill="#ababab"><g><text style="font: 15px Roboto, sans-serif; white-space: pre;" font-size="15px" font-family="Roboto, sans-serif"><tspan x="12" y="27.33" dominant-baseline="ideographic">Importation des données dans </tspan><tspan x="12" y="45.33" dominant-baseline="ideographic">l'environnement de travail</tspan></text></g></g></g><g id="g-root-clou_8ye0vk3n3qbk-fill" data-item-order="0" transform="translate(79.9991455078125, 170)"></g><g id="g-root-dust_v643qo3n9bf0-fill" data-item-order="0" transform="translate(457.9991455078125, 254)"></g><g id="g-root-tx_prtraite_1usew343nc4xv-fill" data-item-order="0" transform="translate(518, 267)"><g id="tx_prtraite_1usew343nc4xv-fill" stroke="none" fill="#43dd93"><g><text style="font: bold 20px Roboto, sans-serif; white-space: pre;" font-weight="bold" font-size="20px" font-family="Roboto, sans-serif"><tspan x="12" y="34" dominant-baseline="ideographic">Prétraitement</tspan></text></g></g></g><g id="g-root-tx_chargeme_mdldrk3nc54x-fill" data-item-order="0" transform="translate(518, 147)"><g id="tx_chargeme_mdldrk3nc54x-fill" stroke="none" fill="#1ac3fb"><g><text style="font: bold 20px Roboto, sans-serif; white-space: pre;" font-weight="bold" font-size="20px" font-family="Roboto, sans-serif"><tspan x="12" y="34" dominant-baseline="ideographic">Chargement des données</tspan></text></g></g></g><g id="g-root-tx_nettoyag_92rchc3nc3k2-fill" data-item-order="0" transform="translate(518.23828125, 302.818359375)"><g id="tx_nettoyag_92rchc3nc3k2-fill" stroke="none" fill="#ababab"><g><text style="font: 15px Roboto, sans-serif; white-space: pre;" font-size="15px" font-family="Roboto, sans-serif"><tspan x="12" y="27.33" dominant-baseline="ideographic">Nettoyage et correction des erreurs dans les </tspan><tspan x="12" y="45.33" dominant-baseline="ideographic">données</tspan></text></g></g></g><g id="g-root-refr_1uoo4q83ndkw9-fill" data-item-order="0" transform="translate(457.9991455078125, 134)"></g><g id="g-root-meas_dcc6wg3n6io6-fill" data-item-order="0" transform="translate(457.9991455078125, 373.989990234375)"></g><g id="g-root-tx_normalis_vahc6o3nc5ql-fill" data-item-order="0" transform="translate(518, 387)"><g id="tx_normalis_vahc6o3nc5ql-fill" stroke="none" fill="#a6da37"><g><text style="font: bold 20px Roboto, sans-serif; white-space: pre;" font-weight="bold" font-size="20px" font-family="Roboto, sans-serif"><tspan x="12" y="34" dominant-baseline="ideographic">Normalisation</tspan></text></g></g></g><g id="g-root-tx_ajusteme_1hgydps3nc6is-fill" data-item-order="0" transform="translate(518.23828125, 422.818359375)"><g id="tx_ajusteme_1hgydps3nc6is-fill" stroke="none" fill="#ababab"><g><text style="font: 15px Roboto, sans-serif; white-space: pre;" font-size="15px" font-family="Roboto, sans-serif"><tspan x="12" y="27.33" dominant-baseline="ideographic">Ajustement des échelles de données pour la </tspan><tspan x="12" y="45.33" dominant-baseline="ideographic">cohérence</tspan></text></g></g></g><g id="g-root-clou_htedps3nndvl-fill" data-item-order="0" transform="translate(334.9991455078125, 137)"></g><g id="g-root-rule_qqwzjk3nhseg-fill" data-item-order="0" transform="translate(457.9991455078125, 493.97998046875)"></g><g id="g-root-clou_7qq5s3ndjim-fill" data-item-order="0" transform="translate(157.9991455078125, 122)"></g><g id="g-root-tx_miselche_4o6sj43nc5qn-fill" data-item-order="0" transform="translate(518, 507)"><g id="tx_miselche_4o6sj43nc5qn-fill" stroke="none" fill="#ffe711"><g><text style="font: bold 20px Roboto, sans-serif; white-space: pre;" font-weight="bold" font-size="20px" font-family="Roboto, sans-serif"><tspan x="12" y="34" dominant-baseline="ideographic">Mise à l'échelle</tspan></text></g></g></g><g id="g-root-tx_redimens_hznawg3nc45q-fill" data-item-order="0" transform="translate(518.23828125, 542.81640625)"><g id="tx_redimens_hznawg3nc45q-fill" stroke="none" fill="#ababab"><g><text style="font: 15px Roboto, sans-serif; white-space: pre;" font-size="15px" font-family="Roboto, sans-serif"><tspan x="12" y="27.33" dominant-baseline="ideographic">Redimensionnement des données dans des </tspan><tspan x="12" y="45.33" dominant-baseline="ideographic">plages spécifiques</tspan></text></g></g></g><g id="g-root-chec_qrj0ts3nhs07-fill" data-item-order="0" transform="translate(193.9991455078125, 590)"></g><g id="g-root-1_147zrow3nc3ya-fill" data-item-order="0" transform="translate(457.9991455078125, 613.97998046875)"></g><g id="g-root-tx_division_1hitsz43nc5j5-fill" data-item-order="0" transform="translate(518, 627)"><g id="tx_division_1hitsz43nc5j5-fill" stroke="none" fill="#f79438"><g><text style="font: bold 20px Roboto, sans-serif; white-space: pre;" font-weight="bold" font-size="20px" font-family="Roboto, sans-serif"><tspan x="12" y="34" dominant-baseline="ideographic">Division des données</tspan></text></g></g></g><g id="g-root-tx_sparatio_1uuabcg3nc3y8-fill" data-item-order="0" transform="translate(518.23828125, 662.81640625)"><g id="tx_sparatio_1uuabcg3nc3y8-fill" stroke="none" fill="#ababab"><g><text style="font: 15px Roboto, sans-serif; white-space: pre;" font-size="15px" font-family="Roboto, sans-serif"><tspan x="12" y="27.33" dominant-baseline="ideographic">Séparation des ensembles de données pour </tspan><tspan x="12" y="45.33" dominant-baseline="ideographic">l'entraînement et le test</tspan></text></g></g></g><g id="g-root-tx_affinerl_1hdtkhc3nhs06-fill" data-item-order="0" transform="translate(248, 39)"><g id="tx_affinerl_1hdtkhc3nhs06-fill" stroke="none" fill="#ababab"><g><text style="font: bold 20px Roboto, sans-serif; white-space: pre;" font-weight="bold" font-size="20px" font-family="Roboto, sans-serif"><tspan x="17.08" y="34" dominant-baseline="ideographic">Affiner la préparation des données</tspan></text></g></g></g><g id="g-root--1.cu_sy_m8l59s3nhrlw-stroke" data-item-order="-224104" transform="translate(170, 579)"><g id="-1.cu_sy_m8l59s3nhrlw-stroke" fill="none" stroke-linecap="round" stroke-linejoin="round" stroke-miterlimit="4" stroke="#ffe711" stroke-width="2"><g><path d="M 106 46C 106 72.5097 84.5097 94 58 94C 31.4903 94 10 72.5097 10 46C 10 31.6637 16.2851 18.7953 26.2501 10L 89.7499 10C 99.7149 18.7953 106 31.6637 106 46Z"></path></g></g></g><g id="g-root--1.cu_1_sy_8xr3zk3nhq11-stroke" data-item-order="-224100" transform="translate(206, 135)"><g id="-1.cu_1_sy_8xr3zk3nhq11-stroke" fill="none" stroke-linecap="round" stroke-linejoin="round" stroke-miterlimit="4" stroke="#b7b7b7" stroke-width="2"><g><path d="M 106 58C 106 31.4903 84.5097 10 58 10C 31.4903 10 10 31.4903 10 58C 10 72.3363 16.2851 85.2047 26.2501 94L 89.7499 94C 99.7149 85.2047 106 72.3363 106 58Z"></path></g></g></g><g id="g-root--1.cu_2_sy_243qo3nhqtq-stroke" data-item-order="-224098" transform="translate(320, 123)"><g id="-1.cu_2_sy_243qo3nhqtq-stroke" fill="none" stroke-linecap="round" stroke-linejoin="round" stroke-miterlimit="4" stroke="#b7b7b7" stroke-width="2"><g><path d="M 70 40C 70 56.5685 56.5685 70 40 70C 23.4315 70 10 56.5685 10 40C 10 23.4315 23.4315 10 40 10C 56.5685 10 70 23.4315 70 40Z"></path></g></g></g><g id="g-root--1.cu_3_sy_1lrrncg3nhs7j-stroke" data-item-order="-224096" transform="translate(146, 111)"><g id="-1.cu_3_sy_1lrrncg3nhs7j-stroke" fill="none" stroke-linecap="round" stroke-linejoin="round" stroke-miterlimit="4" stroke="#b7b7b7" stroke-width="2"><g><path d="M 58 34C 58 47.2548 47.2548 58 34 58C 20.7452 58 10 47.2548 10 34C 10 20.7452 20.7452 10 34 10C 47.2548 10 58 20.7452 58 34Z"></path></g></g></g><g id="g-root--1.cu_4_sy_1hckmb43nhpu0-stroke" data-item-order="-224094" transform="translate(62, 153)"><g id="-1.cu_4_sy_1hckmb43nhpu0-stroke" fill="none" stroke-linecap="round" stroke-linejoin="round" stroke-miterlimit="4" stroke="#b7b7b7" stroke-width="2"><g><path d="M 82 46C 82 26.1177 65.8823 10 46 10C 26.1177 10 10 26.1177 10 46C 10 58.5218 16.3931 69.5505 26.0932 76L 65.9068 76C 75.6069 69.5505 82 58.5218 82 46Z"></path></g></g></g><g id="g-root-5.cu_sy_14143xs3nhrex-stroke" data-item-order="-224090" transform="translate(158.0615234375, 507)"><g id="5.cu_sy_14143xs3nhrex-stroke" fill="none" stroke-linecap="round" stroke-linejoin="round" stroke-miterlimit="4" stroke="#f79438" stroke-width="2"><g><path d="M 108.7626 82C 112.0763 82 114.7626 79.3137 114.7626 76L 114.7626 37L 129.4072 10L 10 10L 24.6447 37L 24.6447 76C 24.6447 79.3137 27.3309 82 30.6447 82L 108.7626 82Z"></path></g></g></g><g id="g-root-4.cu_sy_qqa2nk3nhpu2-stroke" data-item-order="-224086" transform="translate(119.009765625, 435)"><g id="4.cu_sy_qqa2nk3nhpu2-stroke" fill="none" stroke-linecap="round" stroke-linejoin="round" stroke-miterlimit="4" stroke="#ffe711" stroke-width="2"><g><path d="M 49.0524 82L 168.4597 82L 207.5121 10L 10 10L 49.0524 82Z"></path></g></g></g><g id="g-root-3.cu_sy_detka83nhrez-stroke" data-item-order="-224082" transform="translate(79.95703125, 363)"><g id="3.cu_sy_detka83nhrez-stroke" fill="none" stroke-linecap="round" stroke-linejoin="round" stroke-miterlimit="4" stroke="#a6da37" stroke-width="2"><g><path d="M 49.0524 82L 246.5645 82L 285.6169 10L 10 10L 49.0524 82Z"></path></g></g></g><g id="g-root-2.cu_sy_8z025s3nhs78-stroke" data-item-order="-224078" transform="translate(40.904296875, 291)"><g id="2.cu_sy_8z025s3nhs78-stroke" fill="none" stroke-linecap="round" stroke-linejoin="round" stroke-miterlimit="4" stroke="#43dd93" stroke-width="2"><g><path d="M 49.0524 82L 324.6694 82L 363.7218 10L 10 10L 49.0524 82Z"></path></g></g></g><g id="g-root-1.cu_sy_1upa2uo3nhqf9-stroke" data-item-order="-224074" transform="translate(15, 219)"><g id="1.cu_sy_1upa2uo3nhqf9-stroke" fill="none" stroke-linecap="round" stroke-linejoin="round" stroke-miterlimit="4" stroke="#1ac3fb" stroke-width="2"><g><path d="M 416 16C 416 12.6863 413.3137 10 410 10L 16 10C 12.6863 10 10 12.6863 10 16L 10 49.0092C 10 52.3229 12.6863 55.0092 16 55.0092L 21.2647 55.0092L 35.9044 82L 389.6262 82L 404.2659 55.0092L 410 55.0092C 413.3137 55.0092 416 52.3229 416 49.0092L 416 16Z"></path></g></g></g><g id="g-root-clou_v2zgts3n6hvx-stroke" data-item-order="0" transform="translate(229.9991455078125, 158)"><g id="clou_v2zgts3n6hvx-stroke" fill="none" stroke-linecap="round" stroke-linejoin="round" stroke-miterlimit="4" stroke="#b7b7b7" stroke-width="2"><g><path d="M 11 47.98C 11 46.323147 12.343145 44.98 14 44.98L 28 44.98C 29.656855 44.98 31 46.323147 31 47.98L 31 53.98C 31 55.636856 29.656855 56.98 28 56.98L 14 56.98C 12.343145 56.98 11 55.636856 11 53.98ZM 17 50.240002C 16.585787 50.240002 16.25 50.575787 16.25 50.990002C 16.25 51.404213 16.585787 51.740002 17 51.740002C 17.414213 51.740002 17.75 51.404213 17.75 50.990002C 17.75 50.575787 17.414213 50.240002 17 50.240002L 17 50.240002M 25 50.98L 23 50.98M 37 47.98C 37 46.323147 38.343147 44.98 40 44.98L 54 44.98C 55.656857 44.98 57 46.323147 57 47.98L 57 53.98C 57 55.636856 55.656857 56.98 54 56.98L 40 56.98C 38.343147 56.98 37 55.636856 37 53.98ZM 43 50.240002C 42.585789 50.240002 42.25 50.575787 42.25 50.990002C 42.25 51.404213 42.585789 51.740002 43 51.740002C 43.414215 51.740002 43.75 51.404213 43.75 50.990002C 43.75 50.575787 43.414215 50.240002 43 50.240002L 43 50.240002M 51 50.98L 49 50.98M 31 39.98L 31 28.677999L 27.292 32.386002M 37 28.677999L 37 39.98L 40.624001 36.356003M 44.706001 33.02C 44.706001 33.02 51.778 32.099998 51.778 25.161999C 51.779541 23.029495 50.912552 20.988327 49.376793 19.508793C 47.841034 18.029257 45.768963 17.238964 43.638 17.32C 41.496796 12.778744 36.548897 10.267392 31.619326 11.219813C 26.689756 12.172235 23.033455 16.345966 22.737999 21.358C 21.000183 20.99423 19.190968 21.432953 17.812801 22.552322C 16.434635 23.671696 15.634277 25.352518 15.634 27.127998C 15.634 33.113998 21.92 33.02 21.92 33.02"></path></g></g></g><g id="g-root-tx_importat_1hfpfjk3nc4co-stroke" data-item-order="0" transform="translate(518.23828125, 182.8203125)"></g><g id="g-root-clou_8ye0vk3n3qbk-stroke" data-item-order="0" transform="translate(79.9991455078125, 170)"><g id="clou_8ye0vk3n3qbk-stroke" fill="none" stroke-linecap="round" stroke-linejoin="round" stroke-miterlimit="4" stroke="#b7b7b7" stroke-width="2"><g><path d="M 10.75 38.485001C 10.75 37.242359 11.75736 36.235001 13 36.235001L 23.5 36.235001C 24.742641 36.235001 25.75 37.242359 25.75 38.485001L 25.75 42.985001C 25.75 44.227642 24.742641 45.235001 23.5 45.235001L 13 45.235001C 11.75736 45.235001 10.75 44.227642 10.75 42.985001ZM 15.25 40.18C 14.939341 40.18 14.6875 40.431839 14.6875 40.7425C 14.6875 41.053162 14.939341 41.305 15.25 41.305C 15.56066 41.305 15.8125 41.053162 15.8125 40.7425C 15.8125 40.431839 15.56066 40.18 15.25 40.18L 15.25 40.18M 21.25 40.735001L 19.75 40.735001M 30.25 38.485001C 30.25 37.242359 31.25736 36.235001 32.5 36.235001L 43 36.235001C 44.242641 36.235001 45.25 37.242359 45.25 38.485001L 45.25 42.985001C 45.25 44.227642 44.242641 45.235001 43 45.235001L 32.5 45.235001C 31.25736 45.235001 30.25 44.227642 30.25 42.985001ZM 34.75 40.18C 34.439342 40.18 34.1875 40.431839 34.1875 40.7425C 34.1875 41.053162 34.439342 41.305 34.75 41.305C 35.060661 41.305 35.3125 41.053162 35.3125 40.7425C 35.3125 40.431839 35.060661 40.18 34.75 40.18L 34.75 40.18M 40.75 40.735001L 39.25 40.735001M 25.75 32.485001L 25.75 24.008499L 22.969 26.789499M 30.25 24.008499L 30.25 32.485001L 32.968002 29.767M 36.029503 27.264999C 36.029503 27.264999 41.3335 26.575001 41.3335 21.3715C 41.334656 19.772121 40.684414 18.241245 39.532593 17.131594C 38.380775 16.021942 36.826721 15.429222 35.2285 15.49C 33.622597 12.084058 29.911673 10.200544 26.214495 10.914861C 22.517317 11.629176 19.775091 14.759476 19.553499 18.518499C 18.250137 18.245672 16.893227 18.574715 15.859601 19.414242C 14.825977 20.253771 14.225708 21.514389 14.2255 22.845999C 14.2255 27.335501 18.940001 27.264999 18.940001 27.264999"></path></g></g></g><g id="g-root-dust_v643qo3n9bf0-stroke" data-item-order="0" transform="translate(457.9991455078125, 254)"><g id="dust_v643qo3n9bf0-stroke" fill="none" stroke-linecap="round" stroke-linejoin="round" stroke-miterlimit="4" stroke="#43dd93" stroke-width="2"><g><path d="M 10 10M 56.495159 42.496754L 37.497055 56.495358L 56.495159 56.495358L 56.495159 42.496754ZM 56.495159 42.496754L 56.495159 12.49975M 10 10M 11.499972 11.49985L 22.498873 30.497953M 18.099272 41.096897C 16.09947 37.697235 18.099272 33.097694 22.498833 30.497953C 26.898392 28.098133 31.897814 28.698053 33.697636 32.097794L 18.099272 41.096897ZM 10 10M 18.099291 41.096897L 22.498852 48.896118M 10 10M 23.298853 38.097195L 27.698414 45.896416M 10 10M 28.498274 35.097496L 32.897915 42.896717M 10 10M 33.697636 32.097794L 38.097195 39.897015M 13.899731 56.495556C 13.678833 56.495556 13.49977 56.316578 13.49977 56.095596C 13.49977 55.874817 13.678833 55.695637 13.899731 55.695637M 13.899651 56.495556C 14.120549 56.495556 14.29961 56.316578 14.29961 56.095596C 14.29961 55.874817 14.120549 55.695637 13.899651 55.695637M 20.899031 56.495556C 20.678135 56.495556 20.499071 56.316578 20.499071 56.095596C 20.499071 55.874817 20.678135 55.695637 20.899031 55.695637M 20.898951 56.495556C 21.11985 56.495556 21.298912 56.316578 21.298912 56.095596C 21.298912 55.874817 21.11985 55.695637 20.898951 55.695637M 27.898333 56.495556C 27.677435 56.495556 27.498373 56.316578 27.498373 56.095596C 27.498373 55.874817 27.677435 55.695637 27.898333 55.695637M 27.898252 56.495556C 28.11915 56.495556 28.298212 56.316578 28.298212 56.095596C 28.298212 55.874817 28.11915 55.695637 27.898252 55.695637"></path></g></g></g><g id="g-root-tx_prtraite_1usew343nc4xv-stroke" data-item-order="0" transform="translate(518, 267)"></g><g id="g-root-tx_chargeme_mdldrk3nc54x-stroke" data-item-order="0" transform="translate(518, 147)"></g><g id="g-root-tx_nettoyag_92rchc3nc3k2-stroke" data-item-order="0" transform="translate(518.23828125, 302.818359375)"></g><g id="g-root-refr_1uoo4q83ndkw9-stroke" data-item-order="0" transform="translate(457.9991455078125, 134)"><g id="refr_1uoo4q83ndkw9-stroke" fill="none" stroke-linecap="round" stroke-linejoin="round" stroke-miterlimit="4" stroke="#1ac3fb" stroke-width="2"><g><path d="M 30.997904 56.995308L 12.999701 56.995308C 11.895241 56.995308 10.9999 56.099964 10.9999 54.995506L 10.9999 12.999701C 10.9999 11.895241 11.895241 10.9999 12.999701 10.9999L 39.583046 10.9999C 40.113384 11.000013 40.621956 11.21078 40.996906 11.585841L 48.410168 18.999102C 48.785229 19.37405 48.995991 19.882624 48.996105 20.41296L 48.996105 28.998102M 16.999302 40.996906L 28.998102 40.996906M 19.999002 30.997904L 21.998802 30.997904C 22.551031 30.997904 22.998703 31.445574 22.998703 31.997803L 22.998703 40.996906L 22.998703 40.996906L 18.999102 40.996906L 18.999102 40.996906L 18.999102 31.997803C 18.999102 31.445574 19.446772 30.997904 19.999002 30.997904ZM 30.997904 34.997505L 30.997904 25.998402C 30.997904 25.446173 30.550232 24.998503 29.998003 24.998503L 27.998203 24.998503C 27.445974 24.998503 26.998302 25.446173 26.998302 25.998402L 26.998302 40.996906M 49.996006 44.986507L 56.995308 44.986507L 56.995308 37.987206M 44.996506 56.983307C 39.051342 56.985714 34.18029 52.263466 33.99831 46.321083C 33.81633 40.378704 38.38929 35.367237 44.323463 35.005848C 50.257633 34.644455 55.404945 39.063961 55.945412 44.984509M 56.995308 37.985207L 56.995308 44.984505L 49.996006 44.986507"></path></g></g></g><g id="g-root-meas_dcc6wg3n6io6-stroke" data-item-order="0" transform="translate(457.9991455078125, 373.989990234375)"><g id="meas_dcc6wg3n6io6-stroke" fill="none" stroke-linecap="round" stroke-linejoin="round" stroke-miterlimit="4" stroke="#a6da37" stroke-width="2"><g><path d="M 56.017208 12.168504C 55.103497 12.335327 54.189587 12.490972 53.275276 12.635457M 11.978043 12.150705C 12.891631 12.317509 13.8056 12.473153 14.719869 12.617619M 47.832424 13.406219C 38.641941 14.532647 29.426821 14.532647 20.236338 13.406199M 56.017208 55.826626C 55.103497 55.65984 54.189587 55.504257 53.275276 55.359673M 11.978043 55.844421C 12.891631 55.677639 13.8056 55.522053 14.719869 55.377666M 47.832424 54.588947C 38.641941 53.46246 29.426821 53.462658 20.236338 54.588947M 10 10M 28.690294 41.021503L 26.453438 41.021503M 10 10M 28.690294 33.997402L 26.453438 33.997402M 10 10M 28.690294 26.973644L 26.453438 26.973644M 10 10M 43.305275 46.696934L 43.879818 39.802223L 46.752529 39.802223L 46.752529 35.780228C 46.752529 34.256378 46.14719 32.794922 45.069698 31.717432C 43.992207 30.63994 42.530754 30.034599 41.006905 30.034599C 39.483257 30.034599 38.021801 30.63994 36.944309 31.717432C 35.866817 32.794922 35.261478 34.256378 35.261478 35.780228L 35.261478 39.802223L 38.13419 39.802223L 38.708733 46.696934L 43.305275 46.696934ZM 41.007504 30.034599C 43.351269 30.034599 45.251278 28.134569 45.251278 25.790844C 45.251278 23.447138 43.351269 21.547188 41.007504 21.547188C 38.663937 21.547188 36.763927 23.447138 36.763927 25.790844C 36.763927 28.134569 38.663937 30.034599 41.007504 30.034599ZM 22.242779 20.470955L 28.422161 20.470955C 28.422161 20.470955 29.42206 20.470955 29.42206 21.470856L 29.42206 46.522354C 29.42206 46.522354 29.42206 47.522255 28.422161 47.522255L 22.242779 47.522255C 22.242779 47.522255 21.242878 47.522255 21.242878 46.522354L 21.242878 21.470856C 21.242878 21.470856 21.242878 20.470955 22.242779 20.470955"></path></g></g></g><g id="g-root-tx_normalis_vahc6o3nc5ql-stroke" data-item-order="0" transform="translate(518, 387)"></g><g id="g-root-tx_ajusteme_1hgydps3nc6is-stroke" data-item-order="0" transform="translate(518.23828125, 422.818359375)"></g><g id="g-root-clou_htedps3nndvl-stroke" data-item-order="0" transform="translate(334.9991455078125, 137)"><g id="clou_htedps3nndvl-stroke" fill="none" stroke-linecap="round" stroke-linejoin="round" stroke-miterlimit="4" stroke="#b7b7b7" stroke-width="2"><g><path d="M 10.625 33.737499C 10.625 32.701965 11.464466 31.862499 12.5 31.862499L 21.25 31.862499C 22.285534 31.862499 23.125 32.701965 23.125 33.737499L 23.125 37.487499C 23.125 38.523033 22.285534 39.362499 21.25 39.362499L 12.5 39.362499C 11.464466 39.362499 10.625 38.523033 10.625 37.487499ZM 14.375 35.150002C 14.116117 35.150002 13.90625 35.359867 13.90625 35.618752C 13.90625 35.877632 14.116117 36.087502 14.375 36.087502C 14.633883 36.087502 14.84375 35.877632 14.84375 35.618752C 14.84375 35.359867 14.633883 35.150002 14.375 35.150002L 14.375 35.150002M 19.375 35.612499L 18.125 35.612499M 26.875 33.737499C 26.875 32.701965 27.714466 31.862499 28.75 31.862499L 37.5 31.862499C 38.535534 31.862499 39.375 32.701965 39.375 33.737499L 39.375 37.487499C 39.375 38.523033 38.535534 39.362499 37.5 39.362499L 28.75 39.362499C 27.714466 39.362499 26.875 38.523033 26.875 37.487499ZM 30.625 35.150002C 30.366117 35.150002 30.15625 35.359867 30.15625 35.618752C 30.15625 35.877632 30.366117 36.087502 30.625 36.087502C 30.883884 36.087502 31.09375 35.877632 31.09375 35.618752C 31.09375 35.359867 30.883884 35.150002 30.625 35.150002L 30.625 35.150002M 35.625 35.612499L 34.375 35.612499M 23.125 28.737499L 23.125 21.67375L 20.807499 23.991249M 26.875 21.67375L 26.875 28.737499L 29.139999 26.4725M 31.69125 24.387501C 31.69125 24.387501 36.111252 23.8125 36.111252 19.47625C 36.112213 18.143435 35.570343 16.867704 34.610497 15.942995C 33.650646 15.018286 32.355602 14.524352 31.02375 14.575C 29.685497 11.736715 26.59306 10.16712 23.512079 10.762383C 20.431097 11.357647 18.145908 13.966229 17.96125 17.098749C 16.875114 16.871393 15.744354 17.145596 14.883001 17.845201C 14.021647 18.544809 13.521423 19.595324 13.52125 20.704998C 13.52125 24.446251 17.450001 24.387501 17.450001 24.387501"></path></g></g></g><g id="g-root-rule_qqwzjk3nhseg-stroke" data-item-order="0" transform="translate(457.9991455078125, 493.97998046875)"><g id="rule_qqwzjk3nhseg-stroke" fill="none" stroke-linecap="round" stroke-linejoin="round" stroke-miterlimit="4" stroke="#ffe711" stroke-width="2"><g><path d="M 11.718172 42.554741L 42.577248 11.695662L 56.297783 25.416195L 25.438702 56.275272ZM 35.7117 18.570568L 40.854042 23.712908M 27.141134 27.141134L 32.283474 32.283474M 18.570568 35.7117L 23.712908 40.854042"></path></g></g></g><g id="g-root-clou_7qq5s3ndjim-stroke" data-item-order="0" transform="translate(157.9991455078125, 122)"><g id="clou_7qq5s3ndjim-stroke" fill="none" stroke-linecap="round" stroke-linejoin="round" stroke-miterlimit="4" stroke="#b7b7b7" stroke-width="2"><g><path d="M 10.5 28.99C 10.5 28.161573 11.171573 27.49 12 27.490001L 19 27.49C 19.828427 27.49 20.5 28.161573 20.5 28.990001L 20.5 31.99C 20.5 32.818428 19.828427 33.490001 19 33.490001L 12 33.49C 11.171573 33.490001 10.5 32.818428 10.5 31.990001ZM 13.5 30.12C 13.292893 30.120001 13.125 30.287894 13.125 30.495001C 13.125 30.702107 13.292893 30.870001 13.5 30.870001C 13.707107 30.870001 13.875 30.702107 13.875 30.495001C 13.875 30.287894 13.707107 30.120001 13.5 30.120001L 13.5 30.12M 17.5 30.49L 16.5 30.49M 23.5 28.99C 23.5 28.161573 24.171573 27.49 25 27.490001L 32 27.49C 32.828428 27.49 33.500001 28.161573 33.500001 28.990001L 33.5 31.99C 33.500001 32.818428 32.828428 33.490001 32.000001 33.490001L 25 33.49C 24.171573 33.490001 23.5 32.818428 23.5 31.990001ZM 26.5 30.12C 26.292894 30.120001 26.125001 30.287894 26.125001 30.495001C 26.125001 30.702107 26.292894 30.870001 26.5 30.870001C 26.707107 30.870001 26.875 30.702107 26.875001 30.495001C 26.875001 30.287894 26.707107 30.120001 26.5 30.120001L 26.5 30.12M 30.5 30.49L 29.5 30.49M 20.5 24.99L 20.5 19.339L 18.646 21.193M 23.5 19.339L 23.5 24.99L 25.312 23.178M 27.353 21.51C 27.353 21.51 30.889 21.05 30.889 17.581C 30.88977 16.514748 30.456276 15.494163 29.688397 14.754396C 28.920518 14.014628 27.884482 13.619482 26.819 13.66C 25.748398 11.389372 23.274448 10.133696 20.809663 10.609907C 18.344878 11.086117 16.516727 13.172984 16.369 15.679C 15.500092 15.497115 14.595484 15.716476 13.906401 16.276162C 13.217318 16.835848 12.817139 17.676259 12.817 18.564C 12.817 21.557 15.96 21.51 15.96 21.51"></path></g></g></g><g id="g-root-tx_miselche_4o6sj43nc5qn-stroke" data-item-order="0" transform="translate(518, 507)"></g><g id="g-root-tx_redimens_hznawg3nc45q-stroke" data-item-order="0" transform="translate(518.23828125, 542.81640625)"></g><g id="g-root-chec_qrj0ts3nhs07-stroke" data-item-order="0" transform="translate(193.9991455078125, 590)"><g id="chec_qrj0ts3nhs07-stroke" fill="none" stroke-linecap="round" stroke-linejoin="round" stroke-miterlimit="4" stroke="#b7b7b7" stroke-width="2"><g><path d="M 31.035999 57L 13.036 57C 11.931431 57 11.036 56.104568 11.036 55L 11.036 13C 11.036 11.895431 11.931431 11 13.036 11L 39.622002 11C 40.15239 11.000113 40.661015 11.210901 41.035999 11.586L 48.450001 19C 48.8251 19.374985 49.035885 19.88361 49.035999 20.414L 49.035999 29M 17.035999 41L 29.035999 41M 20.035999 31L 22.035999 31C 22.588284 31 23.035999 31.447716 23.035999 32L 23.035999 41L 23.035999 41L 19.035999 41L 19.035999 41L 19.035999 32C 19.035999 31.447716 19.483715 31 20.035999 31ZM 31.035999 35L 31.035999 26C 31.035999 25.447716 30.588285 25 30.035999 25L 28.035999 25C 27.483715 25 27.035999 25.447716 27.035999 26L 27.035999 41M 32.952 45C 32.952003 51.627419 38.324585 57 44.952 57C 51.579418 57 56.952 51.627419 56.952 45C 56.952 38.372581 51.579418 33 44.952 33C 38.324585 33 32.952003 38.372581 32.952003 45ZM 50.299999 41.510002L 44.5 49.257999C 44.238995 49.605556 43.840061 49.822807 43.406498 49.8535C 42.972931 49.884197 42.547371 49.725319 42.240002 49.417999L 39.239998 46.417999"></path></g></g></g><g id="g-root-1_147zrow3nc3ya-stroke" data-item-order="0" transform="translate(457.9991455078125, 613.97998046875)"><g id="1_147zrow3nc3ya-stroke" fill="none" stroke-linecap="round" stroke-linejoin="round" stroke-miterlimit="4" stroke="#f79438" stroke-width="2"><g><path d="M 44.998482 16.359362C 44.998486 18.87311 47.036282 20.910904 49.55003 20.910904C 52.063774 20.910904 54.101574 18.87311 54.101574 16.359362C 54.101574 13.845613 52.063774 11.807818 49.55003 11.807818C 47.036282 11.807818 44.998486 13.845613 44.998486 16.359362M 56.379341 30.583933C 56.315571 26.858315 53.277187 23.871492 49.551025 23.871492C 45.824863 23.871492 42.78648 26.858315 42.72271 30.583931M 44.998482 41.962788C 44.998486 44.47654 47.036282 46.514336 49.55003 46.514336C 52.063774 46.514336 54.101574 44.47654 54.101574 41.962791C 54.101574 39.449043 52.063774 37.411247 49.55003 37.411247C 47.036282 37.411247 44.998486 39.449043 44.998486 41.962791M 56.379341 56.195362C 56.315571 52.469742 53.277187 49.482918 49.551025 49.482918C 45.824863 49.482918 42.78648 52.469742 42.72271 56.195358M 11.615838 37.491238C 11.615838 45.22245 17.883223 51.489834 25.614433 51.489834C 33.345642 51.489834 39.613026 45.22245 39.613026 37.491241C 39.613026 29.760029 33.345642 23.492645 25.614433 23.492645C 17.883223 23.492645 11.615838 29.760029 11.615838 37.491241M 16.397358 48.02618L 25.614431 37.491238L 25.614431 23.492645M 25.614431 37.491238L 39.613026 37.491238"></path></g></g></g><g id="g-root-tx_division_1hitsz43nc5j5-stroke" data-item-order="0" transform="translate(518, 627)"></g><g id="g-root-tx_sparatio_1uuabcg3nc3y8-stroke" data-item-order="0" transform="translate(518.23828125, 662.81640625)"></g><g id="g-root-tx_affinerl_1hdtkhc3nhs06-stroke" data-item-order="0" transform="translate(248, 39)"></g></g></g></svg>