<?xml version="1.0" encoding="utf-8" standalone="yes"?>
<!DOCTYPE svg PUBLIC "-//W3C//DTD SVG 1.1//EN" "http://www.w3.org/Graphics/SVG/1.1/DTD/svg11.dtd">
<svg width="986" height="722" viewBox="0 0 986 722" style="fill:none;stroke:none;fill-rule:evenodd;clip-rule:evenodd;stroke-linecap:round;stroke-linejoin:round;stroke-miterlimit:1.5;" version="1.1" xmlns="http://www.w3.org/2000/svg" xmlns:xlink="http://www.w3.org/1999/xlink"><style id="fontImports">@import url("https://fonts.googleapis.com/css2?family=Roboto:wght@400;700&amp;display=block");</style><g id="items" style="isolation: isolate"><g id="blend" style="mix-blend-mode: normal"><g id="g-root-0.g-0_fr_1qd8k5tlkt8t-fill" data-item-order="-595247" transform="translate(63.21098327636719, 289.99658203125)"></g><g id="g-root-1.g-1_1_fr_18ml0r5lksg7-fill" data-item-order="-595234" transform="translate(57, 232.99658203125)"><g id="1.g-1_1_fr_18ml0r5lksg7-fill" stroke="none" fill="#3e4e69"><g><path d="M 34 151C 34.000002 187.450795 63.549208 217.000002 100.000002 217.000002C 136.450795 217.000002 166.000002 187.450795 166.000002 151.000002C 166.000002 114.549208 136.450795 85.000002 100.000002 85.000002C 63.549208 85.000002 34.000002 114.549208 34.000002 151.000002M 10 151C 10 154.313709 12.686292 157 16 157C 19.313709 157 22 154.313709 22 151C 22 147.686292 19.313709 145 16 145C 12.686292 145 10 147.686292 10 151"></path></g></g><g id="1.g-1_1_fr_18ml0r5lksg7-fill" stroke="none" fill="#3e4e69"><g><path d="M 109 19C 109 23.9706 104.9706 28 100 28C 95.0294 28 91 23.9706 91 19C 91 14.0294 95.0294 10 100 10C 104.9706 10 109 14.0294 109 19Z"></path></g></g></g><g id="g-root-2.g-2_fr_qvb09dlkutd-fill" data-item-order="-595222" transform="translate(225, 307.99658203125)"><g id="2.g-2_fr_qvb09dlkutd-fill" stroke="none" fill="#68403f"><g><path d="M 34 76C 34.000002 112.450795 63.549208 142.000002 100.000002 142.000002C 136.450795 142.000002 166.000002 112.450795 166.000002 76.000002C 166.000002 39.549208 136.450795 10.000002 100.000002 10.000002C 63.549208 10.000002 34.000002 39.549208 34.000002 76.000002M 10 76C 10 79.313709 12.686292 82 16 82C 19.313709 82 22 79.313709 22 76C 22 72.686292 19.313709 70 16 70C 12.686292 70 10 72.686292 10 76"></path></g></g><g id="2.g-2_fr_qvb09dlkutd-fill" stroke="none" fill="#68403f"><g><path d="M 109 208C 109 212.9706 104.9706 217 100 217C 95.0294 217 91 212.9706 91 208C 91 203.0294 95.0294 199 100 199C 104.9706 199 109 203.0294 109 208Z"></path></g></g></g><g id="g-root-3.g-3_1_fr_dkgyz5lkt8j-fill" data-item-order="-595210" transform="translate(393, 232.99658203125)"><g id="3.g-3_1_fr_dkgyz5lkt8j-fill" stroke="none" fill="#5c4938"><g><path d="M 34 151C 34.000002 187.450795 63.549208 217.000002 100.000002 217.000002C 136.450795 217.000002 166.000002 187.450795 166.000002 151.000002C 166.000002 114.549208 136.450795 85.000002 100.000002 85.000002C 63.549208 85.000002 34.000002 114.549208 34.000002 151.000002M 10 151C 10 154.313709 12.686292 157 16 157C 19.313709 157 22 154.313709 22 151C 22 147.686292 19.313709 145 16 145C 12.686292 145 10 147.686292 10 151"></path></g></g><g id="3.g-3_1_fr_dkgyz5lkt8j-fill" stroke="none" fill="#5c4938"><g><path d="M 109 19C 109 23.9706 104.9706 28 100 28C 95.0294 28 91 23.9706 91 19C 91 14.0294 95.0294 10 100 10C 104.9706 10 109 14.0294 109 19Z"></path></g></g></g><g id="g-root-4.g-4_fr_90gltlkuth-fill" data-item-order="-595198" transform="translate(561, 307.99658203125)"><g id="4.g-4_fr_90gltlkuth-fill" stroke="none" fill="#3b5649"><g><path d="M 34 76C 34.000002 112.450795 63.549208 142.000002 100.000002 142.000002C 136.450795 142.000002 166.000002 112.450795 166.000002 76.000002C 166.000002 39.549208 136.450795 10.000002 100.000002 10.000002C 63.549208 10.000002 34.000002 39.549208 34.000002 76.000002M 10 76C 10 79.313709 12.686292 82 16 82C 19.313709 82 22 79.313709 22 76C 22 72.686292 19.313709 70 16 70C 12.686292 70 10 72.686292 10 76"></path></g></g><g id="4.g-4_fr_90gltlkuth-fill" stroke="none" fill="#3b5649"><g><path d="M 109 208C 109 212.9706 104.9706 217 100 217C 95.0294 217 91 212.9706 91 208C 91 203.0294 95.0294 199 100 199C 104.9706 199 109 203.0294 109 208Z"></path></g></g></g><g id="g-root-5.g-5_1_fr_1qf3zf5lks9b-fill" data-item-order="-595186" transform="translate(729, 232.99658203125)"><g id="5.g-5_1_fr_1qf3zf5lks9b-fill" stroke="none" fill="#60436d"><g><path d="M 34 151C 34.000002 187.450795 63.549208 217.000002 100.000002 217.000002C 136.450795 217.000002 166.000002 187.450795 166.000002 151.000002C 166.000002 114.549208 136.450795 85.000002 100.000002 85.000002C 63.549208 85.000002 34.000002 114.549208 34.000002 151.000002M 10 151C 10 154.313709 12.686292 157 16 157C 19.313709 157 22 154.313709 22 151C 22 147.686292 19.313709 145 16 145C 12.686292 145 10 147.686292 10 151M 178 151C 178 154.313709 180.686292 157 184 157C 187.313709 157 190 154.313709 190 151C 190 147.686292 187.313709 145 184 145C 180.686292 145 178 147.686292 178 151"></path></g></g><g id="5.g-5_1_fr_1qf3zf5lks9b-fill" stroke="none" fill="#60436d"><g><path d="M 109 19C 109 23.9706 104.9706 28 100 28C 95.0294 28 91 23.9706 91 19C 91 14.0294 95.0294 10 100 10C 104.9706 10 109 14.0294 109 19Z"></path></g></g></g><g id="g-root--1.line_fr_1hjgz69lkttt-fill" data-item-order="-595173" transform="translate(147, 250.99658203125)"></g><g id="g-root--1.line_1_fr_18ntyxdlkumj-fill" data-item-order="-595169" transform="translate(483, 250.99658203125)"></g><g id="g-root--1.line_2_fr_13ynci9lm6th-fill" data-item-order="-595165" transform="translate(819, 250.99658203125)"></g><g id="g-root--1.line_3_fr_13ynci9lm6tj-fill" data-item-order="-595161" transform="translate(315, 439.99658203125)"></g><g id="g-root--1.line_4_fr_zitudtlm7lt-fill" data-item-order="-595157" transform="translate(651, 439.99658203125)"></g><g id="g-root-tx_lespoids_htf95dlm87j-fill" data-item-order="0" transform="translate(375, 181.99658203125)"><g id="tx_lespoids_htf95dlm87j-fill" stroke="none" fill="#ababab"><g><text style="font: 15px Roboto, sans-serif; white-space: pre;" font-size="15px" font-family="Roboto, sans-serif"><tspan x="13.34" y="27.33" dominant-baseline="ideographic">Les poids sont ajustés en </tspan><tspan x="35.99" y="45.33" dominant-baseline="ideographic">fonction de l'erreur</tspan></text></g></g></g><g id="g-root-tx_lemodlee_1uo29ldlm801-fill" data-item-order="0" transform="translate(711, 157.99658203125)"><g id="tx_lemodlee_1uo29ldlm801-fill" stroke="none" fill="#ababab"><g><text style="font: 15px Roboto, sans-serif; white-space: pre;" font-size="15px" font-family="Roboto, sans-serif"><tspan x="28.97" y="30.33" dominant-baseline="ideographic">Le modèle est formé sur </tspan><tspan x="11.82" y="48.33" dominant-baseline="ideographic">plusieurs passes à travers les </tspan><tspan x="81.51" y="66.33" dominant-baseline="ideographic">données</tspan></text></g></g></g><g id="g-root-tx_rtroprop_v4vriplm6mm-fill" data-item-order="0" transform="translate(375, 145.99658203125)"><g id="tx_rtroprop_v4vriplm6mm-fill" stroke="none" fill="#f79438"><g><text style="font: bold 20px Roboto, sans-serif; white-space: pre;" font-weight="bold" font-size="20px" font-family="Roboto, sans-serif"><tspan x="15.54" y="34" dominant-baseline="ideographic">Rétropropagation</tspan></text></g></g></g><g id="g-root-tx_lesdonne_18fpssxlm87h-fill" data-item-order="0" transform="translate(39, 157.99658203125)"><g id="tx_lesdonne_18fpssxlm87h-fill" stroke="none" fill="#ababab"><g><text style="font: 15px Roboto, sans-serif; white-space: pre;" font-size="15px" font-family="Roboto, sans-serif"><tspan x="15.07" y="30.33" dominant-baseline="ideographic">Les données passent par les </tspan><tspan x="24.16" y="48.33" dominant-baseline="ideographic">couches pour extraire des </tspan><tspan x="56.53" y="66.33" dominant-baseline="ideographic">caractéristiques</tspan></text></g></g></g><g id="g-root-tx_cyclesde_8yepzllm6m8-fill" data-item-order="0" transform="translate(711, 121.99658203125)"><g id="tx_cyclesde_8yepzllm6m8-fill" stroke="none" fill="#cb68f9"><g><text style="font: bold 20px Roboto, sans-serif; white-space: pre;" font-weight="bold" font-size="20px" font-family="Roboto, sans-serif"><tspan x="12.08" y="34" dominant-baseline="ideographic">Cycles d’entraînement</tspan></text></g></g></g><g id="g-root-cube_18hl829lm77u-fill" data-item-order="0" transform="translate(117, 343.99658203125)"></g><g id="g-root-warn_1q7kyz5vlt6x-fill" data-item-order="0" transform="translate(285, 343.99658203125)"></g><g id="g-root-decr_zlafblvn7d1-fill" data-item-order="0" transform="translate(453, 343.99658203125)"></g><g id="g-root-up_qqwgepvq03u-fill" data-item-order="0" transform="translate(621, 343.99658203125)"></g><g id="g-root-sync_1lqilu9vsvt4-fill" data-item-order="0" transform="translate(789, 343.99658203125)"></g><g id="g-root-tx_lesalgor_1qaplw1vrf9h-fill" data-item-order="0" transform="translate(543, 601.99658203125)"><g id="tx_lesalgor_1qaplw1vrf9h-fill" stroke="none" fill="#ababab"><g><text style="font: 15px Roboto, sans-serif; white-space: pre;" font-size="15px" font-family="Roboto, sans-serif"><tspan x="14.18" y="30.33" dominant-baseline="ideographic">Les algorithmes mettent à jour </tspan><tspan x="27.99" y="48.33" dominant-baseline="ideographic">les poids pour améliorer la </tspan><tspan x="85.59" y="66.33" dominant-baseline="ideographic">précision</tspan></text></g></g></g><g id="g-root-tx_processu_dccsuplm6tn-fill" data-item-order="0" transform="translate(249, 37.99658203125)"><g id="tx_processu_dccsuplm6tn-fill" stroke="none" fill="#ababab"><g><text style="font: 20px Roboto, sans-serif; white-space: pre;" font-size="20px" font-family="Roboto, sans-serif"><tspan x="15.42" y="34" dominant-baseline="ideographic">Processus d'entraînement des réseaux de neurones</tspan></text></g></g></g><g id="g-root-tx_calculde_18gb7ypvrgg8-fill" data-item-order="0" transform="translate(207, 529.99658203125)"><g id="tx_calculde_18gb7ypvrgg8-fill" stroke="none" fill="#fb6762"><g><text style="font: bold 20px Roboto, sans-serif; white-space: pre;" font-weight="bold" font-size="20px" font-family="Roboto, sans-serif"><tspan x="15.79" y="34" dominant-baseline="ideographic">Calcul de la perte</tspan></text></g></g></g><g id="g-root-tx_algorith_9093blvrg98-fill" data-item-order="0" transform="translate(543, 529.99658203125)"><g id="tx_algorith_9093blvrg98-fill" stroke="none" fill="#43dd93"><g><text style="font: bold 20px Roboto, sans-serif; white-space: pre;" font-weight="bold" font-size="20px" font-family="Roboto, sans-serif"><tspan x="56.77" y="40" dominant-baseline="ideographic">Algorithmes </tspan><tspan x="48.77" y="64" dominant-baseline="ideographic">d'optimisation</tspan></text></g></g></g><g id="g-root-tx_lapertee_de766pvrh8h-fill" data-item-order="0" transform="translate(207, 565.99658203125)"><g id="tx_lapertee_de766pvrh8h-fill" stroke="none" fill="#ababab"><g><text style="font: 15px Roboto, sans-serif; white-space: pre;" font-size="15px" font-family="Roboto, sans-serif"><tspan x="12.09" y="30.33" dominant-baseline="ideographic">La perte est calculée pour </tspan><tspan x="13.2" y="48.33" dominant-baseline="ideographic">mesurer l'exactitude de la </tspan><tspan x="64.78" y="66.33" dominant-baseline="ideographic">prédiction</tspan></text></g></g></g><g id="g-root-tx_propagat_1lr6b69lm6mk-fill" data-item-order="0" transform="translate(39, 121.99658203125)"><g id="tx_propagat_1lr6b69lm6mk-fill" stroke="none" fill="#4f91fc"><g><text style="font: bold 20px Roboto, sans-serif; white-space: pre;" font-weight="bold" font-size="20px" font-family="Roboto, sans-serif"><tspan x="11.98" y="34" dominant-baseline="ideographic">Propagation avant</tspan></text></g></g></g><g id="g-root-0.g-0_fr_1qd8k5tlkt8t-stroke" data-item-order="-595247" transform="translate(63.21098327636719, 289.99658203125)"><g id="0.g-0_fr_1qd8k5tlkt8t-stroke" fill="none" stroke-linecap="round" stroke-linejoin="round" stroke-miterlimit="4" stroke="#b7b7b7" stroke-width="2" stroke-dasharray="5.0, 7.0"><g><path d="M 177.578001 100C 174.501601 143.5917 138.163501 178 93.789001 178C 49.414501 178 13.076501 143.5917 10.000001 100M 345.578 88C 342.5016 44.4083 306.1635 10 261.789 10C 217.4145 10 181.0765 44.4083 178 88M 513.578016 100C 510.501616 143.5917 474.163516 178 429.789016 178C 385.414516 178 349.076516 143.5917 346.000016 100M 681.578016 88C 678.501616 44.4083 642.163516 10 597.789016 10C 553.414516 10 517.076516 44.4083 514.000016 88M 849.577955 100C 846.501555 143.5917 810.163455 178 765.788955 178C 721.414455 178 685.076455 143.5917 681.999955 100"></path></g></g></g><g id="g-root-1.g-1_1_fr_18ml0r5lksg7-stroke" data-item-order="-595234" transform="translate(57, 232.99658203125)"><g id="1.g-1_1_fr_18ml0r5lksg7-stroke" fill="none" stroke-linecap="round" stroke-linejoin="round" stroke-miterlimit="4" stroke="#4f91fc" stroke-width="2"><g><path d="M 34 151C 34.000002 187.450795 63.549208 217.000002 100.000002 217.000002C 136.450795 217.000002 166.000002 187.450795 166.000002 151.000002C 166.000002 114.549208 136.450795 85.000002 100.000002 85.000002C 63.549208 85.000002 34.000002 114.549208 34.000002 151.000002M 10 151C 10 154.313709 12.686292 157 16 157C 19.313709 157 22 154.313709 22 151C 22 147.686292 19.313709 145 16 145C 12.686292 145 10 147.686292 10 151"></path></g></g><g id="1.g-1_1_fr_18ml0r5lksg7-stroke" fill="none" stroke-linecap="round" stroke-linejoin="round" stroke-miterlimit="4" stroke="#4f91fc" stroke-width="2"><g><path d="M 109 19C 109 23.9706 104.9706 28 100 28C 95.0294 28 91 23.9706 91 19C 91 14.0294 95.0294 10 100 10C 104.9706 10 109 14.0294 109 19Z"></path></g></g></g><g id="g-root-2.g-2_fr_qvb09dlkutd-stroke" data-item-order="-595222" transform="translate(225, 307.99658203125)"><g id="2.g-2_fr_qvb09dlkutd-stroke" fill="none" stroke-linecap="round" stroke-linejoin="round" stroke-miterlimit="4" stroke="#fb6762" stroke-width="2"><g><path d="M 34 76C 34.000002 112.450795 63.549208 142.000002 100.000002 142.000002C 136.450795 142.000002 166.000002 112.450795 166.000002 76.000002C 166.000002 39.549208 136.450795 10.000002 100.000002 10.000002C 63.549208 10.000002 34.000002 39.549208 34.000002 76.000002M 10 76C 10 79.313709 12.686292 82 16 82C 19.313709 82 22 79.313709 22 76C 22 72.686292 19.313709 70 16 70C 12.686292 70 10 72.686292 10 76"></path></g></g><g id="2.g-2_fr_qvb09dlkutd-stroke" fill="none" stroke-linecap="round" stroke-linejoin="round" stroke-miterlimit="4" stroke="#fb6762" stroke-width="2"><g><path d="M 109 208C 109 212.9706 104.9706 217 100 217C 95.0294 217 91 212.9706 91 208C 91 203.0294 95.0294 199 100 199C 104.9706 199 109 203.0294 109 208Z"></path></g></g></g><g id="g-root-3.g-3_1_fr_dkgyz5lkt8j-stroke" data-item-order="-595210" transform="translate(393, 232.99658203125)"><g id="3.g-3_1_fr_dkgyz5lkt8j-stroke" fill="none" stroke-linecap="round" stroke-linejoin="round" stroke-miterlimit="4" stroke="#f79438" stroke-width="2"><g><path d="M 34 151C 34.000002 187.450795 63.549208 217.000002 100.000002 217.000002C 136.450795 217.000002 166.000002 187.450795 166.000002 151.000002C 166.000002 114.549208 136.450795 85.000002 100.000002 85.000002C 63.549208 85.000002 34.000002 114.549208 34.000002 151.000002M 10 151C 10 154.313709 12.686292 157 16 157C 19.313709 157 22 154.313709 22 151C 22 147.686292 19.313709 145 16 145C 12.686292 145 10 147.686292 10 151"></path></g></g><g id="3.g-3_1_fr_dkgyz5lkt8j-stroke" fill="none" stroke-linecap="round" stroke-linejoin="round" stroke-miterlimit="4" stroke="#f79438" stroke-width="2"><g><path d="M 109 19C 109 23.9706 104.9706 28 100 28C 95.0294 28 91 23.9706 91 19C 91 14.0294 95.0294 10 100 10C 104.9706 10 109 14.0294 109 19Z"></path></g></g></g><g id="g-root-4.g-4_fr_90gltlkuth-stroke" data-item-order="-595198" transform="translate(561, 307.99658203125)"><g id="4.g-4_fr_90gltlkuth-stroke" fill="none" stroke-linecap="round" stroke-linejoin="round" stroke-miterlimit="4" stroke="#43dd93" stroke-width="2"><g><path d="M 34 76C 34.000002 112.450795 63.549208 142.000002 100.000002 142.000002C 136.450795 142.000002 166.000002 112.450795 166.000002 76.000002C 166.000002 39.549208 136.450795 10.000002 100.000002 10.000002C 63.549208 10.000002 34.000002 39.549208 34.000002 76.000002M 10 76C 10 79.313709 12.686292 82 16 82C 19.313709 82 22 79.313709 22 76C 22 72.686292 19.313709 70 16 70C 12.686292 70 10 72.686292 10 76"></path></g></g><g id="4.g-4_fr_90gltlkuth-stroke" fill="none" stroke-linecap="round" stroke-linejoin="round" stroke-miterlimit="4" stroke="#43dd93" stroke-width="2"><g><path d="M 109 208C 109 212.9706 104.9706 217 100 217C 95.0294 217 91 212.9706 91 208C 91 203.0294 95.0294 199 100 199C 104.9706 199 109 203.0294 109 208Z"></path></g></g></g><g id="g-root-5.g-5_1_fr_1qf3zf5lks9b-stroke" data-item-order="-595186" transform="translate(729, 232.99658203125)"><g id="5.g-5_1_fr_1qf3zf5lks9b-stroke" fill="none" stroke-linecap="round" stroke-linejoin="round" stroke-miterlimit="4" stroke="#cb68f9" stroke-width="2"><g><path d="M 34 151C 34.000002 187.450795 63.549208 217.000002 100.000002 217.000002C 136.450795 217.000002 166.000002 187.450795 166.000002 151.000002C 166.000002 114.549208 136.450795 85.000002 100.000002 85.000002C 63.549208 85.000002 34.000002 114.549208 34.000002 151.000002M 10 151C 10 154.313709 12.686292 157 16 157C 19.313709 157 22 154.313709 22 151C 22 147.686292 19.313709 145 16 145C 12.686292 145 10 147.686292 10 151M 178 151C 178 154.313709 180.686292 157 184 157C 187.313709 157 190 154.313709 190 151C 190 147.686292 187.313709 145 184 145C 180.686292 145 178 147.686292 178 151"></path></g></g><g id="5.g-5_1_fr_1qf3zf5lks9b-stroke" fill="none" stroke-linecap="round" stroke-linejoin="round" stroke-miterlimit="4" stroke="#cb68f9" stroke-width="2"><g><path d="M 109 19C 109 23.9706 104.9706 28 100 28C 95.0294 28 91 23.9706 91 19C 91 14.0294 95.0294 10 100 10C 104.9706 10 109 14.0294 109 19Z"></path></g></g></g><g id="g-root--1.line_fr_1hjgz69lkttt-stroke" data-item-order="-595173" transform="translate(147, 250.99658203125)"><g id="-1.line_fr_1hjgz69lkttt-stroke" fill="none" stroke-linecap="round" stroke-linejoin="round" stroke-miterlimit="4" stroke="#b7b7b7" stroke-width="2"><g><path d="M 10 67L 10 10"></path></g></g></g><g id="g-root--1.line_1_fr_18ntyxdlkumj-stroke" data-item-order="-595169" transform="translate(483, 250.99658203125)"><g id="-1.line_1_fr_18ntyxdlkumj-stroke" fill="none" stroke-linecap="round" stroke-linejoin="round" stroke-miterlimit="4" stroke="#b7b7b7" stroke-width="2"><g><path d="M 10 67L 10 10"></path></g></g></g><g id="g-root--1.line_2_fr_13ynci9lm6th-stroke" data-item-order="-595165" transform="translate(819, 250.99658203125)"><g id="-1.line_2_fr_13ynci9lm6th-stroke" fill="none" stroke-linecap="round" stroke-linejoin="round" stroke-miterlimit="4" stroke="#b7b7b7" stroke-width="2"><g><path d="M 10 67L 10 10"></path></g></g></g><g id="g-root--1.line_3_fr_13ynci9lm6tj-stroke" data-item-order="-595161" transform="translate(315, 439.99658203125)"><g id="-1.line_3_fr_13ynci9lm6tj-stroke" fill="none" stroke-linecap="round" stroke-linejoin="round" stroke-miterlimit="4" stroke="#b7b7b7" stroke-width="2"><g><path d="M 10 67L 10 10"></path></g></g></g><g id="g-root--1.line_4_fr_zitudtlm7lt-stroke" data-item-order="-595157" transform="translate(651, 439.99658203125)"><g id="-1.line_4_fr_zitudtlm7lt-stroke" fill="none" stroke-linecap="round" stroke-linejoin="round" stroke-miterlimit="4" stroke="#b7b7b7" stroke-width="2"><g><path d="M 10 67L 10 10"></path></g></g></g><g id="g-root-tx_lespoids_htf95dlm87j-stroke" data-item-order="0" transform="translate(375, 181.99658203125)"></g><g id="g-root-tx_lemodlee_1uo29ldlm801-stroke" data-item-order="0" transform="translate(711, 157.99658203125)"></g><g id="g-root-tx_rtroprop_v4vriplm6mm-stroke" data-item-order="0" transform="translate(375, 145.99658203125)"></g><g id="g-root-tx_lesdonne_18fpssxlm87h-stroke" data-item-order="0" transform="translate(39, 157.99658203125)"></g><g id="g-root-tx_cyclesde_8yepzllm6m8-stroke" data-item-order="0" transform="translate(711, 121.99658203125)"></g><g id="g-root-cube_18hl829lm77u-stroke" data-item-order="0" transform="translate(117, 343.99658203125)"><g id="cube_18hl829lm77u-stroke" fill="none" stroke-linecap="round" stroke-linejoin="round" stroke-miterlimit="4" stroke="#4f91fc" stroke-width="2"><g><path d="M 30 40C 31.380713 40 32.5 38.880714 32.5 37.5L 32.5 19.16C 32.499859 18.497013 32.236374 17.861231 31.7675 17.3925L 26.3575 11.9825C 25.888769 11.513626 25.252987 11.250141 24.59 11.25L 13.75 11.25C 12.369288 11.25 11.25 12.369288 11.25 13.75L 11.25 37.5C 11.25 38.880714 12.369288 40 13.75 40ZM 42.5 51.25L 60 51.25L 60 68.75L 42.5 68.75ZM 60 68.75L 68.75 60L 68.75 42.5L 51.25 42.5L 42.5 51.25M 60 51.25L 68.75 42.5M 62.5 27.5C 58.576298 21.415991 51.829521 17.743122 44.59 17.75L 40.717499 17.75M 46.5275 11.93L 40.717499 17.7425L 46.5275 23.5525M 12.5 50C 16.423706 56.084015 23.170485 59.756882 30.410002 59.750004L 34.282501 59.75M 28.4725 65.57L 34.282501 59.7575L 28.4725 53.947502"></path></g></g></g><g id="g-root-warn_1q7kyz5vlt6x-stroke" data-item-order="0" transform="translate(285, 343.99658203125)"><g id="warn_1q7kyz5vlt6x-stroke" fill="none" stroke-linecap="round" stroke-linejoin="round" stroke-miterlimit="4" stroke="#fb6762" stroke-width="2"><g><path d="M 31.25 68.75L 13.75 68.75C 12.369288 68.75 11.25 67.630707 11.25 66.25L 11.25 13.75C 11.25 12.369288 12.369288 11.25 13.75 11.25L 46.982502 11.25C 47.645489 11.250141 48.281269 11.513626 48.75 11.9825L 58.017502 21.25C 58.486374 21.718733 58.749855 22.354513 58.75 23.0175L 58.75 31.25M 21.25 44.772499L 28.635 37.387501C 29.363396 36.660606 30.503124 36.54768 31.360001 37.1175L 34.842499 39.439999C 35.720772 40.024849 36.893051 39.889545 37.615002 39.120003L 44.459999 31.817501M 21.25 26.25L 21.25 51.25L 33.75 51.25M 53.75 61.25C 54.095177 61.25 54.375 61.529823 54.375 61.875C 54.375 62.220177 54.095177 62.5 53.75 62.5C 53.404823 62.5 53.125 62.220177 53.125 61.875C 53.125 61.529823 53.404823 61.25 53.75 61.25M 53.75 56.25L 53.75 48.75M 55.844997 41.25C 55.432045 40.476688 54.626671 39.993752 53.75 39.993752C 52.873337 39.993752 52.067955 40.476688 51.655003 41.25L 39.014999 65.337502C 38.635159 66.059326 38.664623 66.928062 39.092499 67.622498C 39.525574 68.320122 40.288891 68.743866 41.110004 68.742508L 66.389999 68.7425C 67.211113 68.743866 67.974426 68.320122 68.407501 67.622505C 68.835373 66.928062 68.864838 66.059326 68.485001 65.337502Z"></path></g></g></g><g id="g-root-decr_zlafblvn7d1-stroke" data-item-order="0" transform="translate(453, 343.99658203125)"><g id="decr_zlafblvn7d1-stroke" fill="none" stroke-linecap="round" stroke-linejoin="round" stroke-miterlimit="4" stroke="#f79438" stroke-width="2"><g><path d="M 68.75 57.502499L 68.75 68.752502L 57.5 68.752502M 68.75 68.75L 56.125 56.125C 54.661926 54.662453 52.514603 54.120102 50.532501 54.712505L 36.25 58.530003C 34.310043 59.049599 32.240238 58.494984 30.82 57.075001L 16.25 42.5M 32.327499 48.605C 40.223938 47.615643 46.635593 41.749329 48.321129 33.971699C 50.006668 26.194069 46.598839 18.199713 39.820435 14.030085C 33.042034 9.860456 24.369928 10.424028 18.188204 15.435897C 12.006479 20.447765 9.662004 28.815945 12.34 36.310001M 40 22.4475L 35 38.697502L 30 22.4475L 25 38.697502L 20 22.4475M 18.75 28.220001L 41.25 28.220001"></path></g></g></g><g id="g-root-up_qqwgepvq03u-stroke" data-item-order="0" transform="translate(621, 343.99658203125)"><g id="up_qqwgepvq03u-stroke" fill="none" stroke-linecap="round" stroke-linejoin="round" stroke-miterlimit="4" stroke="#43dd93" stroke-width="2"><g><path d="M 11.875 68.125C 15.6084 68.125 19.341825 68.125 23.075226 64.375C 26.808626 68.125 30.542027 68.125 31.5376 68.125C 32.533176 68.125 36.266502 68.125 40 64.375C 43.733498 68.125 47.466751 68.125 48.462502 68.125C 49.458 68.125 53.191254 68.125 56.924747 64.375C 60.658249 68.125 64.391495 68.125 68.125 68.125M 60.375 20.989525C 64.9645 20.989525 68.685249 18.949175 68.685249 16.432276C 68.685249 13.91535 64.9645 11.875 60.375 11.875C 55.785252 11.875 52.064747 13.91535 52.064747 16.432276C 52.064747 18.949175 55.785252 20.989525 60.375 20.989525ZM 52.064747 16.432125L 52.064747 28.76355C 52.064747 31.176226 55.817753 33.320824 60.375 33.320824C 64.932251 33.320824 68.685249 31.176226 68.685249 28.76355L 68.685249 16.432125M 15.74065 58.499752C 15.74065 57.671501 15.46455 56.843254 14.6362 56.014748L 12.979475 54.358002C 11.875008 53.529747 11.59888 51.873001 12.151115 50.768501C 12.70335 49.388 13.807825 48.835751 15.188425 48.835751L 17.397375 48.835751C 18.225725 48.835751 19.330175 48.55975 19.882425 48.0075C 20.43465 47.45525 20.710775 46.640503 20.710775 45.522251L 20.710775 43.313499C 20.710775 41.932751 21.539125 40.55225 22.6436 40.276001C 24.024176 39.723999 25.404776 40 26.233124 41.1045L 27.889851 42.76125C 28.442076 43.313499 29.270424 43.865749 30.374899 43.865749C 31.479349 43.865749 32.031574 43.5895 32.859924 42.76125L 34.516647 41.1045C 35.344997 40 37.001751 39.723999 38.106251 40.276001C 39.486748 40.828251 40.039001 41.932751 40.039001 43.313499L 40.039001 45.522251C 40.039001 46.35075 40.31525 47.45525 40.867249 48.0075C 41.419498 48.55975 42.523998 49.112 43.352501 48.835751L 45.561249 48.835751C 46.942001 48.835751 48.322502 49.663998 48.598751 50.768501C 49.151001 52.149246 48.874748 53.529747 47.770248 54.358002L 46.113503 56.014748C 45.561249 56.567001 45.008999 57.3955 45.008999 58.499752M 24.300224 58.499752C 24.300224 55.186249 27.061426 52.149002 30.650949 52.149002C 33.964352 52.149002 36.725498 54.910004 36.725498 58.499752M 60.375 39.249748L 60.375 57.499752M 10 10M 55.375 44.25L 60.375 39.25L 65.375 44.25M 68.685249 22.549576C 68.685249 25.119776 64.964752 27.20335 60.375 27.20335C 55.785252 27.20335 52.064747 25.119776 52.064747 22.549576"></path></g></g></g><g id="g-root-sync_1lqilu9vsvt4-stroke" data-item-order="0" transform="translate(789, 343.99658203125)"><g id="sync_1lqilu9vsvt4-stroke" fill="none" stroke-linecap="round" stroke-linejoin="round" stroke-miterlimit="4" stroke="#cb68f9" stroke-width="2"><g><path d="M 48.802498 57.372498L 39.735001 57.372498L 39.735001 66.82M 67.340004 59.220001C 65.499557 65.138153 59.862118 69.039795 53.674999 68.677505C 47.480267 68.144707 42.424694 63.499992 41.369999 57.372498M 59.682499 49.817501L 68.75 49.817501L 68.75 40.372501M 41.145 47.965C 42.988228 42.049835 48.624958 38.151768 54.809998 38.514999C 61.002068 39.049797 66.055824 43.6908 67.115005 49.815002M 11.25 21.465L 60.84 21.465M 11.25 43.127502L 35.185001 43.127502M 11.25 32.3125L 60.827499 32.3125M 31.505001 21.465L 31.505001 54.337502M 46.0275 21.465L 46.0275 35.07M 33.294998 54.330002L 16.48 54.330002C 13.598454 54.329994 11.2625 51.994041 11.2625 49.112495L 11.2625 16.5C 11.266638 13.621384 13.60138 11.289997 16.48 11.29L 55.610001 11.29C 58.488617 11.289997 60.82336 13.621384 60.827499 16.5L 60.827499 35.25"></path></g></g></g><g id="g-root-tx_lesalgor_1qaplw1vrf9h-stroke" data-item-order="0" transform="translate(543, 601.99658203125)"></g><g id="g-root-tx_processu_dccsuplm6tn-stroke" data-item-order="0" transform="translate(249, 37.99658203125)"></g><g id="g-root-tx_calculde_18gb7ypvrgg8-stroke" data-item-order="0" transform="translate(207, 529.99658203125)"></g><g id="g-root-tx_algorith_9093blvrg98-stroke" data-item-order="0" transform="translate(543, 529.99658203125)"></g><g id="g-root-tx_lapertee_de766pvrh8h-stroke" data-item-order="0" transform="translate(207, 565.99658203125)"></g><g id="g-root-tx_propagat_1lr6b69lm6mk-stroke" data-item-order="0" transform="translate(39, 121.99658203125)"></g></g></g></svg>