<?xml version="1.0" encoding="utf-8" standalone="yes"?>
<!DOCTYPE svg PUBLIC "-//W3C//DTD SVG 1.1//EN" "http://www.w3.org/Graphics/SVG/1.1/DTD/svg11.dtd">
<svg width="494" height="1065" viewBox="0 0 494 1065" style="fill:none;stroke:none;fill-rule:evenodd;clip-rule:evenodd;stroke-linecap:round;stroke-linejoin:round;stroke-miterlimit:1.5;" version="1.1" xmlns="http://www.w3.org/2000/svg" xmlns:xlink="http://www.w3.org/1999/xlink"><style id="fontImports">@import url("https://fonts.googleapis.com/css2?family=Roboto:wght@400;700&amp;display=block");</style><g id="items" style="isolation: isolate"><g id="blend" style="mix-blend-mode: normal"><g id="g-root-di_4oswwx3x7jm2-fill" data-item-order="-34561" transform="translate(129.99667358398438, 385)"><g id="di_4oswwx3x7jm2-fill" stroke="none" fill="#5c4938"><g><path d="M 10.000061 82L 130.000061 154L 250.010061 82L 130.000061 10Z"></path></g></g></g><g id="g-root-ro_8xrdep3x64ni-fill" data-item-order="-12960" transform="translate(60, 823.00048828125)"><g id="ro_8xrdep3x64ni-fill" stroke="none" fill="#344e57"><g><path d="M 22 10L 178 10C 178 10 190 10 190 22L 190 70C 190 70 190 82 178 82L 22 82C 22 82 10 82 10 70L 10 22C 10 22 10 10 22 10"></path></g></g></g><g id="g-root-ro_qvwfj53x7h8g-fill" data-item-order="-12096" transform="translate(166, 257)"><g id="ro_qvwfj53x7h8g-fill" stroke="none" fill="#344e57"><g><path d="M 22 10L 166 10C 166 10 178 10 178 22L 178 70C 178 70 178 82 166 82L 22 82C 22 82 10 82 10 70L 10 22C 10 22 10 10 22 10"></path></g></g></g><g id="g-root-ro_v4uw0x3x3bi8-fill" data-item-order="-12096" transform="translate(166, 695)"><g id="ro_v4uw0x3x3bi8-fill" stroke="none" fill="#344e57"><g><path d="M 22 10L 166 10C 166 10 178 10 178 22L 178 70C 178 70 178 82 166 82L 22 82C 22 82 10 82 10 70L 10 22C 10 22 10 10 22 10"></path></g></g></g><g id="g-root-ro_18k28wx3x8x70-fill" data-item-order="-10368" transform="translate(260, 823.00048828125)"><g id="ro_18k28wx3x8x70-fill" stroke="none" fill="#344e57"><g><path d="M 22 10L 142 10C 142 10 154 10 154 22L 154 70C 154 70 154 82 142 82L 22 82C 22 82 10 82 10 70L 10 22C 10 22 10 10 22 10"></path></g></g></g><g id="g-root-ro_1hby8bl3x39xj-fill" data-item-order="-7776" transform="translate(178, 146.66650390625)"><g id="ro_1hby8bl3x39xj-fill" stroke="none" fill="#545454"><g><path d="M 22 10L 142 10C 142 10 154 10 154 22L 154 52C 154 52 154 64 142 64L 22 64C 22 64 10 64 10 52L 10 22C 10 22 10 10 22 10"></path></g></g></g><g id="g-root-ro_18n6mch3xbp4y-fill" data-item-order="-6480" transform="translate(202, 951.00048828125)"><g id="ro_18n6mch3xbp4y-fill" stroke="none" fill="#344e57"><g><path d="M 22 10L 118 10C 118 10 130 10 130 22L 130 52C 130 52 130 64 118 64L 22 64C 22 64 10 64 10 52L 10 22C 10 22 10 10 22 10"></path></g></g></g><g id="g-root-ro_vbpxnl3xhc78-fill" data-item-order="-5184" transform="translate(202, 585)"><g id="ro_vbpxnl3xhc78-fill" stroke="none" fill="#344e57"><g><path d="M 22 10L 94 10C 94 10 106 10 106 22L 106 52C 106 52 106 64 94 64L 22 64C 22 64 10 64 10 52L 10 22C 10 22 10 10 22 10"></path></g></g></g><g id="g-root-ro_qrj3xd3xbrb6-fill" data-item-order="-5184" transform="translate(86, 585)"><g id="ro_qrj3xd3xbrb6-fill" stroke="none" fill="#344e57"><g><path d="M 22 10L 94 10C 94 10 106 10 106 22L 106 52C 106 52 106 64 94 64L 22 64C 22 64 10 64 10 52L 10 22C 10 22 10 10 22 10"></path></g></g></g><g id="g-root-ro_1usemjl3xk5qi-fill" data-item-order="-5184" transform="translate(318, 585)"><g id="ro_1usemjl3xk5qi-fill" stroke="none" fill="#344e57"><g><path d="M 22 10L 94 10C 94 10 106 10 106 22L 106 52C 106 52 106 64 94 64L 22 64C 22 64 10 64 10 52L 10 22C 10 22 10 10 22 10"></path></g></g></g><g id="g-root-tx_fonction_1qapsbl3xd3po-fill" data-item-order="0" transform="translate(63, 51)"><g id="tx_fonction_1qapsbl3xd3po-fill" stroke="none" fill="#ababab"><g><text style="font: 25px Roboto, sans-serif; white-space: pre;" font-size="25px" font-family="Roboto, sans-serif"><tspan x="13.2" y="42.33" dominant-baseline="ideographic">Réseau de neurones convolutif</tspan></text></g></g></g><g id="g-root-cu_9099r53xd4p6-fill" data-item-order="2" transform="translate(150, 767.00048828125)"></g><g id="g-root-cu_qqwt5t3xd5hd-fill" data-item-order="2" transform="translate(250, 329)"></g><g id="g-root-cu_qqwt5t3xd5hg-fill" data-item-order="2" transform="translate(134, 529)"></g><g id="g-root-cu_4kfrmp3xd5hh-fill" data-item-order="2" transform="translate(250, 767.00048828125)"></g><g id="g-root-cu_hv9swx3xd6a7-fill" data-item-order="2" transform="translate(250, 529)"></g><g id="g-root-cu_mb3b1d3xd69t-fill" data-item-order="2" transform="translate(250, 529)"></g><g id="g-root-cu_4kfrmp3xd5hj-fill" data-item-order="2" transform="translate(150, 895.00048828125)"></g><g id="g-root-cu_dg2rvl3xd3wu-fill" data-item-order="2" transform="translate(250, 639)"></g><g id="g-root-cu_dg2rvl3xd3wr-fill" data-item-order="2" transform="translate(134, 639)"></g><g id="g-root-cu_v6qba93xd4p2-fill" data-item-order="2" transform="translate(250, 200.66650390625)"></g><g id="g-root-cu_4m9i93xd69u-fill" data-item-order="2" transform="translate(262, 895.00048828125)"></g><g id="g-root-cu_9099r53xd4p4-fill" data-item-order="2" transform="translate(250, 639)"></g><g id="g-root-1_4mxktd3xk54x-fill" data-item-order="1000000000" transform="translate(330, 594.99658203125)"></g><g id="g-root-tx_1d_1hdtnkx3xbrb4-fill" data-item-order="1000000000" transform="translate(134, 600)"><g id="tx_1d_1hdtnkx3xbrb4-fill" stroke="none" fill="#1ac3fb"><g><text style="font: 20px Roboto, sans-serif; white-space: pre;" font-size="20px" font-family="Roboto, sans-serif"><tspan x="12" y="34" dominant-baseline="ideographic">1D</tspan></text></g></g></g><g id="g-root-tx_2d_4njyqp3xhd6y-fill" data-item-order="1000000000" transform="translate(250, 600)"><g id="tx_2d_4njyqp3xhd6y-fill" stroke="none" fill="#1ac3fb"><g><text style="font: 20px Roboto, sans-serif; white-space: pre;" font-size="20px" font-family="Roboto, sans-serif"><tspan x="12" y="34" dominant-baseline="ideographic">2D</tspan></text></g></g></g><g id="g-root-tx_3d_mdl4813xk5xk-fill" data-item-order="1000000000" transform="translate(366, 600)"><g id="tx_3d_mdl4813xk5xk-fill" stroke="none" fill="#1ac3fb"><g><text style="font: 20px Roboto, sans-serif; white-space: pre;" font-size="20px" font-family="Roboto, sans-serif"><tspan x="12" y="34" dominant-baseline="ideographic">3D</tspan></text></g></g></g><g id="g-root-exce_1d2dh293xhczv-fill" data-item-order="1000000000" transform="translate(214, 594.99658203125)"></g><g id="g-root-scat_142zmap3xbpq9-fill" data-item-order="1000000000" transform="translate(98, 594.99658203125)"></g><g id="g-root-2_140hw9t3x39xr-fill" data-item-order="1000000000" transform="translate(178, 713.99658203125)"></g><g id="g-root-tx_couchede_1hbbxk13x3bim-fill" data-item-order="1000000000" transform="translate(214, 707)"><g id="tx_couchede_1hbbxk13x3bim-fill" stroke="none" fill="#1ac3fb"><g><text style="font: 20px Roboto, sans-serif; white-space: pre;" font-size="20px" font-family="Roboto, sans-serif"><tspan x="12" y="34" dominant-baseline="ideographic">Couche de </tspan><tspan x="12" y="58" dominant-baseline="ideographic">Pooling</tspan></text></g></g></g><g id="g-root-tx_typedeco_i09fa93x7i15-fill" data-item-order="1000000000" transform="translate(190, 421)"><g id="tx_typedeco_i09fa93x7i15-fill" stroke="none" fill="#f79438"><g><text style="font: 20px Roboto, sans-serif; white-space: pre;" font-size="20px" font-family="Roboto, sans-serif"><tspan x="32.85" y="34" dominant-baseline="ideographic">Type de </tspan><tspan x="14.46" y="58" dominant-baseline="ideographic">Convolution </tspan><tspan x="62.81" y="82" dominant-baseline="ideographic">?</tspan></text></g></g></g><g id="g-root-sett_1luwa753x8yrv-fill" data-item-order="1000000000" transform="translate(272, 841.99658203125)"></g><g id="g-root-tx_averagep_58qld3x8xe2-fill" data-item-order="1000000000" transform="translate(308, 835.00048828125)"><g id="tx_averagep_58qld3x8xe2-fill" stroke="none" fill="#1ac3fb"><g><text style="font: 20px Roboto, sans-serif; white-space: pre;" font-size="20px" font-family="Roboto, sans-serif"><tspan x="12" y="34" dominant-baseline="ideographic">Average </tspan><tspan x="12" y="58" dominant-baseline="ideographic">Pooling</tspan></text></g></g></g><g id="g-root-spre_m97vs13x632l-fill" data-item-order="1000000000" transform="translate(72, 841.99658203125)"></g><g id="g-root-tx_maxpooli_zk1x293x64ng-fill" data-item-order="1000000000" transform="translate(108, 847.00048828125)"><g id="tx_maxpooli_zk1x293x64ng-fill" stroke="none" fill="#1ac3fb"><g><text style="font: 20px Roboto, sans-serif; white-space: pre;" font-size="20px" font-family="Roboto, sans-serif"><tspan x="12" y="34" dominant-baseline="ideographic">Max Pooling</tspan></text></g></g></g><g id="g-root-tx_fin_8d40x3xbpc0-fill" data-item-order="1000000000" transform="translate(250, 966.00048828125)"><g id="tx_fin_8d40x3xbpc0-fill" stroke="none" fill="#1ac3fb"><g><text style="font: 20px Roboto, sans-serif; white-space: pre;" font-size="20px" font-family="Roboto, sans-serif"><tspan x="12" y="34" dominant-baseline="ideographic">Sortie</tspan></text></g></g></g><g id="g-root-filt_18mjyxt3x7i13-fill" data-item-order="1000000000" transform="translate(178, 275.99658203125)"></g><g id="g-root-tx_dbut_8x4q013x3a4l-fill" data-item-order="1000000000" transform="translate(226, 161.66650390625)"><g id="tx_dbut_8x4q013x3a4l-fill" stroke="none" fill="#f4f4f4"><g><text style="font: 20px Roboto, sans-serif; white-space: pre;" font-size="20px" font-family="Roboto, sans-serif"><tspan x="12" y="34" dominant-baseline="ideographic">Données</tspan></text></g></g></g><g id="g-root-up_1ly0nmp3xbqpt-fill" data-item-order="1000000000" transform="translate(214, 960.99658203125)"></g><g id="g-root-dist_1lr59cx3x3cb2-fill" data-item-order="1000000000" transform="translate(190, 156.66650390625)"></g><g id="g-root-tx_coucheco_7qgm93x7i86-fill" data-item-order="1000000000" transform="translate(214, 269)"><g id="tx_coucheco_7qgm93x7i86-fill" stroke="none" fill="#1ac3fb"><g><text style="font: 20px Roboto, sans-serif; white-space: pre;" font-size="20px" font-family="Roboto, sans-serif"><tspan x="12" y="34" dominant-baseline="ideographic">Couche </tspan><tspan x="12" y="58" dominant-baseline="ideographic">Convolutive</tspan></text></g></g></g><g id="g-root-di_4oswwx3x7jm2-stroke" data-item-order="-34561" transform="translate(129.99667358398438, 385)"><g id="di_4oswwx3x7jm2-stroke" fill="none" stroke-linecap="round" stroke-linejoin="round" stroke-miterlimit="4" stroke="#f79438" stroke-width="2"><g><path d="M 10.000061 82L 130.000061 154L 250.010061 82L 130.000061 10Z"></path></g></g></g><g id="g-root-ro_8xrdep3x64ni-stroke" data-item-order="-12960" transform="translate(60, 823.00048828125)"><g id="ro_8xrdep3x64ni-stroke" fill="none" stroke-linecap="round" stroke-linejoin="round" stroke-miterlimit="4" stroke="#1ac3fb" stroke-width="2"><g><path d="M 22 10L 178 10C 178 10 190 10 190 22L 190 70C 190 70 190 82 178 82L 22 82C 22 82 10 82 10 70L 10 22C 10 22 10 10 22 10"></path></g></g></g><g id="g-root-ro_qvwfj53x7h8g-stroke" data-item-order="-12096" transform="translate(166, 257)"><g id="ro_qvwfj53x7h8g-stroke" fill="none" stroke-linecap="round" stroke-linejoin="round" stroke-miterlimit="4" stroke="#1ac3fb" stroke-width="2"><g><path d="M 22 10L 166 10C 166 10 178 10 178 22L 178 70C 178 70 178 82 166 82L 22 82C 22 82 10 82 10 70L 10 22C 10 22 10 10 22 10"></path></g></g></g><g id="g-root-ro_v4uw0x3x3bi8-stroke" data-item-order="-12096" transform="translate(166, 695)"><g id="ro_v4uw0x3x3bi8-stroke" fill="none" stroke-linecap="round" stroke-linejoin="round" stroke-miterlimit="4" stroke="#1ac3fb" stroke-width="2"><g><path d="M 22 10L 166 10C 166 10 178 10 178 22L 178 70C 178 70 178 82 166 82L 22 82C 22 82 10 82 10 70L 10 22C 10 22 10 10 22 10"></path></g></g></g><g id="g-root-ro_18k28wx3x8x70-stroke" data-item-order="-10368" transform="translate(260, 823.00048828125)"><g id="ro_18k28wx3x8x70-stroke" fill="none" stroke-linecap="round" stroke-linejoin="round" stroke-miterlimit="4" stroke="#1ac3fb" stroke-width="2"><g><path d="M 22 10L 142 10C 142 10 154 10 154 22L 154 70C 154 70 154 82 142 82L 22 82C 22 82 10 82 10 70L 10 22C 10 22 10 10 22 10"></path></g></g></g><g id="g-root-ro_1hby8bl3x39xj-stroke" data-item-order="-7776" transform="translate(178, 146.66650390625)"><g id="ro_1hby8bl3x39xj-stroke" fill="none" stroke-linecap="round" stroke-linejoin="round" stroke-miterlimit="4" stroke="#f4f4f4" stroke-width="2"><g><path d="M 22 10L 142 10C 142 10 154 10 154 22L 154 52C 154 52 154 64 142 64L 22 64C 22 64 10 64 10 52L 10 22C 10 22 10 10 22 10"></path></g></g></g><g id="g-root-ro_18n6mch3xbp4y-stroke" data-item-order="-6480" transform="translate(202, 951.00048828125)"><g id="ro_18n6mch3xbp4y-stroke" fill="none" stroke-linecap="round" stroke-linejoin="round" stroke-miterlimit="4" stroke="#1ac3fb" stroke-width="2"><g><path d="M 22 10L 118 10C 118 10 130 10 130 22L 130 52C 130 52 130 64 118 64L 22 64C 22 64 10 64 10 52L 10 22C 10 22 10 10 22 10"></path></g></g></g><g id="g-root-ro_vbpxnl3xhc78-stroke" data-item-order="-5184" transform="translate(202, 585)"><g id="ro_vbpxnl3xhc78-stroke" fill="none" stroke-linecap="round" stroke-linejoin="round" stroke-miterlimit="4" stroke="#1ac3fb" stroke-width="2"><g><path d="M 22 10L 94 10C 94 10 106 10 106 22L 106 52C 106 52 106 64 94 64L 22 64C 22 64 10 64 10 52L 10 22C 10 22 10 10 22 10"></path></g></g></g><g id="g-root-ro_qrj3xd3xbrb6-stroke" data-item-order="-5184" transform="translate(86, 585)"><g id="ro_qrj3xd3xbrb6-stroke" fill="none" stroke-linecap="round" stroke-linejoin="round" stroke-miterlimit="4" stroke="#1ac3fb" stroke-width="2"><g><path d="M 22 10L 94 10C 94 10 106 10 106 22L 106 52C 106 52 106 64 94 64L 22 64C 22 64 10 64 10 52L 10 22C 10 22 10 10 22 10"></path></g></g></g><g id="g-root-ro_1usemjl3xk5qi-stroke" data-item-order="-5184" transform="translate(318, 585)"><g id="ro_1usemjl3xk5qi-stroke" fill="none" stroke-linecap="round" stroke-linejoin="round" stroke-miterlimit="4" stroke="#1ac3fb" stroke-width="2"><g><path d="M 22 10L 94 10C 94 10 106 10 106 22L 106 52C 106 52 106 64 94 64L 22 64C 22 64 10 64 10 52L 10 22C 10 22 10 10 22 10"></path></g></g></g><g id="g-root-tx_fonction_1qapsbl3xd3po-stroke" data-item-order="0" transform="translate(63, 51)"></g><g id="g-root-cu_9099r53xd4p6-stroke" data-item-order="2" transform="translate(150, 767.00048828125)"><g id="cu_9099r53xd4p6-stroke" fill="none" stroke-linecap="round" stroke-linejoin="round" stroke-miterlimit="4" stroke="#f4f4f4" stroke-width="2"><g><path d="M 110 10L 110 24L 110 38L 60 38L 10 38L 10 52L 10 64"></path><path d="M 3.5 58L 10 64.5L 16.5 58" stroke-dasharray="none"></path></g></g></g><g id="g-root-cu_qqwt5t3xd5hd-stroke" data-item-order="2" transform="translate(250, 329)"><g id="cu_qqwt5t3xd5hd-stroke" fill="none" stroke-linecap="round" stroke-linejoin="round" stroke-miterlimit="4" stroke="#f4f4f4" stroke-width="2"><g><path d="M 10 10L 10 38L 10 64"></path><path d="M 3.5 58L 10 64.5L 16.5 58" stroke-dasharray="none"></path></g></g></g><g id="g-root-cu_qqwt5t3xd5hg-stroke" data-item-order="2" transform="translate(134, 529)"><g id="cu_qqwt5t3xd5hg-stroke" fill="none" stroke-linecap="round" stroke-linejoin="round" stroke-miterlimit="4" stroke="#f4f4f4" stroke-width="2"><g><path d="M 126 10L 126 24L 126 38L 68 38L 10 38L 10 52L 10 64"></path><path d="M 3.5 58L 10 64.5L 16.5 58" stroke-dasharray="none"></path></g></g></g><g id="g-root-cu_4kfrmp3xd5hh-stroke" data-item-order="2" transform="translate(250, 767.00048828125)"><g id="cu_4kfrmp3xd5hh-stroke" fill="none" stroke-linecap="round" stroke-linejoin="round" stroke-miterlimit="4" stroke="#f4f4f4" stroke-width="2"><g><path d="M 10 10L 10 24L 10 38L 51 38L 92 38L 92 52L 92 64"></path><path d="M 85.5 58L 92 64.5L 98.5 58" stroke-dasharray="none"></path></g></g></g><g id="g-root-cu_hv9swx3xd6a7-stroke" data-item-order="2" transform="translate(250, 529)"><g id="cu_hv9swx3xd6a7-stroke" fill="none" stroke-linecap="round" stroke-linejoin="round" stroke-miterlimit="4" stroke="#f4f4f4" stroke-width="2"><g><path d="M 10 10L 10 38L 10 64"></path><path d="M 3.5 58L 10 64.5L 16.5 58" stroke-dasharray="none"></path></g></g></g><g id="g-root-cu_mb3b1d3xd69t-stroke" data-item-order="2" transform="translate(250, 529)"><g id="cu_mb3b1d3xd69t-stroke" fill="none" stroke-linecap="round" stroke-linejoin="round" stroke-miterlimit="4" stroke="#f4f4f4" stroke-width="2"><g><path d="M 10 10L 10 24L 10 38L 68 38L 126 38L 126 52L 126 64"></path><path d="M 119.5 58L 126 64.5L 132.5 58" stroke-dasharray="none"></path></g></g></g><g id="g-root-cu_4kfrmp3xd5hj-stroke" data-item-order="2" transform="translate(150, 895.00048828125)"><g id="cu_4kfrmp3xd5hj-stroke" fill="none" stroke-linecap="round" stroke-linejoin="round" stroke-miterlimit="4" stroke="#f4f4f4" stroke-width="2"><g><path d="M 10 10L 10 24L 10 38L 66 38L 122 38L 122 52L 122 64"></path><path d="M 115.5 58L 122 64.5L 128.5 58" stroke-dasharray="none"></path></g></g></g><g id="g-root-cu_dg2rvl3xd3wu-stroke" data-item-order="2" transform="translate(250, 639)"><g id="cu_dg2rvl3xd3wu-stroke" fill="none" stroke-linecap="round" stroke-linejoin="round" stroke-miterlimit="4" stroke="#f4f4f4" stroke-width="2"><g><path d="M 10 10L 10 38L 10 64"></path><path d="M 3.5 58L 10 64.5L 16.5 58" stroke-dasharray="none"></path></g></g></g><g id="g-root-cu_dg2rvl3xd3wr-stroke" data-item-order="2" transform="translate(134, 639)"><g id="cu_dg2rvl3xd3wr-stroke" fill="none" stroke-linecap="round" stroke-linejoin="round" stroke-miterlimit="4" stroke="#f4f4f4" stroke-width="2"><g><path d="M 10 10L 10 24L 10 38L 68 38L 126 38L 126 52L 126 64"></path><path d="M 119.5 58L 126 64.5L 132.5 58" stroke-dasharray="none"></path></g></g></g><g id="g-root-cu_v6qba93xd4p2-stroke" data-item-order="2" transform="translate(250, 200.66650390625)"><g id="cu_v6qba93xd4p2-stroke" fill="none" stroke-linecap="round" stroke-linejoin="round" stroke-miterlimit="4" stroke="#f4f4f4" stroke-width="2"><g><path d="M 10 10L 10 38.2L 10 64.3"></path><path d="M 3.5 58.3L 10 64.8L 16.5 58.3" stroke-dasharray="none"></path></g></g></g><g id="g-root-cu_4m9i93xd69u-stroke" data-item-order="2" transform="translate(262, 895.00048828125)"><g id="cu_4m9i93xd69u-stroke" fill="none" stroke-linecap="round" stroke-linejoin="round" stroke-miterlimit="4" stroke="#f4f4f4" stroke-width="2"><g><path d="M 80 10L 80 24L 80 38L 45 38L 10 38L 10 52L 10 64"></path><path d="M 3.5 58L 10 64.5L 16.5 58" stroke-dasharray="none"></path></g></g></g><g id="g-root-cu_9099r53xd4p4-stroke" data-item-order="2" transform="translate(250, 639)"><g id="cu_9099r53xd4p4-stroke" fill="none" stroke-linecap="round" stroke-linejoin="round" stroke-miterlimit="4" stroke="#f4f4f4" stroke-width="2"><g><path d="M 126 10L 126 24L 126 38L 68 38L 10 38L 10 52L 10 64"></path><path d="M 3.5 58L 10 64.5L 16.5 58" stroke-dasharray="none"></path></g></g></g><g id="g-root-1_4mxktd3xk54x-stroke" data-item-order="1000000000" transform="translate(330, 594.99658203125)"><g id="1_4mxktd3xk54x-stroke" fill="none" stroke-linecap="round" stroke-linejoin="round" stroke-miterlimit="4" stroke="#1ac3fb" stroke-width="2"><g><path d="M 34.375 25.598751L 34.375 18.067499C 34.375 13.942623 31.031128 10.59875 26.90625 10.59875L 11.875 10.59875C 11.184644 10.59875 10.625 11.158394 10.625 11.84875L 10.625 38.098751C 10.625 38.789104 11.184644 39.348751 11.875 39.348751L 14.375 39.348751M 28.125 10.69875L 28.125 15.59875C 28.125 16.289106 28.684643 16.848751 29.375 16.848751L 34.275002 16.848751M 18.125 29.348751L 21.875 29.348751C 23.255713 29.348751 24.375 30.468037 24.375 31.848751C 24.375 33.229462 23.255713 34.348751 21.875 34.348751L 21.875 34.348751C 23.255713 34.348751 24.375 35.468037 24.375 36.848751C 24.375 38.229462 23.255713 39.348751 21.875 39.348751L 18.125 39.348751M 26.875 29.348751C 29.636423 29.348751 31.875 31.587326 31.875 34.348751C 31.875 37.110172 29.636423 39.348751 26.875 39.348751ZM 39.375 29.348751L 36.692501 29.348751C 35.617004 29.347977 34.682297 30.087234 34.435287 31.133984C 34.188274 32.180733 34.693871 33.259872 35.65625 33.740002L 38.09375 34.958748C 39.054665 35.439598 39.559029 36.517891 39.31218 37.56366C 39.065327 38.609428 38.132011 39.348366 37.057499 39.348751L 34.375 39.348751"></path></g></g></g><g id="g-root-tx_1d_1hdtnkx3xbrb4-stroke" data-item-order="1000000000" transform="translate(134, 600)"></g><g id="g-root-tx_2d_4njyqp3xhd6y-stroke" data-item-order="1000000000" transform="translate(250, 600)"></g><g id="g-root-tx_3d_mdl4813xk5xk-stroke" data-item-order="1000000000" transform="translate(366, 600)"></g><g id="g-root-exce_1d2dh293xhczv-stroke" data-item-order="1000000000" transform="translate(214, 594.99658203125)"><g id="exce_1d2dh293xhczv-stroke" fill="none" stroke-linecap="round" stroke-linejoin="round" stroke-miterlimit="4" stroke="#1ac3fb" stroke-width="2"><g><path d="M 31.556252 35.766251L 34.557499 39.366249L 39.358749 39.366249L 34.557499 33.364998L 39.358749 27.36375L 34.557499 27.36375L 31.556252 30.965L 28.55625 27.36375L 23.754999 27.36375L 28.55625 33.364998L 23.754999 39.366249L 28.55625 39.366249L 31.556252 35.766251ZM 18.942499 37.921249C 16.121218 37.92194 13.83375 35.635033 13.83375 32.813751L 13.83375 29.625M 17.026249 32.813751L 13.83375 29.62125L 10.64125 32.813751M 31.07375 12.13375C 33.895031 12.13306 36.182499 14.419968 36.182499 17.241251L 36.182499 21.0725M 32.990002 17.879999L 36.182499 21.0725L 39.375 17.879999M 11.9025 10.63375L 25.94875 10.63375C 25.94875 10.63375 27.22625 10.63375 27.22625 11.91125L 27.22625 23.403749C 27.22625 23.403749 27.22625 24.68125 25.94875 24.68125L 11.9025 24.68125C 11.9025 24.68125 10.625 24.68125 10.625 23.403749L 10.625 11.91125C 10.625 11.91125 10.625 10.63375 11.9025 10.63375M 10.625 14.51L 27.22625 14.51M 10.625 17.879999L 27.22625 17.879999M 10.625 21.345001L 27.22625 21.345001M 18.215 14.51L 18.215 24.68125M 22.67 14.51L 22.67 24.68125"></path></g></g></g><g id="g-root-scat_142zmap3xbpq9-stroke" data-item-order="1000000000" transform="translate(98, 594.99658203125)"><g id="scat_142zmap3xbpq9-stroke" fill="none" stroke-linecap="round" stroke-linejoin="round" stroke-miterlimit="4" stroke="#1ac3fb" stroke-width="2"><g><path d="M 10.9375 10.9375L 10.9375 39.0625L 39.0625 39.0625M 16.71875 14.6875C 16.459862 14.6875 16.25 14.477637 16.25 14.21875C 16.25 13.959863 16.459862 13.75 16.71875 13.75M 16.71875 14.6875C 16.977638 14.6875 17.1875 14.477637 17.1875 14.21875C 17.1875 13.959863 16.977638 13.75 16.71875 13.75M 15.46875 32.1875C 15.209863 32.1875 15 31.977625 15 31.71875C 15 31.459875 15.209863 31.25 15.46875 31.25M 15.46875 32.1875C 15.727637 32.1875 15.9375 31.977625 15.9375 31.71875C 15.9375 31.459875 15.727637 31.25 15.46875 31.25M 17.96875 20.9375C 17.709862 20.9375 17.5 20.727638 17.5 20.46875C 17.5 20.209862 17.709862 20 17.96875 20M 17.96875 20.9375C 18.227638 20.9375 18.4375 20.727638 18.4375 20.46875C 18.4375 20.209862 18.227638 20 17.96875 20M 14.21875 25.9375C 13.959863 25.9375 13.75 25.727625 13.75 25.46875C 13.75 25.209875 13.959863 25 14.21875 25M 14.21875 25.9375C 14.477637 25.9375 14.6875 25.727625 14.6875 25.46875C 14.6875 25.209875 14.477637 25 14.21875 25M 25.46875 15.9375C 25.209875 15.9375 25 15.727637 25 15.46875C 25 15.209863 25.209875 15 25.46875 15M 25.46875 15.9375C 25.727625 15.9375 25.9375 15.727637 25.9375 15.46875C 25.9375 15.209863 25.727625 15 25.46875 15M 29.21875 28.4375C 28.959875 28.4375 28.75 28.227625 28.75 27.96875C 28.75 27.709875 28.959875 27.5 29.21875 27.5M 29.21875 28.4375C 29.477625 28.4375 29.6875 28.227625 29.6875 27.96875C 29.6875 27.709875 29.477625 27.5 29.21875 27.5M 36.71875 24.6875C 36.459877 24.6875 36.25 24.477625 36.25 24.21875C 36.25 23.959875 36.459877 23.75 36.71875 23.75M 36.71875 24.6875C 36.977623 24.6875 37.1875 24.477625 37.1875 24.21875C 37.1875 23.959875 36.977623 23.75 36.71875 23.75M 35.46875 12.1875C 35.209877 12.1875 35 11.977637 35 11.71875C 35 11.459863 35.209877 11.25 35.46875 11.25M 35.46875 12.1875C 35.727623 12.1875 35.9375 11.977637 35.9375 11.71875C 35.9375 11.459863 35.727623 11.25 35.46875 11.25M 25.46875 34.6875C 25.209875 34.6875 25 34.477623 25 34.21875C 25 33.959877 25.209875 33.75 25.46875 33.75M 25.46875 34.6875C 25.727625 34.6875 25.9375 34.477623 25.9375 34.21875C 25.9375 33.959877 25.727625 33.75 25.46875 33.75M 37.96875 33.4375C 37.709877 33.4375 37.5 33.227623 37.5 32.96875C 37.5 32.709877 37.709877 32.5 37.96875 32.5M 37.96875 33.4375C 38.227623 33.4375 38.4375 33.227623 38.4375 32.96875C 38.4375 32.709877 38.227623 32.5 37.96875 32.5M 31.71875 18.4375C 31.459875 18.4375 31.25 18.227638 31.25 17.96875C 31.25 17.709862 31.459875 17.5 31.71875 17.5M 31.71875 18.4375C 31.977625 18.4375 32.1875 18.227638 32.1875 17.96875C 32.1875 17.709862 31.977625 17.5 31.71875 17.5M 22.96875 25.9375C 22.709875 25.9375 22.5 25.727625 22.5 25.46875C 22.5 25.209875 22.709875 25 22.96875 25M 22.96875 25.9375C 23.227625 25.9375 23.4375 25.727625 23.4375 25.46875C 23.4375 25.209875 23.227625 25 22.96875 25"></path></g></g></g><g id="g-root-2_140hw9t3x39xr-stroke" data-item-order="1000000000" transform="translate(178, 713.99658203125)"><g id="2_140hw9t3x39xr-stroke" fill="none" stroke-linecap="round" stroke-linejoin="round" stroke-miterlimit="4" stroke="#1ac3fb" stroke-width="2"><g><path d="M 15.9375 23.125126C 18.698925 23.125126 20.9375 22.229725 20.9375 21.125149C 20.9375 20.020588 18.698925 19.125151 15.9375 19.125151C 13.176075 19.125151 10.9375 20.020588 10.9375 21.125149C 10.9375 22.229725 13.176075 23.125126 15.9375 23.125126ZM 10.9375 21.124962L 10.9375 29.125C 10.9375 30.25 13.1875 31.125 15.9375 31.125C 18.6875 31.125 20.9375 30.25 20.9375 29.125L 20.9375 21.124962M 35.751751 14.216625C 37.519127 14.216625 38.951752 13.440588 38.951752 12.4833C 38.951752 11.526 37.519127 10.74996 35.751751 10.74996C 33.984497 10.74996 32.55175 11.526 32.55175 12.4833C 32.55175 13.440588 33.984497 14.216625 35.751751 14.216625ZM 32.55175 12.483362L 32.55175 17.016687C 32.55175 17.950026 34.018501 18.750025 35.751751 18.750025C 37.485126 18.750025 38.951752 17.950026 38.951752 17.016687L 38.951752 12.483362M 35.751751 24.600126C 37.519127 24.600126 38.951752 23.824001 38.951752 22.866749C 38.951752 21.909462 37.519127 21.133425 35.751751 21.133425C 33.984497 21.133425 32.55175 21.909462 32.55175 22.866749C 32.55175 23.824001 33.984497 24.600126 35.751751 24.600126ZM 32.55175 22.866875L 32.55175 27.400126C 32.55175 28.3335 34.018501 29.133499 35.751751 29.133499C 37.485126 29.133499 38.951752 28.3335 38.951752 27.400126L 38.951752 22.866875M 35.751751 34.716625C 37.519127 34.716625 38.951752 33.940624 38.951752 32.98325C 38.951752 32.026001 37.519127 31.25 35.751751 31.25C 33.984497 31.25 32.55175 32.026001 32.55175 32.98325C 32.55175 33.940624 33.984497 34.716625 35.751751 34.716625ZM 32.55175 32.983376L 32.55175 37.51675C 32.55175 38.450001 34.018501 39.25 35.751751 39.25C 37.485126 39.25 38.951752 38.450001 38.951752 37.51675L 38.951752 32.983376M 29.557249 14.625L 27.057249 14.625L 27.057249 35.375L 29.557249 35.375M 29.557249 25L 23.932249 25M 10.9375 25.163876C 10.9375 26.221125 13.099663 27.086 15.937525 27.086C 18.775375 27.086 20.937536 26.221125 20.937536 25.163876"></path></g></g></g><g id="g-root-tx_couchede_1hbbxk13x3bim-stroke" data-item-order="1000000000" transform="translate(214, 707)"></g><g id="g-root-tx_typedeco_i09fa93x7i15-stroke" data-item-order="1000000000" transform="translate(190, 421)"></g><g id="g-root-sett_1luwa753x8yrv-stroke" data-item-order="1000000000" transform="translate(272, 841.99658203125)"><g id="sett_1luwa753x8yrv-stroke" fill="none" stroke-linecap="round" stroke-linejoin="round" stroke-miterlimit="4" stroke="#1ac3fb" stroke-width="2"><g><path d="M 35.7085 14.764237C 37.595501 14.764237 39.125248 13.9076 39.125248 12.850887C 39.125248 11.794163 37.595501 10.937529 35.7085 10.937529C 33.821499 10.937529 32.291752 11.794163 32.291752 12.850887C 32.291752 13.9076 33.821499 14.764237 35.7085 14.764237ZM 32.291752 12.85075L 32.291752 18.044149C 32.291752 19.137487 33.795124 19.9575 35.7085 19.9575C 37.621876 19.9575 39.125248 19.137487 39.125248 18.044149L 39.125248 12.85075M 25.068375 14.764237C 26.955374 14.764237 28.485125 13.9076 28.485125 12.850887C 28.485125 11.794163 26.955374 10.937529 25.068375 10.937529C 23.181376 10.937529 21.651688 11.794163 21.651688 12.850887C 21.651688 13.9076 23.181376 14.764237 25.068375 14.764237ZM 21.651688 12.85075L 21.651688 18.044149C 21.651688 19.137487 23.155001 19.9575 25.068375 19.9575C 26.98175 19.9575 28.485125 19.137487 28.485125 18.044149L 28.485125 12.85075M 14.291488 14.764237C 16.178488 14.764237 17.7082 13.9076 17.7082 12.850887C 17.7082 11.794163 16.178488 10.937529 14.291488 10.937529C 12.4045 10.937529 10.874786 11.794163 10.874786 12.850887C 10.874786 13.9076 12.4045 14.764237 14.291488 14.764237ZM 17.7082 15.4779C 17.7082 16.534626 16.178488 17.391262 14.291488 17.391262C 12.4045 17.391262 10.874786 16.534626 10.874786 15.4779M 28.485125 15.4779C 28.485125 16.534626 26.955374 17.391262 25.068375 17.391262C 23.181376 17.391262 21.651688 16.534626 21.651688 15.4779M 39.125248 15.4779C 39.125248 16.534626 37.595501 17.391262 35.7085 17.391262C 33.821499 17.391262 32.291752 16.534626 32.291752 15.4779M 10.874786 12.85075L 10.874786 18.044149C 10.874786 19.137487 12.378138 19.9575 14.291488 19.9575C 16.204849 19.9575 17.7082 19.137487 17.7082 18.044149L 17.7082 12.85075M 10.9375 39.0625C 12.8042 39.0625 14.670913 39.0625 16.537613 37.1875C 18.404312 39.0625 20.271013 39.0625 20.768799 39.0625C 21.266588 39.0625 23.133251 39.0625 25 37.1875C 26.866749 39.0625 28.733376 39.0625 29.231251 39.0625C 29.729 39.0625 31.595627 39.0625 33.462376 37.1875C 35.329124 39.0625 37.195747 39.0625 39.0625 39.0625M 19.43755 35.7225C 19.43755 35.3475 19.31255 35.0975 19.06255 34.8475L 18.43755 34.2225C 18.06255 33.8475 17.93755 33.3475 18.18755 32.8475C 18.43755 32.3475 18.81255 32.0975 19.43755 32.0975L 20.31255 32.0975C 20.68755 32.0975 20.937536 31.9725 21.187538 31.7225C 21.437538 31.4725 21.56255 31.0975 21.56255 30.8475L 21.56255 29.9725C 21.56255 29.4725 21.812538 28.9725 22.312538 28.7225C 22.8125 28.4725 23.3125 28.5975 23.6875 28.9725L 24.3125 29.5975C 24.5625 29.8475 24.8125 29.9725 25.1875 29.9725C 25.5625 29.9725 25.8125 29.8475 26.0625 29.5975L 26.6875 28.9725C 27.0625 28.5975 27.5625 28.4725 28.0625 28.7225C 28.5625 28.9725 28.8125 29.3475 28.8125 29.9725L 28.8125 30.8475C 28.8125 31.2225 28.9375 31.4725 29.1875 31.7225C 29.4375 31.9725 29.8125 32.0975 30.0625 32.0975L 30.9375 32.0975C 31.4375 32.0975 31.9375 32.3475 32.1875 32.8475C 32.4375 33.3475 32.3125 33.8475 31.9375 34.2225L 31.0625 34.8475C 30.8125 35.0975 30.6875 35.3475 30.6875 35.7225M 22.6875 35.722626C 22.6875 34.472626 23.6875 33.347626 25.0625 33.347626C 26.3125 33.347626 27.4375 34.347626 27.4375 35.722626M 10 10M 32.5625 28.592375L 35.6875 26.092375L 35.6875 22.967375M 10 10M 17.562563 28.592375L 14.437563 26.092375L 14.437563 22.967375M 25 26.515749L 25 22.342438"></path></g></g></g><g id="g-root-tx_averagep_58qld3x8xe2-stroke" data-item-order="1000000000" transform="translate(308, 835.00048828125)"></g><g id="g-root-spre_m97vs13x632l-stroke" data-item-order="1000000000" transform="translate(72, 841.99658203125)"><g id="spre_m97vs13x632l-stroke" fill="none" stroke-linecap="round" stroke-linejoin="round" stroke-miterlimit="4" stroke="#1ac3fb" stroke-width="2"><g><path d="M 27.1875 11.2503C 28.5625 11.2503 29.6875 12.375299 29.6875 13.7503L 29.6875 16.875299L 10.9375 16.875299L 10.9375 13.7503C 10.9375 12.375299 12.0625 11.2503 13.4375 11.2503L 27.1875 11.2503ZM 17.1875 16.875151L 17.1875 29.125126L 13.4375 29.125126C 12.0625 29.125126 10.9375 28.000124 10.9375 26.625126L 10.9375 16.875151L 17.1875 16.875151ZM 10.9375 23.125126L 17.1875 23.125126M 23.4375 16.875151L 17.1875 16.875151L 17.1875 29.125126L 23.4375 29.125126L 23.4375 16.875151ZM 17.1875 23.125126L 23.4375 23.125126M 29.6875 16.875151L 29.6875 26.625126C 29.6875 28.000124 28.5625 29.125126 27.1875 29.125126L 23.4375 29.125126L 23.4375 16.875151L 29.6875 16.875151ZM 23.4375 23.125126L 29.6875 23.125126M 10 10M 36.3125 14.3753L 36.3125 25.625126M 10 10M 33.4375 25.625126L 36.3125 28.500126L 39.0625 25.625126M 10 10M 33.4375 14.375225L 36.3125 11.50025L 39.0625 14.375225M 10 10M 14.562512 35.750126L 25.9375 35.750126M 10 10M 25.9375 32.875L 28.6875 35.75L 25.9375 38.625M 10 10M 14.562512 32.875L 11.812512 35.75L 14.562512 38.625"></path></g></g></g><g id="g-root-tx_maxpooli_zk1x293x64ng-stroke" data-item-order="1000000000" transform="translate(108, 847.00048828125)"></g><g id="g-root-tx_fin_8d40x3xbpc0-stroke" data-item-order="1000000000" transform="translate(250, 966.00048828125)"></g><g id="g-root-filt_18mjyxt3x7i13-stroke" data-item-order="1000000000" transform="translate(178, 275.99658203125)"><g id="filt_18mjyxt3x7i13-stroke" fill="none" stroke-linecap="round" stroke-linejoin="round" stroke-miterlimit="4" stroke="#1ac3fb" stroke-width="2"><g><path d="M 22.75 32.453751L 13.225 32.453751C 11.763516 32.453751 10.57875 31.268982 10.57875 29.807501L 10.57875 13.27125C 10.57875 11.809767 11.763516 10.625 13.225 10.625L 33.068748 10.625C 34.530235 10.625 35.715 11.809767 35.715 13.27125L 35.715 22.6075M 10.57875 15.7925L 35.715 15.7925M 10.57875 26.77125L 21.674999 26.77125M 10.57875 21.289999L 35.715 21.289999M 20.846251 15.7925L 20.846251 32.453751M 28.206249 15.7925L 28.206249 22.266251M 33.78875 35.625L 33.78875 32.5L 39.03875 27.25625C 39.418079 26.876259 39.531445 26.305317 39.326061 25.809229C 39.120682 25.313141 38.636921 24.98941 38.099998 24.98875L 25.727499 24.98875C 25.190578 24.98941 24.70682 25.313141 24.501438 25.809229C 24.296057 26.305317 24.40942 26.876259 24.78875 27.256248L 30.03875 32.506248L 30.03875 39.375Z"></path></g></g></g><g id="g-root-tx_dbut_8x4q013x3a4l-stroke" data-item-order="1000000000" transform="translate(226, 161.66650390625)"></g><g id="g-root-up_1ly0nmp3xbqpt-stroke" data-item-order="1000000000" transform="translate(214, 960.99658203125)"><g id="up_1ly0nmp3xbqpt-stroke" fill="none" stroke-linecap="round" stroke-linejoin="round" stroke-miterlimit="4" stroke="#1ac3fb" stroke-width="2"><g><path d="M 13.125 17.5L 36.875 17.5C 36.875 17.5 39.375 17.5 39.375 20L 39.375 30C 39.375 30 39.375 32.5 36.875 32.5L 13.125 32.5C 13.125 32.5 10.625 32.5 10.625 30L 10.625 20C 10.625 20 10.625 17.5 13.125 17.5M 28.123749 21.25L 28.123749 28.75M 26.873749 28.75L 29.373749 28.75M 26.873749 21.25L 29.373749 21.25M 20.627501 28.75L 24.377501 21.25M 24.377501 28.75L 20.627501 21.25M 18.125 28.75L 15.625 28.75C 14.934644 28.75 14.375 28.190357 14.375 27.5L 14.375 22.5C 14.375 21.809643 14.934644 21.25 15.625 21.25L 18.125 21.25M 14.38 25L 16.880001 25M 31.877501 21.25L 35.627502 21.25M 33.752502 21.25L 33.752502 28.75"></path></g></g></g><g id="g-root-dist_1lr59cx3x3cb2-stroke" data-item-order="1000000000" transform="translate(190, 156.66650390625)"><g id="dist_1lr59cx3x3cb2-stroke" fill="none" stroke-linecap="round" stroke-linejoin="round" stroke-miterlimit="4" stroke="#f4f4f4" stroke-width="2"><g><path d="M 13.12625 16.876249C 13.12625 19.637674 18.442869 21.876251 25.001251 21.876251C 31.559631 21.876251 36.876251 19.637674 36.876251 16.876249C 36.876251 14.114826 31.559631 11.87625 25.001251 11.87625C 18.442869 11.87625 13.12625 14.114826 13.12625 16.876249ZM 36.875 21.875C 36.875 24.637501 31.557501 26.875 25 26.875C 18.442501 26.875 13.125 24.637501 13.125 21.875M 36.875 27.5C 36.875 30.262499 31.557501 32.5 25 32.5C 18.442501 32.5 13.125 30.262499 13.125 27.5M 13.125 16.875L 13.125 33.125C 13.125 35.887497 18.442501 38.125 25 38.125C 31.557501 38.125 36.875 35.887497 36.875 33.125L 36.875 16.875"></path></g></g></g><g id="g-root-tx_coucheco_7qgm93x7i86-stroke" data-item-order="1000000000" transform="translate(214, 269)"></g></g></g></svg>