<?xml version="1.0" encoding="utf-8" standalone="yes"?>
<!DOCTYPE svg PUBLIC "-//W3C//DTD SVG 1.1//EN" "http://www.w3.org/Graphics/SVG/1.1/DTD/svg11.dtd">
<svg width="848" height="458" viewBox="0 0 848 458" style="fill:none;stroke:none;fill-rule:evenodd;clip-rule:evenodd;stroke-linecap:round;stroke-linejoin:round;stroke-miterlimit:1.5;" version="1.1" xmlns="http://www.w3.org/2000/svg" xmlns:xlink="http://www.w3.org/1999/xlink"><style id="fontImports">@import url("https://fonts.googleapis.com/css2?family=Roboto:wght@400;700&amp;display=block");</style><g id="items" style="isolation: isolate"><g id="blend" style="mix-blend-mode: normal"><g id="g-root-1.g-1_fr_1cwr7c12t969u-fill" data-item-order="-287272" transform="translate(39, 203.9970703125)"></g><g id="g-root-2.g-2_fr_magnoh2t969w-fill" data-item-order="-287244" transform="translate(211, 203.9970703125)"></g><g id="g-root-3.g-3_fr_8zmme92t94p2-fill" data-item-order="-287216" transform="translate(405, 203.9970703125)"></g><g id="g-root-4.g-4_fr_1upa6012t962w-fill" data-item-order="-287188" transform="translate(599, 203.9970703125)"></g><g id="g-root-tx_traiteme_1qa34yp2t93pe-fill" data-item-order="0" transform="translate(324, 87)"><g id="tx_traiteme_1qa34yp2t93pe-fill" stroke="none" fill="#ababab"><g><text style="font: bold 20px Roboto, sans-serif; white-space: pre;" font-weight="bold" font-size="20px" font-family="Roboto, sans-serif"><tspan x="12.58" y="34" dominant-baseline="ideographic">Réseaux récurrents</tspan></text></g></g></g><g id="g-root-tran_qs5l292t94i4-fill" data-item-order="0" transform="translate(99, 143.9970703125)"></g><g id="g-root-squa_1um5skh2teqdn-fill" data-item-order="0" transform="translate(293, 143.9970703125)"></g><g id="g-root-book_1d0i1up2tq1a9-fill" data-item-order="0" transform="translate(487, 143.9970703125)"></g><g id="g-root-out_5v7q92tq1hj-fill" data-item-order="0" transform="translate(681, 143.9970703125)"></g><g id="g-root-tx_identifi_142zmch2t962z-fill" data-item-order="0" transform="translate(57, 231)"><g id="tx_identifi_142zmch2t962z-fill" stroke="none" fill="#4f91fc"><g><text style="font: bold 20px Roboto, sans-serif; white-space: pre;" font-weight="bold" font-size="20px" font-family="Roboto, sans-serif"><tspan x="17.08" y="34" dominant-baseline="ideographic">Identifier les </tspan><tspan x="43.23" y="58" dominant-baseline="ideographic">tokens</tspan></text></g></g></g><g id="g-root-tx_traiterc_8vvrvl2tes5m-fill" data-item-order="0" transform="translate(245, 231)"><g id="tx_traiterc_8vvrvl2tes5m-fill" stroke="none" fill="#43dd93"><g><text style="font: bold 20px Roboto, sans-serif; white-space: pre;" font-weight="bold" font-size="20px" font-family="Roboto, sans-serif"><tspan x="14.45" y="34" dominant-baseline="ideographic">Traiter chaque </tspan><tspan x="54.39" y="58" dominant-baseline="ideographic">token</tspan></text></g></g></g><g id="g-root-tx_utiliser_4lojj52tq1hc-fill" data-item-order="0" transform="translate(463, 219)"><g id="tx_utiliser_4lojj52tq1hc-fill" stroke="none" fill="#a6da37"><g><text style="font: bold 20px Roboto, sans-serif; white-space: pre;" font-weight="bold" font-size="20px" font-family="Roboto, sans-serif"><tspan x="12.91" y="34" dominant-baseline="ideographic">Utiliser la </tspan><tspan x="15.51" y="58" dominant-baseline="ideographic">mémoire </tspan><tspan x="23.8" y="82" dominant-baseline="ideographic">interne</tspan></text></g></g></g><g id="g-root-tx_produire_dhbq3l2tpzwm-fill" data-item-order="0" transform="translate(651, 231)"><g id="tx_produire_dhbq3l2tpzwm-fill" stroke="none" fill="#1ac3fb"><g><text style="font: bold 20px Roboto, sans-serif; white-space: pre;" font-weight="bold" font-size="20px" font-family="Roboto, sans-serif"><tspan x="12.57" y="34" dominant-baseline="ideographic">Produire la </tspan><tspan x="35.39" y="58" dominant-baseline="ideographic">sortie</tspan></text></g></g></g><g id="g-root-tx_dcompose_1qd7ie92tdbeu-fill" data-item-order="0" transform="translate(51, 327)"><g id="tx_dcompose_1qd7ie92tdbeu-fill" stroke="none" fill="#ababab"><g><text style="font: 15px Roboto, sans-serif; white-space: pre;" font-size="15px" font-family="Roboto, sans-serif"><tspan x="29.81" y="30.33" dominant-baseline="ideographic">Décomposer la </tspan><tspan x="15.63" y="48.33" dominant-baseline="ideographic">séquence en unités </tspan><tspan x="53.94" y="66.33" dominant-baseline="ideographic">de base</tspan></text></g></g></g><g id="g-root-tx_traiterl_13ymaqp2tq0hu-fill" data-item-order="0" transform="translate(245, 327)"><g id="tx_traiterl_13ymaqp2tq0hu-fill" stroke="none" fill="#ababab"><g><text style="font: 15px Roboto, sans-serif; white-space: pre;" font-size="15px" font-family="Roboto, sans-serif"><tspan x="13.3" y="27.33" dominant-baseline="ideographic">Traiter les tokens un </tspan><tspan x="19.34" y="45.33" dominant-baseline="ideographic">par un dans l'ordre</tspan></text></g></g></g><g id="g-root-tx_mainteni_1umsfz52tpyq3-fill" data-item-order="0" transform="translate(433, 327)"><g id="tx_mainteni_1umsfz52tpyq3-fill" stroke="none" fill="#ababab"><g><text style="font: 15px Roboto, sans-serif; white-space: pre;" font-size="15px" font-family="Roboto, sans-serif"><tspan x="17" y="30.33" dominant-baseline="ideographic">Maintenir le contexte </tspan><tspan x="25.04" y="48.33" dominant-baseline="ideographic">à partir des tokens </tspan><tspan x="49.75" y="66.33" dominant-baseline="ideographic">précédents</tspan></text></g></g></g><g id="g-root-tx_gnrerdes_hrj1lt2t6dcc-fill" data-item-order="0" transform="translate(633, 327)"><g id="tx_gnrerdes_hrj1lt2t6dcc-fill" stroke="none" fill="#ababab"><g><text style="font: 15px Roboto, sans-serif; white-space: pre;" font-size="15px" font-family="Roboto, sans-serif"><tspan x="39.99" y="27.33" dominant-baseline="ideographic">Générer des </tspan><tspan x="16.72" y="45.33" dominant-baseline="ideographic">résultats basés sur </tspan><tspan x="15.66" y="63.33" dominant-baseline="ideographic">le token actuel et la </tspan><tspan x="50.45" y="81.33" dominant-baseline="ideographic">mémoire</tspan></text></g></g></g><g id="g-root-1.g-1_fr_1cwr7c12t969u-stroke" data-item-order="-287272" transform="translate(39, 203.9970703125)"><g id="1.g-1_fr_1cwr7c12t969u-stroke" fill="none" stroke-linecap="round" stroke-linejoin="round" stroke-miterlimit="4" stroke="#4f91fc" stroke-width="2"><g><path d="M 22 10L 166 10M 165.5 106L 169 106L 193 58L 169 10L 165.5 10M 166 106L 22 106M 22 10L 10 10L 10 106L 22 106"></path></g></g></g><g id="g-root-2.g-2_fr_magnoh2t969w-stroke" data-item-order="-287244" transform="translate(211, 203.9970703125)"><g id="2.g-2_fr_magnoh2t969w-stroke" fill="none" stroke-linecap="round" stroke-linejoin="round" stroke-miterlimit="4" stroke="#43dd93" stroke-width="2"><g><path d="M 44 10L 188 10M 187.5 106L 191 106L 215 58L 191 10L 187.5 10M 188 106L 44 106M 44 10L 10 10L 34 58L 10 106L 44 106"></path></g></g></g><g id="g-root-3.g-3_fr_8zmme92t94p2-stroke" data-item-order="-287216" transform="translate(405, 203.9970703125)"><g id="3.g-3_fr_8zmme92t94p2-stroke" fill="none" stroke-linecap="round" stroke-linejoin="round" stroke-miterlimit="4" stroke="#a6da37" stroke-width="2"><g><path d="M 44 10L 188 10M 187.5 106L 191 106L 215 58L 191 10L 187.5 10M 188 106L 44 106M 44 10L 10 10L 34 58L 10 106L 44 106"></path></g></g></g><g id="g-root-4.g-4_fr_1upa6012t962w-stroke" data-item-order="-287188" transform="translate(599, 203.9970703125)"><g id="4.g-4_fr_1upa6012t962w-stroke" fill="none" stroke-linecap="round" stroke-linejoin="round" stroke-miterlimit="4" stroke="#1ac3fb" stroke-width="2"><g><path d="M 44 10L 188 10M 187.5 106L 191 106L 215 58L 191 10L 187.5 10M 188 106L 44 106M 44 10L 10 10L 34 58L 10 106L 44 106"></path></g></g></g><g id="g-root-tx_traiteme_1qa34yp2t93pe-stroke" data-item-order="0" transform="translate(324, 87)"></g><g id="g-root-tran_qs5l292t94i4-stroke" data-item-order="0" transform="translate(99, 143.9970703125)"><g id="tran_qs5l292t94i4-stroke" fill="none" stroke-linecap="round" stroke-linejoin="round" stroke-miterlimit="4" stroke="#4f91fc" stroke-width="2"><g><path d="M 15.062 18.996L 31 18.996M 23 14.996L 23 18.996M 28 19C 26.384493 24.82955 21.82955 29.384493 16 31M 18 19C 19.615509 24.82955 24.17045 29.384493 30 31M 39 53L 44.063999 39.498001C 44.210609 39.108154 44.5835 38.849998 45 38.849998C 45.4165 38.849998 45.789391 39.108154 45.936001 39.498001L 51 53M 40.5 48.995998L 49.523998 48.995998M 13 10.996L 33 10.996C 33 10.996 35 10.996 35 12.996L 35 32.996002C 35 32.996002 35 34.996002 33 34.996002L 13 34.996002C 13 34.996002 11 34.996002 11 32.996002L 11 12.996C 11 12.996 11 10.996 13 10.996M 40 33L 55 33C 56.104568 33 57 33.895432 57 35L 57 55C 57 56.104568 56.104568 57 55 57L 35 57C 33.895432 57 33 56.104568 33 55L 33 40M 22 55.995998L 26 51.995998L 22 47.995998M 14 42C 14 47.522846 18.477154 52 24 52L 26 52M 46 11.996L 42 15.996L 46 19.996M 54 26C 54 20.477154 49.522846 16 44 16L 42 16"></path></g></g></g><g id="g-root-squa_1um5skh2teqdn-stroke" data-item-order="0" transform="translate(293, 143.9970703125)"><g id="squa_1um5skh2teqdn-stroke" fill="none" stroke-linecap="round" stroke-linejoin="round" stroke-miterlimit="4" stroke="#43dd93" stroke-width="2"><g><path d="M 10 10M 31.337799 35.578201L 44.021 22.8951L 47.766602 26.640739M 21.996853 44.921146C 24.576431 47.502254 28.760187 47.502876 31.340532 44.922531C 33.920876 42.342186 33.920258 38.158432 31.339146 35.57885C 28.759567 32.997742 24.575809 32.99712 21.995464 35.577465C 19.415121 38.15781 19.415741 42.341568 21.996853 44.921146M 10 10M 39.154198 27.765619L 42.900398 31.511801M 14.638 12.64L 53.360001 12.64C 53.360001 12.64 55.360001 12.64 55.360001 14.639999L 55.360001 53.362C 55.360001 53.362 55.360001 55.362 53.360001 55.362L 14.638 55.362C 14.638 55.362 12.638 55.362 12.638 53.362L 12.638 14.639999C 12.638 14.639999 12.638 12.64 14.638 12.64"></path></g></g></g><g id="g-root-book_1d0i1up2tq1a9-stroke" data-item-order="0" transform="translate(487, 143.9970703125)"><g id="book_1d0i1up2tq1a9-stroke" fill="none" stroke-linecap="round" stroke-linejoin="round" stroke-miterlimit="4" stroke="#a6da37" stroke-width="2"><g><path d="M 15 14.007999L 53 14.007999C 53 14.007999 57 14.007999 57 18.007999L 57 50.007999C 57 50.007999 57 54.007999 53 54.007999L 15 54.007999C 15 54.007999 11 54.007999 11 50.007999L 11 18.007999C 11 18.007999 11 14.007999 15 14.007999M 11 24.007999L 57 24.007999M 18 18.507999C 18.276142 18.507999 18.5 18.731857 18.5 19.007999C 18.5 19.284142 18.276142 19.507999 18 19.507999C 17.723858 19.507999 17.5 19.284142 17.5 19.007999C 17.5 18.731857 17.723858 18.507999 18 18.507999M 24 18.507999C 24.276142 18.507999 24.5 18.731857 24.5 19.007999C 24.5 19.284142 24.276142 19.507999 24 19.507999C 23.723858 19.507999 23.5 19.284142 23.5 19.007999C 23.5 18.731857 23.723858 18.507999 24 18.507999M 30 18.507999C 30.276142 18.507999 30.5 18.731857 30.5 19.007999C 30.5 19.284142 30.276142 19.507999 30 19.507999C 29.723858 19.507999 29.5 19.284142 29.5 19.007999C 29.5 18.731857 29.723858 18.507999 30 18.507999M 49 39.138C 48.999809 39.506554 48.796917 39.845123 48.472 40.019081C 48.147087 40.193039 47.752827 40.174179 47.445999 39.970001L 43 37L 38.554001 39.961998C 38.247177 40.166176 37.852913 40.185036 37.528 40.011082C 37.203087 39.837124 37.000191 39.49855 37 39.129997L 37 24L 49 24Z"></path></g></g></g><g id="g-root-out_5v7q92tq1hj-stroke" data-item-order="0" transform="translate(681, 143.9970703125)"><g id="out_5v7q92tq1hj-stroke" fill="none" stroke-linecap="round" stroke-linejoin="round" stroke-miterlimit="4" stroke="#1ac3fb" stroke-width="2"><g><path d="M 39 34C 39 31.238577 36.761425 29 34 29C 31.238577 29 29 31.238577 29 34L 29 41L 39 41ZM 34 35L 48 22M 39 35L 54 35C 55.656857 35 57 36.343147 57 38C 57 39.656853 55.656857 41 54 41L 14 41C 12.343145 41 11 39.656853 11 38C 11 36.343147 12.343145 35 14 35L 29 35M 54 41L 49.599998 55.091999C 49.24448 56.228603 48.190907 57.001762 47 57L 21 57C 19.809093 57.001762 18.75552 56.228603 18.4 55.091999L 14 41M 31 45L 31 53M 25 45L 25 53M 37 45L 37 53M 43 45L 43 53M 25 25L 11 11M 19 11L 11 11L 11 19"></path></g></g></g><g id="g-root-tx_identifi_142zmch2t962z-stroke" data-item-order="0" transform="translate(57, 231)"></g><g id="g-root-tx_traiterc_8vvrvl2tes5m-stroke" data-item-order="0" transform="translate(245, 231)"></g><g id="g-root-tx_utiliser_4lojj52tq1hc-stroke" data-item-order="0" transform="translate(463, 219)"></g><g id="g-root-tx_produire_dhbq3l2tpzwm-stroke" data-item-order="0" transform="translate(651, 231)"></g><g id="g-root-tx_dcompose_1qd7ie92tdbeu-stroke" data-item-order="0" transform="translate(51, 327)"></g><g id="g-root-tx_traiterl_13ymaqp2tq0hu-stroke" data-item-order="0" transform="translate(245, 327)"></g><g id="g-root-tx_mainteni_1umsfz52tpyq3-stroke" data-item-order="0" transform="translate(433, 327)"></g><g id="g-root-tx_gnrerdes_hrj1lt2t6dcc-stroke" data-item-order="0" transform="translate(633, 327)"></g></g></g></svg>