<?xml version="1.0" encoding="utf-8" standalone="yes"?>
<!DOCTYPE svg PUBLIC "-//W3C//DTD SVG 1.1//EN" "http://www.w3.org/Graphics/SVG/1.1/DTD/svg11.dtd">
<svg width="613" height="542" viewBox="0 0 613 542" style="fill:none;stroke:none;fill-rule:evenodd;clip-rule:evenodd;stroke-linecap:round;stroke-linejoin:round;stroke-miterlimit:1.5;" version="1.1" xmlns="http://www.w3.org/2000/svg" xmlns:xlink="http://www.w3.org/1999/xlink"><style id="fontImports">@import url("https://fonts.googleapis.com/css2?family=Roboto:wght@400;700&amp;display=block");</style><g id="items" style="isolation: isolate"><g id="blend" style="mix-blend-mode: normal"><g id="g-root-4.cu_sy_925b4x1fjlzg-fill" data-item-order="-92729" transform="translate(122.95700073242188, 291.75)"></g><g id="g-root-3.Exclude_sy_1usfbtt1fjk7h-fill" data-item-order="-92726" transform="translate(244.055908203125, 305)"></g><g id="g-root-2.right-bucket_sy_1qcltpd1fjkzq-fill" data-item-order="-92722" transform="translate(339, 255)"></g><g id="g-root-1.left-bucket_sy_1hgytgh1fjlsf-fill" data-item-order="-92718" transform="translate(15, 255)"></g><g id="g-root-pers_1hduj6p1fgsni-fill" data-item-order="0" transform="translate(27, 48.99658203125)"></g><g id="g-root-tx_prcision_1q7l28x1phrf3-fill" data-item-order="0" transform="translate(87, 39)"><g id="tx_prcision_1q7l28x1phrf3-fill" stroke="none" fill="#ababab"><g><text style="font: 20px Roboto, sans-serif; white-space: pre;" font-size="20px" font-family="Roboto, sans-serif"><tspan x="12" y="34" dominant-baseline="ideographic">Précision </tspan><tspan x="12" y="58" dominant-baseline="ideographic">d'entraînement </tspan><tspan x="12" y="82" dominant-baseline="ideographic">élevée</tspan></text></g></g></g><g id="g-root-hors_1hfq4rl1fi70v-fill" data-item-order="0" transform="translate(351, 48.99658203125)"></g><g id="g-root-tx_prcision_1utnb8h1phszn-fill" data-item-order="0" transform="translate(411, 39)"><g id="tx_prcision_1utnb8h1phszn-fill" stroke="none" fill="#ababab"><g><text style="font: 20px Roboto, sans-serif; white-space: pre;" font-size="20px" font-family="Roboto, sans-serif"><tspan x="12" y="34" dominant-baseline="ideographic">Précision </tspan><tspan x="12" y="58" dominant-baseline="ideographic">d'entraînement </tspan><tspan x="12" y="82" dominant-baseline="ideographic">faible</tspan></text></g></g></g><g id="g-root-tx_complexi_6hc4h1phte7-fill" data-item-order="0" transform="translate(411, 99)"><g id="tx_complexi_6hc4h1phte7-fill" stroke="none" fill="#ababab"><g><text style="font: 20px Roboto, sans-serif; white-space: pre;" font-size="20px" font-family="Roboto, sans-serif"><tspan x="12" y="52" dominant-baseline="ideographic">Mauvaise </tspan><tspan x="12" y="76" dominant-baseline="ideographic">performance globale</tspan></text></g></g></g><g id="g-root-floa_hyevmp1fcl56-fill" data-item-order="0" transform="translate(27, 120.99658203125)"></g><g id="g-root-tx_complexi_mgp8691pge0z-fill" data-item-order="0" transform="translate(87, 123)"><g id="tx_complexi_mgp8691pge0z-fill" stroke="none" fill="#ababab"><g><text style="font: 20px Roboto, sans-serif; white-space: pre;" font-size="20px" font-family="Roboto, sans-serif"><tspan x="12" y="34" dominant-baseline="ideographic">Performance </tspan><tspan x="12" y="58" dominant-baseline="ideographic">trompeuse</tspan></text></g></g></g><g id="g-root-beta_hz1fvl1fp895-fill" data-item-order="0" transform="translate(351, 120.99658203125)"></g><g id="g-root-1_18lyaap1fjk74-fill" data-item-order="0" transform="translate(27, 192.99658203125)"></g><g id="g-root-tx_gnralisa_qunb1d1pge8f-fill" data-item-order="0" transform="translate(87, 195)"><g id="tx_gnralisa_qunb1d1pge8f-fill" stroke="none" fill="#ababab"><g><text style="font: 20px Roboto, sans-serif; white-space: pre;" font-size="20px" font-family="Roboto, sans-serif"><tspan x="12" y="34" dominant-baseline="ideographic">Généralisation </tspan><tspan x="12" y="58" dominant-baseline="ideographic">faible</tspan></text></g></g></g><g id="g-root-brai_1lux2n51fp7ns-fill" data-item-order="0" transform="translate(351, 192.99658203125)"></g><g id="g-root-tx_gnralisa_v7cfq91phr7n-fill" data-item-order="0" transform="translate(411, 195)"><g id="tx_gnralisa_v7cfq91phr7n-fill" stroke="none" fill="#ababab"><g><text style="font: 20px Roboto, sans-serif; white-space: pre;" font-size="20px" font-family="Roboto, sans-serif"><tspan x="12" y="34" dominant-baseline="ideographic">Incapacité à </tspan><tspan x="12" y="58" dominant-baseline="ideographic">généraliser</tspan></text></g></g></g><g id="g-root-tx_surappre_1cu94m91pj85r-fill" data-item-order="0" transform="translate(45, 363)"><g id="tx_surappre_1cu94m91pj85r-fill" stroke="none" fill="#ababab"><g><text style="font: 20px Roboto, sans-serif; white-space: pre;" font-size="20px" font-family="Roboto, sans-serif"><tspan x="13.22" y="34" dominant-baseline="ideographic">Sur-apprentissage</tspan></text></g></g></g><g id="g-root-tx_sousappr_1hjfl1pj85f-fill" data-item-order="0" transform="translate(357, 363)"><g id="tx_sousappr_1hjfl1pj85f-fill" stroke="none" fill="#ababab"><g><text style="font: 20px Roboto, sans-serif; white-space: pre;" font-size="20px" font-family="Roboto, sans-serif"><tspan x="17.74" y="34" dominant-baseline="ideographic">Sous-apprentissage</tspan></text></g></g></g><g id="g-root-tx_quilibre_8yzyxt1pj5lb-fill" data-item-order="0" transform="translate(15, 435)"><g id="tx_quilibre_8yzyxt1pj5lb-fill" stroke="none" fill="#ababab"><g><text style="font: 20px Roboto, sans-serif; white-space: pre;" font-size="20px" font-family="Roboto, sans-serif"><tspan x="16.82" y="34" dominant-baseline="ideographic">Équilibrer l'apprentissage du modèle pour des performances </tspan><tspan x="239.36" y="58" dominant-baseline="ideographic">optimales</tspan></text></g></g></g><g id="g-root-4.cu_sy_925b4x1fjlzg-stroke" data-item-order="-92729" transform="translate(122.95700073242188, 291.75)"><g id="4.cu_sy_925b4x1fjlzg-stroke" fill="none" stroke-linecap="round" stroke-linejoin="round" stroke-miterlimit="4" stroke="#f4f4f4" stroke-width="2"><g><path d="M 340.042999 45.25C 343.356999 45.25 346.042999 42.564 346.042999 39.25C 346.042999 35.936 343.356999 33.25 340.042999 33.25C 336.728999 33.25 334.042999 35.936 334.042999 39.25C 334.042999 42.564 336.728999 45.25 340.042999 45.25ZM 16.021999 45.25C 19.346999 45.25 22.042999 42.564 22.042999 39.25C 22.042999 35.936 19.346999 33.25 16.021999 33.25C 12.695999 33.25 9.999999 35.936 9.999999 39.25C 9.999999 42.564 12.695999 45.25 16.021999 45.25ZM 340.042999 33.25L 340.042999 10M 16.042999 10.25L 16.042999 33.25M 334.057999 39.275L 195.042999 39.275M 161.042999 39.275L 22.042999 39.275"></path></g></g></g><g id="g-root-3.Exclude_sy_1usfbtt1fjk7h-stroke" data-item-order="-92726" transform="translate(244.055908203125, 305)"><g id="3.Exclude_sy_1usfbtt1fjk7h-stroke" fill="none" stroke-linecap="round" stroke-linejoin="round" stroke-miterlimit="4" stroke="#f4f4f4" stroke-width="2"><g><path d="M 56.944107 10C 49.471107 10 43.195107 15.122 41.436107 22.047L 10.134107 124.12C 9.542107 126.049 10.984107 128 13.002107 128L 100.886107 128C 102.903107 128 104.346107 126.049 103.754107 124.12L 72.454107 22.054C 70.696107 15.126 64.419107 10 56.944107 10ZM 56.944107 33C 60.810107 33 63.944107 29.866 63.944107 26C 63.944107 22.134 60.810107 19 56.944107 19C 53.078107 19 49.944107 22.134 49.944107 26C 49.944107 29.866 53.078107 33 56.944107 33Z"></path></g></g></g><g id="g-root-2.right-bucket_sy_1qcltpd1fjkzq-stroke" data-item-order="-92722" transform="translate(339, 255)"><g id="2.right-bucket_sy_1qcltpd1fjkzq-stroke" fill="none" stroke-linecap="round" stroke-linejoin="round" stroke-miterlimit="4" stroke="#4f91fc" stroke-width="2"><g><path d="M 11.081 15.729C 10.338 14.904 10 13.826 10 12.716L 10 12.716C 10 11.216 11.216 10 12.716 10L 235.284 10C 236.784 10 238 11.216 238 12.716L 238 12.716C 238 13.826 237.662 14.904 236.919 15.729C 231.551 21.692 204.717 46 124 46C 43.283 46 16.449 21.692 11.081 15.729Z"></path></g></g></g><g id="g-root-1.left-bucket_sy_1hgytgh1fjlsf-stroke" data-item-order="-92718" transform="translate(15, 255)"><g id="1.left-bucket_sy_1hgytgh1fjlsf-stroke" fill="none" stroke-linecap="round" stroke-linejoin="round" stroke-miterlimit="4" stroke="#fb6762" stroke-width="2"><g><path d="M 11.0812 15.729C 10.3384 14.904 10 13.826 10 12.716L 10 12.716C 10 11.216 11.2158 10 12.7157 10L 235.284 10C 236.784 10 238 11.216 238 12.716L 238 12.716C 238 13.826 237.662 14.904 236.919 15.729C 231.551 21.692 204.717 46 124 46C 43.2826 46 16.4488 21.692 11.0812 15.729Z"></path></g></g></g><g id="g-root-pers_1hduj6p1fgsni-stroke" data-item-order="0" transform="translate(27, 48.99658203125)"><g id="pers_1hduj6p1fgsni-stroke" fill="none" stroke-linecap="round" stroke-linejoin="round" stroke-miterlimit="4" stroke="#ababab" stroke-width="2"><g><path d="M 33 16C 33 18.761425 35.238579 21 38 21C 40.761425 21 43 18.761425 43 16C 43 13.238577 40.761425 11 38 11C 35.238579 11 33 13.238577 33 16ZM 55.122002 22.878C 53.9505 21.706856 52.051502 21.706856 50.880001 22.878L 47.462002 26.296C 46.668438 27.08893 45.498783 27.372856 44.43 27.032L 29.096001 22.153999C 26.125017 21.199051 22.871159 21.859825 20.507999 23.898001L 16.048 27.722C 15.220982 28.415895 14.830561 29.500631 15.025675 30.562414C 15.220788 31.624197 15.971342 32.499268 16.991024 32.853813C 18.010704 33.208359 19.142246 32.987694 19.954 32.276001L 24.414 28.452C 25.199608 27.768791 26.286386 27.54855 27.276001 27.872L 31.247999 29.136L 26.042 41L 15 41C 13.343145 41 12 42.343147 12 44C 12 45.656857 13.343145 47 15 47L 28 47C 29.192307 46.999386 30.271078 46.292767 30.748001 45.200001L 32.195999 41.902L 39.195999 41.265999C 40.163967 41.175629 41.115334 41.562145 41.746002 42.302002L 45.73 46.950001C 46.813892 48.186283 48.690926 48.319809 49.938904 47.249405C 51.186886 46.179005 51.340786 44.303532 50.284 43.044003L 46.292 38.400002C 44.397781 36.1847 41.546566 35.02602 38.644001 35.292L 34.950001 35.627998L 37 30.968L 42.613998 32.753998C 45.819744 33.778187 49.329052 32.924404 51.706001 30.542002L 55.119999 27.124001C 55.683903 26.561522 56.000988 25.797888 56.001362 25.001415C 56.001736 24.204941 55.685375 23.441011 55.122002 22.878ZM 36 46L 36 57M 32 57L 40 57"></path></g></g></g><g id="g-root-tx_prcision_1q7l28x1phrf3-stroke" data-item-order="0" transform="translate(87, 39)"></g><g id="g-root-hors_1hfq4rl1fi70v-stroke" data-item-order="0" transform="translate(351, 48.99658203125)"><g id="hors_1hfq4rl1fi70v-stroke" fill="none" stroke-linecap="round" stroke-linejoin="round" stroke-miterlimit="4" stroke="#ababab" stroke-width="2"><g><path d="M 11 17C 11 19.761425 13.238577 22 16 22C 18.761425 22 21 19.761425 21 17C 21 14.238577 18.761425 12 16 12C 13.238577 12 11 14.238577 11 17M 54 31L 42.240002 31L 50.119999 23.119999C 51.221439 21.937962 51.188938 20.095961 50.04649 18.95351C 48.904041 17.811062 47.062038 17.778563 45.880001 18.880001L 34.52 30.24L 27.879999 26.379999C 28.139999 26.1 26.700001 27.540001 37.120003 17.119999C 38.221436 15.937962 38.188938 14.095961 37.04649 12.953511C 35.904041 11.811062 34.062042 11.778563 32.880001 12.88L 23.799999 22C 21.372065 24.422649 20.005283 27.710121 20 31.139999L 20 40C 20 41.656853 21.343147 43 23 43C 24.656855 43 26 41.656853 26 40L 26 32.220001L 33.48 36.599998C 33.945534 36.857628 34.467957 36.995106 35 37L 54 37C 55.656857 37 57 35.656853 57 34C 57 32.343147 55.656857 31 54 31ZM 11 56L 11 52C 11 49.790859 12.790861 48 15 48L 53 48C 55.209141 48 57 49.790859 57 52L 57 56M 23 43L 23 48M 45 43L 45 48"></path></g></g></g><g id="g-root-tx_prcision_1utnb8h1phszn-stroke" data-item-order="0" transform="translate(411, 39)"></g><g id="g-root-tx_complexi_6hc4h1phte7-stroke" data-item-order="0" transform="translate(411, 99)"></g><g id="g-root-floa_hyevmp1fcl56-stroke" data-item-order="0" transform="translate(27, 120.99658203125)"><g id="floa_hyevmp1fcl56-stroke" fill="none" stroke-linecap="round" stroke-linejoin="round" stroke-miterlimit="4" stroke="#ababab" stroke-width="2"><g><path d="M 13.316 57L 15.732 37.708C 15.806149 36.310814 16.51762 35.025002 17.661999 34.220001C 19.191504 33.495491 20.813356 32.984707 22.482 32.702M 42.751999 48.48C 49.607571 47.554829 54.713001 41.687645 54.681999 34.77L 54.681999 13.898C 54.682846 12.990541 54.258286 12.135152 53.535011 11.5871C 52.811741 11.039047 51.873394 10.861707 51 11.108C 43.017769 13.393955 34.554226 13.393955 26.571999 11.108C 25.830429 10.901167 25.037033 10.99791 24.36689 11.376883C 23.696749 11.755854 23.204945 12.385903 23 13.128C 22.930466 13.37874 22.895477 13.637797 22.896 13.898L 22.896 37.613998L 22.896 37.613998L 42.762001 35.295998C 44.159039 35.086449 45.511242 35.886581 46 37.212002C 46.335823 38.480427 46.293419 39.819366 45.878002 41.064003C 45.433895 41.831257 44.67318 42.362804 43.799999 42.516003L 29.341999 45.188M 33.015999 44.507999L 34.984001 44.144001C 36.613243 43.842453 38.178452 44.918762 38.480003 46.548C 38.781548 48.177242 37.705238 49.742455 36.076 50.044003L 34.110001 50.408001M 33.015999 50.612L 34.984001 50.248001C 36.613243 49.946453 38.178452 51.022762 38.480003 52.652C 38.781548 54.281242 37.705238 55.846455 36.076 56.148003L 34.110001 56.512001M 35.552002 29.978001C 33.432587 30.285786 31.276457 29.758764 29.538 28.507999C 28.154978 26.87368 27.460199 24.766401 27.6 22.630001C 29.719452 22.321362 31.875898 22.848461 33.613998 24.099998C 34.997208 25.734215 35.692013 27.841572 35.552002 29.978001ZM 41.964001 29.978001C 44.083401 30.285572 46.239452 29.75857 47.978001 28.507999C 49.362461 26.874287 50.058697 24.766941 49.920002 22.630001C 47.800545 22.321362 45.644096 22.848461 43.905998 24.099998C 42.521351 25.73361 41.825092 27.84103 41.964001 29.978001Z"></path></g></g></g><g id="g-root-tx_complexi_mgp8691pge0z-stroke" data-item-order="0" transform="translate(87, 123)"></g><g id="g-root-beta_hz1fvl1fp895-stroke" data-item-order="0" transform="translate(351, 120.99658203125)"><g id="beta_hz1fvl1fp895-stroke" fill="none" stroke-linecap="round" stroke-linejoin="round" stroke-miterlimit="4" stroke="#ababab" stroke-width="2"><g><path d="M 44.98 50.986C 45.256142 50.986 45.48 51.209858 45.48 51.486C 45.48 51.762142 45.256142 51.986 44.98 51.986C 44.703857 51.986 44.48 51.762142 44.48 51.486C 44.48 51.209858 44.703857 50.986 44.98 50.986M 44.98 46.986L 44.98 40.986M 46.655998 35C 46.326572 34.380157 45.681942 33.992744 44.98 33.992744C 44.278057 33.992744 43.633427 34.380157 43.303997 35L 33.200001 54.262001C 32.89592 54.839626 32.920265 55.535053 33.264 56.09C 33.608978 56.648647 34.219421 56.987949 34.875999 56.986L 55.091999 56.986C 55.749187 56.988258 56.360371 56.648964 56.706001 56.09C 57.048298 55.534451 57.071873 54.839462 56.767998 54.261997ZM 26.98 57.07L 12.98 57.07C 11.87543 57.07 10.98 56.174568 10.98 55.07L 10.98 13.07C 10.98 11.96543 11.87543 11.07 12.98 11.07L 39.566002 11.07C 40.09639 11.070113 40.605015 11.280901 40.98 11.656L 48.400002 19.07C 48.775097 19.444984 48.985886 19.953609 48.986 20.484001L 48.986 29.07M 16.98 41.07L 34.98 41.07M 19.98 31.07L 21.98 31.07C 22.532284 31.07 22.98 31.517715 22.98 32.07L 22.98 41.07L 22.98 41.07L 18.98 41.07L 18.98 41.07L 18.98 32.07C 18.98 31.517715 19.427715 31.07 19.98 31.07ZM 30.98 41.07L 30.98 26.07C 30.98 25.517715 30.532286 25.07 29.98 25.07L 27.98 25.07C 27.427715 25.07 26.98 25.517715 26.98 26.07L 26.98 41.07M 38.98 33.07L 38.98 30.07C 38.98 29.517715 38.532288 29.07 37.98 29.07L 35.98 29.07C 35.427715 29.07 34.98 29.517715 34.98 30.07L 34.98 41.07"></path></g></g></g><g id="g-root-1_18lyaap1fjk74-stroke" data-item-order="0" transform="translate(27, 192.99658203125)"><g id="1_18lyaap1fjk74-stroke" fill="none" stroke-linecap="round" stroke-linejoin="round" stroke-miterlimit="4" stroke="#ababab" stroke-width="2"><g><path d="M 40.73 42.118C 40.021999 44 39.798 44.433998 39.015999 46.388L 45.015999 46.388L 45.015999 49.388C 45.016003 52.70171 47.702293 55.388 51.016003 55.388L 54.015999 55.388L 54.015999 56.888M 57.015999 20.018C 55.419163 20.432331 53.899635 21.101597 52.516003 22M 43.436001 26.112C 42.912735 26.111542 42.410133 26.316174 42.035999 26.681999C 39.573997 29.082001 39.236 32.653999 39.708 36.365997C 39.835819 37.364296 40.685555 38.112099 41.692001 38.112L 57.014 38.112L 57.014 26.112ZM 22.756001 14.77C 22.756001 14.77 23.826 11.454 32.984001 11.114C 33.360519 11.077924 33.735825 11.193989 34.026245 11.43632C 34.316669 11.678652 34.498066 12.027104 34.529999 12.404L 34.529999 27.506001C 34.458275 28.255899 33.810486 28.817432 33.057999 28.782C 23.84 29.108 22.756001 32.442001 22.756001 32.442001L 22.756001 14.77M 22.756001 14.77C 22.756001 14.77 21.686001 11.454 12.53 11.114C 12.154116 11.077892 11.779379 11.193419 11.489072 11.434903C 11.198765 11.676388 11.016937 12.023825 10.984 12.4L 10.984 27.506001C 11.049778 28.258127 11.700096 28.82262 12.454 28.782C 21.672001 29.108 22.756001 32.442001 22.756001 32.442001L 22.756001 14.77"></path></g></g></g><g id="g-root-tx_gnralisa_qunb1d1pge8f-stroke" data-item-order="0" transform="translate(87, 195)"></g><g id="g-root-brai_1lux2n51fp7ns-stroke" data-item-order="0" transform="translate(351, 192.99658203125)"><g id="brai_1lux2n51fp7ns-stroke" fill="none" stroke-linecap="round" stroke-linejoin="round" stroke-miterlimit="4" stroke="#ababab" stroke-width="2"><g><path d="M 19.350719 56.5L 19.350719 43.970001C 16.587181 41.409798 14.65988 38.075798 13.82048 34.4034C 12.9811 30.731001 13.26862 26.89068 14.64554 23.384159C 16.02244 19.87764 18.424721 16.8678 21.538681 14.7477C 24.652641 12.6276 28.33354 11.495768 32.1008 11.500012C 46.378799 11.500012 49.4608 23.25602 54.5508 36.459999C 54.638 36.687401 54.668598 36.9324 54.639999 37.174202C 54.611401 37.416 54.524601 37.647202 54.386799 37.848C 54.249001 38.048599 54.064602 38.212799 53.849201 38.326401C 53.633801 38.440002 53.394199 38.499599 53.150799 38.5L 49.3508 38.5L 49.3508 44.5C 49.3508 46.0914 48.718601 47.617401 47.593399 48.742599C 46.468201 49.867802 44.942001 50.5 43.3508 50.5L 40.3508 50.5L 40.3508 56.5M 32.3302 17.673401C 29.502701 18.467861 30.4512 19.82612 28.125959 21.046619C 25.729221 21.00012 24.125221 22.15172 23.736599 24.181381C 23.180321 27.08666 20.97386 27.34256 20.819141 29.46526C 20.66444 31.587799 22.41934 32.851402 24.5296 32.916401C 26.639879 32.981598 27.107559 35.145 28.039021 36.998199C 28.970461 38.8512 31.9552 39.827801 33.969803 38.455399C 35.9846 37.082802 35.897202 35.211201 37.959 34.441601C 40.021 33.672001 42.201199 33.713799 43.6348 31.7628C 45.068199 29.812019 43.415401 26.73148 41.1194 26.57402C 38.823402 26.416559 36.547401 24.70546 37.121002 21.8057C 37.694599 18.90596 35.157799 16.87892 32.3302 17.673401ZM 10 10M 21.68848 19.469299L 41.0546 38.834999"></path></g></g></g><g id="g-root-tx_gnralisa_v7cfq91phr7n-stroke" data-item-order="0" transform="translate(411, 195)"></g><g id="g-root-tx_surappre_1cu94m91pj85r-stroke" data-item-order="0" transform="translate(45, 363)"></g><g id="g-root-tx_sousappr_1hjfl1pj85f-stroke" data-item-order="0" transform="translate(357, 363)"></g><g id="g-root-tx_quilibre_8yzyxt1pj5lb-stroke" data-item-order="0" transform="translate(15, 435)"></g></g></g></svg>