<?xml version="1.0" encoding="utf-8" standalone="yes"?>
<!DOCTYPE svg PUBLIC "-//W3C//DTD SVG 1.1//EN" "http://www.w3.org/Graphics/SVG/1.1/DTD/svg11.dtd">
<svg width="696" height="457" viewBox="0 0 696 457" style="fill:none;stroke:none;fill-rule:evenodd;clip-rule:evenodd;stroke-linecap:round;stroke-linejoin:round;stroke-miterlimit:1.5;" version="1.1" xmlns="http://www.w3.org/2000/svg" xmlns:xlink="http://www.w3.org/1999/xlink"><style id="fontImports">@import url("https://fonts.googleapis.com/css2?family=Roboto:wght@400;700&amp;display=block");</style><g id="items" style="isolation: isolate"><g id="blend" style="mix-blend-mode:normal"><g id="g-root-5.cu_sy_18n7dlt1mb2q6b-fill" data-item-order="999827186" data-item-id="5.cu_sy_18n7dlt1mb2q6b" data-item-class="Part Indexed Fill Stroke" data-item-index="5" data-renderer-id="0" transform="translate(499.66796875, 80.51953125)"></g><g id="g-root-4.cu_sy_vbqv8h1mb2rr8-fill" data-item-order="999827190" data-item-id="4.cu_sy_vbqv8h1mb2rr8" data-item-class="Part Indexed Fill Stroke" data-item-index="4" data-renderer-id="0" transform="translate(391.982421875, 162.49609375)"></g><g id="g-root-3.cu_sy_959tpd1mb2qz1-fill" data-item-order="999827194" data-item-id="3.cu_sy_959tpd1mb2qz1" data-item-class="Part Indexed Fill Stroke" data-item-index="3" data-renderer-id="0" transform="translate(246.3671875, 42.671875)"></g><g id="g-root-2.cu_sy_4pgbkx1mb2rra-fill" data-item-order="999827198" data-item-id="2.cu_sy_4pgbkx1mb2rra" data-item-class="Part Indexed Fill Stroke" data-item-index="2" data-renderer-id="0" transform="translate(139.666015625, 164.51953125)"></g><g id="g-root-1.cu_sy_1q5qqw11mb44jr-fill" data-item-order="999827202" data-item-id="1.cu_sy_1q5qqw11mb44jr" data-item-class="Part Indexed Indexed_1 Fill Stroke" data-item-index="1" data-renderer-id="0" transform="translate(31.998046875, 102.5)"></g><g id="g-root-tx_logiciel_1lu9fa91mlas5o-fill" data-item-order="1000000000" data-item-id="tx_logiciel_1lu9fa91mlas5o" data-item-class="Label Stroke Indexed ColorStrokeGray" data-item-index="3" data-renderer-id="0" transform="translate(254, 2)"><g id="tx_logiciel_1lu9fa91mlas5o-fill" stroke="none" fill="#A3A3A3"><g><text style="font: 20px Roboto, sans-serif; white-space: pre;" font-size="20px" font-family="Roboto, sans-serif"><tspan x="17.22" y="33.47" dominant-baseline="ideographic">LLM open source</tspan></text></g></g></g><g id="g-root-tx_utilisat_mb2x7l1mlark2-fill" data-item-order="1000000000" data-item-id="tx_utilisat_mb2x7l1mlark2" data-item-class="Label Stroke Indexed ColorStrokeGray" data-item-index="5" data-renderer-id="0" transform="translate(482, 14)"><g id="tx_utilisat_mb2x7l1mlark2-fill" stroke="none" fill="#A3A3A3"><g><text style="font: 20px Roboto, sans-serif; white-space: pre;" font-size="20px" font-family="Roboto, sans-serif"><tspan x="14.2" y="33.47" dominant-baseline="ideographic">LLM accessibles via </tspan><tspan x="52.75" y="57.47" dominant-baseline="ideographic">API externe</tspan></text></g></g></g><g id="g-root-tx_dveloppe_143lvvl1mlard2-fill" data-item-order="1000000000" data-item-id="tx_dveloppe_143lvvl1mlard2" data-item-class="Label Stroke Indexed Indexed_1 ColorStrokeGray" data-item-index="1" data-renderer-id="0" transform="translate(2, 38)"><g id="tx_dveloppe_143lvvl1mlard2-fill" stroke="none" fill="#A3A3A3"><g><text style="font: 20px Roboto, sans-serif; white-space: pre;" font-size="20px" font-family="Roboto, sans-serif"><tspan x="17.5" y="33.47" dominant-baseline="ideographic">LLM développés en </tspan><tspan x="72.8" y="57.47" dominant-baseline="ideographic">interne</tspan></text></g></g></g><g id="g-root-2_18fogbl1ml6ih7-fill" data-item-order="1000000000" data-item-id="2_18fogbl1ml6ih7" data-item-class="Icon Stroke Indexed InsideFill InsideColorFill" data-item-index="3" data-renderer-id="0" transform="translate(314, 110)"></g><g id="g-root-user_qqwfc11mlaqrt-fill" data-item-order="1000000000" data-item-id="user_qqwfc11mlaqrt" data-item-class="Icon Stroke Indexed Indexed_1 InsideFill InsideColorFill" data-item-index="1" data-renderer-id="0" transform="translate(74, 146)"></g><g id="g-root-clic_qtfjxd1mb2r64-fill" data-item-order="1000000000" data-item-id="clic_qtfjxd1mb2r64" data-item-class="Icon Stroke Indexed InsideFill InsideColorFill" data-item-index="5" data-renderer-id="0" transform="translate(554, 134)"></g><g id="g-root-vert_hs51nl1mkv9xg-fill" data-item-order="1000000000" data-item-id="vert_hs51nl1mkv9xg" data-item-class="Icon Stroke Indexed InsideFill InsideColorFill" data-item-index="2" data-renderer-id="0" transform="translate(194, 218)"></g><g id="g-root-hamm_23w691mkvawz-fill" data-item-order="1000000000" data-item-id="hamm_23w691mkvawz" data-item-class="Icon Stroke Indexed InsideFill InsideColorFill" data-item-index="4" data-renderer-id="0" transform="translate(434, 206)"></g><g id="g-root-tx_finetuni_4lvoh1mlaqrv-fill" data-item-order="1000000000" data-item-id="tx_finetuni_4lvoh1mlaqrv" data-item-class="Label Stroke Indexed ColorStrokeGray" data-item-index="4" data-renderer-id="0" transform="translate(374, 314.000244140625)"><g id="tx_finetuni_4lvoh1mlaqrv-fill" stroke="none" fill="#A3A3A3"><g><text style="font: 20px Roboto, sans-serif; white-space: pre;" font-size="20px" font-family="Roboto, sans-serif"><tspan x="14.74" y="33.47" dominant-baseline="ideographic">LLM open source </tspan><tspan x="21.39" y="57.47" dominant-baseline="ideographic">avec fine-tuning</tspan></text></g></g></g><g id="g-root-tx_finetuni_1hefx5t1mlasxx-fill" data-item-order="1000000000" data-item-id="tx_finetuni_1hefx5t1mlasxx" data-item-class="Label Stroke Indexed ColorStrokeGray" data-item-index="2" data-renderer-id="0" transform="translate(92, 338.000244140625)"><g id="tx_finetuni_1hefx5t1mlasxx-fill" stroke="none" fill="#A3A3A3"><g><text style="font: 20px Roboto, sans-serif; white-space: pre;" font-size="20px" font-family="Roboto, sans-serif"><tspan x="30.28" y="45.47" dominant-baseline="ideographic">LLM pré-entraînés avec </tspan><tspan x="32.05" y="69.47" dominant-baseline="ideographic">fine-tuning par d'autres </tspan><tspan x="72.85" y="93.47" dominant-baseline="ideographic">organisations</tspan></text></g></g></g><g id="g-root-5.cu_sy_18n7dlt1mb2q6b-stroke" data-item-order="999827186" data-item-id="5.cu_sy_18n7dlt1mb2q6b" data-item-class="Part Indexed Fill Stroke" data-item-index="5" data-renderer-id="0" transform="translate(499.66796875, 80.51953125)"><g id="5.cu_sy_18n7dlt1mb2q6b-stroke" fill="none" stroke-linecap="round" stroke-linejoin="round" stroke-miterlimit="4" stroke="#F99539" stroke-width="2"><g><path d="M 89.5875 164.9543C 87.6049 164.952 86.6055 164.9509 82.7207 164.9462L 82.7246 164.9456L 76.7729 142.8536C 74.7373 142.2538 73.4313 141.8689 72.1247 141.4838C 70.8206 141.0994 69.5159 140.7149 67.4843 140.1163L 50.4758 155.4418C 48.911 154.4341 47.9032 153.785 47.0946 153.2642C 45.3858 152.1637 44.5664 151.636 41.26 149.5074L 48.2078 127.7034L 46.6983 125.9576C 45.0224 124.0193 44.0719 122.92 41.8768 120.3826L 19.2779 124.0908C 18.0777 121.4555 17.5426 120.2801 17.0073 119.1046C 16.4722 117.9293 15.9371 116.7539 14.7371 114.1193L 32.3798 99.526C 32.0812 97.4288 31.8894 96.0825 31.6976 94.7362C 31.5057 93.39 31.3139 92.0437 31.0154 89.9465L 10 80.8591C 10.417 77.9936 10.6027 76.7156 10.7884 75.4377C 10.9741 74.1597 11.1598 72.8817 11.5768 70.0163L 34.3129 67.2674C 35.4661 64.7554 36.0802 63.4166 36.8586 61.72C 37.2734 60.8158 37.7348 59.81 38.3492 58.4708L 25.5911 39.474C 28.6535 35.9515 28.9827 35.5731 30.9823 33.274C 31.465 32.719 32.045 32.0521 32.7843 31.2021L 53.3955 41.1703L 61.5506 35.9488L 61.0994 13.0736C 62.1927 12.7544 63.048 12.5048 63.7587 12.2973C 66.6642 11.4492 67.1552 11.3059 71.6255 10L 83.5662 29.5197L 93.2515 29.5315L 105.2508 10.0405C 108.0296 10.8589 109.2693 11.224 110.509 11.5893C 111.7488 11.9546 112.9885 12.32 115.7676 13.1391L 115.2484 36.0134C 117.0281 37.1596 118.1715 37.8957 119.3142 38.6313C 120.4597 39.3687 121.6045 40.1056 123.3886 41.2547L 144.0291 31.3362L 151.198 39.6248L 138.3831 58.5918C 139.3891 60.8016 139.9827 62.1047 140.6364 63.54C 141.1235 64.6095 141.6441 65.7525 142.3937 67.3986L 165.1211 70.2017L 166.6653 81.0477L 145.6235 90.0844C 145.3545 91.9345 145.1704 93.2 144.9962 94.397C 144.7757 95.9122 144.5712 97.3177 144.2309 99.6601L 161.8297 114.2951C 160.6219 116.9276 160.0831 118.1016 159.5443 119.2757C 159.0055 120.4497 158.4666 121.6238 157.2589 124.2562L 134.6705 120.4942L 128.317 127.8001L 135.1997 149.6206L 133.062 150.9889C 130.3366 152.7334 129.9853 152.9583 125.9656 155.5323L 109.0031 140.1653C 104.9814 141.3405 103.8043 141.6841 99.853 142.8377L 99.7057 142.8807L 93.6868 164.9591L 89.5875 164.9543ZM 89.0417 50.8034C 69.1598 50.8034 53.0417 66.9214 53.0417 86.8034C 53.0417 106.6853 69.1598 122.8034 89.0417 122.8034C 108.9237 122.8034 125.0417 106.6853 125.0417 86.8034C 125.0417 66.9214 108.9237 50.8034 89.0417 50.8034Z"></path></g></g></g><g id="g-root-4.cu_sy_vbqv8h1mb2rr8-stroke" data-item-order="999827190" data-item-id="4.cu_sy_vbqv8h1mb2rr8" data-item-class="Part Indexed Fill Stroke" data-item-index="4" data-renderer-id="0" transform="translate(391.982421875, 162.49609375)"><g id="4.cu_sy_vbqv8h1mb2rr8-stroke" fill="none" stroke-linecap="round" stroke-linejoin="round" stroke-miterlimit="4" stroke="#FFE60A" stroke-width="2"><g><path d="M 142.0319 61.3492L 124.3864 73.3584L 124.3781 81.7465L 141.9999 93.7905C 140.9614 96.9605 140.6582 97.8863 140.1228 99.521C 139.8444 100.3713 139.5031 101.4133 138.963 103.0626L 117.5953 102.4534C 116.8634 103.4539 116.2969 104.2284 115.781 104.9335C 114.8084 106.263 114.0161 107.346 112.6362 109.2335L 119.7811 129.2896C 117.7196 130.7773 116.7675 131.4646 115.8153 132.1519C 114.8632 132.8392 113.9111 133.5265 111.8496 135.0142L 94.9228 122.0185C 92.3691 122.842 91.0614 123.2635 89.1345 123.8846L 86.9079 124.6023L 80.8474 145.0096L 71.0515 144.9999L 65.0312 124.5807C 62.4863 123.7545 61.1795 123.3305 59.2626 122.7084C 58.6104 122.4968 57.8876 122.2623 57.0214 121.9812L 40.0691 134.9435C 38.0105 133.4517 37.0597 132.7625 36.109 132.0734C 35.1582 131.3842 34.2074 130.695 32.1489 129.2032L 39.3333 109.1613C 38.611 108.1697 38.0501 107.3999 37.54 106.6996C 36.5626 105.3581 35.7713 104.272 34.3876 102.3714L 13.0188 102.9385C 11.9508 99.657 11.6651 98.7787 11.0969 97.0322C 10.8302 96.2124 10.5013 95.2013 10 93.6604L 27.6455 81.6512L 27.6538 73.2631L 10.032 61.2191C 11.1036 57.9481 11.3923 57.0665 11.961 55.33C 12.2301 54.5083 12.5619 53.4952 13.069 51.947L 34.4367 52.5562C 35.1627 51.5636 35.726 50.7935 36.2386 50.0929C 37.2169 48.7557 38.01 47.6715 39.3957 45.7761L 32.2508 25.72C 34.3123 24.2323 35.2644 23.545 36.2166 22.8577C 37.1687 22.1704 38.1208 21.4831 40.1823 19.9954L 57.1091 32.9911C 59.6344 32.1768 60.9413 31.7555 62.8334 31.1457L 65.124 30.4073L 71.1845 10L 80.9804 10.0096L 87.0006 30.4289C 90.4115 31.5362 91.5982 31.9211 95.0105 33.0284L 111.9628 20.0661C 114.0214 21.5579 114.9722 22.2471 115.9229 22.9362C 116.8737 23.6254 117.8245 24.3146 119.883 25.8063L 112.6986 45.8483C 113.4302 46.8526 113.9961 47.6295 114.5116 48.3369C 115.4799 49.6661 116.2699 50.7503 117.6443 52.6381L 139.0132 52.0711C 140.0452 55.2423 140.3467 56.1691 140.8786 57.8041C 141.1554 58.6551 141.4947 59.698 142.0319 61.3492ZM 40.0158 77.4696C 39.9962 97.3515 56.0983 113.4854 75.9803 113.505C 95.8622 113.5246 111.9961 97.4224 112.0157 77.5405C 112.0353 57.6586 95.9331 41.5246 76.0512 41.5051C 56.1693 41.4855 40.0353 57.5876 40.0158 77.4696Z"></path></g></g></g><g id="g-root-3.cu_sy_959tpd1mb2qz1-stroke" data-item-order="999827194" data-item-id="3.cu_sy_959tpd1mb2qz1" data-item-class="Part Indexed Fill Stroke" data-item-index="3" data-renderer-id="0" transform="translate(246.3671875, 42.671875)"><g id="3.cu_sy_959tpd1mb2qz1-stroke" fill="none" stroke-linecap="round" stroke-linejoin="round" stroke-miterlimit="4" stroke="#A8DD38" stroke-width="2"><g><path d="M 10.5453 92.4539C 10.666301 91.1566 10.7873 89.8592 11.0905 86.6126L 11.089301 86.6101L 30.564201 84.5056C 31.801699 80.5354 32.152699 79.4104 33.026901 76.6083L 33.833301 74.0233L 19.013801 61.2016L 20.866901 57.9007C 22.132099 55.647 22.398199 55.173 24.757099 50.9728L 43.403501 56.979L 50.650501 48.7347L 42.323 30.9885C 44.0014 29.7383 45.032601 28.9702 45.8323 28.3746C 47.523501 27.115 48.178401 26.6272 51.727301 23.9831L 66.3209 37.0621C 68.696701 35.9705 70.0012 35.371 71.305701 34.7715C 72.610201 34.172 73.914801 33.5725 76.290501 32.481L 75.8937 12.8776C 79.0732 12.1631 80.343301 11.8777 81.6135 11.5922C 82.883401 11.3067 84.1534 11.021 87.3318 10.306L 95.3486 28.1958C 97.9917 28.1655 99.429801 28.1489 100.880901 28.1322C 102.300901 28.1158 103.733201 28.0993 106.318801 28.0697L 113.9226 10C 118.77 10.9721 119.201201 11.0587 121.916001 11.6038C 122.779801 11.7773 123.8748 11.9972 125.416901 12.3068L 125.4718 31.9139C 127.872501 32.9505 129.190401 33.5198 130.508401 34.089C 131.826301 34.6582 133.144201 35.2274 135.5449 36.264L 149.8341 22.8529C 152.4917 24.7387 153.5536 25.4921 154.615401 26.2457C 155.677301 26.9993 156.739101 27.753 159.3969 29.6396L 151.479901 47.5732C 153.251701 49.4978 154.224301 50.5544 155.197001 51.611C 156.169601 52.6676 157.142201 53.7242 158.914001 55.6488L 177.416901 49.2143C 179.079201 52.021 179.742801 53.1416 180.407 54.2632C 181.0705 55.3835 181.734501 56.5047 183.394901 59.3083L 168.874801 72.4683C 169.711401 74.9475 170.1706 76.3088 170.629801 77.6702C 171.0889 79.0315 171.5481 80.3929 172.384701 82.872L 191.903301 84.5269C 192.2814 87.766 192.432301 89.0602 192.583301 90.3544C 192.7343 91.6487 192.885301 92.9429 193.2633 96.182L 174.650601 102.2931C 174.4073 104.8984 174.273801 106.329 174.140301 107.7597C 174.006801 109.1904 173.873301 110.621 173.630001 113.2263L 190.789001 122.6846C 189.8187 125.7962 189.430601 127.0401 189.0427 128.2831C 188.6545 129.5273 188.266501 130.7707 187.295301 133.8851L 167.8092 131.8905C 166.526901 134.1744 165.823301 135.427 165.119101 136.6809C 164.4165 137.9318 163.713201 139.1839 162.433901 141.4624L 174.266301 157.0879L 171.8583 159.8272C 170.072401 161.8588 169.758201 162.2163 166.5228 165.8979L 149.5309 156.1425C 148.3796 157.0004 147.5133 157.6459 146.775601 158.1956C 144.826001 159.6484 143.773801 160.4324 140.730501 162.6994L 145.190001 181.792L 134.536701 186.6879L 122.9788 170.8575C 120.4278 171.4308 119.0272 171.7458 117.626601 172.0609C 116.226001 172.3759 114.825401 172.6909 112.2743 173.2642L 108.5897 192.5217L 96.868401 192.6565L 92.744501 173.4878C 90.181 172.9732 88.7736 172.6906 87.366101 172.4081C 85.958701 172.1255 84.551201 171.8429 81.987701 171.3284L 70.796601 187.421L 60.033501 182.7724L 64.052501 163.5824C 61.9201 162.0687 60.749101 161.2375 59.578101 160.4064C 58.407101 159.5752 57.236101 158.744 55.103701 157.2303L 38.341401 167.3755C 36.133501 164.9775 35.251301 164.0192 34.3692 163.061C 33.487001 162.1027 32.6049 161.1445 30.397 158.7465L 41.866301 142.8525C 40.531201 140.5982 39.799 139.3621 39.065901 138.1245C 38.334701 136.8904 37.602801 135.6549 36.271401 133.4067L 16.8364 135.8509C 15.559 132.0655 15.2216 131.0653 14.672301 129.4371C 14.3251 128.4079 13.893201 127.1276 13.085701 124.7341L 30.021399 114.8824C 29.718201 112.2834 29.551601 110.8561 29.385 109.4289C 29.218501 108.0017 29.0519 106.5744 28.7487 103.9754L 10 98.2952C 10.303201 95.0486 10.424201 93.7512 10.5453 92.4539ZM 137.6305 101.3281C 137.6305 81.4462 121.5125 65.3281 101.6305 65.3281C 81.748601 65.3281 65.6305 81.4462 65.6305 101.3281C 65.6305 121.2101 81.748601 137.3281 101.6305 137.3281C 121.5125 137.3281 137.6305 121.2101 137.6305 101.3281Z"></path></g></g></g><g id="g-root-2.cu_sy_4pgbkx1mb2rra-stroke" data-item-order="999827198" data-item-id="2.cu_sy_4pgbkx1mb2rra" data-item-class="Part Indexed Fill Stroke" data-item-index="2" data-renderer-id="0" transform="translate(139.666015625, 164.51953125)"><g id="2.cu_sy_4pgbkx1mb2rra-stroke" fill="none" stroke-linecap="round" stroke-linejoin="round" stroke-miterlimit="4" stroke="#44E095" stroke-width="2"><g><path d="M 89.6808 10.0047C 87.6353 10.007 86.6659 10.0081 82.7207 10.0129L 82.7246 10.0135L 76.7729 32.1055C 74.7393 32.7047 73.4339 33.0894 72.1286 33.4742C 70.8232 33.8589 69.5179 34.2436 67.4843 34.8428L 50.4758 19.5173C 48.9055 20.5285 47.8961 21.1786 47.0861 21.7003C 45.3831 22.7972 44.5609 23.3267 41.26 25.4517L 48.2078 47.2557L 46.6897 49.0114C 45.0191 50.9436 44.0682 52.0434 41.8768 54.5765L 19.2779 50.8683C 18.0754 53.5086 17.5405 54.6834 17.0042 55.8613C 16.4702 57.0343 15.9348 58.2103 14.7371 60.8398L 32.3798 75.4331C 32.0808 77.5334 31.8888 78.8806 31.6967 80.229C 31.5051 81.5732 31.3134 82.9186 31.0154 85.0126L 10 94.1C 10.4168 96.9643 10.6025 98.2424 10.7882 99.5199C 10.974 100.7983 11.1596 102.0762 11.5768 104.9427L 34.3129 107.6917C 35.4674 110.2067 36.0817 111.5457 36.8613 113.2451C 37.2754 114.1478 37.7361 115.152 38.3492 116.4882L 25.591 135.4851C 28.6519 139.0056 28.9823 139.3856 30.979 141.6813C 31.4624 142.237 32.0433 142.905 32.7843 143.757L 53.3955 133.7887L 61.5506 139.0103L 61.0994 161.8855C 62.1951 162.2053 63.0517 162.4554 63.7634 162.6631C 66.6648 163.51 67.1576 163.6539 71.6255 164.9591L 83.5662 145.4394L 93.2515 145.4276L 105.2508 164.9186C 108.0296 164.1002 109.2693 163.7351 110.509 163.3698C 111.7488 163.0045 112.9885 162.6391 115.7676 161.8199L 115.2484 138.9456C 117.0303 137.7981 118.1744 137.0615 119.3185 136.325C 120.4626 135.5885 121.6067 134.852 123.3886 133.7044L 144.0291 143.6229L 151.198 135.3343L 138.3831 116.3673C 139.3869 114.1622 139.9801 112.8599 140.6322 111.4283C 141.1205 110.3561 141.642 109.2114 142.3937 107.5605L 165.1211 104.7573L 166.6653 93.9114L 145.6235 84.8747C 145.3559 83.034 145.1723 81.772 144.9988 80.5803C 144.7773 79.0581 144.5726 77.6508 144.2309 75.2989L 161.8297 60.6639C 160.6219 58.0315 160.0831 56.8575 159.5443 55.6834C 159.0055 54.5094 158.4667 53.3353 157.2589 50.7029L 134.6705 54.4649L 128.317 47.159L 135.1997 25.3385L 133.038 23.9548C 130.3345 22.2244 129.9734 21.9932 125.9656 19.4268L 109.003 34.7938C 104.9813 33.6185 103.8043 33.2749 99.8527 32.1213L 99.7057 32.0784L 93.6868 10L 89.6808 10.0047ZM 88.334 123.4796C 68.452 123.4796 52.334 107.3615 52.334 87.4796C 52.334 67.5976 68.452 51.4796 88.334 51.4796C 108.2159 51.4796 124.334 67.5976 124.334 87.4796C 124.334 107.3615 108.2159 123.4796 88.334 123.4796Z"></path></g></g></g><g id="g-root-1.cu_sy_1q5qqw11mb44jr-stroke" data-item-order="999827202" data-item-id="1.cu_sy_1q5qqw11mb44jr" data-item-class="Part Indexed Indexed_1 Fill Stroke" data-item-index="1" data-renderer-id="0" transform="translate(31.998046875, 102.5)"><g id="1.cu_sy_1q5qqw11mb44jr-stroke" fill="none" stroke-linecap="round" stroke-linejoin="round" stroke-miterlimit="4" stroke="#4F92FF" stroke-width="2"><g><path d="M 10 61.2794L 27.6337 73.306L 27.6337 81.694L 10 93.7207C 11.0354 96.8917 11.3377 97.8179 11.8714 99.4531C 12.1491 100.3036 12.4893 101.3459 13.0279 102.9958L 34.3961 102.4077C 35.127 103.4089 35.6928 104.1839 36.2079 104.8895C 37.1792 106.22 37.9705 107.3038 39.3486 109.1926L 32.1839 129.2416C 34.2439 130.7314 35.1954 131.4196 36.1468 132.1079C 37.0982 132.7961 38.0497 133.4843 40.1097 134.9741L 57.0493 121.9951C 59.6022 122.8211 60.9095 123.2439 62.8358 123.8668L 65.0617 124.5867L 71.1021 145L 80.898 145L 86.9383 124.5867C 89.4841 123.763 90.7913 123.3403 92.7088 122.7201C 93.3612 122.5091 94.0842 122.2753 94.9507 121.9951L 111.8903 134.9741C 113.9503 133.4843 114.9018 132.7961 115.8532 132.1079C 116.8046 131.4196 117.7561 130.7314 119.8161 129.2416L 112.6515 109.1926C 113.3747 108.2017 113.9364 107.4324 114.4472 106.7327C 115.4259 105.3922 116.2182 104.3068 117.6039 102.4076L 138.9721 102.9958C 140.0433 99.7153 140.3298 98.8373 140.8997 97.0914C 141.1672 96.2718 141.4972 95.261 142 93.7207L 124.3663 81.694L 124.3663 73.306L 142 61.2793C 140.9316 58.0072 140.6437 57.1254 140.0767 55.3883C 139.8085 54.5664 139.4777 53.553 138.9721 52.0042L 117.6038 52.5924C 116.8788 51.599 116.3162 50.8284 115.8043 50.1273C 114.8274 48.7891 114.0353 47.7042 112.6514 45.8074L 119.8161 25.7584C 117.7561 24.2686 116.8046 23.5804 115.8532 22.8921C 114.9018 22.2039 113.9503 21.5157 111.8903 20.0259L 94.9507 33.0049C 92.4262 32.1881 91.1197 31.7656 89.2282 31.1539L 86.9383 30.4133L 80.8979 10L 71.102 10.000001L 65.0617 30.4133C 61.6497 31.5173 60.4626 31.901 57.0493 33.0049L 40.1097 20.0259C 38.0497 21.5157 37.0982 22.2039 36.1468 22.8921C 35.1953 23.5804 34.2439 24.2686 32.1839 25.7584L 39.3485 45.8074C 38.616 46.811 38.0493 47.5873 37.5331 48.2942C 36.5635 49.6224 35.7725 50.7059 34.3961 52.5924L 13.0278 52.0042C 11.9927 55.1745 11.6903 56.101 11.1568 57.7354C 10.8791 58.5862 10.5388 59.6287 10 61.2794ZM 112.001 77.5C 112.001 97.3819 95.8829 113.5 76.001 113.5C 56.1191 113.5 40.001 97.3819 40.001 77.5C 40.001 57.6181 56.119 41.5 76.001 41.5C 95.8829 41.5 112.001 57.6181 112.001 77.5Z"></path></g></g></g><g id="g-root-tx_logiciel_1lu9fa91mlas5o-stroke" data-item-order="1000000000" data-item-id="tx_logiciel_1lu9fa91mlas5o" data-item-class="Label Stroke Indexed ColorStrokeGray" data-item-index="3" data-renderer-id="0" transform="translate(254, 2)"></g><g id="g-root-tx_utilisat_mb2x7l1mlark2-stroke" data-item-order="1000000000" data-item-id="tx_utilisat_mb2x7l1mlark2" data-item-class="Label Stroke Indexed ColorStrokeGray" data-item-index="5" data-renderer-id="0" transform="translate(482, 14)"></g><g id="g-root-tx_dveloppe_143lvvl1mlard2-stroke" data-item-order="1000000000" data-item-id="tx_dveloppe_143lvvl1mlard2" data-item-class="Label Stroke Indexed Indexed_1 ColorStrokeGray" data-item-index="1" data-renderer-id="0" transform="translate(2, 38)"></g><g id="g-root-2_18fogbl1ml6ih7-stroke" data-item-order="1000000000" data-item-id="2_18fogbl1ml6ih7" data-item-class="Icon Stroke Indexed InsideFill InsideColorFill" data-item-index="3" data-renderer-id="0" transform="translate(314, 110)"><g id="2_18fogbl1ml6ih7-stroke" fill="none" stroke-linecap="round" stroke-linejoin="round" stroke-miterlimit="4" stroke="#A8DD38" stroke-width="2"><g><path d="M 27.48 49.34C 26.686321 48.020168 26.290478 46.499294 26.34 44.959999L 26.34 43.18C 26.470327 40.891842 25.323666 38.71946 23.360941 37.536095C 21.398216 36.352726 18.941782 36.352726 16.979057 37.536095C 15.016333 38.71946 13.869671 40.891842 14 43.179996L 14 44.959999C 14.049522 46.499294 13.653679 48.020168 12.86 49.34M 14 44.18C 16.366127 44.182392 18.615606 43.152599 20.16 41.360001C 21.715477 43.149189 23.9692 44.177586 26.34 44.18M 25.6 44.16C 25.425673 47.031101 23.046389 49.270302 20.17 49.270302C 17.293612 49.270302 14.914328 47.031101 14.74 44.16M 55.139999 49.34C 54.337681 48.023815 53.941154 46.500324 54 44.959999L 54 43.18C 54.130325 40.891842 52.983665 38.71946 51.020939 37.536095C 49.058216 36.352726 46.60178 36.352726 44.639053 37.536095C 42.676331 38.71946 41.529671 40.891842 41.659996 43.179996L 41.66 44.959999C 41.709522 46.499294 41.313679 48.020168 40.52 49.34M 41.66 44.18C 44.026127 44.182392 46.275608 43.152599 47.82 41.360001C 49.375477 43.149189 51.6292 44.177586 54 44.18M 53.259998 44.16C 53.08567 47.031101 50.70639 49.270302 47.829998 49.270302C 44.953609 49.270302 42.574326 47.031101 42.400002 44.16M 28.34 57C 26.769266 53.93441 23.614574 52.006111 20.170002 52.006111C 16.725428 52.006111 13.570736 53.93441 12 57.000004M 56 57C 54.429268 53.93441 51.274574 52.006111 47.830002 52.006111C 44.385429 52.006111 41.230736 53.93441 39.660004 57.000004M 49 28.98C 49 30.08457 48.104568 30.98 47 30.98L 39 30.98L 33 36.98L 33 30.98L 19 30.98C 17.895432 30.98 17 30.08457 17 28.98L 17 12.98C 17 11.87543 17.895432 10.98 19 10.98L 47 10.98C 48.104568 10.98 49 11.87543 49 12.98ZM 39 17L 43 21L 39 25M 27 17L 23 21L 27 25M 35 17L 31 25"></path></g></g></g><g id="g-root-user_qqwfc11mlaqrt-stroke" data-item-order="1000000000" data-item-id="user_qqwfc11mlaqrt" data-item-class="Icon Stroke Indexed Indexed_1 InsideFill InsideColorFill" data-item-index="1" data-renderer-id="0" transform="translate(74, 146)"><g id="user_qqwfc11mlaqrt-stroke" fill="none" stroke-linecap="round" stroke-linejoin="round" stroke-miterlimit="4" stroke="#4F92FF" stroke-width="2"><g><path d="M 32 35C 25.372583 35 20 29.627417 20 23C 20 16.372583 25.372583 11 32 11ZM 13 57C 13 46.506592 21.50659 38 32 38L 32 57ZM 36 35C 36.670525 34.995987 37.339535 34.935776 38 34.82L 38 31.76C 38.983719 31.534334 39.921806 31.142733 40.773998 30.601999L 42.945999 32.774002C 44.040051 31.99596 44.99596 31.040052 45.773998 29.945999L 43.599998 27.774C 44.141434 26.92194 44.533714 25.983845 44.759998 25L 47.82 25C 47.935772 24.339535 47.995983 23.670525 48 23C 47.995983 22.329475 47.935772 21.660467 47.82 21L 44.759998 21C 44.533714 20.016151 44.141434 19.07806 43.599998 18.226L 45.771999 16.054001C 44.993961 14.959948 44.038052 14.00404 42.944 13.226L 40.774002 15.4C 39.921936 14.858564 38.983845 14.466283 38 14.24L 38 11.18C 37.339535 11.064227 36.670525 11.004017 36 11M 36 19C 38.209137 19 40 20.790861 40 23C 40 25.209139 38.209137 27 36 27M 55 57C 54.992783 55.994694 54.905846 54.99155 54.739998 53.999996L 50.698002 54C 50.430782 52.702488 49.990864 51.446644 49.390003 50.266003L 52.332001 47.326C 50.955723 45.003922 49.102207 43.000431 46.894001 41.448002L 44.009998 44.334C 42.772068 43.546524 41.424023 42.947319 40.010002 42.556L 40.010002 38.43C 38.692268 38.145462 37.348099 38.001328 36 38M 36 49C 40.418278 49 44 52.581722 44 57"></path></g></g></g><g id="g-root-clic_qtfjxd1mb2r64-stroke" data-item-order="1000000000" data-item-id="clic_qtfjxd1mb2r64" data-item-class="Icon Stroke Indexed InsideFill InsideColorFill" data-item-index="5" data-renderer-id="0" transform="translate(554, 134)"><g id="clic_qtfjxd1mb2r64-stroke" fill="none" stroke-linecap="round" stroke-linejoin="round" stroke-miterlimit="4" stroke="#F99539" stroke-width="2"><g><path d="M 55 57L 55 51.666C 54.998898 47.984928 52.015076 45.001106 48.334003 45.000004L 45 45L 45 36C 45 34.343147 43.656857 33 42 33C 40.343147 33 39 34.343147 39 36L 39 50L 36.422001 47.84C 35.538345 46.778507 33.961491 46.634342 32.900002 47.517998C 31.838509 48.401653 31.694344 49.978508 32.577999 51.040001L 37.535999 57M 29 57L 15 57C 12.790861 57 11 55.209141 11 53L 11 15C 11 12.790861 12.790861 11 15 11L 53 11C 55.209141 11 57 12.790861 57 15L 57 41M 11 20.998001L 57 20.998001M 18 26.997999L 30 26.997999C 30 26.997999 31 26.997999 31 27.997999L 31 41.998001C 31 41.998001 31 42.998001 30 42.998001L 18 42.998001C 18 42.998001 17 42.998001 17 41.998001L 17 27.997999C 17 27.997999 17 26.997999 18 26.997999M 21 33.998001C 21 35.654854 22.343147 36.998001 24 36.998001C 25.656855 36.998001 27 35.654854 27 33.998001C 27 32.341148 25.656855 30.998001 24 30.998001C 22.343147 30.998001 21 32.341148 21 33.998001M 29 43L 19 43C 18.749329 39.970428 20.974888 37.299755 24 37C 27.025112 37.299755 29.250671 39.970428 29 43ZM 18 46.998001L 26 46.998001M 18 50.998001L 26 50.998001M 18 15.498C 18.275883 15.498002 18.49963 15.721455 18.499996 15.997335C 18.500362 16.273216 18.277208 16.497263 18.001328 16.497997C 17.725449 16.498734 17.501102 16.275879 17.5 16C 17.499468 15.867045 17.551912 15.739354 17.645737 15.645153C 17.739563 15.550952 17.867044 15.497999 18 15.498M 24 15.498C 24.275883 15.498002 24.49963 15.721455 24.499996 15.997335C 24.500362 16.273216 24.277208 16.497263 24.001328 16.497997C 23.725449 16.498734 23.501102 16.275879 23.5 16C 23.499468 15.867045 23.55191 15.739354 23.645737 15.645153C 23.739563 15.550952 23.867044 15.497999 24 15.498M 30 15.498C 30.275881 15.498002 30.49963 15.721455 30.499996 15.997335C 30.500362 16.273216 30.277208 16.497263 30.001328 16.497997C 29.725447 16.498734 29.501104 16.275879 29.5 16C 29.5 15.723858 29.723858 15.5 30 15.5M 38 26.997999L 51 26.997999"></path></g></g></g><g id="g-root-vert_hs51nl1mkv9xg-stroke" data-item-order="1000000000" data-item-id="vert_hs51nl1mkv9xg" data-item-class="Icon Stroke Indexed InsideFill InsideColorFill" data-item-index="2" data-renderer-id="0" transform="translate(194, 218)"><g id="vert_hs51nl1mkv9xg-stroke" fill="none" stroke-linecap="round" stroke-linejoin="round" stroke-miterlimit="4" stroke="#44E095" stroke-width="2"><g><path d="M 13 11L 55 11C 55 11 57 11 57 13L 57 55C 57 55 57 57 55 57L 13 57C 13 57 11 57 11 55L 11 13C 11 13 11 11 13 11M 34 36L 34 19M 34 49L 34 44M 30 40C 30 42.209141 31.790861 44 34 44C 36.209137 44 38 42.209141 38 40C 38 37.790863 36.209137 36 34 36C 31.790861 36 30 37.790863 30 40M 23 34L 23 49M 23 19L 23 26M 19 30C 19 32.209137 20.790861 34 23 34C 25.209139 34 27 32.209137 27 30C 27 27.790861 25.209139 26 23 26C 20.790861 26 19 27.790861 19 30M 45 34L 45 49M 45 19L 45 26M 41 30C 41 32.209137 42.790859 34 45 34C 47.209141 34 49 32.209137 49 30C 49 27.790861 47.209141 26 45 26C 42.790859 26 41 27.790861 41 30"></path></g></g></g><g id="g-root-hamm_23w691mkvawz-stroke" data-item-order="1000000000" data-item-id="hamm_23w691mkvawz" data-item-class="Icon Stroke Indexed InsideFill InsideColorFill" data-item-index="4" data-renderer-id="0" transform="translate(434, 206)"><g id="hamm_23w691mkvawz-stroke" fill="none" stroke-linecap="round" stroke-linejoin="round" stroke-miterlimit="4" stroke="#FFE60A" stroke-width="2"><g><path d="M 22.994848 21.579515L 31.868025 12.70634C 31.868025 12.70634 34.292393 10.281973 36.716759 12.70634L 55.287403 31.276981C 55.287403 31.276981 57.711769 33.701347 55.287403 36.125713L 46.414223 44.998894C 46.414223 44.998894 43.989861 47.42326 41.565491 44.998894L 22.994848 26.428251C 22.994848 26.428251 20.57048 24.003883 22.994848 21.579515M 13.12 48.022858C 11.22705 49.916504 11.227334 52.986065 13.120634 54.879364C 15.013934 56.772663 18.083492 56.772949 19.977142 54.879997L 35.714287 39.142857L 28.857143 32.285713Z"></path></g></g></g><g id="g-root-tx_finetuni_4lvoh1mlaqrv-stroke" data-item-order="1000000000" data-item-id="tx_finetuni_4lvoh1mlaqrv" data-item-class="Label Stroke Indexed ColorStrokeGray" data-item-index="4" data-renderer-id="0" transform="translate(374, 314.000244140625)"></g><g id="g-root-tx_finetuni_1hefx5t1mlasxx-stroke" data-item-order="1000000000" data-item-id="tx_finetuni_1hefx5t1mlasxx" data-item-class="Label Stroke Indexed ColorStrokeGray" data-item-index="2" data-renderer-id="0" transform="translate(92, 338.000244140625)"></g></g></g></svg>