<?xml version="1.0" encoding="utf-8" standalone="yes"?>
<!DOCTYPE svg PUBLIC "-//W3C//DTD SVG 1.1//EN" "http://www.w3.org/Graphics/SVG/1.1/DTD/svg11.dtd">
<svg width="984" height="349" viewBox="0 0 984 349" style="fill:none;stroke:none;fill-rule:evenodd;clip-rule:evenodd;stroke-linecap:round;stroke-linejoin:round;stroke-miterlimit:1.5;" version="1.1" xmlns="http://www.w3.org/2000/svg" xmlns:xlink="http://www.w3.org/1999/xlink"><style id="fontImports">@import url("https://fonts.googleapis.com/css2?family=Roboto:wght@400;700&amp;display=block");</style><g id="items" style="isolation: isolate"><g id="blend" style="mix-blend-mode:normal"><g id="g-root-3.cu_sy_1ltne2b1jjcef4-fill" data-item-order="999945574" transform="translate(440, 103)"><g id="3.cu_sy_1ltne2b1jjcef4-fill" stroke="none" fill="#5a3f27"><g><path d="M 28.273 57.698C 27.102 57.247 25.83 57 24.5 57C 18.701 57 14 61.701 14 67.5C 14 68.412 14.116 69.297 14.335 70.141C 11.636 73.308 10 77.457 10 82C 10 87.691 12.567 92.764 16.575 96.063C 16.202 97.14 16 98.296 16 99.5C 16 105.299 20.701 110 26.5 110C 27.29 110 28.06 109.913 28.8 109.747C 31.353 112.365 34.979 114 39 114C 43.501 114 47.506 111.951 50.068 108.768C 51.651 110.158 53.727 111 56 111C 60.97 111 65 106.971 65 102C 65 101.139 64.879 100.307 64.653 99.519C 67.982 95.645 70 90.564 70 85C 70 80.663 68.773 76.618 66.655 73.211C 66.881 72.176 67 71.102 67 70C 67 61.716 60.284 55 52 55C 50.211 55 48.494 55.313 46.903 55.888C 44.542 54.682 41.853 54 39 54C 34.933 54 31.199 55.386 28.273 57.698ZM 32 36C 32 40.418278 35.581722 44 40 44C 44.418278 44 48 40.418278 48 36C 48 31.581722 44.418278 28 40 28C 35.581722 28 32 31.581722 32 36M 44 14C 44 16.209137 42.209137 18 40 18C 37.790863 18 36 16.209137 36 14C 36 11.790863 37.790863 10 40 10C 42.209137 10 44 11.790863 44 14"></path></g></g></g><g id="g-root-2.cu_sy_18i6voz1jjcg01-fill" data-item-order="999945578" transform="translate(534, 45)"><g id="2.cu_sy_18i6voz1jjcg01-fill" stroke="none" fill="#5a3f27"><g><path d="M 83 70C 87.95 70 92.518 68.402 96.194 65.706C 97.782 66.533 99.586 67 101.5 67C 107.851 67 113 61.851 113 55.5C 113 52.514 111.862 49.794 109.996 47.75C 112.435 45.827 114 42.846 114 39.5C 114 37.08 113.181 34.852 111.806 33.076C 111.934 32.237 112 31.376 112 30.5C 112 21.387 104.837 14 96 14C 95.01 14 94.04 14.093 93.099 14.27C 90.011 11.613 85.95 10 81.5 10C 76.933 10 72.774 11.7 69.658 14.483C 68.661 14.169 67.6 14 66.5 14C 60.701 14 56 18.701 56 24.5C 56 27.072 56.925 29.428 58.46 31.254C 56.915 33.417 56 36.098 56 39C 56 41.302 56.575 43.464 57.584 45.339C 55.359 47.746 54 50.964 54 54.5C 54 61.956 60.044 68 67.5 68C 69.122 68 70.677 67.714 72.118 67.19C 75.327 68.978 79.041 70 83 70ZM 28 22C 28 26.418278 31.581722 30 36 30C 40.418278 30 44 26.418278 44 22C 44 17.581722 40.418278 14 36 14C 31.581722 14 28 17.581722 28 22M 18 16C 18 18.209137 16.209167 20 14 20C 11.790863 20 10 18.209137 10 16C 10 13.790863 11.790863 12 14 12C 16.209167 12 18 13.790863 18 16"></path></g></g></g><g id="g-root-1.cu_sy_v7cuer1jjcef6-fill" data-item-order="999945582" transform="translate(302, 45)"><g id="1.cu_sy_v7cuer1jjcef6-fill" stroke="none" fill="#404b29"><g><path d="M 20.598 19C 20.565 19 20.533 19 20.5 19C 14.701 19 10 23.701 10 29.5C 10 32.574 11.321 35.339 13.426 37.259C 13.147 38.459 13 39.712 13 41C 13 41.745 13.049 42.478 13.145 43.196C 11.788 45.301 11 47.809 11 50.5C 11 57.956 17.044 64 24.5 64C 24.847 64 25.19 63.987 25.53 63.961C 29.172 67.682 34.308 70 40 70C 45.641 70 50.737 67.723 54.373 64.059C 55.621 64.662 57.021 65 58.5 65C 63.747 65 68 60.747 68 55.5C 68 52.628 66.726 50.055 64.712 48.313C 67.948 45.469 70 41.232 70 36.5C 70 32.425 68.478 28.717 65.99 25.95C 65.996 25.801 66 25.651 66 25.5C 66 20.253 61.747 16 56.5 16C 55.92 16 55.353 16.052 54.802 16.151C 50.681 12.338 45.12 10 39 10C 31.475 10 24.794 13.535 20.598 19ZM 80 22C 80 26.418278 83.581722 30 88 30C 92.418278 30 96 26.418278 96 22C 96 17.581722 92.418278 14 88 14C 83.581722 14 80 17.581722 80 22M 114 16C 114 18.209137 112.209137 20 110 20C 107.790863 20 106 18.209137 106 16C 106 13.790863 107.790863 12 110 12C 112.209137 12 114 13.790863 114 16"></path></g></g></g><g id="g-root-face_qs5wj71jj2knb-fill" data-item-order="1000000000" transform="translate(434, 3)"></g><g id="g-root-tx_producti_147zto31jjgmwz-fill" data-item-order="1000000000" transform="translate(2, 45)"><g id="tx_producti_147zto31jjgmwz-fill" stroke="none" fill="#A8DD38"><g><text style="font: bold 20px Roboto, sans-serif; white-space: pre;" font-weight="bold" font-size="20px" font-family="Roboto, sans-serif"><tspan x="31.57" y="51.47" dominant-baseline="ideographic">Environnement de production</tspan></text></g></g></g><g id="g-root-user_4pfvub1jj3ymb-fill" data-item-order="1000000000" transform="translate(314, 57)"></g><g id="g-root-1_1uuadbn1jjgmwx-fill" data-item-order="1000000000" transform="translate(590, 57)"></g><g id="g-root-tx_staginge_1lw5gqb1jj88p9-fill" data-item-order="1000000000" transform="translate(650, 51)"><g id="tx_staginge_1lw5gqb1jj88p9-fill" stroke="none" fill="#4F92FF"><g><text style="font: bold 20px Roboto, sans-serif; white-space: pre;" font-weight="bold" font-size="20px" font-family="Roboto, sans-serif"><tspan x="12" y="45.47" dominant-baseline="ideographic">Environnement de pré-production</tspan></text></g></g></g><g id="g-root-tx_idealfor_1lynd2r1jjgnpm-fill" data-item-order="1000000000" transform="translate(26, 99)"><g id="tx_idealfor_1lynd2r1jjgnpm-fill" stroke="none" fill="#A3A3A3"><g><text style="font: 20px Roboto, sans-serif; white-space: pre;" font-size="20px" font-family="Roboto, sans-serif"><tspan x="19.53" y="33.47" dominant-baseline="ideographic">Idéal pour l'application réelle </tspan><tspan x="12.97" y="57.47" dominant-baseline="ideographic">mais plus risqué en raison de </tspan><tspan x="55.82" y="81.47" dominant-baseline="ideographic">l'impact potentiel sur les </tspan><tspan x="99.23" y="105.47" dominant-baseline="ideographic">systèmes en direct.</tspan></text></g></g></g><g id="g-root-tx_balances_924xdf1jj86is-fill" data-item-order="1000000000" transform="translate(650, 99)"><g id="tx_balances_924xdf1jj86is-fill" stroke="none" fill="#A3A3A3"><g><text style="font: 20px Roboto, sans-serif; white-space: pre;" font-size="20px" font-family="Roboto, sans-serif"><tspan x="12" y="33.47" dominant-baseline="ideographic">Équilibre réalisme et sécurité, </tspan><tspan x="12" y="57.47" dominant-baseline="ideographic">permettant des tests dans </tspan><tspan x="12" y="81.47" dominant-baseline="ideographic">des conditions similaires à la </tspan><tspan x="12" y="105.47" dominant-baseline="ideographic">production.</tspan></text></g></g></g><g id="g-root-woma_mcyynn1jj883n-fill" data-item-order="1000000000" transform="translate(452, 159)"></g><g id="g-root-tx_developm_1ur5wqb1jj2l8h-fill" data-item-order="1000000000" transform="translate(284, 207)"><g id="tx_developm_1ur5wqb1jj2l8h-fill" stroke="none" fill="#44E095"><g><text style="font: bold 20px Roboto, sans-serif; white-space: pre;" font-weight="bold" font-size="20px" font-family="Roboto, sans-serif"><tspan x="42.88" y="45.47" dominant-baseline="ideographic">Environnement de développement</tspan></text></g></g></g><g id="g-root-tx_suitable_mcceer1jj2lfk-fill" data-item-order="1000000000" transform="translate(332, 255)"><g id="tx_suitable_mcceer1jj2lfk-fill" stroke="none" fill="#A3A3A3"><g><text style="font: 20px Roboto, sans-serif; white-space: pre;" font-size="20px" font-family="Roboto, sans-serif"><tspan x="16.94" y="33.47" dominant-baseline="ideographic">Adapté aux premières étapes </tspan><tspan x="18.26" y="57.47" dominant-baseline="ideographic">de développement mais peut </tspan><tspan x="50.33" y="81.47" dominant-baseline="ideographic">manquer de réalisme.</tspan></text></g></g></g><g id="g-root-3.cu_sy_1ltne2b1jjcef4-stroke" data-item-order="999945574" transform="translate(440, 103)"><g id="3.cu_sy_1ltne2b1jjcef4-stroke" fill="none" stroke-linecap="round" stroke-linejoin="round" stroke-miterlimit="4" stroke="#44E095" stroke-width="2"><g><path d="M 28.273 57.698C 27.102 57.247 25.83 57 24.5 57C 18.701 57 14 61.701 14 67.5C 14 68.412 14.116 69.297 14.335 70.141C 11.636 73.308 10 77.457 10 82C 10 87.691 12.567 92.764 16.575 96.063C 16.202 97.14 16 98.296 16 99.5C 16 105.299 20.701 110 26.5 110C 27.29 110 28.06 109.913 28.8 109.747C 31.353 112.365 34.979 114 39 114C 43.501 114 47.506 111.951 50.068 108.768C 51.651 110.158 53.727 111 56 111C 60.97 111 65 106.971 65 102C 65 101.139 64.879 100.307 64.653 99.519C 67.982 95.645 70 90.564 70 85C 70 80.663 68.773 76.618 66.655 73.211C 66.881 72.176 67 71.102 67 70C 67 61.716 60.284 55 52 55C 50.211 55 48.494 55.313 46.903 55.888C 44.542 54.682 41.853 54 39 54C 34.933 54 31.199 55.386 28.273 57.698ZM 32 36C 32 40.418278 35.581722 44 40 44C 44.418278 44 48 40.418278 48 36C 48 31.581722 44.418278 28 40 28C 35.581722 28 32 31.581722 32 36M 44 14C 44 16.209137 42.209137 18 40 18C 37.790863 18 36 16.209137 36 14C 36 11.790863 37.790863 10 40 10C 42.209137 10 44 11.790863 44 14"></path></g></g></g><g id="g-root-2.cu_sy_18i6voz1jjcg01-stroke" data-item-order="999945578" transform="translate(534, 45)"><g id="2.cu_sy_18i6voz1jjcg01-stroke" fill="none" stroke-linecap="round" stroke-linejoin="round" stroke-miterlimit="4" stroke="#4F92FF" stroke-width="2"><g><path d="M 83 70C 87.95 70 92.518 68.402 96.194 65.706C 97.782 66.533 99.586 67 101.5 67C 107.851 67 113 61.851 113 55.5C 113 52.514 111.862 49.794 109.996 47.75C 112.435 45.827 114 42.846 114 39.5C 114 37.08 113.181 34.852 111.806 33.076C 111.934 32.237 112 31.376 112 30.5C 112 21.387 104.837 14 96 14C 95.01 14 94.04 14.093 93.099 14.27C 90.011 11.613 85.95 10 81.5 10C 76.933 10 72.774 11.7 69.658 14.483C 68.661 14.169 67.6 14 66.5 14C 60.701 14 56 18.701 56 24.5C 56 27.072 56.925 29.428 58.46 31.254C 56.915 33.417 56 36.098 56 39C 56 41.302 56.575 43.464 57.584 45.339C 55.359 47.746 54 50.964 54 54.5C 54 61.956 60.044 68 67.5 68C 69.122 68 70.677 67.714 72.118 67.19C 75.327 68.978 79.041 70 83 70ZM 28 22C 28 26.418278 31.581722 30 36 30C 40.418278 30 44 26.418278 44 22C 44 17.581722 40.418278 14 36 14C 31.581722 14 28 17.581722 28 22M 18 16C 18 18.209137 16.209167 20 14 20C 11.790863 20 10 18.209137 10 16C 10 13.790863 11.790863 12 14 12C 16.209167 12 18 13.790863 18 16"></path></g></g></g><g id="g-root-1.cu_sy_v7cuer1jjcef6-stroke" data-item-order="999945582" transform="translate(302, 45)"><g id="1.cu_sy_v7cuer1jjcef6-stroke" fill="none" stroke-linecap="round" stroke-linejoin="round" stroke-miterlimit="4" stroke="#A8DD38" stroke-width="2"><g><path d="M 20.598 19C 20.565 19 20.533 19 20.5 19C 14.701 19 10 23.701 10 29.5C 10 32.574 11.321 35.339 13.426 37.259C 13.147 38.459 13 39.712 13 41C 13 41.745 13.049 42.478 13.145 43.196C 11.788 45.301 11 47.809 11 50.5C 11 57.956 17.044 64 24.5 64C 24.847 64 25.19 63.987 25.53 63.961C 29.172 67.682 34.308 70 40 70C 45.641 70 50.737 67.723 54.373 64.059C 55.621 64.662 57.021 65 58.5 65C 63.747 65 68 60.747 68 55.5C 68 52.628 66.726 50.055 64.712 48.313C 67.948 45.469 70 41.232 70 36.5C 70 32.425 68.478 28.717 65.99 25.95C 65.996 25.801 66 25.651 66 25.5C 66 20.253 61.747 16 56.5 16C 55.92 16 55.353 16.052 54.802 16.151C 50.681 12.338 45.12 10 39 10C 31.475 10 24.794 13.535 20.598 19ZM 80 22C 80 26.418278 83.581722 30 88 30C 92.418278 30 96 26.418278 96 22C 96 17.581722 92.418278 14 88 14C 83.581722 14 80 17.581722 80 22M 114 16C 114 18.209137 112.209137 20 110 20C 107.790863 20 106 18.209137 106 16C 106 13.790863 107.790863 12 110 12C 112.209137 12 114 13.790863 114 16"></path></g></g></g><g id="g-root-face_qs5wj71jj2knb-stroke" data-item-order="1000000000" transform="translate(434, 3)"><g id="face_qs5wj71jj2knb-stroke" fill="none" stroke-linecap="round" stroke-linejoin="round" stroke-miterlimit="4" stroke="#A3A3A3" stroke-width="2"><g><path d="M 46.599998 39.681999C 43.599998 36.681999 37.599998 35.181999 34.599998 38.181999M 16.9 45.681999C 16.6 44.482002 16.6 43.281998 16.6 41.781998C 16.6 25.581999 29.799999 12.382 46 12.382C 62.199997 12.382 75.399994 25.581999 75.399994 41.781998C 75.399994 52.582001 69.699997 61.882004 61 66.981995M 40.449997 77.800003C 46.449997 75.399994 45.324997 70.111 44.125 65.311005L 53.677002 61.612C 55.891281 60.755096 57.049278 58.316589 56.314003 56.059002L 56.313999 56.058998C 55.93375 54.891376 55.08989 53.931606 53.980541 53.405022C 52.871193 52.878433 51.594067 52.831413 50.449001 53.275002L 32.875 60.084999C 31.375 60.685001 29.575001 59.485001 29.575001 57.985001L 29.458 55.144001C 29.410076 53.986492 28.88414 52.900726 28.005583 52.145561C 27.127028 51.390404 25.974579 51.03352 24.823002 51.160004L 24.823 51.16C 22.704519 51.393932 21.100885 53.183647 21.1 55.315002L 21.1 67.584999C 21.1 75.385002 28.299999 81.084999 35.800003 79.284996C 35.800003 79.284996 38.949997 78.399994 40.449997 77.800003ZM 31.825001 27.681999C 31.20368 27.681999 30.700001 27.178322 30.700001 26.556999C 30.700001 25.93568 31.20368 25.431999 31.825001 25.431999M 31.825001 27.681999C 32.44632 27.681999 32.950001 27.178322 32.950001 26.556999C 32.950001 25.93568 32.44632 25.431999 31.825001 25.431999M 47.800003 27.681999C 47.17868 27.681999 46.675003 27.178322 46.675003 26.556999C 46.675003 25.93568 47.17868 25.431999 47.800003 25.431999M 47.800003 27.681999C 48.421322 27.681999 48.925003 27.178322 48.925003 26.556999C 48.925003 25.93568 48.421322 25.431999 47.800003 25.431999"></path></g></g></g><g id="g-root-tx_producti_147zto31jjgmwz-stroke" data-item-order="1000000000" transform="translate(2, 45)"></g><g id="g-root-user_4pfvub1jj3ymb-stroke" data-item-order="1000000000" transform="translate(314, 57)"><g id="user_4pfvub1jj3ymb-stroke" fill="none" stroke-linecap="round" stroke-linejoin="round" stroke-miterlimit="4" stroke="#A8DD38" stroke-width="2"><g><path d="M 23.448572 15.785714L 24.554285 12.931429C 24.935949 11.942324 25.885532 11.288846 26.945715 11.285714L 29.054285 11.285714C 30.114468 11.288846 31.064053 11.942324 31.445715 12.931429L 32.55143 15.785714L 36.305714 17.945713L 39.34 17.482857C 40.373337 17.342596 41.389069 17.840303 41.911427 18.742857L 42.940002 20.542856C 43.479549 21.460625 43.397755 22.615973 42.734283 23.448572L 40.857143 25.84L 40.857143 30.16L 42.785713 32.55143C 43.449184 33.384026 43.530975 34.539375 42.991428 35.457142L 41.962856 37.257145C 41.440498 38.159695 40.424767 38.657402 39.39143 38.517143L 36.357143 38.054283L 32.602856 40.214287L 31.497141 43.068569C 31.11548 44.057674 30.165895 44.711155 29.105713 44.714287L 26.945715 44.714287C 25.885532 44.711155 24.935949 44.057674 24.554285 43.068569L 23.448572 40.214287L 19.694286 38.054283L 16.66 38.517143C 15.626661 38.657402 14.61093 38.159695 14.088572 37.257145L 13.06 35.457142C 12.520451 34.539375 12.602245 33.384026 13.265715 32.55143L 15.142857 30.16L 15.142857 25.84L 13.214286 23.448572C 12.550817 22.615973 12.469022 21.460625 13.008572 20.542856L 14.037143 18.742857C 14.559502 17.840303 15.575233 17.342596 16.608572 17.482857L 19.642857 17.945713ZM 22.857143 28C 22.857143 30.840321 25.159678 33.142857 28 33.142857C 30.840321 33.142857 33.142857 30.840321 33.142857 28C 33.142857 25.159678 30.840321 22.857143 28 22.857143C 25.159678 22.857143 22.857143 25.159678 22.857143 28Z"></path></g></g></g><g id="g-root-1_1uuadbn1jjgmwx-stroke" data-item-order="1000000000" transform="translate(590, 57)"><g id="1_1uuadbn1jjgmwx-stroke" fill="none" stroke-linecap="round" stroke-linejoin="round" stroke-miterlimit="4" stroke="#4F92FF" stroke-width="2"><g><path d="M 10.75 35.5C 10.75 40.884777 15.115224 45.25 20.5 45.25C 25.884777 45.25 30.25 40.884777 30.25 35.5C 30.25 30.115225 25.884777 25.750002 20.5 25.750002C 15.115224 25.750002 10.75 30.115225 10.75 35.5M 11.011 33.25C 14.079037 32.269184 17.279028 31.763338 20.5 31.750002C 23.720974 31.763338 26.920965 32.269184 29.989002 33.25M 10.8655 37C 17.615499 37.75 19 37.75 18.25 44.5M 30.134501 37C 23.384501 37.75 22 37.75 22.75 44.5M 20.125 35.5C 20.125 35.707108 20.292892 35.875 20.5 35.875C 20.707108 35.875 20.875 35.707108 20.875 35.5C 20.875 35.292892 20.707108 35.125 20.5 35.125C 20.292892 35.125 20.125 35.292892 20.125 35.5M 31 27.25L 43.75 27.25C 44.578426 27.25 45.25 26.578428 45.25 25.75L 45.25 12.25C 45.25 11.421573 44.578426 10.75 43.75 10.75L 25.75 10.75C 24.921572 10.75 24.25 11.421573 24.25 12.25L 24.25 22M 34.75 27.25L 34.75 31.75M 39.256001 31.75L 33.256001 31.75"></path></g></g></g><g id="g-root-tx_staginge_1lw5gqb1jj88p9-stroke" data-item-order="1000000000" transform="translate(650, 51)"></g><g id="g-root-tx_idealfor_1lynd2r1jjgnpm-stroke" data-item-order="1000000000" transform="translate(26, 99)"></g><g id="g-root-tx_balances_924xdf1jj86is-stroke" data-item-order="1000000000" transform="translate(650, 99)"></g><g id="g-root-woma_mcyynn1jj883n-stroke" data-item-order="1000000000" transform="translate(452, 159)"><g id="woma_mcyynn1jj883n-stroke" fill="none" stroke-linecap="round" stroke-linejoin="round" stroke-miterlimit="4" stroke="#44E095" stroke-width="2"><g><path d="M 29.5 31.75L 43.75 31.75C 44.578426 31.75 45.25 31.078428 45.25 30.25L 45.25 12.25C 45.25 11.421573 44.578426 10.75 43.75 10.75L 25.75 10.75M 22.33 24.565001L 19 29.815001L 15.7 24.549999M 13.795 16.869999C 15.788587 16.858408 17.682362 15.996112 19 14.5C 20.301405 15.983738 22.171543 16.845201 24.144999 16.869999M 13.72 16C 13.72 18.899494 16.070505 21.25 18.970001 21.25C 21.869495 21.25 24.220001 18.899494 24.220001 16C 24.220001 13.100505 21.869495 10.75 18.970001 10.75C 16.070505 10.75 13.72 13.100505 13.72 16M 19 23.5C 21.637691 23.499161 23.929514 25.312744 24.535 27.880001L 27.25 37.75L 22.75 37.75L 21.25 45.25L 16.75 45.25L 15.175 37.75L 10.75 37.75L 13.465 27.880001C 14.070486 25.312744 16.362309 23.499161 19 23.5ZM 28.75 16.75L 32.5 20.5L 28.75 24.25M 36.25 21.25L 42.25 21.25"></path></g></g></g><g id="g-root-tx_developm_1ur5wqb1jj2l8h-stroke" data-item-order="1000000000" transform="translate(284, 207)"></g><g id="g-root-tx_suitable_mcceer1jj2lfk-stroke" data-item-order="1000000000" transform="translate(332, 255)"></g></g></g></svg>