<?xml version="1.0" encoding="utf-8" standalone="yes"?>
<!DOCTYPE svg PUBLIC "-//W3C//DTD SVG 1.1//EN" "http://www.w3.org/Graphics/SVG/1.1/DTD/svg11.dtd">
<svg width="1020" height="576" viewBox="0 0 1020 576" style="fill:none;stroke:none;fill-rule:evenodd;clip-rule:evenodd;stroke-linecap:round;stroke-linejoin:round;stroke-miterlimit:1.5;" version="1.1" xmlns="http://www.w3.org/2000/svg" xmlns:xlink="http://www.w3.org/1999/xlink"><style id="fontImports">@import url("https://fonts.googleapis.com/css2?family=Roboto:wght@400;700&amp;display=block");</style><g id="items" style="isolation: isolate"><g id="blend" style="mix-blend-mode:normal"><g id="g-root-0.cu_sy_i0a9subqsxz-fill" data-item-order="999782636" data-item-id="0.cu_sy_i0a9subqsxz" data-item-class="Part Indexed_0 Fill Stroke" data-item-index="0" data-renderer-id="0" transform="translate(283.00396728515625, 110.1943359375)"><g id="0.cu_sy_i0a9subqsxz-fill" stroke="none" fill="#505050"><g><path d="M 147.40803 14.479068C 142.49003 20.189768 136.99603 24.055668 136.99603 24.055668C 136.99603 24.055668 133.70803 21.742168 129.94203 18.050868C 122.74803 20.088968 118.13803 22.482568 116.92203 25.194968C 112.27203 35.564968 148.80203 43.094968 219.75203 45.784968C 260.67203 47.334968 297.29203 51.054968 299.18203 59.344968C 301.18203 68.144968 259.26203 72.505268 213.52203 73.805268C 121.25203 76.427668 87.32693 89.305268 84.80213 104.034968C 82.27723 118.765168 98.75223 136.465168 212.42203 141.805168C 269.00203 144.463168 319.17203 153.225168 321.62203 165.015168C 326.17203 178.225168 286.75203 189.018168 213.52203 191.865168C 154.44203 194.162168 109.10813 199.806168 76.40253 208.325168C 79.32693 213.573168 80.99493 219.629168 80.99493 226.079168L 80.99603 226.079168C 80.99603 252.618168 44.99603 277.806168 44.99603 277.806168C 44.99603 277.806168 23.75763 262.946168 13.90663 244.028168C 12.33453 246.980168 11.26983 250.037168 10.70213 253.195168C 2.50293 298.805168 65.99603 326.805168 207.47203 339.905168C 284.96103 347.080168 359.15203 362.805168 366.25203 393.975168C 371.92103 418.867168 345.23603 438.904168 296.99603 451.755168L 440.09603 451.755168C 456.26703 433.863168 462.99903 413.649168 458.75303 391.945168C 456.24103 379.109168 450.79503 367.395168 441.71203 356.861168C 429.70303 371.582168 414.99603 381.805168 414.99603 381.805168C 414.99603 381.805168 372.99603 352.611168 372.99603 321.849168L 372.99703 321.849168C 372.99703 320.352168 373.07503 318.872168 373.22803 317.415168C 334.70603 305.278168 281.34503 297.159168 209.20203 293.395168C 130.05203 289.265168 77.02913 274.525168 80.11213 255.165168C 83.19513 235.805168 125.19203 223.305168 212.42203 217.785168C 333.48203 210.124168 377.89403 191.865168 373.51203 164.995168C 369.97503 143.305168 329.99603 126.305168 216.47203 122.715168C 145.27303 120.463168 122.18203 113.205168 125.19203 104.024968C 128.18203 95.214968 168.59203 88.744968 218.00203 86.824968C 300.06203 83.634968 338.35203 72.744968 333.48203 59.344968C 332.50803 56.664768 330.06303 54.207868 326.07003 51.975568C 321.54503 56.854668 316.99603 60.055668 316.99603 60.055668C 316.99603 60.055668 307.31503 53.243968 302.15303 44.347768C 283.59003 40.633268 256.55603 38.080468 220.14203 36.704968C 178.50203 35.134968 149.36203 32.014968 151.49203 25.194968C 153.51703 18.731468 184.55403 10.044268 220.84503 10.000168C 192.73903 10.018868 166.52103 11.590668 147.40803 14.479068Z"></path></g></g></g><g id="g-root-1.cu_sy_dkgroebqtq8-fill" data-item-order="999782640" data-item-id="1.cu_sy_dkgroebqtq8" data-item-class="Part Indexed Indexed_1 Fill Stroke" data-item-index="1" data-renderer-id="0" transform="translate(646, 380)"><g id="1.cu_sy_dkgroebqtq8-fill" stroke="none" fill="#293f64"><g><path d="M 10.0012 52.0439C 10.0012 28.8235 28.7764 10 51.9373 10L 52.0627 10C 75.2236 10 93.9988 28.8235 93.9988 52.0439L 94 52.0439C 94 82.8058 52 112 52 112C 52 112 10 82.8058 10 52.0439L 10.0012 52.0439Z"></path></g></g></g><g id="g-root-2.cu_sy_4otrfibquix-fill" data-item-order="999782644" data-item-id="2.cu_sy_4otrfibquix" data-item-class="Part Indexed Fill Stroke" data-item-index="2" data-renderer-id="0" transform="translate(282, 290)"><g id="2.cu_sy_4otrfibquix-fill" stroke="none" fill="#2b503e"><g><path d="M 10.0011 46.2732C 10.0011 26.2399 26.0941 10 45.9463 10L 46.0537 10C 65.9059 10 81.9989 26.2399 81.9989 46.2732L 82 46.2732C 82 72.8129 46 98 46 98C 46 98 10 72.8129 10 46.2732L 10.0011 46.2732Z"></path></g></g></g><g id="g-root-3.cu_sy_909b2bqvb6-fill" data-item-order="999782648" data-item-id="3.cu_sy_909b2bqvb6" data-item-class="Part Indexed Fill Stroke" data-item-index="3" data-renderer-id="0" transform="translate(572, 116)"><g id="3.cu_sy_909b2bqvb6-fill" stroke="none" fill="#404b29"><g><path d="M 10.0005 28.2396C 10.0005 18.1661 18.047 10 27.9731 10L 28.0269 10C 37.953 10 45.9995 18.1661 45.9995 28.2396L 46 28.2396C 46 41.5849 28 54.25 28 54.25C 28 54.25 10 41.5849 10 28.2396L 10.0005 28.2396Z"></path></g></g></g><g id="g-root-4.cu_sy_1lza9zybqtj7-fill" data-item-order="999782652" data-item-id="4.cu_sy_1lza9zybqtj7" data-item-class="Part Indexed Fill Stroke" data-item-index="4" data-renderer-id="0" transform="translate(392, 80)"><g id="4.cu_sy_1lza9zybqtj7-fill" stroke="none" fill="#224754"><g><path d="M 10.0005 28.2396C 10.0005 18.1661 18.047 10 27.9731 10L 28.0269 10C 37.953 10 45.9995 18.1661 45.9995 28.2396L 46 28.2396C 46 41.5849 28 54.25 28 54.25C 28 54.25 10 41.5849 10 28.2396L 10.0005 28.2396Z"></path></g></g></g><g id="g-root-tx_analyzin_1cvj3mmbs7wn-fill" data-item-order="1000000000" data-item-id="tx_analyzin_1cvj3mmbs7wn" data-item-class="Label Stroke Indexed" data-item-index="4" data-renderer-id="0" transform="translate(121.99998474121094, 14)"><g id="tx_analyzin_1cvj3mmbs7wn-fill" stroke="none" fill="#A3A3A3"><g><text style="font: 20px Roboto, sans-serif; white-space: pre;" font-size="20px" font-family="Roboto, sans-serif"><tspan x="36.02" y="52" dominant-baseline="ideographic">Analyse des résultats et </tspan><tspan x="58.11" y="76" dominant-baseline="ideographic">réalisation du rapport</tspan></text></g></g></g><g id="g-root-tx_reportin_htf1umbs8oz-fill" data-item-order="1000000000" data-item-id="tx_reportin_htf1umbs8oz" data-item-class="Label Stroke Indexed" data-item-index="4" data-renderer-id="0" transform="translate(278, 2)"><g id="tx_reportin_htf1umbs8oz-fill" stroke="none" fill="#1AC6FF"><g><text style="font: bold 20px Roboto, sans-serif; white-space: pre;" font-weight="bold" font-size="20px" font-family="Roboto, sans-serif"><tspan x="20.14" y="34" dominant-baseline="ideographic">Rapport</tspan></text></g></g></g><g id="g-root-tx_conducti_m98jz2bs7wq-fill" data-item-order="1000000000" data-item-id="tx_conducti_m98jz2bs7wq" data-item-class="Label Stroke Indexed" data-item-index="3" data-renderer-id="0" transform="translate(638, 14)"><g id="tx_conducti_m98jz2bs7wq-fill" stroke="none" fill="#A8DD38"><g><text style="font: bold 20px Roboto, sans-serif; white-space: pre;" font-weight="bold" font-size="20px" font-family="Roboto, sans-serif"><tspan x="12" y="34" dominant-baseline="ideographic">Réalisation des </tspan><tspan x="12" y="58" dominant-baseline="ideographic">scénarios d'attaque</tspan></text></g></g></g><g id="g-root-incr_1q5plweldtz6-fill" data-item-order="1000000000" data-item-id="incr_1q5plweldtz6" data-item-class="Icon Stroke Indexed InsideFill InsideColorFill" data-item-index="4" data-renderer-id="0" transform="translate(398, 86)"></g><g id="g-root-tx_executin_1q6d4wubs9hi-fill" data-item-order="1000000000" data-item-id="tx_executin_1q6d4wubs9hi" data-item-class="Label Stroke Indexed" data-item-index="3" data-renderer-id="0" transform="translate(638, 74)"><g id="tx_executin_1q6d4wubs9hi-fill" stroke="none" fill="#A3A3A3"><g><text style="font: 20px Roboto, sans-serif; white-space: pre;" font-size="20px" font-family="Roboto, sans-serif"><tspan x="12" y="34" dominant-baseline="ideographic">Exécution des </tspan><tspan x="12" y="58" dominant-baseline="ideographic">scénarios d'attaque et </tspan><tspan x="12" y="82" dominant-baseline="ideographic">prise de notes</tspan></text></g></g></g><g id="g-root-brea_1lt0e1qlm96v-fill" data-item-order="1000000000" data-item-id="brea_1lt0e1qlm96v" data-item-class="Icon Stroke Indexed InsideFill InsideColorFill" data-item-index="3" data-renderer-id="0" transform="translate(578, 122)"></g><g id="g-root-tx_planning_zk2l9abs9hl-fill" data-item-order="1000000000" data-item-id="tx_planning_zk2l9abs9hl" data-item-class="Label Stroke Indexed" data-item-index="2" data-renderer-id="0" transform="translate(73.99998474121094, 206)"><g id="tx_planning_zk2l9abs9hl-fill" stroke="none" fill="#44E095"><g><text style="font: bold 20px Roboto, sans-serif; white-space: pre;" font-weight="bold" font-size="20px" font-family="Roboto, sans-serif"><tspan x="21.59" y="33.75" dominant-baseline="ideographic">Cartographie des </tspan><tspan x="109.54" y="57.75" dominant-baseline="ideographic">risques</tspan></text></g></g></g><g id="g-root-tx_analyzin_4gplb2bs83p-fill" data-item-order="1000000000" data-item-id="tx_analyzin_4gplb2bs83p" data-item-class="Label Stroke Indexed" data-item-index="2" data-renderer-id="0" transform="translate(2, 242)"><g id="tx_analyzin_4gplb2bs83p-fill" stroke="none" fill="#A3A3A3"><g><text style="font: 20px Roboto, sans-serif; white-space: pre;" font-size="20px" font-family="Roboto, sans-serif"><tspan x="48.41" y="52" dominant-baseline="ideographic">Analyse des risques et </tspan><tspan x="84.27" y="76" dominant-baseline="ideographic">développement de </tspan><tspan x="134.53" y="100" dominant-baseline="ideographic">scénarios de </tspan><tspan x="96.39" y="124" dominant-baseline="ideographic">risques/attaques</tspan></text></g></g></g><g id="g-root-robb_1d30yzibifbb-fill" data-item-order="1000000000" data-item-id="robb_1d30yzibifbb" data-item-class="Icon Stroke Indexed InsideFill InsideColorFill" data-item-index="2" data-renderer-id="0" transform="translate(294, 302)"></g><g id="g-root-tx_planning_18fpli6bs8ow-fill" data-item-order="1000000000" data-item-id="tx_planning_18fpli6bs8ow" data-item-class="Label Stroke Indexed Indexed_1" data-item-index="1" data-renderer-id="0" transform="translate(770, 302)"><g id="tx_planning_18fpli6bs8ow-fill" stroke="none" fill="#4F92FF"><g><text style="font: bold 20px Roboto, sans-serif; white-space: pre;" font-weight="bold" font-size="20px" font-family="Roboto, sans-serif"><tspan x="12" y="34" dominant-baseline="ideographic">Planification et </tspan><tspan x="12" y="58" dominant-baseline="ideographic">préparation</tspan></text></g></g></g><g id="g-root-tx_identify_1d3n9r2bqubw-fill" data-item-order="1000000000" data-item-id="tx_identify_1d3n9r2bqubw" data-item-class="Label Stroke Indexed Indexed_1" data-item-index="1" data-renderer-id="0" transform="translate(770, 362)"><g id="tx_identify_1d3n9r2bqubw-fill" stroke="none" fill="#A3A3A3"><g><text style="font: 20px Roboto, sans-serif; white-space: pre;" font-size="20px" font-family="Roboto, sans-serif"><tspan x="12" y="46" dominant-baseline="ideographic">Définition du périmètre </tspan><tspan x="12" y="70" dominant-baseline="ideographic">et planification du red </tspan><tspan x="12" y="94" dominant-baseline="ideographic">teaming du système </tspan><tspan x="12" y="118" dominant-baseline="ideographic">d'IA cible.</tspan></text></g></g></g><g id="g-root-crea_1lvjin2bo0lh-fill" data-item-order="1000000000" data-item-id="crea_1lvjin2bo0lh" data-item-class="Icon Stroke Indexed Indexed_1 InsideFill InsideColorFill" data-item-index="1" data-renderer-id="0" transform="translate(662, 398)"></g><g id="g-root-0.cu_sy_i0a9subqsxz-stroke" data-item-order="999782636" data-item-id="0.cu_sy_i0a9subqsxz" data-item-class="Part Indexed_0 Fill Stroke" data-item-index="0" data-renderer-id="0" transform="translate(283.00396728515625, 110.1943359375)"><g id="0.cu_sy_i0a9subqsxz-stroke" fill="none" stroke-linecap="round" stroke-linejoin="round" stroke-miterlimit="4" stroke="#A3A3A3" stroke-width="2"><g><path d="M 296.996002 451.754761C 345.235626 438.904663 371.921417 418.867004 366.2518 393.974976C 359.152313 362.805176 284.96109 347.079712 207.47232 339.905029C 65.996002 326.805664 2.502991 298.805206 10.702087 253.195007C 11.270111 250.0354 12.335602 246.976898 13.908813 244.023895M 440.096283 451.754761C 456.267303 433.863525 462.999481 413.648926 458.752472 391.945007C 456.236481 379.086914 450.775604 367.353638 441.66391 356.805664M 129.996002 18.035706C 122.770813 20.077194 118.141296 22.475906 116.922088 25.195007C 112.272095 35.565002 148.802307 43.095001 219.752289 45.785004C 260.672302 47.334991 297.292267 51.054993 299.182281 59.345001C 301.182281 68.144989 259.262298 72.505188 213.522308 73.805206C 121.252197 76.427704 87.326996 89.305206 84.802093 104.035004C 82.277313 118.764801 98.752197 136.464905 212.422302 141.805206C 269.002228 144.463379 319.172272 153.225006 321.622284 165.015015C 326.172272 178.225006 286.752228 189.018005 213.522308 191.86499C 154.498504 194.159698 109.194488 199.795105 76.496002 208.300781M 147.259704 14.501495C 166.499817 11.581406 192.9823 10 221.352295 10L 221.122284 10C 184.712311 10 153.522095 18.714996 151.492096 25.195007C 149.362091 32.014999 178.502289 35.134994 220.142303 36.705002C 256.587799 38.081604 283.636871 40.637695 302.20047 44.357391M 325.996002 51.934509C 330.033233 54.177704 332.502106 56.6483 333.48233 59.345001C 338.352325 72.744995 300.062286 83.63501 218.002289 86.825012C 168.592315 88.744995 128.182098 95.214996 125.192108 104.024994C 122.182098 113.205017 145.273498 120.463013 216.47232 122.714996C 329.996002 126.305695 369.975311 143.305206 373.512298 164.994995C 377.894012 191.86499 333.48233 210.123901 212.422302 217.785004C 125.192291 223.305206 83.195099 235.805206 80.112091 255.164978C 77.029114 274.524811 130.052307 289.265015 209.202301 293.394989C 281.329681 297.1586 334.683319 305.274902 373.203033 317.407104M 412.331451 418.465454C 410.691498 422.595459 408.351471 426.725464 405.361481 430.735474M 414.251495 394.085449C 415.201446 398.085449 415.531463 402.145386 415.231476 406.175415M 401.761505 371.325439C 404.931488 374.905395 407.601471 378.635437 409.681488 382.405395M 377.021454 352.495422C 382.031463 355.505432 386.661468 358.695435 390.761505 361.975464M 342.641449 337.465454C 349.041473 339.79541 355.171478 342.31543 360.87149 344.975464M 301.231476 325.745422C 308.581451 327.31543 315.791473 329.095459 322.661468 331.04541M 255.161468 318.805786C 263.091461 319.585815 270.981476 320.445435 278.64151 321.615417M 206.741485 314.805817C 206.741485 314.805817 222.999359 315.706818 231.12149 316.085815M 158.091461 310.845428C 165.861481 311.665436 173.931488 312.30542 182.071472 312.735443M 115.481476 303.685425C 122.101471 305.215424 129.13147 306.605438 136.38147 307.795441M 79.741485 293.80542C 84.641479 295.865417 90.041473 297.835419 95.811462 299.645416M 56.361481 280.385437C 59.221466 282.765442 62.641479 285.105438 66.531463 287.335419M 111.271484 215.735413C 105.841461 217.105408 100.611481 218.605408 95.711487 220.185425M 146.161468 208.925415C 140.021484 209.81543 133.971466 210.835449 128.171478 211.965424M 184.401459 205.115417C 177.87149 205.495422 171.341461 206.005432 164.991485 206.635437M 223.721466 203.185425L 204.111481 204.375427M 261.561493 200.835449C 255.531463 201.475433 249.271454 201.995422 242.971466 202.385437M 295.1315 195.695435C 290.051483 196.755432 284.651459 197.735413 279.081451 198.585449M 322.681488 188.31543C 318.951446 189.695435 313.831451 191.015442 309.421478 192.245422M 339.361481 180.425415C 337.221466 181.985413 334.651459 183.535431 331.711456 185.005432M 347.241485 170.81543C 346.751495 172.435425 345.851471 174.06543 344.551483 175.665436M 345.431488 161.245422C 346.271454 162.475433 346.891449 163.735413 347.261505 164.995422C 347.361481 165.325439 347.441498 165.655426 347.501495 165.975433M 334.751495 152.375427C 337.211456 153.765442 339.361481 155.215424 341.141449 156.685425M 316.401459 144.735413C 320.011505 145.885437 323.391449 147.105408 326.441498 148.375427M 291.981476 138.695435C 296.461456 139.545441 300.791473 140.485413 304.851471 141.495422M 263.161468 134.545441C 268.221466 135.06543 273.221466 135.685425 278.011505 136.375427M 231.661468 132.455444C 237.031463 132.625427 242.401459 132.885437 247.63147 133.235413M 199.011474 131.925415C 204.411468 132.115417 209.941498 132.205444 215.451477 132.215424M 167.681488 129.755432C 172.611481 130.285431 177.751495 130.735413 182.961456 131.095428M 140.681488 125.675415C 144.691467 126.495422 149.011474 127.255432 153.501465 127.935425M 120.061462 120.085419C 122.87149 121.115417 126.041473 122.105438 129.461487 123.035431M 107.231476 113.525421C 108.681488 114.675415 110.491485 115.80542 112.62149 116.895447M 102.811462 106.535431C 102.851471 107.705444 103.231476 108.895447 103.961487 110.045441M 106.561462 99.645447C 105.291473 100.755432 104.331482 101.895447 103.711487 103.045441M 117.771484 93.335419C 115.331482 94.31543 113.151489 95.345428 111.291473 96.395447M 135.321472 87.965424C 131.951477 88.765442 128.751465 89.615417 125.841461 90.505432M 157.811462 83.825439C 153.751465 84.395447 149.791473 85.045441 146.041473 85.725433M 183.751495 81.105438C 179.231476 81.435425 174.761474 81.825439 170.441498 82.275421M 211.601471 79.935425C 206.901459 79.995422 202.171478 80.125427 197.551483 80.325439M 239.351471 79.445435C 234.841461 79.645447 230.221466 79.775421 225.601471 79.845428M 265.261505 77.515442C 261.221466 77.955444 256.981476 78.335419 252.671478 78.655426M 287.291473 74.265442C 284.041473 74.905426 280.541473 75.495422 276.8815 76.035431M 303.791473 69.995422C 301.571441 70.765442 299.061493 71.525421 296.311493 72.235413M 313.671478 65.085419C 312.611481 65.935425 311.241485 66.785431 309.601471 67.595428M 316.461456 59.92543C 316.581451 60.785431 316.411468 61.655426 315.951446 62.505432M 302.041473 50.365433C 304.241485 51.06543 306.231476 51.805435 307.951446 52.56543M 286.351471 46.555435C 289.341461 47.115433 292.181488 47.715424 294.791473 48.355438M 266.541473 43.695435C 270.101471 44.085434 273.581451 44.525421 276.8815 44.995422M 243.891479 41.92543C 247.821472 42.125427 251.721466 42.375427 255.491485 42.665436M 219.791473 41.335434L 219.941498 41.335434C 223.951477 41.335434 227.981476 41.385437 231.931488 41.475433M 195.411468 40.725433C 199.341461 40.92543 203.391479 41.075424 207.461456 41.185425M 173.141479 38.955429C 176.571472 39.335434 180.181488 39.685425 183.891479 39.975433M 154.761474 36.185425C 157.421478 36.715424 160.311493 37.215424 163.37149 37.67543M 141.591461 32.685425C 143.291473 33.31543 145.271484 33.92543 147.461487 34.505432M 134.491485 28.745422C 135.141479 29.42543 136.071472 30.095428 137.251465 30.755432M 133.741485 24.665436C 133.641479 24.835434 133.561462 25.005432 133.491485 25.185425C 133.301483 25.685425 133.241485 26.195435 133.331482 26.705429M 149.801483 17.265427C 147.591461 17.805435 145.571472 18.365433 143.781463 18.945435M 165.12149 14.395431C 162.261474 14.81543 159.511474 15.265427 156.961487 15.735428M 183.861481 12.31543C 180.531463 12.585434 177.251495 12.905426 174.13147 13.255432M 394.261505 442.715454C 390.768463 445.827393 386.821564 448.889038 382.496002 451.840088"></path></g></g></g><g id="g-root-1.cu_sy_dkgroebqtq8-stroke" data-item-order="999782640" data-item-id="1.cu_sy_dkgroebqtq8" data-item-class="Part Indexed Indexed_1 Fill Stroke" data-item-index="1" data-renderer-id="0" transform="translate(646, 380)"><g id="1.cu_sy_dkgroebqtq8-stroke" fill="none" stroke-linecap="round" stroke-linejoin="round" stroke-miterlimit="4" stroke="#4F92FF" stroke-width="2"><g><path d="M 10.0012 52.0439C 10.0012 28.8235 28.7764 10 51.9373 10L 52.0627 10C 75.2236 10 93.9988 28.8235 93.9988 52.0439L 94 52.0439C 94 82.8058 52 112 52 112C 52 112 10 82.8058 10 52.0439L 10.0012 52.0439Z"></path></g></g></g><g id="g-root-2.cu_sy_4otrfibquix-stroke" data-item-order="999782644" data-item-id="2.cu_sy_4otrfibquix" data-item-class="Part Indexed Fill Stroke" data-item-index="2" data-renderer-id="0" transform="translate(282, 290)"><g id="2.cu_sy_4otrfibquix-stroke" fill="none" stroke-linecap="round" stroke-linejoin="round" stroke-miterlimit="4" stroke="#44E095" stroke-width="2"><g><path d="M 10.0011 46.2732C 10.0011 26.2399 26.0941 10 45.9463 10L 46.0537 10C 65.9059 10 81.9989 26.2399 81.9989 46.2732L 82 46.2732C 82 72.8129 46 98 46 98C 46 98 10 72.8129 10 46.2732L 10.0011 46.2732Z"></path></g></g></g><g id="g-root-3.cu_sy_909b2bqvb6-stroke" data-item-order="999782648" data-item-id="3.cu_sy_909b2bqvb6" data-item-class="Part Indexed Fill Stroke" data-item-index="3" data-renderer-id="0" transform="translate(572, 116)"><g id="3.cu_sy_909b2bqvb6-stroke" fill="none" stroke-linecap="round" stroke-linejoin="round" stroke-miterlimit="4" stroke="#A8DD38" stroke-width="2"><g><path d="M 10.0005 28.2396C 10.0005 18.1661 18.047 10 27.9731 10L 28.0269 10C 37.953 10 45.9995 18.1661 45.9995 28.2396L 46 28.2396C 46 41.5849 28 54.25 28 54.25C 28 54.25 10 41.5849 10 28.2396L 10.0005 28.2396Z"></path></g></g></g><g id="g-root-4.cu_sy_1lza9zybqtj7-stroke" data-item-order="999782652" data-item-id="4.cu_sy_1lza9zybqtj7" data-item-class="Part Indexed Fill Stroke" data-item-index="4" data-renderer-id="0" transform="translate(392, 80)"><g id="4.cu_sy_1lza9zybqtj7-stroke" fill="none" stroke-linecap="round" stroke-linejoin="round" stroke-miterlimit="4" stroke="#1AC6FF" stroke-width="2"><g><path d="M 10.0005 28.2396C 10.0005 18.1661 18.047 10 27.9731 10L 28.0269 10C 37.953 10 45.9995 18.1661 45.9995 28.2396L 46 28.2396C 46 41.5849 28 54.25 28 54.25C 28 54.25 10 41.5849 10 28.2396L 10.0005 28.2396Z"></path></g></g></g><g id="g-root-tx_analyzin_1cvj3mmbs7wn-stroke" data-item-order="1000000000" data-item-id="tx_analyzin_1cvj3mmbs7wn" data-item-class="Label Stroke Indexed" data-item-index="4" data-renderer-id="0" transform="translate(121.99998474121094, 14)"></g><g id="g-root-tx_reportin_htf1umbs8oz-stroke" data-item-order="1000000000" data-item-id="tx_reportin_htf1umbs8oz" data-item-class="Label Stroke Indexed" data-item-index="4" data-renderer-id="0" transform="translate(278, 2)"></g><g id="g-root-tx_conducti_m98jz2bs7wq-stroke" data-item-order="1000000000" data-item-id="tx_conducti_m98jz2bs7wq" data-item-class="Label Stroke Indexed" data-item-index="3" data-renderer-id="0" transform="translate(638, 14)"></g><g id="g-root-incr_1q5plweldtz6-stroke" data-item-order="1000000000" data-item-id="incr_1q5plweldtz6" data-item-class="Icon Stroke Indexed InsideFill InsideColorFill" data-item-index="4" data-renderer-id="0" transform="translate(398, 86)"><g id="incr_1q5plweldtz6-stroke" fill="none" stroke-linecap="round" stroke-linejoin="round" stroke-miterlimit="4" stroke="#1AC6FF" stroke-width="2"><g><path d="M 10.504 33.25L 33.504 33.25M 14.5 33.25L 14.5 30.75C 14.5 30.473858 14.276142 30.25 14 30.25L 12 30.25C 11.723858 30.25 11.5 30.473858 11.5 30.75L 11.5 33.25M 20.5 33.25L 20.5 26.75C 20.5 26.473858 20.276142 26.25 20 26.25L 18 26.25C 17.723858 26.25 17.5 26.473858 17.5 26.75L 17.5 33.25M 26.5 33.25L 26.5 22.75C 26.5 22.473858 26.276142 22.25 26 22.25L 24 22.25C 23.723858 22.25 23.5 22.473858 23.5 22.75L 23.5 33.25M 32.5 33.25L 32.5 18.75C 32.5 18.473858 32.276142 18.25 32 18.25L 30 18.25C 29.723858 18.25 29.5 18.473858 29.5 18.75L 29.5 33.25M 13.004 23.25L 31.004 11.25M 30.504 15.25L 31.004 11.25L 27.004 10.75"></path></g></g></g><g id="g-root-tx_executin_1q6d4wubs9hi-stroke" data-item-order="1000000000" data-item-id="tx_executin_1q6d4wubs9hi" data-item-class="Label Stroke Indexed" data-item-index="3" data-renderer-id="0" transform="translate(638, 74)"></g><g id="g-root-brea_1lt0e1qlm96v-stroke" data-item-order="1000000000" data-item-id="brea_1lt0e1qlm96v" data-item-class="Icon Stroke Indexed InsideFill InsideColorFill" data-item-index="3" data-renderer-id="0" transform="translate(578, 122)"><g id="brea_1lt0e1qlm96v-stroke" fill="none" stroke-linecap="round" stroke-linejoin="round" stroke-miterlimit="4" stroke="#A8DD38" stroke-width="2"><g><path d="M 23.5 21.451L 23.5 32.5C 23.5 33.052285 23.052285 33.5 22.5 33.5L 12.5 33.5C 11.947715 33.5 11.5 33.052285 11.5 32.5L 11.5 19.5C 11.5 18.947715 11.947715 18.5 12.5 18.5L 22.256 18.5M 14.5 22.5L 17 22.5M 14.5 26L 20.5 26M 14.5 29.5L 20.5 29.5M 32.478 10.5L 28.085 13.5L 22.363 13.5C 20.237 13.5 18.463 16.96 17.283 18.5M 23.859 16.5L 20.872 20.227C 20.352065 20.746983 20.352084 21.589997 20.872043 22.109957C 21.392002 22.629916 22.235017 22.629935 22.755 22.11L 26.834 18.5L 29.389 18.5C 30.6 18.5 32.5 16.776 32.5 16.776"></path></g></g></g><g id="g-root-tx_planning_zk2l9abs9hl-stroke" data-item-order="1000000000" data-item-id="tx_planning_zk2l9abs9hl" data-item-class="Label Stroke Indexed" data-item-index="2" data-renderer-id="0" transform="translate(73.99998474121094, 206)"></g><g id="g-root-tx_analyzin_4gplb2bs83p-stroke" data-item-order="1000000000" data-item-id="tx_analyzin_4gplb2bs83p" data-item-class="Label Stroke Indexed" data-item-index="2" data-renderer-id="0" transform="translate(2, 242)"></g><g id="g-root-robb_1d30yzibifbb-stroke" data-item-order="1000000000" data-item-id="robb_1d30yzibifbb" data-item-class="Icon Stroke Indexed InsideFill InsideColorFill" data-item-index="2" data-renderer-id="0" transform="translate(294, 302)"><g id="robb_1d30yzibifbb-stroke" fill="none" stroke-linecap="round" stroke-linejoin="round" stroke-miterlimit="4" stroke="#44E095" stroke-width="2"><g><path d="M 56.5 49C 56.5 42.92487 51.575134 38 45.5 38M 25 31.5C 29.556349 31.5 33.25 27.806349 33.25 23.25C 33.25 18.693651 29.556349 15 25 15C 20.443651 15 16.75 18.693651 16.75 23.25C 16.75 27.806349 20.443651 31.5 25 31.5ZM 45.453999 33.220001C 48.552845 33.220749 51.065357 30.708847 51.065357 27.610001C 51.065357 24.511154 48.552845 21.999252 45.453999 22C 42.356213 22.000748 39.845356 24.512211 39.845356 27.610001C 39.845356 30.707788 42.356213 33.219254 45.453999 33.220001ZM 21 22L 23 23M 29 22L 27 23M 37 36L 19.5 36C 15.081722 36 11.5 39.581722 11.5 44L 11.5 44C 11.5 48.418278 15.081722 52 19.5 52L 23 52M 19 43L 23 43M 33 41L 33 51M 33 43L 41 43C 44.313709 43 47 45.686291 47 49L 33 49M 33 46L 28 46"></path></g></g></g><g id="g-root-tx_planning_18fpli6bs8ow-stroke" data-item-order="1000000000" data-item-id="tx_planning_18fpli6bs8ow" data-item-class="Label Stroke Indexed Indexed_1" data-item-index="1" data-renderer-id="0" transform="translate(770, 302)"></g><g id="g-root-tx_identify_1d3n9r2bqubw-stroke" data-item-order="1000000000" data-item-id="tx_identify_1d3n9r2bqubw" data-item-class="Label Stroke Indexed Indexed_1" data-item-index="1" data-renderer-id="0" transform="translate(770, 362)"></g><g id="g-root-crea_1lvjin2bo0lh-stroke" data-item-order="1000000000" data-item-id="crea_1lvjin2bo0lh" data-item-class="Icon Stroke Indexed Indexed_1 InsideFill InsideColorFill" data-item-index="1" data-renderer-id="0" transform="translate(662, 398)"><g id="crea_1lvjin2bo0lh-stroke" fill="none" stroke-linecap="round" stroke-linejoin="round" stroke-miterlimit="4" stroke="#4F92FF" stroke-width="2"><g><path d="M 42.625 33.399998L 34.75 35.649998L 37 27.775L 53.078499 11.68525C 53.289558 11.473657 53.576138 11.354739 53.875 11.354739C 54.173862 11.354739 54.460442 11.473657 54.671501 11.68525L 58.703499 15.719501C 59.142677 16.158812 59.142677 16.870937 58.703499 17.310249ZM 49.375 15.391L 55 21.015999M 36.995499 27.76825L 42.620499 33.39325M 59.5 22.15L 61.75 22.15C 62.371319 22.15 62.875 22.653679 62.875 23.275L 62.875 61.524998C 62.875 62.14632 62.371319 62.649998 61.75 62.649998L 12.25 62.649998C 11.628679 62.649998 11.125 62.14632 11.125 61.524998L 11.125 23.275C 11.125 22.653679 11.628679 22.15 12.25 22.15L 37 22.15M 28 28.9L 19 28.9C 18.378679 28.9 17.875 29.403679 17.875 30.025L 17.875 54.774998C 17.875 55.39632 18.378679 55.899998 19 55.899998L 38.125 55.899998L 38.125 48.024998C 38.125 47.403679 38.628681 46.899998 39.25 46.899998L 48.25 46.899998C 48.871319 46.899998 49.375 47.403679 49.375 48.024998L 49.375 55.899998L 55 55.899998C 55.621319 55.899998 56.125 55.39632 56.125 54.774998L 56.125 30.025M 38.125 51.39325L 49.375 51.39325M 38.125 55.89325L 49.375 55.89325M 17.875 40.14325L 28 40.14325M 46 42.39325L 56.125 42.39325M 46 37.89325L 56.125 37.89325M 17.875 46.899998L 25.75 46.899998C 26.371321 46.899998 26.875 47.403679 26.875 48.024998L 26.875 55.899998"></path></g></g></g></g></g></svg>