<?xml version="1.0" encoding="utf-8" standalone="yes"?>
<!DOCTYPE svg PUBLIC "-//W3C//DTD SVG 1.1//EN" "http://www.w3.org/Graphics/SVG/1.1/DTD/svg11.dtd">
<svg width="840" height="331" viewBox="0 0 840 331" style="fill:none;stroke:none;fill-rule:evenodd;clip-rule:evenodd;stroke-linecap:round;stroke-linejoin:round;stroke-miterlimit:1.5;" version="1.1" xmlns="http://www.w3.org/2000/svg" xmlns:xlink="http://www.w3.org/1999/xlink"><style id="fontImports">@import url("https://fonts.googleapis.com/css2?family=Roboto:wght@400;700&amp;display=block");</style><g id="items" style="isolation: isolate"><g id="blend" style="mix-blend-mode:normal"><g id="g-root-3.line_sy_18lxtdf1kmzitd-fill" data-item-order="999961157" data-item-id="3.line_sy_18lxtdf1kmzitd" data-item-class="Curve Stroke Part Indexed ColorStrokeGray" data-item-index="3" data-renderer-id="0" transform="translate(266, 129)"></g><g id="g-root-1.line_sy_zqat4j1kmzjm2-fill" data-item-order="999961163" data-item-id="1.line_sy_zqat4j1kmzjm2" data-item-class="Curve Stroke Part Indexed Indexed_1 ColorStrokeGray" data-item-index="1" data-renderer-id="0" transform="translate(265.9999084472656, 21)"></g><g id="g-root-2.line_sy_zqat4j1kmzjm3-fill" data-item-order="999961169" data-item-id="2.line_sy_zqat4j1kmzjm3" data-item-class="Curve Stroke Part Indexed ColorStrokeGray" data-item-index="2" data-renderer-id="0" transform="translate(265.9997863769531, 129)"></g><g id="g-root-0.line_sy_vahb031kmzkec-fill" data-item-order="999961173" data-item-id="0.line_sy_vahb031kmzkec" data-item-class="Curve Stroke Part Indexed_0 ColorFillGray ColorStrokeGray" data-item-index="0" data-renderer-id="0" transform="translate(194, 129)"></g><g id="g-root-navi_1lw5jw31kmy493-fill" data-item-order="1000000000" data-item-id="navi_1lw5jw31kmy493" data-item-class="Icon Stroke Indexed Indexed_1 ColorStrokeGray" data-item-index="1" data-renderer-id="0" transform="translate(386, 3)"></g><g id="g-root-tx_automate_18n6rjn1kmzkzm-fill" data-item-order="1000000000" data-item-id="tx_automate_18n6rjn1kmzkzm" data-item-class="Label Stroke Indexed Indexed_1" data-item-index="1" data-renderer-id="0" transform="translate(434, 9)"><g id="tx_automate_18n6rjn1kmzkzm-fill" stroke="none" fill="#44E095"><g><text style="font: bold 20px Roboto, sans-serif; white-space: pre;" font-weight="bold" font-size="20px" font-family="Roboto, sans-serif"><tspan x="12" y="33.47" dominant-baseline="ideographic">Outils automatisés</tspan></text></g></g></g><g id="g-root-fold_6hx4j1kndmoc-fill" data-item-order="1000000000" data-item-id="fold_6hx4j1kndmoc" data-item-class="Icon Stroke Title ColorStrokeGray" data-item-index="none" data-renderer-id="0" transform="translate(50, 57)"></g><g id="g-root-tx_efficien_1lyn9wz1kmzjep-fill" data-item-order="1000000000" data-item-id="tx_efficien_1lyn9wz1kmzjep" data-item-class="Label Stroke Indexed Indexed_1 ColorStrokeGray" data-item-index="1" data-renderer-id="0" transform="translate(434, 45)"><g id="tx_efficien_1lyn9wz1kmzjep-fill" stroke="none" fill="#A3A3A3"><g><text style="font: 20px Roboto, sans-serif; white-space: pre;" font-size="20px" font-family="Roboto, sans-serif"><tspan x="12" y="33.47" dominant-baseline="ideographic">Efficaces pour les tests à grande échelle </tspan><tspan x="12" y="57.47" dominant-baseline="ideographic">mais peuvent manquer d'adaptabilité</tspan></text></g></g></g><g id="g-root-assi_1uo1mgj1kn3rwp-fill" data-item-order="1000000000" data-item-id="assi_1uo1mgj1kn3rwp" data-item-class="Icon Stroke Indexed ColorStrokeGray" data-item-index="2" data-renderer-id="0" transform="translate(386, 111)"></g><g id="g-root-tx_whichred_vccq9f1kmzjer-fill" data-item-order="1000000000" data-item-id="tx_whichred_vccq9f1kmzjer" data-item-class="Label Stroke Title ColorFillGray ColorStrokeGray" data-item-index="none" data-renderer-id="0" transform="translate(2, 129)"><g id="tx_whichred_vccq9f1kmzjer-fill" stroke="none" fill="#A3A3A3"><g><text style="font: bold 20px Roboto, sans-serif; white-space: pre;" font-weight="bold" font-size="20px" font-family="Roboto, sans-serif"><tspan x="12.24" y="33.47" dominant-baseline="ideographic">Types d'attaques</tspan></text></g></g></g><g id="g-root-tx_manualre_1qduayb1kmzls8-fill" data-item-order="1000000000" data-item-id="tx_manualre_1qduayb1kmzls8" data-item-class="Label Stroke Indexed" data-item-index="2" data-renderer-id="0" transform="translate(434, 117)"><g id="tx_manualre_1qduayb1kmzls8-fill" stroke="none" fill="#A8DD38"><g><text style="font: bold 20px Roboto, sans-serif; white-space: pre;" font-weight="bold" font-size="20px" font-family="Roboto, sans-serif"><tspan x="12" y="33.47" dominant-baseline="ideographic">Red Teaming manuel</tspan></text></g></g></g><g id="g-root-tx_highlyad_4o6rcj1kmzkef-fill" data-item-order="1000000000" data-item-id="tx_highlyad_4o6rcj1kmzkef" data-item-class="Label Stroke Indexed ColorStrokeGray" data-item-index="2" data-renderer-id="0" transform="translate(434, 153)"><g id="tx_highlyad_4o6rcj1kmzkef-fill" stroke="none" fill="#A3A3A3"><g><text style="font: 20px Roboto, sans-serif; white-space: pre;" font-size="20px" font-family="Roboto, sans-serif"><tspan x="12" y="33.47" dominant-baseline="ideographic">Hautement adaptable et réaliste </tspan><tspan x="12" y="57.47" dominant-baseline="ideographic">mais chronophage</tspan></text></g></g></g><g id="g-root-user_7qs4z1kn6kuk-fill" data-item-order="1000000000" data-item-id="user_7qs4z1kn6kuk" data-item-class="Icon Stroke Indexed ColorStrokeGray" data-item-index="3" data-renderer-id="0" transform="translate(386, 219)"></g><g id="g-root-tx_aiagents_9409gz1kmzjm6-fill" data-item-order="1000000000" data-item-id="tx_aiagents_9409gz1kmzjm6" data-item-class="Label Stroke Indexed" data-item-index="3" data-renderer-id="0" transform="translate(434, 225)"><g id="tx_aiagents_9409gz1kmzjm6-fill" stroke="none" fill="#4F92FF"><g><text style="font: bold 20px Roboto, sans-serif; white-space: pre;" font-weight="bold" font-size="20px" font-family="Roboto, sans-serif"><tspan x="12" y="33.47" dominant-baseline="ideographic">Agents IA</tspan></text></g></g></g><g id="g-root-tx_combines_meuar71kmzl71-fill" data-item-order="1000000000" data-item-id="tx_combines_meuar71kmzl71" data-item-class="Label Stroke Indexed ColorStrokeGray" data-item-index="3" data-renderer-id="0" transform="translate(434, 261)"><g id="tx_combines_meuar71kmzl71-fill" stroke="none" fill="#A3A3A3"><g><text style="font: 20px Roboto, sans-serif; white-space: pre;" font-size="20px" font-family="Roboto, sans-serif"><tspan x="12" y="33.47" dominant-baseline="ideographic">Combine efficacité et adaptabilité mais </tspan><tspan x="12" y="57.47" dominant-baseline="ideographic">nécessite une configuration avancée</tspan></text></g></g></g><g id="g-root-3.line_sy_18lxtdf1kmzitd-stroke" data-item-order="999961157" data-item-id="3.line_sy_18lxtdf1kmzitd" data-item-class="Curve Stroke Part Indexed ColorStrokeGray" data-item-index="3" data-renderer-id="0" transform="translate(266, 129)"><g id="3.line_sy_18lxtdf1kmzitd-stroke" fill="none" stroke-linecap="round" stroke-linejoin="round" stroke-miterlimit="4" stroke="#A3A3A3" stroke-width="2"><g><path d="M 116 118L 57.95 118C 44.7 118 33.95 107.25 33.95 94L 33.95 33.95C 33.95 20.72 23.23 10 10 10"></path><path d="M 110 124.5L 116.5 118L 110 111.5" stroke-dasharray="none"></path></g></g></g><g id="g-root-1.line_sy_zqat4j1kmzjm2-stroke" data-item-order="999961163" data-item-id="1.line_sy_zqat4j1kmzjm2" data-item-class="Curve Stroke Part Indexed Indexed_1 ColorStrokeGray" data-item-index="1" data-renderer-id="0" transform="translate(265.9999084472656, 21)"><g id="1.line_sy_zqat4j1kmzjm2-stroke" fill="none" stroke-linecap="round" stroke-linejoin="round" stroke-miterlimit="4" stroke="#A3A3A3" stroke-width="2"><g><path d="M 116.000092 10L 58.950092 10C 45.700092 10 34.950092 20.75 34.950092 34L 34.950092 94.05C 34.950092 107.28 24.230092 118 11.000092 118L 10.000092 118"></path><path d="M 110.000092 16.5L 116.500092 10L 110.000092 3.5" stroke-dasharray="none"></path></g></g></g><g id="g-root-2.line_sy_zqat4j1kmzjm3-stroke" data-item-order="999961169" data-item-id="2.line_sy_zqat4j1kmzjm3" data-item-class="Curve Stroke Part Indexed ColorStrokeGray" data-item-index="2" data-renderer-id="0" transform="translate(265.9997863769531, 129)"><g id="2.line_sy_zqat4j1kmzjm3-stroke" fill="none" stroke-linecap="round" stroke-linejoin="round" stroke-miterlimit="4" stroke="#A3A3A3" stroke-width="2"><g><path d="M 116.000214 10L 58.950214 10C 22.400214 10 10.000214 10 10.000214 10"></path><path d="M 110.000214 16.5L 116.500214 10L 110.000214 3.5" stroke-dasharray="none"></path></g></g></g><g id="g-root-0.line_sy_vahb031kmzkec-stroke" data-item-order="999961173" data-item-id="0.line_sy_vahb031kmzkec" data-item-class="Curve Stroke Part Indexed_0 ColorFillGray ColorStrokeGray" data-item-index="0" data-renderer-id="0" transform="translate(194, 129)"><g id="0.line_sy_vahb031kmzkec-stroke" fill="none" stroke-linecap="round" stroke-linejoin="round" stroke-miterlimit="4" stroke="#A3A3A3" stroke-width="2"><g><path d="M 82 10L 10 10"></path></g></g></g><g id="g-root-navi_1lw5jw31kmy493-stroke" data-item-order="1000000000" data-item-id="navi_1lw5jw31kmy493" data-item-class="Icon Stroke Indexed Indexed_1 ColorStrokeGray" data-item-index="1" data-renderer-id="0" transform="translate(386, 3)"><g id="navi_1lw5jw31kmy493-stroke" fill="none" stroke-linecap="round" stroke-linejoin="round" stroke-miterlimit="4" stroke="#A3A3A3" stroke-width="2"><g><path d="M 10.75 44.115997L 45.25 44.115997M 23.612499 39.545502L 15.457 25.724499M 21.797501 23.434L 30.467501 34.058498M 11.344 20.122C 11.343722 23.298386 13.918614 25.873503 17.094999 25.873503C 20.271387 25.873503 22.846277 23.298386 22.846001 20.122C 22.846277 16.945614 20.271387 14.370498 17.094999 14.370498C 13.918614 14.370498 11.343722 16.945614 11.344 20.122M 29.8225 22.1905L 22.4575 22.1905M 22.1425 17.366499L 29.372499 17.366499M 28.825001 19.3015C 28.824472 21.359686 30.492813 23.028454 32.550999 23.028454C 34.609184 23.028454 36.277527 21.359686 36.277 19.3015C 36.277527 17.243315 34.609184 15.574546 32.550999 15.574546C 30.492813 15.574546 28.824472 17.243315 28.824999 19.3015M 35.083 44.115997L 22.417 44.115997L 24.9505 34.433498L 32.5495 34.433498L 35.083 44.115997ZM 27.032499 39.545502C 27.03228 40.494202 27.801294 41.263397 28.749998 41.263397C 29.698704 41.263397 30.46772 40.494202 30.467499 39.545498C 30.46772 38.596794 29.698704 37.827599 28.749998 37.827599C 27.801294 37.827599 27.03228 38.596794 27.032499 39.545498M 15.3835 20.122C 15.3835 21.067236 16.149765 21.8335 17.094999 21.8335C 18.040236 21.8335 18.806499 21.067236 18.806499 20.122C 18.806499 19.176765 18.040236 18.4105 17.094999 18.4105C 16.149765 18.4105 15.3835 19.176765 15.3835 20.122M 31.801001 19.3015C 31.801001 19.715714 32.136787 20.0515 32.551003 20.0515C 32.965214 20.0515 33.301003 19.715714 33.301003 19.3015C 33.301003 18.887287 32.965214 18.5515 32.551003 18.5515C 32.136787 18.5515 31.801001 18.887287 31.801001 19.3015M 33.361 15.526L 35.713001 12.5875C 36.068085 12.142714 36.606361 11.883789 37.175499 11.884L 41.675499 11.884C 42.172428 11.883645 42.64904 12.081199 43 12.433L 44.5 13.933C 45.231606 14.664968 45.231453 15.851383 44.499668 16.583168C 43.767883 17.314955 42.58147 17.315104 41.849499 16.5835L 40.900002 15.634L 38.077 15.634L 36.457001 17.657499C 36.329403 17.814644 36.177483 17.950359 36.007 18.0595M 35.987503 20.522499L 38.077 23.133999L 40.900002 23.133999L 41.850998 22.182999C 42.582916 21.4515 43.769249 21.451834 44.500748 22.18375C 45.23225 22.915667 45.231915 24.101999 44.5 24.8335L 43 26.3335C 42.648827 26.686081 42.171631 26.884192 41.674004 26.884001L 37.174 26.883999C 36.605011 26.883553 36.067005 26.62476 35.711502 26.1805L 33.105999 22.925499"></path></g></g></g><g id="g-root-tx_automate_18n6rjn1kmzkzm-stroke" data-item-order="1000000000" data-item-id="tx_automate_18n6rjn1kmzkzm" data-item-class="Label Stroke Indexed Indexed_1" data-item-index="1" data-renderer-id="0" transform="translate(434, 9)"></g><g id="g-root-fold_6hx4j1kndmoc-stroke" data-item-order="1000000000" data-item-id="fold_6hx4j1kndmoc" data-item-class="Icon Stroke Title ColorStrokeGray" data-item-index="none" data-renderer-id="0" transform="translate(50, 57)"><g id="fold_6hx4j1kndmoc-stroke" fill="none" stroke-linecap="round" stroke-linejoin="round" stroke-miterlimit="4" stroke="#A3A3A3" stroke-width="2"><g><path d="M 54.552498 33.5C 54.916969 33.498989 55.246067 33.717896 55.386009 34.054428C 55.525951 34.390961 55.449112 34.778675 55.191391 35.036392C 54.93367 35.294113 54.545959 35.370953 54.209427 35.23101C 53.872894 35.091064 53.653988 34.761971 53.654999 34.397499C 53.656372 33.902393 54.057392 33.501373 54.552498 33.5M 54.552498 28.099998L 54.552498 20.912498M 68.480003 34.5275C 69.138512 35.845085 69.067833 37.409691 68.293213 38.662537C 67.518585 39.915382 66.150482 40.677799 64.677505 40.677502L 44.427498 40.677498C 42.954525 40.677799 41.586422 39.915382 40.811798 38.662537C 40.037174 37.409691 39.966496 35.845085 40.625004 34.527504L 50.75 14.2775C 51.469948 12.83774 52.941521 11.928288 54.551254 11.928288C 56.160984 11.928288 57.632561 12.83774 58.352505 14.2775ZM 22.32 68.072502L 57.32 68.072502M 38.57 63.072502L 38.57 68.072502M 68.57 47.8675L 68.57 59.322502C 68.570007 61.39357 66.891068 63.072502 64.820007 63.072502L 14.82 63.072502C 12.748932 63.072502 11.07 61.39357 11.07 59.322502L 11.07 21.8225C 11.07 19.751432 12.748932 18.0725 14.820001 18.0725L 40.794998 18.0725M 36.57 43.345001C 36.568989 47.493324 33.205826 50.855667 29.057501 50.855667C 24.909176 50.855667 21.546013 47.493324 21.545 43.345001L 21.545 39.595001C 21.546013 35.446678 24.909176 32.084335 29.057501 32.084335C 33.205826 32.084335 36.568989 35.446678 36.57 39.595001ZM 21.545 39.587502L 36.57 39.587502M 15.915 43.345001L 21.545 43.345001M 19.0425 53.357502L 23.745001 48.654999M 17.789999 30.197502L 22.889999 35.299999M 39.072498 53.357502L 34.369999 48.654999"></path></g></g></g><g id="g-root-tx_efficien_1lyn9wz1kmzjep-stroke" data-item-order="1000000000" data-item-id="tx_efficien_1lyn9wz1kmzjep" data-item-class="Label Stroke Indexed Indexed_1 ColorStrokeGray" data-item-index="1" data-renderer-id="0" transform="translate(434, 45)"></g><g id="g-root-assi_1uo1mgj1kn3rwp-stroke" data-item-order="1000000000" data-item-id="assi_1uo1mgj1kn3rwp" data-item-class="Icon Stroke Indexed ColorStrokeGray" data-item-index="2" data-renderer-id="0" transform="translate(386, 111)"><g id="assi_1uo1mgj1kn3rwp-stroke" fill="none" stroke-linecap="round" stroke-linejoin="round" stroke-miterlimit="4" stroke="#A3A3A3" stroke-width="2"><g><path d="M 23.973999 36.547001C 23.973541 38.770821 25.776176 40.573833 28 40.573833C 30.223824 40.573833 32.026459 38.770821 32.026001 36.547001C 32.026459 34.323174 30.223824 32.520168 28 32.520168C 25.776176 32.520168 23.973541 34.323174 23.973999 36.547001M 33.752499 45.175003C 32.618984 43.051125 30.407427 41.724625 28 41.724625C 25.592575 41.724625 23.381018 43.051125 22.247499 45.175003M 35.659 36.547001C 35.658539 38.770821 37.461178 40.573833 39.684998 40.573833C 41.908821 40.573833 43.71146 38.770821 43.710999 36.547001C 43.71146 34.323174 41.908821 32.520168 39.684998 32.520168C 37.461178 32.520168 35.658539 34.323174 35.658997 36.547001M 45.25 44.6035C 43.901672 42.699947 41.674194 41.617294 39.344368 41.733101C 37.014542 41.848907 34.905407 43.147118 33.752499 45.174999M 12.289 36.547001C 12.288541 38.770821 14.091177 40.573833 16.315001 40.573833C 18.538822 40.573833 20.341459 38.770821 20.341 36.547001C 20.341459 34.323174 18.538822 32.520168 16.315001 32.520168C 14.091177 32.520168 12.288541 34.323174 12.289 36.547001M 10.75 44.6035C 12.098326 42.699947 14.325806 41.617294 16.65563 41.733101C 18.985456 41.848907 21.094591 43.147118 22.247499 45.174999M 44.307999 21.0445L 36.508003 28.8445L 32.672501 29.611L 33.438999 25.777L 41.238998 17.976999C 42.083656 17.132591 43.45285 17.132591 44.297501 17.976999L 44.306499 17.986C 44.71294 18.391033 44.941521 18.941139 44.941803 19.514938C 44.942081 20.088737 44.714043 20.639069 44.307999 21.0445ZM 38.060501 14.197001L 34.205498 10.825L 15.799 10.825L 15.799 28.080999M 20.401001 18.877001L 21.934 20.411499L 25.001501 17.344M 20.401001 26.546501L 21.934 28.080999L 25.001501 25.012001M 28.837 19.643499L 31.138 19.643499M 34.205498 25.012001L 37.272999 28.080999M 13.201 34C 15.082143 35.871437 17.699932 36.806358 20.341 36.550003M 24.886 34C 26.767258 35.87125 29.384956 36.806145 32.025997 36.549999M 36.570999 34C 38.452721 35.871494 41.07098 36.806393 43.712502 36.550003"></path></g></g></g><g id="g-root-tx_whichred_vccq9f1kmzjer-stroke" data-item-order="1000000000" data-item-id="tx_whichred_vccq9f1kmzjer" data-item-class="Label Stroke Title ColorFillGray ColorStrokeGray" data-item-index="none" data-renderer-id="0" transform="translate(2, 129)"></g><g id="g-root-tx_manualre_1qduayb1kmzls8-stroke" data-item-order="1000000000" data-item-id="tx_manualre_1qduayb1kmzls8" data-item-class="Label Stroke Indexed" data-item-index="2" data-renderer-id="0" transform="translate(434, 117)"></g><g id="g-root-tx_highlyad_4o6rcj1kmzkef-stroke" data-item-order="1000000000" data-item-id="tx_highlyad_4o6rcj1kmzkef" data-item-class="Label Stroke Indexed ColorStrokeGray" data-item-index="2" data-renderer-id="0" transform="translate(434, 153)"></g><g id="g-root-user_7qs4z1kn6kuk-stroke" data-item-order="1000000000" data-item-id="user_7qs4z1kn6kuk" data-item-class="Icon Stroke Indexed ColorStrokeGray" data-item-index="3" data-renderer-id="0" transform="translate(386, 219)"><g id="user_7qs4z1kn6kuk-stroke" fill="none" stroke-linecap="round" stroke-linejoin="round" stroke-miterlimit="4" stroke="#A3A3A3" stroke-width="2"><g><path d="M 26.5 28.75C 21.529438 28.75 17.5 24.720562 17.5 19.75C 17.5 14.779438 21.529438 10.75 26.5 10.75ZM 12.25 45.25C 12.25 37.379944 18.629942 31 26.5 31L 26.5 45.25ZM 29.5 28.75C 30.002895 28.746988 30.50465 28.70183 31 28.615002L 31 26.32C 31.737789 26.150751 32.441353 25.85705 33.080498 25.4515L 34.709499 27.0805C 35.530037 26.496971 36.246971 25.780039 36.830498 24.959499L 35.199997 23.3305C 35.606075 22.691456 35.900284 21.987885 36.07 21.25L 38.364998 21.25C 38.451828 20.75465 38.496986 20.252893 38.5 19.75C 38.496986 19.247107 38.451828 18.74535 38.364998 18.25L 36.07 18.25C 35.900284 17.512114 35.606075 16.808544 35.199997 16.1695L 36.828999 14.5405C 36.245472 13.719961 35.528538 13.00303 34.708 12.4195L 33.080502 14.05C 32.441452 13.643923 31.737885 13.349712 30.999998 13.18L 31 10.885C 30.50465 10.79817 30.002895 10.753013 29.5 10.75M 29.5 16.75C 31.156855 16.75 32.5 18.093145 32.5 19.75C 32.5 21.406855 31.156855 22.75 29.5 22.75M 43.75 45.25C 43.744587 44.496021 43.679382 43.743664 43.555 42.999996L 40.523502 43C 40.323086 42.026867 39.993149 41.084984 39.542503 40.199501L 41.749001 37.994499C 40.716793 36.252941 39.326656 34.750324 37.670502 33.586002L 35.5075 35.7505C 34.579052 35.159893 33.568016 34.710487 32.5075 34.417L 32.5075 31.3225C 31.519201 31.109098 30.511076 31.000994 29.5 31M 29.5 39.25C 32.813709 39.25 35.5 41.936291 35.5 45.25"></path></g></g></g><g id="g-root-tx_aiagents_9409gz1kmzjm6-stroke" data-item-order="1000000000" data-item-id="tx_aiagents_9409gz1kmzjm6" data-item-class="Label Stroke Indexed" data-item-index="3" data-renderer-id="0" transform="translate(434, 225)"></g><g id="g-root-tx_combines_meuar71kmzl71-stroke" data-item-order="1000000000" data-item-id="tx_combines_meuar71kmzl71" data-item-class="Label Stroke Indexed ColorStrokeGray" data-item-index="3" data-renderer-id="0" transform="translate(434, 261)"></g></g></g></svg>