<?xml version="1.0" encoding="utf-8" standalone="yes"?>
<!DOCTYPE svg PUBLIC "-//W3C//DTD SVG 1.1//EN" "http://www.w3.org/Graphics/SVG/1.1/DTD/svg11.dtd">
<svg width="744" height="433" viewBox="0 0 744 433" style="fill:none;stroke:none;fill-rule:evenodd;clip-rule:evenodd;stroke-linecap:round;stroke-linejoin:round;stroke-miterlimit:1.5;" version="1.1" xmlns="http://www.w3.org/2000/svg" xmlns:xlink="http://www.w3.org/1999/xlink"><style id="fontImports">@import url("https://fonts.googleapis.com/css2?family=Roboto:wght@400;700&amp;display=block");</style><g id="items" style="isolation: isolate"><g id="blend" style="mix-blend-mode:normal"><g id="g-root--1.cu_sy_2r2ky1nevgn7-fill" data-item-order="999898630" transform="translate(362, 26)"></g><g id="g-root-5.line_sy_v7d11i1anmm1a-fill" data-item-order="999898637" transform="translate(278, 260)"></g><g id="g-root-4.line_sy_8zngm1angyrp-fill" data-item-order="999898643" transform="translate(278, 242)"></g><g id="g-root-3.line_sy_1q884b61nevh8s-fill" data-item-order="999898649" transform="translate(278.1094055175781, 218)"></g><g id="g-root-2.line_sy_1lsem6q1nevi11-fill" data-item-order="999898655" transform="translate(278, 134)"></g><g id="g-root-1.line_sy_1cwrlxu1nevitq-fill" data-item-order="999898661" transform="translate(278, 50)"></g><g id="g-root-tx_textproc_v9v3de1nf9k3o-fill" data-item-order="1000000000" transform="translate(26, 2)"><g id="tx_textproc_v9v3de1nf9k3o-fill" stroke="none" fill="#b7b7b7"><g><text style="font: 20px Roboto, sans-serif; white-space: pre;" font-size="20px" font-family="Roboto, sans-serif"><tspan x="13.95" y="70" dominant-baseline="ideographic">Traitement de texte</tspan></text></g></g></g><g id="g-root-2_dhc4pe1nf9kao-fill" data-item-order="1000000000" transform="translate(218, 26)"></g><g id="g-root-tx_imageint_zpolhu1nf9jbf-fill" data-item-order="1000000000" transform="translate(38, 122)"><g id="tx_imageint_zpolhu1nf9jbf-fill" stroke="none" fill="#b7b7b7"><g><text style="font: 20px Roboto, sans-serif; white-space: pre;" font-size="20px" font-family="Roboto, sans-serif"><tspan x="16.35" y="34" dominant-baseline="ideographic">Analyse d'images</tspan></text></g></g></g><g id="g-root-eyee_1ur630y1nf153a-fill" data-item-order="1000000000" transform="translate(218, 110)"></g><g id="g-root-tx_voicerec_1d0ims21nf9kwa-fill" data-item-order="1000000000" transform="translate(32, 194)"><g id="tx_voicerec_1d0ims21nf9kwa-fill" stroke="none" fill="#b7b7b7"><g><text style="font: 20px Roboto, sans-serif; white-space: pre;" font-size="20px" font-family="Roboto, sans-serif"><tspan x="13.45" y="34" dominant-baseline="ideographic">Reconnaissance </tspan><tspan x="57.68" y="58" dominant-baseline="ideographic">vocale</tspan></text></g></g></g><g id="g-root-2_1lqj6xe1nf9ki0-fill" data-item-order="1000000000" transform="translate(218, 194)"></g><g id="g-root-plur_1unf5ci1nezojv-fill" data-item-order="1000000000" transform="translate(542, 194)"></g><g id="g-root-tx_multimod_6i3f61nf9ipt-fill" data-item-order="1000000000" transform="translate(602, 194)"><g id="tx_multimod_6i3f61nf9ipt-fill" stroke="none" fill="#b7b7b7"><g><text style="font: 20px Roboto, sans-serif; white-space: pre;" font-size="20px" font-family="Roboto, sans-serif"><tspan x="36.91" y="33.47" dominant-baseline="ideographic">Modèle </tspan><tspan x="14.32" y="57.47" dominant-baseline="ideographic">multimodale</tspan></text></g></g></g><g id="g-root-tx_neweleme_hrj0qu1anid52-fill" data-item-order="1000000000" transform="translate(2, 290)"><g id="tx_neweleme_hrj0qu1anid52-fill" stroke="none" fill="#b7b7b7"><g><text style="font: 20px Roboto, sans-serif; white-space: pre;" font-size="20px" font-family="Roboto, sans-serif"><tspan x="15.3" y="34" dominant-baseline="ideographic">Compréhension vidéo</tspan></text></g></g></g><g id="g-root-1_hx5qbq1cls8az-fill" data-item-order="1000000000" transform="translate(218, 278)"></g><g id="g-root-tx_neweleme_1lvizye1anml1j-fill" data-item-order="1000000000" transform="translate(26, 362)"><g id="tx_neweleme_1lvizye1anml1j-fill" stroke="none" fill="#b7b7b7"><g><text style="font: 20px Roboto, sans-serif; white-space: pre;" font-size="20px" font-family="Roboto, sans-serif"><tspan x="24.1" y="34" dominant-baseline="ideographic">Interprétation de </tspan><tspan x="52.59" y="58" dominant-baseline="ideographic">document</tspan></text></g></g></g><g id="g-root-1_1cuvr861adwv7r-fill" data-item-order="1000000000" transform="translate(218, 362)"></g><g id="g-root--1.cu_sy_2r2ky1nevgn7-stroke" data-item-order="999898630" transform="translate(362, 26)"><g id="-1.cu_sy_2r2ky1nevgn7-stroke" fill="none" stroke-linecap="round" stroke-linejoin="round" stroke-miterlimit="4" stroke="#b7b7b7" stroke-width="2"><g><path d="M 65.766602 394C 80.754802 394 106.000002 308.0387 106.000002 202C 106.000002 95.9613 80.754802 10 65.766602 10C 80.775202 10.01 92.941702 96.2224 92.941702 202C 92.941702 307.7776 80.775202 393.99 65.766602 394ZM 65.765897 394C 80.774597 393.99 92.941097 307.7776 92.941097 202C 92.941097 96.2224 80.774597 10.01 65.765897 10L 51.957397 10C 66.060697 16.8878 77.199297 100.4719 77.199297 202C 77.199297 303.5282 65.382597 387.1122 51.279297 394L 65.765897 394ZM 77.2 202C 77.2 303.5282 65.3833 387.1122 51.28 394L 50.0615 394C 35.0734 394 10 308.0387 10 202C 10 95.9613 35.0734 10 50.0615 10C 50.6991 10 51.9581 10 51.9581 10C 66.0614 16.8878 77.2 100.4719 77.2 202Z"></path></g></g></g><g id="g-root-5.line_sy_v7d11i1anmm1a-stroke" data-item-order="999898637" transform="translate(278, 260)"><g id="5.line_sy_v7d11i1anmm1a-stroke" fill="none" stroke-linecap="round" stroke-linejoin="round" stroke-miterlimit="4" stroke="#4f91fc" stroke-width="2"><g><path d="M 272.49 11.319824L 130 135.999824L 10 135.999824"></path><path d="M 272.3 20.119824L 272.9 11.019824L 263.7 10.419824" stroke-dasharray="none"></path></g></g></g><g id="g-root-4.line_sy_8zngm1angyrp-stroke" data-item-order="999898643" transform="translate(278, 242)"><g id="4.line_sy_8zngm1angyrp-stroke" fill="none" stroke-linecap="round" stroke-linejoin="round" stroke-miterlimit="4" stroke="#1ac3fb" stroke-width="2"><g><path d="M 254.19 10.859863L 130 69.999863L 10 69.999863"></path><path d="M 251.6 19.259863L 254.6 10.659863L 246 7.559863" stroke-dasharray="none"></path></g></g></g><g id="g-root-3.line_sy_1q884b61nevh8s-stroke" data-item-order="999898649" transform="translate(278.1094055175781, 218)"><g id="3.line_sy_1q884b61nevh8s-stroke" fill="none" stroke-linecap="round" stroke-linejoin="round" stroke-miterlimit="4" stroke="#f79438" stroke-width="2"><g><path d="M 247.89058 10L 129.89058 10L 10.00058 10"></path><path d="M 241.90058 16.5L 248.40058 10L 241.90058 3.5" stroke-dasharray="none"></path></g></g></g><g id="g-root-2.line_sy_1lsem6q1nevi11-stroke" data-item-order="999898655" transform="translate(278, 134)"><g id="2.line_sy_1lsem6q1nevi11-stroke" fill="none" stroke-linecap="round" stroke-linejoin="round" stroke-miterlimit="4" stroke="#43dd93" stroke-width="2"><g><path d="M 254.19 69.14L 130 10L 10 10"></path><path d="M 246 72.4L 254.6 69.4L 251.6 60.7" stroke-dasharray="none"></path></g></g></g><g id="g-root-1.line_sy_1cwrlxu1nevitq-stroke" data-item-order="999898661" transform="translate(278, 50)"><g id="1.line_sy_1cwrlxu1nevitq-stroke" fill="none" stroke-linecap="round" stroke-linejoin="round" stroke-miterlimit="4" stroke="#a6da37" stroke-width="2"><g><path d="M 272.49 134.68L 130 10L 10 10"></path><path d="M 263.7 135.6L 272.9 135L 272.3 125.8" stroke-dasharray="none"></path></g></g></g><g id="g-root-tx_textproc_v9v3de1nf9k3o-stroke" data-item-order="1000000000" transform="translate(26, 2)"></g><g id="g-root-2_dhc4pe1nf9kao-stroke" data-item-order="1000000000" transform="translate(218, 26)"><g id="2_dhc4pe1nf9kao-stroke" fill="none" stroke-linecap="round" stroke-linejoin="round" stroke-miterlimit="4" stroke="#a6da37" stroke-width="2"><g><path d="M 44.285713 22L 44.285713 49.428574C 44.285713 53.215668 41.215668 56.285713 37.428574 56.285713L 11.714286 56.285713C 15.501381 56.285713 18.571428 53.215668 18.571428 49.428574L 18.571428 18.571428C 18.571428 14.784333 21.641476 11.714286 25.428572 11.714286L 50.285713 11.714286M 50.285713 11.714286L 50.285713 11.714286C 53.599426 11.714286 56.285717 14.400578 56.285717 17.714285L 56.285713 20.285715C 56.285713 21.232489 55.518204 22 54.57143 22L 44.285713 22L 44.285713 22L 44.285713 17.714285C 44.285713 14.400578 46.972008 11.714286 50.285717 11.714286ZM 30.571428 23.714287L 35.714287 23.714287M 27.142857 34L 35.714287 34M 27.142857 44.285713L 35.714287 44.285713"></path></g></g></g><g id="g-root-tx_imageint_zpolhu1nf9jbf-stroke" data-item-order="1000000000" transform="translate(38, 122)"></g><g id="g-root-eyee_1ur630y1nf153a-stroke" data-item-order="1000000000" transform="translate(218, 110)"><g id="eyee_1ur630y1nf153a-stroke" fill="none" stroke-linecap="round" stroke-linejoin="round" stroke-miterlimit="4" stroke="#43dd93" stroke-width="2"><g><path d="M 56.285713 47.714287C 56.285713 47.714287 49.428574 56.285713 42.57143 56.285713C 35.714287 56.285713 28.857143 47.714287 28.857143 47.714287C 28.857143 47.714287 35.714287 39.142857 42.57143 39.142857C 49.428574 39.142857 56.285713 47.714287 56.285713 47.714287ZM 40.857143 47.714287C 40.857143 48.66106 41.624657 49.428574 42.57143 49.428574C 43.518204 49.428574 44.285713 48.66106 44.285713 47.714287C 44.285713 46.767513 43.518204 46 42.57143 46C 41.624657 46 40.857143 46.767513 40.857143 47.714287M 20.285715 46L 15.142858 46C 13.24931 46 11.714286 44.464977 11.714286 42.57143L 11.714286 15.142858C 11.714286 13.24931 13.24931 11.714286 15.142858 11.714286L 42.57143 11.714286C 44.464977 11.714286 46 13.24931 46 15.142858L 46 30.571428M 23.714287 22.857143C 23.714287 25.697466 26.016823 28 28.857143 28C 31.697466 28 34 25.697466 34 22.857143C 34 20.016821 31.697466 17.714285 28.857143 17.714285C 26.016823 17.714285 23.714287 20.016821 23.714287 22.857143M 31.29143 33.382858C 30.490856 33.216434 29.674801 33.135979 28.857141 33.142857C 25.078777 33.13744 21.519829 34.916916 19.257143 37.942856"></path></g></g></g><g id="g-root-tx_voicerec_1d0ims21nf9kwa-stroke" data-item-order="1000000000" transform="translate(32, 194)"></g><g id="g-root-2_1lqj6xe1nf9ki0-stroke" data-item-order="1000000000" transform="translate(218, 194)"><g id="2_1lqj6xe1nf9ki0-stroke" fill="none" stroke-linecap="round" stroke-linejoin="round" stroke-miterlimit="4" stroke="#f79438" stroke-width="2"><g><path d="M 27 57L 13 57C 11.895431 57 11 56.104568 11 55L 11 41M 27 11L 13 11C 11.895431 11 11 11.895431 11 13L 11 27M 41 57L 55 57C 56.104568 57 57 56.104568 57 55L 57 41M 41 11L 55 11C 56.104568 11 57 11.895431 57 13L 57 27M 19 30L 19 38M 24 28L 24 40M 29 26L 29 42M 49 30L 49 38M 44 28L 44 40M 39 26L 39 42M 34 20L 34 48"></path></g></g></g><g id="g-root-plur_1unf5ci1nezojv-stroke" data-item-order="1000000000" transform="translate(542, 194)"><g id="plur_1unf5ci1nezojv-stroke" fill="none" stroke-linecap="round" stroke-linejoin="round" stroke-miterlimit="4" stroke="#b7b7b7" stroke-width="2"><g><path d="M 33.529999 57L 33.529999 30.018M 27.534 37.012001L 27.534 54.001999L 22.538 54.001999L 22.538 57M 15.542 57L 15.542 48.006001L 21.538 48.006001L 21.538 40.010002M 39.526001 37.012001L 39.526001 54.001999L 44.523998 54.001999L 44.523998 57M 51.52 57L 51.52 48.006001L 45.523998 48.006001L 45.523998 40.010002M 49 37.400002C 53.181938 36.334152 56.08078 32.530869 56 28.216C 56.001884 25.619896 54.946335 23.134996 53.076595 21.333933C 51.206856 19.532869 48.684216 18.571007 46.089996 18.669998C 43.484447 13.139819 37.459858 10.081257 31.45772 11.241485C 25.45558 12.401712 21.004866 17.485176 20.647999 23.587999C 18.534271 23.143478 16.332771 23.675255 14.655016 25.035618C 12.977261 26.395981 12.00195 28.440035 12 30.6C 11.812469 33.933861 14.140068 36.884327 17.426001 37.478001"></path></g></g></g><g id="g-root-tx_multimod_6i3f61nf9ipt-stroke" data-item-order="1000000000" transform="translate(602, 194)"></g><g id="g-root-tx_neweleme_hrj0qu1anid52-stroke" data-item-order="1000000000" transform="translate(2, 290)"></g><g id="g-root-1_hx5qbq1cls8az-stroke" data-item-order="1000000000" transform="translate(218, 278)"><g id="1_hx5qbq1cls8az-stroke" fill="none" stroke-linecap="round" stroke-linejoin="round" stroke-miterlimit="4" stroke="#1ac3fb" stroke-width="2"><g><path d="M 29 57L 13 57C 11.895431 57 11 56.104568 11 55L 11 13C 11 11.895431 11.895431 11 13 11L 39.585999 11C 40.11639 11.000113 40.625015 11.210901 41 11.586L 48.414001 19C 48.789101 19.374985 48.999886 19.88361 49 20.414L 49 27M 35.214001 31.780001L 25.271999 26.427999C 24.798553 26.164074 24.22072 26.170725 23.753475 26.445478C 23.286228 26.720232 22.999516 27.22196 23 27.764L 23 39.236C 22.999516 39.778038 23.286228 40.279766 23.753475 40.55452C 24.22072 40.829273 24.798553 40.835922 25.271999 40.571999L 29.622 37.896M 33 45C 33 51.627419 38.372581 57 45 57C 51.627419 57 57 51.627419 57 45C 57 38.372581 51.627419 33 45 33C 38.372581 33 33 38.372581 33 45ZM 50.348 41.510002L 44.537998 49.257999C 44.276604 49.605644 43.877338 49.82291 43.44347 49.8536C 43.009598 49.884289 42.583725 49.725388 42.275997 49.417999L 39.276001 46.417999"></path></g></g></g><g id="g-root-tx_neweleme_1lvizye1anml1j-stroke" data-item-order="1000000000" transform="translate(26, 362)"></g><g id="g-root-1_1cuvr861adwv7r-stroke" data-item-order="1000000000" transform="translate(218, 362)"><g id="1_1cuvr861adwv7r-stroke" fill="none" stroke-linecap="round" stroke-linejoin="round" stroke-miterlimit="4" stroke="#4f91fc" stroke-width="2"><g><path d="M 13 10.998L 55 10.998C 55 10.998 57 10.998 57 12.998L 57 54.998001C 57 54.998001 57 56.998001 55 56.998001L 13 56.998001C 13 56.998001 11 56.998001 11 54.998001L 11 12.998C 11 12.998 11 10.998 13 10.998M 27 37C 27 39.209137 25.209139 41 23 41L 19 41L 19 33L 23 33C 25.209139 33 27 34.790863 27 37ZM 19 48.998001L 19 40.998001M 31 33C 35.418278 33 39 36.581722 39 41C 39 45.418278 35.418278 49 31 49ZM 43 49L 43 36C 43 34.343147 44.343147 33 46 33L 51 33M 43 40.998001L 48 40.998001"></path></g></g></g></g></g></svg>
