<?xml version="1.0" encoding="utf-8" standalone="yes"?>
<!DOCTYPE svg PUBLIC "-//W3C//DTD SVG 1.1//EN" "http://www.w3.org/Graphics/SVG/1.1/DTD/svg11.dtd">
<svg width="720" height="410" viewBox="0 0 720 410" style="fill:none;stroke:none;fill-rule:evenodd;clip-rule:evenodd;stroke-linecap:round;stroke-linejoin:round;stroke-miterlimit:1.5;" version="1.1" xmlns="http://www.w3.org/2000/svg" xmlns:xlink="http://www.w3.org/1999/xlink"><style id="fontImports">@import url("https://fonts.googleapis.com/css2?family=Roboto:wght@400;700&amp;display=block");</style><g id="items" style="isolation: isolate"><g id="blend" style="mix-blend-mode:normal"><g id="g-root--1.cu_sy_4jt9om19ts0zv-fill" data-item-order="-101370" transform="translate(338, 3)"></g><g id="g-root-5.line_sy_3zrk619ts1s4-fill" data-item-order="-101363" transform="translate(254, 237)"></g><g id="g-root-4.line_sy_1q9gtae19ts2dp-fill" data-item-order="-101357" transform="translate(254, 219)"></g><g id="g-root-3.line_sy_1lu9s9219ts006-fill" data-item-order="-101351" transform="translate(254.10940551757812, 195)"></g><g id="g-root-2.line_sy_1cyms0619ts0sv-fill" data-item-order="-101345" transform="translate(254, 111)"></g><g id="g-root-1.line_sy_1hega4m19ts0sg-fill" data-item-order="-101339" transform="translate(254, 27)"></g><g id="g-root-tx_textproc_zqazpi1a3x8ne-fill" data-item-order="0" transform="translate(2, 15)"><g id="tx_textproc_zqazpi1a3x8ne-fill" stroke="none" fill="#f4f4f4"><g><text style="font: 20px Roboto, sans-serif; white-space: pre;" font-size="20px" font-family="Roboto, sans-serif"><tspan x="13.95" y="34" dominant-baseline="ideographic">Traitement de texte</tspan></text></g></g></g><g id="g-root-1_v8m2bq1a3xaf8-fill" data-item-order="0" transform="translate(194, 3)"></g><g id="g-root-tx_imageana_18lxzye1a3x7up-fill" data-item-order="0" transform="translate(14, 99)"><g id="tx_imageana_18lxzye1a3x7up-fill" stroke="none" fill="#f4f4f4"><g><text style="font: 20px Roboto, sans-serif; white-space: pre;" font-size="20px" font-family="Roboto, sans-serif"><tspan x="16.35" y="34" dominant-baseline="ideographic">Analyse d'images</tspan></text></g></g></g><g id="g-root-flow_1umsldy1a3rll6-fill" data-item-order="0" transform="translate(194, 87)"></g><g id="g-root-tx_voicerec_1lws18m1a3x9fk-fill" data-item-order="0" transform="translate(26, 171)"><g id="tx_voicerec_1lws18m1a3x9fk-fill" stroke="none" fill="#f4f4f4"><g><text style="font: 20px Roboto, sans-serif; white-space: pre;" font-size="20px" font-family="Roboto, sans-serif"><tspan x="13.45" y="34" dominant-baseline="ideographic">Reconnaissance </tspan><tspan x="57.68" y="58" dominant-baseline="ideographic">vocale</tspan></text></g></g></g><g id="g-root-reco_dbp5xi1a3ge0x-fill" data-item-order="0" transform="translate(194, 171)"></g><g id="g-root-plur_1hd7oli19tp9fz-fill" data-item-order="0" transform="translate(518, 171)"></g><g id="g-root-tx_multimod_mdlj5y1a3x825-fill" data-item-order="0" transform="translate(578, 171)"><g id="tx_multimod_mdlj5y1a3x825-fill" stroke="none" fill="#f4f4f4"><g><text style="font: 20px Roboto, sans-serif; white-space: pre;" font-size="20px" font-family="Roboto, sans-serif"><tspan x="36.89" y="34" dominant-baseline="ideographic">Modèle </tspan><tspan x="14.33" y="58" dominant-baseline="ideographic">multimodale</tspan></text></g></g></g><g id="g-root-tx_videound_1usf1hi1a3x7v3-fill" data-item-order="0" transform="translate(26, 255)"><g id="tx_videound_1usf1hi1a3x7v3-fill" stroke="none" fill="#f4f4f4"><g><text style="font: 20px Roboto, sans-serif; white-space: pre;" font-size="20px" font-family="Roboto, sans-serif"><tspan x="15.22" y="34" dominant-baseline="ideographic">Compréhension </tspan><tspan x="61.61" y="58" dominant-baseline="ideographic">vidéo</tspan></text></g></g></g><g id="g-root-1_4osmkm1a3xamg-fill" data-item-order="0" transform="translate(194, 255)"></g><g id="g-root-tx_document_9250sm1a3x9n2-fill" data-item-order="0" transform="translate(26, 339)"><g id="tx_document_9250sm1a3x9n2-fill" stroke="none" fill="#f4f4f4"><g><text style="font: 20px Roboto, sans-serif; white-space: pre;" font-size="20px" font-family="Roboto, sans-serif"><tspan x="13.29" y="34" dominant-baseline="ideographic">Interprétation de </tspan><tspan x="41.77" y="58" dominant-baseline="ideographic">document</tspan></text></g></g></g><g id="g-root-1_1um6n9i19tffgu-fill" data-item-order="0" transform="translate(194, 339)"></g><g id="g-root--1.cu_sy_4jt9om19ts0zv-stroke" data-item-order="-101370" transform="translate(338, 3)"><g id="-1.cu_sy_4jt9om19ts0zv-stroke" fill="none" stroke-linecap="round" stroke-linejoin="round" stroke-miterlimit="4" stroke="#f4f4f4" stroke-width="2"><g><path d="M 65.766602 394C 80.754802 394 106.000002 308.0387 106.000002 202C 106.000002 95.9613 80.754802 10 65.766602 10C 80.775202 10.01 92.941702 96.2224 92.941702 202C 92.941702 307.7776 80.775202 393.99 65.766602 394ZM 65.765897 394C 80.774597 393.99 92.941097 307.7776 92.941097 202C 92.941097 96.2224 80.774597 10.01 65.765897 10L 51.957397 10C 66.060697 16.8878 77.199297 100.4719 77.199297 202C 77.199297 303.5282 65.382597 387.1122 51.279297 394L 65.765897 394ZM 77.2 202C 77.2 303.5282 65.3833 387.1122 51.28 394L 50.0615 394C 35.0734 394 10 308.0387 10 202C 10 95.9613 35.0734 10 50.0615 10C 50.6991 10 51.9581 10 51.9581 10C 66.0614 16.8878 77.2 100.4719 77.2 202Z"></path></g></g></g><g id="g-root-5.line_sy_3zrk619ts1s4-stroke" data-item-order="-101363" transform="translate(254, 237)"><g id="5.line_sy_3zrk619ts1s4-stroke" fill="none" stroke-linecap="round" stroke-linejoin="round" stroke-miterlimit="4" stroke="#4f91fc" stroke-width="2"><g><path d="M 272.49 11.319824L 130 135.999824L 10 135.999824"></path><path d="M 272.3 20.119824L 272.9 11.019824L 263.7 10.419824" stroke-dasharray="none"></path></g></g></g><g id="g-root-4.line_sy_1q9gtae19ts2dp-stroke" data-item-order="-101357" transform="translate(254, 219)"><g id="4.line_sy_1q9gtae19ts2dp-stroke" fill="none" stroke-linecap="round" stroke-linejoin="round" stroke-miterlimit="4" stroke="#1ac3fb" stroke-width="2"><g><path d="M 254.19 10.859863L 130 69.999863L 10 69.999863"></path><path d="M 251.6 19.259863L 254.6 10.659863L 246 7.559863" stroke-dasharray="none"></path></g></g></g><g id="g-root-3.line_sy_1lu9s9219ts006-stroke" data-item-order="-101351" transform="translate(254.10940551757812, 195)"><g id="3.line_sy_1lu9s9219ts006-stroke" fill="none" stroke-linecap="round" stroke-linejoin="round" stroke-miterlimit="4" stroke="#f79438" stroke-width="2"><g><path d="M 247.89058 10L 129.89058 10L 10.00058 10"></path><path d="M 241.90058 16.5L 248.40058 10L 241.90058 3.5" stroke-dasharray="none"></path></g></g></g><g id="g-root-2.line_sy_1cyms0619ts0sv-stroke" data-item-order="-101345" transform="translate(254, 111)"><g id="2.line_sy_1cyms0619ts0sv-stroke" fill="none" stroke-linecap="round" stroke-linejoin="round" stroke-miterlimit="4" stroke="#43dd93" stroke-width="2"><g><path d="M 254.19 69.14L 130 10L 10 10"></path><path d="M 246 72.4L 254.6 69.4L 251.6 60.7" stroke-dasharray="none"></path></g></g></g><g id="g-root-1.line_sy_1hega4m19ts0sg-stroke" data-item-order="-101339" transform="translate(254, 27)"><g id="1.line_sy_1hega4m19ts0sg-stroke" fill="none" stroke-linecap="round" stroke-linejoin="round" stroke-miterlimit="4" stroke="#a6da37" stroke-width="2"><g><path d="M 272.49 134.68L 130 10L 10 10"></path><path d="M 263.7 135.6L 272.9 135L 272.3 125.8" stroke-dasharray="none"></path></g></g></g><g id="g-root-tx_textproc_zqazpi1a3x8ne-stroke" data-item-order="0" transform="translate(2, 15)"></g><g id="g-root-1_v8m2bq1a3xaf8-stroke" data-item-order="0" transform="translate(194, 3)"><g id="1_v8m2bq1a3xaf8-stroke" fill="none" stroke-linecap="round" stroke-linejoin="round" stroke-miterlimit="4" stroke="#a6da37" stroke-width="2"><g><path d="M 43.787998 35C 42.847771 35.001194 42.035328 35.657143 41.835999 36.576C 40.883701 40.04414 37.581337 42.330006 34 42C 30.418665 42.330006 27.116299 40.04414 26.164 36.576C 25.964672 35.657143 25.152229 35.001194 24.212 35L 21 35C 18.790861 35 17 36.790863 17 39L 17 55C 17 56.104568 17.895432 57 19 57L 49 57C 50.104568 57 51 56.104568 51 55L 51 39C 51 36.790863 49.209141 35 47 35ZM 47 27L 51 27C 52.104568 27 53 27.89543 53 29L 53 37C 53 38.104568 52.104568 39 51 39M 17 39C 15.895431 39 15 38.104568 15 37L 15 29C 15 27.89543 15.895431 27 17 27L 21 27M 47 35L 47 21.827999C 46.999886 21.297611 46.789101 20.788986 46.414001 20.414L 37.585999 11.586C 37.211014 11.210901 36.702389 11.000113 36.172001 11L 23 11C 21.895432 11 21 11.895431 21 13L 21 35M 37 11.18L 37 21L 46.82 21M 53 31L 57 31L 57 35M 15 31L 11 31L 11 35M 22 51C 22.276142 51 22.5 51.223858 22.5 51.5C 22.5 51.776142 22.276142 52 22 52C 21.723858 52 21.5 51.776142 21.5 51.5C 21.5 51.223858 21.723858 51 22 51M 28 51C 28.276142 51 28.5 51.223858 28.5 51.5C 28.5 51.776142 28.276142 52 28 52C 27.723858 52 27.5 51.776142 27.5 51.5C 27.5 51.223858 27.723858 51 28 51M 34 51C 34.276142 51 34.5 51.223858 34.5 51.5C 34.5 51.776142 34.276142 52 34 52C 33.723858 52 33.5 51.776142 33.5 51.5C 33.5 51.223858 33.723858 51 34 51M 40 51C 40.276142 51 40.5 51.223858 40.5 51.5C 40.5 51.776142 40.276142 52 40 52C 39.723858 52 39.5 51.776142 39.5 51.5C 39.5 51.223858 39.723858 51 40 51M 46 51C 46.276142 51 46.5 51.223858 46.5 51.5C 46.5 51.776142 46.276142 52 46 52C 45.723858 52 45.5 51.776142 45.5 51.5C 45.5 51.223858 45.723858 51 46 51M 25 46C 25.276142 46 25.5 46.223858 25.5 46.5C 25.5 46.776142 25.276142 47 25 47C 24.723858 47 24.5 46.776142 24.5 46.5C 24.5 46.223858 24.723858 46 25 46M 31 46C 31.276142 46 31.5 46.223858 31.5 46.5C 31.5 46.776142 31.276142 47 31 47C 30.723858 47 30.5 46.776142 30.5 46.5C 30.5 46.223858 30.723858 46 31 46M 37 46C 37.276142 46 37.5 46.223858 37.5 46.5C 37.5 46.776142 37.276142 47 37 47C 36.723858 47 36.5 46.776142 36.5 46.5C 36.5 46.223858 36.723858 46 37 46M 43 46C 43.276142 46 43.5 46.223858 43.5 46.5C 43.5 46.776142 43.276142 47 43 47C 42.723858 47 42.5 46.776142 42.5 46.5C 42.5 46.223858 42.723858 46 43 46"></path></g></g></g><g id="g-root-tx_imageana_18lxzye1a3x7up-stroke" data-item-order="0" transform="translate(14, 99)"></g><g id="g-root-flow_1umsldy1a3rll6-stroke" data-item-order="0" transform="translate(194, 87)"><g id="flow_1umsldy1a3rll6-stroke" fill="none" stroke-linecap="round" stroke-linejoin="round" stroke-miterlimit="4" stroke="#43dd93" stroke-width="2"><g><path d="M 56 56L 12 56M 56 12L 12 12M 14 18L 54 18C 54 18 56 18 56 20L 56 48C 56 48 56 50 54 50L 14 50C 14 50 12 50 12 48L 12 20C 12 20 12 18 14 18M 37.779999 43.380001C 40.808746 43.716011 43.853916 42.910149 46.32 41.120003C 45.040001 39.84 44.16 39.120003 43.82 34.040001C 43.32 26.620001 38.299999 24 34 24C 29.700001 24 24.68 26.620001 24.18 34C 23.84 39 22.959999 39.799999 21.68 41.080002C 24.150244 42.86137 27.19198 43.666328 30.219999 43.34M 48 50C 45.067184 48.475197 42.009384 47.203899 38.860001 46.200001C 38.273956 45.971264 37.885963 45.409069 37.879997 44.779999L 37.879997 42C 37.881546 41.577034 38.054779 41.172821 38.360001 40.879997C 39.495659 39.860825 40.143089 38.405922 40.139999 36.879997L 40.139999 33.059998C 37.789406 32.691132 35.655128 31.474594 34.139999 29.639999C 32.624866 31.474594 30.490595 32.691132 28.139999 33.059998L 28.139999 36.84C 28.136909 38.365921 28.784342 39.820824 29.92 40.84C 30.22522 41.13282 30.398453 41.537033 30.4 41.959999L 30.4 44.720001C 30.394035 45.349068 30.006041 45.911263 29.42 46.139999C 26.207125 47.153545 23.088665 48.445099 20.1 50"></path></g></g></g><g id="g-root-tx_voicerec_1lws18m1a3x9fk-stroke" data-item-order="0" transform="translate(26, 171)"></g><g id="g-root-reco_dbp5xi1a3ge0x-stroke" data-item-order="0" transform="translate(194, 171)"><g id="reco_dbp5xi1a3ge0x-stroke" fill="none" stroke-linecap="round" stroke-linejoin="round" stroke-miterlimit="4" stroke="#f79438" stroke-width="2"><g><path d="M 34.571999 54.858002C 34.570896 56.041317 33.61132 57 32.428001 57L 13.142 57C 11.959463 56.998898 11.001102 56.040539 11 54.858002L 11 49.5C 11 42.990772 16.276772 37.714001 22.785999 37.714001C 29.295229 37.714001 34.571999 42.990772 34.571999 49.5ZM 18.285999 45C 18.285999 45.276142 18.509857 45.5 18.785999 45.5C 19.062141 45.5 19.285999 45.276142 19.285999 45C 19.285999 44.723858 19.062141 44.5 18.785999 44.5C 18.509857 44.5 18.285999 44.723858 18.285999 45M 26.285999 44.987999C 26.285999 45.264141 26.509857 45.487999 26.785999 45.487999C 27.062143 45.487999 27.285999 45.264141 27.285999 44.987999C 27.285999 44.711857 27.062143 44.487999 26.785999 44.487999C 26.509857 44.487999 26.285999 44.711857 26.285999 44.987999M 22.785999 37.714001L 22.785999 33.428001M 19.571999 30.214001C 19.572001 31.989044 21.010956 33.428001 22.785999 33.428001C 24.561043 33.428001 26 31.989044 26 30.214001C 26 28.438957 24.561043 27 22.785999 27C 21.010956 27 19.572001 28.438957 19.572001 30.214001M 11 51.630001L 34.571999 51.630001M 27 21L 27 23.5M 32 19L 32 31M 37 17L 37 33M 57 21L 57 29M 52 19L 52 31M 47 17L 47 33M 42 11L 42 39"></path></g></g></g><g id="g-root-plur_1hd7oli19tp9fz-stroke" data-item-order="0" transform="translate(518, 171)"><g id="plur_1hd7oli19tp9fz-stroke" fill="none" stroke-linecap="round" stroke-linejoin="round" stroke-miterlimit="4" stroke="#f4f4f4" stroke-width="2"><g><path d="M 33.529999 57L 33.529999 30.018M 27.534 37.012001L 27.534 54.001999L 22.538 54.001999L 22.538 57M 15.542 57L 15.542 48.006001L 21.538 48.006001L 21.538 40.010002M 39.526001 37.012001L 39.526001 54.001999L 44.523998 54.001999L 44.523998 57M 51.52 57L 51.52 48.006001L 45.523998 48.006001L 45.523998 40.010002M 49 37.400002C 53.181938 36.334152 56.08078 32.530869 56 28.216C 56.001884 25.619896 54.946335 23.134996 53.076595 21.333933C 51.206856 19.532869 48.684216 18.571007 46.089996 18.669998C 43.484447 13.139819 37.459858 10.081257 31.45772 11.241485C 25.45558 12.401712 21.004866 17.485176 20.647999 23.587999C 18.534271 23.143478 16.332771 23.675255 14.655016 25.035618C 12.977261 26.395981 12.00195 28.440035 12 30.6C 11.812469 33.933861 14.140068 36.884327 17.426001 37.478001"></path></g></g></g><g id="g-root-tx_multimod_mdlj5y1a3x825-stroke" data-item-order="0" transform="translate(578, 171)"></g><g id="g-root-tx_videound_1usf1hi1a3x7v3-stroke" data-item-order="0" transform="translate(26, 255)"></g><g id="g-root-1_4osmkm1a3xamg-stroke" data-item-order="0" transform="translate(194, 255)"><g id="1_4osmkm1a3xamg-stroke" fill="none" stroke-linecap="round" stroke-linejoin="round" stroke-miterlimit="4" stroke="#1ac3fb" stroke-width="2"><g><path d="M 29 57L 13 57C 11.895431 57 11 56.104568 11 55L 11 13C 11 11.895431 11.895431 11 13 11L 39.585999 11C 40.11639 11.000113 40.625015 11.210901 41 11.586L 48.414001 19C 48.789101 19.374985 48.999886 19.88361 49 20.414L 49 27M 35.214001 31.780001L 25.271999 26.427999C 24.798553 26.164074 24.22072 26.170725 23.753475 26.445478C 23.286228 26.720232 22.999516 27.22196 23 27.764L 23 39.236C 22.999516 39.778038 23.286228 40.279766 23.753475 40.55452C 24.22072 40.829273 24.798553 40.835922 25.271999 40.571999L 29.622 37.896M 33 45C 33 51.627419 38.372581 57 45 57C 51.627419 57 57 51.627419 57 45C 57 38.372581 51.627419 33 45 33C 38.372581 33 33 38.372581 33 45ZM 50.348 41.510002L 44.537998 49.257999C 44.276604 49.605644 43.877338 49.82291 43.44347 49.8536C 43.009598 49.884289 42.583725 49.725388 42.275997 49.417999L 39.276001 46.417999"></path></g></g></g><g id="g-root-tx_document_9250sm1a3x9n2-stroke" data-item-order="0" transform="translate(26, 339)"></g><g id="g-root-1_1um6n9i19tffgu-stroke" data-item-order="0" transform="translate(194, 339)"><g id="1_1um6n9i19tffgu-stroke" fill="none" stroke-linecap="round" stroke-linejoin="round" stroke-miterlimit="4" stroke="#4f91fc" stroke-width="2"><g><path d="M 13 10.998L 55 10.998C 55 10.998 57 10.998 57 12.998L 57 54.998001C 57 54.998001 57 56.998001 55 56.998001L 13 56.998001C 13 56.998001 11 56.998001 11 54.998001L 11 12.998C 11 12.998 11 10.998 13 10.998M 27 37C 27 39.209137 25.209139 41 23 41L 19 41L 19 33L 23 33C 25.209139 33 27 34.790863 27 37ZM 19 48.998001L 19 40.998001M 31 33C 35.418278 33 39 36.581722 39 41C 39 45.418278 35.418278 49 31 49ZM 43 49L 43 36C 43 34.343147 44.343147 33 46 33L 51 33M 43 40.998001L 48 40.998001"></path></g></g></g></g></g></svg>