<?xml version="1.0" encoding="utf-8" standalone="yes"?>
<!DOCTYPE svg PUBLIC "-//W3C//DTD SVG 1.1//EN" "http://www.w3.org/Graphics/SVG/1.1/DTD/svg11.dtd">
<svg width="720" height="314" viewBox="0 0 720 314" style="fill:none;stroke:none;fill-rule:evenodd;clip-rule:evenodd;stroke-linecap:round;stroke-linejoin:round;stroke-miterlimit:1.5;" version="1.1" xmlns="http://www.w3.org/2000/svg" xmlns:xlink="http://www.w3.org/1999/xlink"><style id="fontImports">@import url("https://fonts.googleapis.com/css2?family=Roboto:wght@400;700&amp;display=block");</style><g id="items" style="isolation: isolate"><g id="blend" style="mix-blend-mode:normal"><g id="g-root--1.cu_sy_2r2ky1nevgn7-fill" data-item-order="999929158" transform="translate(338, 3)"></g><g id="g-root-3.line_sy_1q884b61nevh8s-fill" data-item-order="999929165" transform="translate(254.10940551757812, 171)"></g><g id="g-root-2.line_sy_1lsem6q1nevi11-fill" data-item-order="999929171" transform="translate(254, 147)"></g><g id="g-root-1.line_sy_1cwrlxu1nevitq-fill" data-item-order="999929177" transform="translate(254, 63)"></g><g id="g-root-tx_textproc_v9v3de1nf9k3o-fill" data-item-order="1000000000" transform="translate(2, 15)"><g id="tx_textproc_v9v3de1nf9k3o-fill" stroke="none" fill="#A3A3A3"><g><text style="font: 20px Roboto, sans-serif; white-space: pre;" font-size="20px" font-family="Roboto, sans-serif"><tspan x="70.74" y="45.47" dominant-baseline="ideographic">Texte </tspan><tspan x="15.41" y="69.47" dominant-baseline="ideographic">(Natural Language </tspan><tspan x="44.34" y="93.47" dominant-baseline="ideographic">Processing)</tspan></text></g></g></g><g id="g-root-2_dhc4pe1nf9kao-fill" data-item-order="1000000000" transform="translate(194, 39)"></g><g id="g-root-tx_imageint_zpolhu1nf9jbf-fill" data-item-order="1000000000" transform="translate(14, 123)"><g id="tx_imageint_zpolhu1nf9jbf-fill" stroke="none" fill="#A3A3A3"><g><text style="font: 20px Roboto, sans-serif; white-space: pre;" font-size="20px" font-family="Roboto, sans-serif"><tspan x="63.68" y="33.47" dominant-baseline="ideographic">Image </tspan><tspan x="12.98" y="57.47" dominant-baseline="ideographic">(Computer Vision)</tspan></text></g></g></g><g id="g-root-eyee_1ur630y1nf153a-fill" data-item-order="1000000000" transform="translate(194, 123)"></g><g id="g-root-plur_1unf5ci1nezojv-fill" data-item-order="1000000000" transform="translate(518, 123)"></g><g id="g-root-tx_multimod_6i3f61nf9ipt-fill" data-item-order="1000000000" transform="translate(578, 123)"><g id="tx_multimod_6i3f61nf9ipt-fill" stroke="none" fill="#A3A3A3"><g><text style="font: 20px Roboto, sans-serif; white-space: pre;" font-size="20px" font-family="Roboto, sans-serif"><tspan x="36.91" y="33.47" dominant-baseline="ideographic">Modèle </tspan><tspan x="14.32" y="57.47" dominant-baseline="ideographic">multimodale</tspan></text></g></g></g><g id="g-root-tx_voicerec_1d0ims21nf9kwa-fill" data-item-order="1000000000" transform="translate(44, 207)"><g id="tx_voicerec_1d0ims21nf9kwa-fill" stroke="none" fill="#A3A3A3"><g><text style="font: 20px Roboto, sans-serif; white-space: pre;" font-size="20px" font-family="Roboto, sans-serif"><tspan x="32.77" y="33.47" dominant-baseline="ideographic">Voix</tspan><tspan x="16.87" y="57.47" dominant-baseline="ideographic"> (Audio)</tspan></text></g></g></g><g id="g-root-2_1lqj6xe1nf9ki0-fill" data-item-order="1000000000" transform="translate(194, 207)"></g><g id="g-root--1.cu_sy_2r2ky1nevgn7-stroke" data-item-order="999929158" transform="translate(338, 3)"><g id="-1.cu_sy_2r2ky1nevgn7-stroke" fill="none" stroke-linecap="round" stroke-linejoin="round" stroke-miterlimit="4" stroke="#666666" stroke-width="2"><g><path d="M 65.766602 298C 80.754802 298 106.000002 233.529 106.000002 154C 106.000002 74.471 80.754802 10 65.766602 10C 80.775202 10.0075 92.941702 74.6668 92.941702 154C 92.941702 233.3332 80.775202 297.9925 65.766602 298ZM 65.765897 298C 80.774597 297.9925 92.941097 233.3332 92.941097 154C 92.941097 74.6668 80.774597 10.0075 65.765897 10L 51.957397 10C 66.060697 15.1659 77.199297 77.8539 77.199297 154C 77.199297 230.1462 65.382597 292.8341 51.279297 298L 65.765897 298ZM 77.2 154C 77.2 230.1462 65.3833 292.8341 51.28 298L 50.0615 298C 35.0734 298 10 233.529 10 154C 10 74.471 35.0734 10 50.0615 10C 50.6991 10 51.9581 10 51.9581 10C 66.0614 15.1659 77.2 77.8539 77.2 154Z"></path></g></g></g><g id="g-root-3.line_sy_1q884b61nevh8s-stroke" data-item-order="999929165" transform="translate(254.10940551757812, 171)"><g id="3.line_sy_1q884b61nevh8s-stroke" fill="none" stroke-linecap="round" stroke-linejoin="round" stroke-miterlimit="4" stroke="#4F92FF" stroke-width="2"><g><path d="M 254.08058 10.859863L 129.89058 69.999863L 10.00058 69.999863"></path><path d="M 251.50058 19.259863L 254.50058 10.659863L 245.90058 7.559863" stroke-dasharray="none"></path></g></g></g><g id="g-root-2.line_sy_1lsem6q1nevi11-stroke" data-item-order="999929171" transform="translate(254, 147)"><g id="2.line_sy_1lsem6q1nevi11-stroke" fill="none" stroke-linecap="round" stroke-linejoin="round" stroke-miterlimit="4" stroke="#44E095" stroke-width="2"><g><path d="M 248 10L 130 10L 10 10"></path><path d="M 242 16.5L 248.5 10L 242 3.5" stroke-dasharray="none"></path></g></g></g><g id="g-root-1.line_sy_1cwrlxu1nevitq-stroke" data-item-order="999929177" transform="translate(254, 63)"><g id="1.line_sy_1cwrlxu1nevitq-stroke" fill="none" stroke-linecap="round" stroke-linejoin="round" stroke-miterlimit="4" stroke="#A8DD38" stroke-width="2"><g><path d="M 254.19 69.14L 130 10L 10 10"></path><path d="M 246 72.4L 254.6 69.4L 251.6 60.7" stroke-dasharray="none"></path></g></g></g><g id="g-root-tx_textproc_v9v3de1nf9k3o-stroke" data-item-order="1000000000" transform="translate(2, 15)"></g><g id="g-root-2_dhc4pe1nf9kao-stroke" data-item-order="1000000000" transform="translate(194, 39)"><g id="2_dhc4pe1nf9kao-stroke" fill="none" stroke-linecap="round" stroke-linejoin="round" stroke-miterlimit="4" stroke="#A8DD38" stroke-width="2"><g><path d="M 44.285713 22L 44.285713 49.428574C 44.285713 53.215668 41.215668 56.285713 37.428574 56.285713L 11.714286 56.285713C 15.501381 56.285713 18.571428 53.215668 18.571428 49.428574L 18.571428 18.571428C 18.571428 14.784333 21.641476 11.714286 25.428572 11.714286L 50.285713 11.714286M 50.285713 11.714286L 50.285713 11.714286C 53.599426 11.714286 56.285717 14.400578 56.285717 17.714285L 56.285713 20.285715C 56.285713 21.232489 55.518204 22 54.57143 22L 44.285713 22L 44.285713 22L 44.285713 17.714285C 44.285713 14.400578 46.972008 11.714286 50.285717 11.714286ZM 30.571428 23.714287L 35.714287 23.714287M 27.142857 34L 35.714287 34M 27.142857 44.285713L 35.714287 44.285713"></path></g></g></g><g id="g-root-tx_imageint_zpolhu1nf9jbf-stroke" data-item-order="1000000000" transform="translate(14, 123)"></g><g id="g-root-eyee_1ur630y1nf153a-stroke" data-item-order="1000000000" transform="translate(194, 123)"><g id="eyee_1ur630y1nf153a-stroke" fill="none" stroke-linecap="round" stroke-linejoin="round" stroke-miterlimit="4" stroke="#44E095" stroke-width="2"><g><path d="M 56.285713 47.714287C 56.285713 47.714287 49.428574 56.285713 42.57143 56.285713C 35.714287 56.285713 28.857143 47.714287 28.857143 47.714287C 28.857143 47.714287 35.714287 39.142857 42.57143 39.142857C 49.428574 39.142857 56.285713 47.714287 56.285713 47.714287ZM 40.857143 47.714287C 40.857143 48.66106 41.624657 49.428574 42.57143 49.428574C 43.518204 49.428574 44.285713 48.66106 44.285713 47.714287C 44.285713 46.767513 43.518204 46 42.57143 46C 41.624657 46 40.857143 46.767513 40.857143 47.714287M 20.285715 46L 15.142858 46C 13.24931 46 11.714286 44.464977 11.714286 42.57143L 11.714286 15.142858C 11.714286 13.24931 13.24931 11.714286 15.142858 11.714286L 42.57143 11.714286C 44.464977 11.714286 46 13.24931 46 15.142858L 46 30.571428M 23.714287 22.857143C 23.714287 25.697466 26.016823 28 28.857143 28C 31.697466 28 34 25.697466 34 22.857143C 34 20.016821 31.697466 17.714285 28.857143 17.714285C 26.016823 17.714285 23.714287 20.016821 23.714287 22.857143M 31.29143 33.382858C 30.490856 33.216434 29.674801 33.135979 28.857141 33.142857C 25.078777 33.13744 21.519829 34.916916 19.257143 37.942856"></path></g></g></g><g id="g-root-plur_1unf5ci1nezojv-stroke" data-item-order="1000000000" transform="translate(518, 123)"><g id="plur_1unf5ci1nezojv-stroke" fill="none" stroke-linecap="round" stroke-linejoin="round" stroke-miterlimit="4" stroke="#A3A3A3" stroke-width="2"><g><path d="M 33.529999 57L 33.529999 30.018M 27.534 37.012001L 27.534 54.001999L 22.538 54.001999L 22.538 57M 15.542 57L 15.542 48.006001L 21.538 48.006001L 21.538 40.010002M 39.526001 37.012001L 39.526001 54.001999L 44.523998 54.001999L 44.523998 57M 51.52 57L 51.52 48.006001L 45.523998 48.006001L 45.523998 40.010002M 49 37.400002C 53.181938 36.334152 56.08078 32.530869 56 28.216C 56.001884 25.619896 54.946335 23.134996 53.076595 21.333933C 51.206856 19.532869 48.684216 18.571007 46.089996 18.669998C 43.484447 13.139819 37.459858 10.081257 31.45772 11.241485C 25.45558 12.401712 21.004866 17.485176 20.647999 23.587999C 18.534271 23.143478 16.332771 23.675255 14.655016 25.035618C 12.977261 26.395981 12.00195 28.440035 12 30.6C 11.812469 33.933861 14.140068 36.884327 17.426001 37.478001"></path></g></g></g><g id="g-root-tx_multimod_6i3f61nf9ipt-stroke" data-item-order="1000000000" transform="translate(578, 123)"></g><g id="g-root-tx_voicerec_1d0ims21nf9kwa-stroke" data-item-order="1000000000" transform="translate(44, 207)"></g><g id="g-root-2_1lqj6xe1nf9ki0-stroke" data-item-order="1000000000" transform="translate(194, 207)"><g id="2_1lqj6xe1nf9ki0-stroke" fill="none" stroke-linecap="round" stroke-linejoin="round" stroke-miterlimit="4" stroke="#4F92FF" stroke-width="2"><g><path d="M 27 57L 13 57C 11.895431 57 11 56.104568 11 55L 11 41M 27 11L 13 11C 11.895431 11 11 11.895431 11 13L 11 27M 41 57L 55 57C 56.104568 57 57 56.104568 57 55L 57 41M 41 11L 55 11C 56.104568 11 57 11.895431 57 13L 57 27M 19 30L 19 38M 24 28L 24 40M 29 26L 29 42M 49 30L 49 38M 44 28L 44 40M 39 26L 39 42M 34 20L 34 48"></path></g></g></g></g></g></svg>