<?xml version="1.0" encoding="utf-8" standalone="yes"?>
<!DOCTYPE svg PUBLIC "-//W3C//DTD SVG 1.1//EN" "http://www.w3.org/Graphics/SVG/1.1/DTD/svg11.dtd">
<svg width="272" height="272" viewBox="0 0 272 272" style="fill:none;stroke:none;fill-rule:evenodd;clip-rule:evenodd;stroke-linecap:round;stroke-linejoin:round;stroke-miterlimit:1.5;" version="1.1" xmlns="http://www.w3.org/2000/svg" xmlns:xlink="http://www.w3.org/1999/xlink"><g id="items" style="isolation: isolate"><g id="blend" style="mix-blend-mode:normal"><g id="g-root-mess_vcd66l2jp05q-fill" data-item-order="1000000000" data-item-id="mess_vcd66l2jp05q" data-item-class="Icon Stroke" data-item-index="none" data-renderer-id="0" transform="translate(3, 3)"></g><g id="g-root-mess_vcd66l2jp05q-stroke" data-item-order="1000000000" data-item-id="mess_vcd66l2jp05q" data-item-class="Icon Stroke" data-item-index="none" data-renderer-id="0" transform="translate(3, 3)"><g id="mess_vcd66l2jp05q-stroke" fill="none" stroke-linecap="round" stroke-linejoin="round" stroke-miterlimit="4" stroke="#A3A3A3" stroke-width="2"><g><path d="M 97.125 89.447746C 97.116821 69.287331 112.678581 52.542461 132.785599 51.076012C 152.892624 49.609566 170.719269 63.919342 173.636307 83.867615C 176.553329 103.81588 163.570511 122.63092 143.885498 126.983253C 139.097397 127.927902 135.62529 132.097 135.5625 136.97699L 135.5625 148.375M 135.5625 174C 136.977722 174 138.125 175.147278 138.125 176.5625C 138.125 177.977722 136.977722 179.125 135.5625 179.125C 134.147278 179.125 133 177.977722 133 176.5625C 133 175.147278 134.147278 174 135.5625 174M 240.625 209.875L 71.5 209.875L 19.225 247.923004C 18.448517 248.505371 17.409649 248.59903 16.541515 248.164978C 15.673381 247.730896 15.125 246.843613 15.125 245.872986L 15.125 25.375C 15.125 19.714081 19.714081 15.125 25.375 15.125L 240.625 15.125C 246.285919 15.125 250.875 19.714081 250.875 25.375L 250.875 199.625C 250.875 205.285919 246.285919 209.875 240.625 209.875Z"></path></g></g></g></g></g></svg>