<?xml version="1.0" encoding="utf-8" standalone="yes"?>
<!DOCTYPE svg PUBLIC "-//W3C//DTD SVG 1.1//EN" "http://www.w3.org/Graphics/SVG/1.1/DTD/svg11.dtd">
<svg width="960" height="346" viewBox="0 0 960 346" style="fill:none;stroke:none;fill-rule:evenodd;clip-rule:evenodd;stroke-linecap:round;stroke-linejoin:round;stroke-miterlimit:1.5;" version="1.1" xmlns="http://www.w3.org/2000/svg" xmlns:xlink="http://www.w3.org/1999/xlink"><style id="fontImports">@import url("https://fonts.googleapis.com/css2?family=Roboto:wght@400;700&amp;display=block");</style><g id="items" style="isolation: isolate"><g id="blend" style="mix-blend-mode:normal"><g id="g-root-ro_dbpuuc1qh6j2f-fill" data-item-order="999966520" data-item-id="ro_dbpuuc1qh6j2f" data-item-class="Shape Stroke Fill" data-item-index="none" data-renderer-id="0" transform="translate(386, 74.1298828125)"><g id="ro_dbpuuc1qh6j2f-fill" stroke="none" fill="#505050"><g><path d="M 34 10L 166 10C 166 10 190 10 190 34L 190 172C 190 172 190 196 166 196L 34 196C 34 196 10 196 10 172L 10 34C 10 34 10 10 34 10"></path></g></g></g><g id="g-root-ro_1hhl65g1qh6ih0-fill" data-item-order="999972784" data-item-id="ro_1hhl65g1qh6ih0" data-item-class="Shape Stroke Fill" data-item-index="none" data-renderer-id="0" transform="translate(602, 155.1298828125)"><g id="ro_1hhl65g1qh6ih0-fill" stroke="none" fill="#2b503e"><g><path d="M 22 10L 250 10C 250 10 262 10 262 22L 262 106C 262 106 262 118 250 118L 22 118C 22 118 10 118 10 106L 10 22C 10 22 10 10 22 10"></path></g></g></g><g id="g-root-ro_qn6jj81qgv957-fill" data-item-order="999978112" data-item-id="ro_qn6jj81qgv957" data-item-class="Shape Stroke Fill" data-item-index="none" data-renderer-id="0" transform="translate(92, 3)"><g id="ro_qn6jj81qgv957-fill" stroke="none" fill="#404b29"><g><path d="M 22 10L 226 10C 226 10 238 10 238 22L 238 94C 238 94 238 106 226 106L 22 106C 22 106 10 106 10 94L 10 22C 10 22 10 10 22 10"></path></g></g></g><g id="g-root-ro_1lw5q3o1qh2bd9-fill" data-item-order="999980992" data-item-id="ro_1lw5q3o1qh2bd9" data-item-class="Shape Stroke Fill" data-item-index="none" data-renderer-id="0" transform="translate(602, 11.1298828125)"><g id="ro_1lw5q3o1qh2bd9-fill" stroke="none" fill="#293f64"><g><path d="M 22 10L 262 10C 262 10 274 10 274 22L 274 70C 274 70 274 82 262 82L 22 82C 22 82 10 82 10 70L 10 22C 10 22 10 10 22 10"></path></g></g></g><g id="g-root-ro_qp1ysk1qh6ghv-fill" data-item-order="999983800" data-item-id="ro_qp1ysk1qh6ghv" data-item-class="Shape Stroke Fill" data-item-index="none" data-renderer-id="0" transform="translate(50, 191.1298828125)"><g id="ro_qp1ysk1qh6ghv-fill" stroke="none" fill="#224754"><g><path d="M 22 10L 298 10C 298 10 310 10 310 22L 310 52C 310 52 310 64 298 64L 22 64C 22 64 10 64 10 52L 10 22C 10 22 10 10 22 10"></path></g></g></g><g id="g-root-cu_4hyg6c1qh6ivg-fill" data-item-order="1000000000" data-item-id="cu_4hyg6c1qh6ivg" data-item-class="Curve Stroke ColorStrokeBlack" data-item-index="none" data-renderer-id="0" transform="translate(320, 51)"></g><g id="g-root-cu_2rf501qh6ghz-fill" data-item-order="1000000000" data-item-id="cu_2rf501qh6ghz" data-item-class="Curve Stroke ColorStrokeBlack" data-item-index="none" data-renderer-id="0" transform="translate(566, 47.1298828125)"></g><g id="g-root-cu_1hclgmc1qh6iob-fill" data-item-order="1000000000" data-item-id="cu_1hclgmc1qh6iob" data-item-class="Curve Stroke ColorStrokeBlack" data-item-index="none" data-renderer-id="0" transform="translate(320, 83.12890625)"></g><g id="g-root-ques_6i6hw1qh29zg-fill" data-item-order="1000000000" data-item-id="ques_6i6hw1qh29zg" data-item-class="Icon Stroke" data-item-index="none" data-renderer-id="0" transform="translate(614, 32.1298828125)"></g><g id="g-root-cu_18hkxgk1qh6h34-fill" data-item-order="1000000000" data-item-id="cu_18hkxgk1qh6h34" data-item-class="Curve Stroke ColorStrokeBlack" data-item-index="none" data-renderer-id="0" transform="translate(613.21044921875, 83.1298828125)"></g><g id="g-root-tx_backdoor_1cuwj8k1qgplal-fill" data-item-order="1000000000" data-item-id="tx_backdoor_1cuwj8k1qgplal" data-item-class="Label Stroke" data-item-index="none" data-renderer-id="0" transform="translate(14, 119.1298828125)"><g id="tx_backdoor_1cuwj8k1qgplal-fill" stroke="none" fill="#A3A3A3"><g><text style="font: 20px Roboto, sans-serif; white-space: pre;" font-size="20px" font-family="Roboto, sans-serif"><tspan x="13.73" y="33.68" dominant-baseline="ideographic">https://arxiv.org/pdf/2411.16746</tspan></text></g></g></g><g id="g-root-robo_qn6d7o1qh6hhi-fill" data-item-order="1000000000" data-item-id="robo_qn6d7o1qh6hhi" data-item-class="Icon Stroke" data-item-index="none" data-renderer-id="0" transform="translate(452, 116.1298828125)"></g><g id="g-root-tx_guardrai_v3miqs1qgpnnr-fill" data-item-order="1000000000" data-item-id="tx_guardrai_v3miqs1qgpnnr" data-item-class="Label Stroke" data-item-index="none" data-renderer-id="0" transform="translate(632, 107.1298828125)"><g id="tx_guardrai_v3miqs1qgpnnr-fill" stroke="none" fill="#A3A3A3"><g><text style="font: 20px Roboto, sans-serif; white-space: pre;" font-size="20px" font-family="Roboto, sans-serif"><tspan x="13.73" y="33.68" dominant-baseline="ideographic">https://arxiv.org/pdf/2411.16730</tspan></text></g></g></g><g id="g-root-tx_lobam_1uux6xw1qgtszt-fill" data-item-order="1000000000" data-item-id="tx_lobam_1uux6xw1qgtszt" data-item-class="Label Stroke" data-item-index="none" data-renderer-id="0" transform="translate(104, 15)"><g id="tx_lobam_1uux6xw1qgtszt-fill" stroke="none" fill="#A8DD38"><g><text style="font: 20px Roboto, sans-serif; white-space: pre;" font-size="20px" font-family="Roboto, sans-serif"><tspan x="11.75" y="33.68" dominant-baseline="ideographic">LoBAM: Backdoor </tspan><tspan x="18.83" y="57.68" dominant-baseline="ideographic">Attack on Model </tspan><tspan x="55.03" y="81.68" dominant-baseline="ideographic">Merging</tspan></text></g></g></g><g id="g-root-tx_redteami_1hjgi901qh52x1-fill" data-item-order="1000000000" data-item-id="tx_redteami_1hjgi901qh52x1" data-item-class="Label Stroke" data-item-index="none" data-renderer-id="0" transform="translate(416, 170.1298828125)"><g id="tx_redteami_1hjgi901qh52x1-fill" stroke="none" fill="#A3A3A3"><g><text style="font: 20px Roboto, sans-serif; white-space: pre;" font-size="20px" font-family="Roboto, sans-serif"><tspan x="20.54" y="34" dominant-baseline="ideographic">Papiers de </tspan><tspan x="23.55" y="58" dominant-baseline="ideographic">recherche</tspan></text></g></g></g><g id="g-root-tx_experien_me86781qh6h36-fill" data-item-order="1000000000" data-item-id="tx_experien_me86781qh6h36" data-item-class="Label Stroke" data-item-index="none" data-renderer-id="0" transform="translate(650, 173.1298828125)"><g id="tx_experien_me86781qh6h36-fill" stroke="none" fill="#44E095"><g><text style="font: 20px Roboto, sans-serif; white-space: pre;" font-size="20px" font-family="Roboto, sans-serif"><tspan x="38.54" y="33.68" dominant-baseline="ideographic">AnywhereDoor: </tspan><tspan x="27.35" y="57.68" dominant-baseline="ideographic">Backdoor Attacks </tspan><tspan x="18.59" y="81.68" dominant-baseline="ideographic">on Object Detection</tspan></text></g></g></g><g id="g-root-phon_13yn1wk1qgv7ka-fill" data-item-order="1000000000" data-item-id="phon_13yn1wk1qgv7ka" data-item-class="Icon Stroke" data-item-index="none" data-renderer-id="0" transform="translate(278, 36)"></g><g id="g-root-tx_memoryba_1lqjjhg1qh6ivd-fill" data-item-order="1000000000" data-item-id="tx_memoryba_1lqjjhg1qh6ivd" data-item-class="Label Stroke" data-item-index="none" data-renderer-id="0" transform="translate(62, 206.1298828125)"><g id="tx_memoryba_1lqjjhg1qh6ivd-fill" stroke="none" fill="#1AC6FF"><g><text style="font: 20px Roboto, sans-serif; white-space: pre;" font-size="20px" font-family="Roboto, sans-serif"><tspan x="12.17" y="34" dominant-baseline="ideographic">Memory Backdoor Attacks</tspan></text></g></g></g><g id="g-root-hack_18fpi781qh6hai-fill" data-item-order="1000000000" data-item-id="hack_18fpi781qh6hai" data-item-class="Icon Stroke" data-item-index="none" data-renderer-id="0" transform="translate(308, 203.1298828125)"></g><g id="g-root-brai_7r4o41qh6gaz-fill" data-item-order="1000000000" data-item-id="brai_7r4o41qh6gaz" data-item-class="Icon Stroke" data-item-index="none" data-renderer-id="0" transform="translate(614, 194.1298828125)"></g><g id="g-root-cu_1uo1yzo1qh6h39-fill" data-item-order="1000000000" data-item-id="cu_1uo1yzo1qh6h39" data-item-class="Curve Stroke ColorStrokeBlack" data-item-index="none" data-renderer-id="0" transform="translate(350, 218.1298828125)"></g><g id="g-root-cu_mbpx6v1ruoz5s-fill" data-item-order="1000000000" data-item-id="cu_mbpx6v1ruoz5s" data-item-class="Curve Stroke ColorStrokeBlack" data-item-index="none" data-renderer-id="0" transform="translate(566, 209.1298828125)"></g><g id="g-root-cu_dfgvok1qh6hvm-fill" data-item-order="1000000000" data-item-id="cu_dfgvok1qh6hvm" data-item-class="Curve Stroke ColorStrokeBlack" data-item-index="none" data-renderer-id="0" transform="translate(311.375, 245.1298828125)"></g><g id="g-root-tx_memoryex_1cw5hes1qgpngr-fill" data-item-order="1000000000" data-item-id="tx_memoryex_1cw5hes1qgpngr" data-item-class="Label Stroke" data-item-index="none" data-renderer-id="0" transform="translate(2, 275.1298828125)"><g id="tx_memoryex_1cw5hes1qgpngr-fill" stroke="none" fill="#A3A3A3"><g><text style="font: 20px Roboto, sans-serif; white-space: pre;" font-size="20px" font-family="Roboto, sans-serif"><tspan x="13.73" y="33.68" dominant-baseline="ideographic">https://arxiv.org/pdf/2411.14516</tspan></text></g></g></g><g id="g-root-cu_mb3vxg1qh6gb1-fill" data-item-order="1000000000" data-item-id="cu_mb3vxg1qh6gb1" data-item-class="Curve Stroke ColorStrokeBlack" data-item-index="none" data-renderer-id="0" transform="translate(614, 263.1298828125)"></g><g id="g-root-tx_texttoim_4hbz381qgpnnt-fill" data-item-order="1000000000" data-item-id="tx_texttoim_4hbz381qgpnnt" data-item-class="Label Stroke" data-item-index="none" data-renderer-id="0" transform="translate(638, 299.1298828125)"><g id="tx_texttoim_4hbz381qgpnnt-fill" stroke="none" fill="#A3A3A3"><g><text style="font: 20px Roboto, sans-serif; white-space: pre;" font-size="20px" font-family="Roboto, sans-serif"><tspan x="13.73" y="33.68" dominant-baseline="ideographic">https://arxiv.org/pdf/2411.14243</tspan></text></g></g></g><g id="g-root-tx_jailbrea_qssq5g1qh29zf-fill" data-item-order="1000000000" data-item-id="tx_jailbrea_qssq5g1qh29zf" data-item-class="Label Stroke" data-item-index="none" data-renderer-id="0" transform="translate(650, 23.1298828125)"><g id="tx_jailbrea_qssq5g1qh29zf-fill" stroke="none" fill="#4F92FF"><g><text style="font: 20px Roboto, sans-serif; white-space: pre;" font-size="20px" font-family="Roboto, sans-serif"><tspan x="12.83" y="33.68" dominant-baseline="ideographic">"Moralized" Multi-Step </tspan><tspan x="29.58" y="57.68" dominant-baseline="ideographic">Jailbreak Prompts</tspan></text></g></g></g><g id="g-root-ro_dbpuuc1qh6j2f-stroke" data-item-order="999966520" data-item-id="ro_dbpuuc1qh6j2f" data-item-class="Shape Stroke Fill" data-item-index="none" data-renderer-id="0" transform="translate(386, 74.1298828125)"><g id="ro_dbpuuc1qh6j2f-stroke" fill="none" stroke-linecap="round" stroke-linejoin="round" stroke-miterlimit="4" stroke="#A3A3A3" stroke-width="2"><g><path d="M 34 10L 166 10C 166 10 190 10 190 34L 190 172C 190 172 190 196 166 196L 34 196C 34 196 10 196 10 172L 10 34C 10 34 10 10 34 10"></path></g></g></g><g id="g-root-ro_1hhl65g1qh6ih0-stroke" data-item-order="999972784" data-item-id="ro_1hhl65g1qh6ih0" data-item-class="Shape Stroke Fill" data-item-index="none" data-renderer-id="0" transform="translate(602, 155.1298828125)"><g id="ro_1hhl65g1qh6ih0-stroke" fill="none" stroke-linecap="round" stroke-linejoin="round" stroke-miterlimit="4" stroke="#44E095" stroke-width="2"><g><path d="M 22 10L 250 10C 250 10 262 10 262 22L 262 106C 262 106 262 118 250 118L 22 118C 22 118 10 118 10 106L 10 22C 10 22 10 10 22 10"></path></g></g></g><g id="g-root-ro_qn6jj81qgv957-stroke" data-item-order="999978112" data-item-id="ro_qn6jj81qgv957" data-item-class="Shape Stroke Fill" data-item-index="none" data-renderer-id="0" transform="translate(92, 3)"><g id="ro_qn6jj81qgv957-stroke" fill="none" stroke-linecap="round" stroke-linejoin="round" stroke-miterlimit="4" stroke="#A8DD38" stroke-width="2"><g><path d="M 22 10L 226 10C 226 10 238 10 238 22L 238 94C 238 94 238 106 226 106L 22 106C 22 106 10 106 10 94L 10 22C 10 22 10 10 22 10"></path></g></g></g><g id="g-root-ro_1lw5q3o1qh2bd9-stroke" data-item-order="999980992" data-item-id="ro_1lw5q3o1qh2bd9" data-item-class="Shape Stroke Fill" data-item-index="none" data-renderer-id="0" transform="translate(602, 11.1298828125)"><g id="ro_1lw5q3o1qh2bd9-stroke" fill="none" stroke-linecap="round" stroke-linejoin="round" stroke-miterlimit="4" stroke="#4F92FF" stroke-width="2"><g><path d="M 22 10L 262 10C 262 10 274 10 274 22L 274 70C 274 70 274 82 262 82L 22 82C 22 82 10 82 10 70L 10 22C 10 22 10 10 22 10"></path></g></g></g><g id="g-root-ro_qp1ysk1qh6ghv-stroke" data-item-order="999983800" data-item-id="ro_qp1ysk1qh6ghv" data-item-class="Shape Stroke Fill" data-item-index="none" data-renderer-id="0" transform="translate(50, 191.1298828125)"><g id="ro_qp1ysk1qh6ghv-stroke" fill="none" stroke-linecap="round" stroke-linejoin="round" stroke-miterlimit="4" stroke="#1AC6FF" stroke-width="2"><g><path d="M 22 10L 298 10C 298 10 310 10 310 22L 310 52C 310 52 310 64 298 64L 22 64C 22 64 10 64 10 52L 10 22C 10 22 10 10 22 10"></path></g></g></g><g id="g-root-cu_4hyg6c1qh6ivg-stroke" data-item-order="1000000000" data-item-id="cu_4hyg6c1qh6ivg" data-item-class="Curve Stroke ColorStrokeBlack" data-item-index="none" data-renderer-id="0" transform="translate(320, 51)"><g id="cu_4hyg6c1qh6ivg-stroke" fill="none" stroke-linecap="round" stroke-linejoin="round" stroke-miterlimit="4" stroke="#666666" stroke-width="2" stroke-dasharray="5.0, 7.0"><g><path d="M 76 95.1L 71.9 95.1L 67 95.1C 53.745164 95.100004 42.999998 84.354837 42.999999 71.100003L 43 71L 43 34C 43 20.745165 32.254834 9.999999 19 10L 18.9 10L 10 10"></path></g></g></g><g id="g-root-cu_2rf501qh6ghz-stroke" data-item-order="1000000000" data-item-id="cu_2rf501qh6ghz" data-item-class="Curve Stroke ColorStrokeBlack" data-item-index="none" data-renderer-id="0" transform="translate(566, 47.1298828125)"><g id="cu_2rf501qh6ghz-stroke" fill="none" stroke-linecap="round" stroke-linejoin="round" stroke-miterlimit="4" stroke="#666666" stroke-width="2" stroke-dasharray="5.0, 7.0"><g><path d="M 10 99L 12.7 99L 12.8 99C 23.127724 98.999992 31.499998 90.627718 31.499998 80.299994L 31.5 80.2L 31.5 22.6C 31.5 15.641213 37.141212 10 44.100001 10.000001L 44.2 10L 46 10"></path></g></g></g><g id="g-root-cu_1hclgmc1qh6iob-stroke" data-item-order="1000000000" data-item-id="cu_1hclgmc1qh6iob" data-item-class="Curve Stroke ColorStrokeBlack" data-item-index="none" data-renderer-id="0" transform="translate(320, 83.12890625)"><g id="cu_1hclgmc1qh6iob-stroke" fill="none" stroke-linecap="round" stroke-linejoin="round" stroke-miterlimit="4" stroke="#666666" stroke-width="2" stroke-dasharray="5.0, 7.0"><g><path d="M 10 10.000977L 11.5 10.000977L 11.6 10.000977C 17.343762 10.000976 22.000001 14.657215 22.000001 20.400977L 22 20.500977L 22 47.600977C 22.000002 53.34474 17.343763 58.000979 11.600001 58.000979L 11.5 58.000977L 10 58.000977"></path></g></g></g><g id="g-root-ques_6i6hw1qh29zg-stroke" data-item-order="1000000000" data-item-id="ques_6i6hw1qh29zg" data-item-class="Icon Stroke" data-item-index="none" data-renderer-id="0" transform="translate(614, 32.1298828125)"><g id="ques_6i6hw1qh29zg-stroke" fill="none" stroke-linecap="round" stroke-linejoin="round" stroke-miterlimit="4" stroke="#4F92FF" stroke-width="2"><g><path d="M 30 16.875C 30 15.839466 30.839466 15 31.875 15C 32.910534 15 33.75 15.839466 33.75 16.875C 33.75 17.910534 32.910534 18.75 31.875 18.75M 31.875 20.625C 32.047588 20.625 32.1875 20.764912 32.1875 20.9375C 32.1875 21.110088 32.047588 21.25 31.875 21.25C 31.702412 21.25 31.5625 21.110088 31.5625 20.9375C 31.5625 20.764912 31.702412 20.625 31.875 20.625M 31.79125 10.625C 29.039415 10.62184 26.502386 12.111534 25.164368 14.516177C 23.826347 16.92082 23.897894 19.862009 25.35125 22.198751L 23.125 26.875L 27.80125 24.647501C 30.534746 26.342043 34.04002 26.127125 36.546028 24.111334C 39.052032 22.095545 40.013157 18.717768 38.943783 15.684629C 37.874413 12.651492 35.007378 10.62338 31.79125 10.625ZM 20.765001 26.016251C 19.96875 25.158751 19.203751 24.283751 18.48 23.4L 19.365 22.516249C 20.340956 21.540001 20.340956 19.9575 19.365 18.981251L 16.71125 16.33C 15.735001 15.354045 14.1525 15.354045 13.17625 16.33L 11.7225 17.785C 10.463359 19.044121 10.265746 21.016064 11.25 22.5C 15.530435 28.944798 21.055204 34.46957 27.500002 38.750004C 28.985498 39.732311 30.956991 39.534325 32.217499 38.276249L 33.672501 36.82375C 34.648453 35.8475 34.648453 34.264999 33.672501 33.28875L 31.02125 30.634998C 30.044859 29.658211 28.461393 29.658211 27.485001 30.634998L 26.60125 31.518749C 25.71875 30.795 24.842499 30.030001 23.983749 29.233749"></path></g></g></g><g id="g-root-cu_18hkxgk1qh6h34-stroke" data-item-order="1000000000" data-item-id="cu_18hkxgk1qh6h34" data-item-class="Curve Stroke ColorStrokeBlack" data-item-index="none" data-renderer-id="0" transform="translate(613.21044921875, 83.1298828125)"><g id="cu_18hkxgk1qh6h34-stroke" fill="none" stroke-linecap="round" stroke-linejoin="round" stroke-miterlimit="4" stroke="#666666" stroke-width="2" stroke-dasharray="5.0, 7.0"><g><path d="M 10.799573 10L 10.799573 12.3L 10.799573 19.1C 10.799559 20.457586 10.766072 21.964528 10.699573 23.6L 10.399573 28L 10.099573 32.4C 10.033074 34.035472 9.999586 35.542415 9.999573 36.900001L 9.999573 37L 9.999573 37.1C 9.999573 42.015333 13.984239 45.999999 18.899573 45.999999L 18.999573 46L 22.799573 46"></path></g></g></g><g id="g-root-tx_backdoor_1cuwj8k1qgplal-stroke" data-item-order="1000000000" data-item-id="tx_backdoor_1cuwj8k1qgplal" data-item-class="Label Stroke" data-item-index="none" data-renderer-id="0" transform="translate(14, 119.1298828125)"></g><g id="g-root-robo_qn6d7o1qh6hhi-stroke" data-item-order="1000000000" data-item-id="robo_qn6d7o1qh6hhi" data-item-class="Icon Stroke" data-item-index="none" data-renderer-id="0" transform="translate(452, 116.1298828125)"><g id="robo_qn6d7o1qh6hhi-stroke" fill="none" stroke-linecap="round" stroke-linejoin="round" stroke-miterlimit="4" stroke="#A3A3A3" stroke-width="2"><g><path d="M 34.636002 54.821999C 34.636002 56.005318 33.677319 56.964897 32.494003 56.966L 13.2 56.966C 12.019027 56.961594 11.063992 56.002983 11.064 54.822002L 11.064 49.466C 11.064 42.956772 16.340773 37.68 22.85 37.68C 29.359228 37.68 34.636002 42.956772 34.636002 49.466003ZM 18.35 44.966C 18.35 45.242142 18.573856 45.466 18.85 45.466C 19.126143 45.466 19.35 45.242142 19.35 44.966C 19.35 44.689857 19.126143 44.466 18.85 44.466C 18.573856 44.466 18.35 44.689857 18.35 44.966M 26.35 44.952C 26.35 45.228142 26.573858 45.452 26.85 45.452C 27.126143 45.452 27.35 45.228142 27.35 44.952C 27.35 44.675858 27.126143 44.452 26.85 44.452C 26.573858 44.452 26.35 44.675858 26.35 44.952M 22.85 37.68L 22.85 33.393997M 19.636 30.18C 19.636002 31.955044 21.074957 33.394001 22.85 33.394001C 24.625044 33.394001 26.064001 31.955044 26.064001 30.18C 26.064001 28.404957 24.625044 26.966002 22.85 26.966002C 21.074957 26.966002 19.636002 28.404957 19.636002 30.18M 11.064 51.596001L 34.636002 51.596001M 35.774002 28.034C 35.773026 37.424599 38.751511 45.038502 42.425999 45.038502C 46.100483 45.038502 49.078972 37.424599 49.077999 28.034C 49.078972 18.643402 46.100483 11.029499 42.425999 11.029499C 38.751511 11.029499 35.773026 18.643402 35.773998 28.034M 28.778 32.799999C 31.210461 28.647213 34.596436 25.133041 38.655998 22.548C 46.391998 17.228001 54.349998 15.368 56.433998 18.396C 58.518002 21.424 53.931999 28.200001 46.200001 33.515999C 42.847473 35.917068 39.086304 37.688549 35.099998 38.743999M 38.655998 33.515999C 46.391998 38.835999 54.349998 40.695999 56.433998 37.667999C 58.518002 34.639999 53.931999 27.868 46.195999 22.554001C 38.459999 17.24 30.502001 15.374001 28.417999 18.4C 26.334 21.425999 30.92 28.200001 38.655998 33.515999ZM 39.470001 28.034C 39.469597 29.66684 40.793159 30.99073 42.425999 30.99073C 44.058838 30.99073 45.382404 29.66684 45.382 28.034C 45.382404 26.401161 44.058838 25.077271 42.425999 25.077271C 40.793159 25.077271 39.469597 26.401161 39.470001 28.034"></path></g></g></g><g id="g-root-tx_guardrai_v3miqs1qgpnnr-stroke" data-item-order="1000000000" data-item-id="tx_guardrai_v3miqs1qgpnnr" data-item-class="Label Stroke" data-item-index="none" data-renderer-id="0" transform="translate(632, 107.1298828125)"></g><g id="g-root-tx_lobam_1uux6xw1qgtszt-stroke" data-item-order="1000000000" data-item-id="tx_lobam_1uux6xw1qgtszt" data-item-class="Label Stroke" data-item-index="none" data-renderer-id="0" transform="translate(104, 15)"></g><g id="g-root-tx_redteami_1hjgi901qh52x1-stroke" data-item-order="1000000000" data-item-id="tx_redteami_1hjgi901qh52x1" data-item-class="Label Stroke" data-item-index="none" data-renderer-id="0" transform="translate(416, 170.1298828125)"></g><g id="g-root-tx_experien_me86781qh6h36-stroke" data-item-order="1000000000" data-item-id="tx_experien_me86781qh6h36" data-item-class="Label Stroke" data-item-index="none" data-renderer-id="0" transform="translate(650, 173.1298828125)"></g><g id="g-root-phon_13yn1wk1qgv7ka-stroke" data-item-order="1000000000" data-item-id="phon_13yn1wk1qgv7ka" data-item-class="Icon Stroke" data-item-index="none" data-renderer-id="0" transform="translate(278, 36)"><g id="phon_13yn1wk1qgv7ka-stroke" fill="none" stroke-linecap="round" stroke-linejoin="round" stroke-miterlimit="4" stroke="#A8DD38" stroke-width="2"><g><path d="M 29.375 34.375L 13.125 34.375M 21.25 36.5625C 21.422588 36.5625 21.5625 36.702412 21.5625 36.875L 21.5625 36.875C 21.5625 37.047588 21.422588 37.1875 21.25 37.1875L 21.25 37.1875C 21.077412 37.1875 20.9375 37.047588 20.9375 36.875L 20.9375 36.875C 20.9375 36.702412 21.077412 36.5625 21.25 36.5625M 21.25 36.5625L 21.25 36.5625M 29.375 30L 29.375 36.875C 29.375 38.255714 28.255713 39.375 26.875 39.375L 15.625 39.375C 14.244288 39.375 13.125 38.255714 13.125 36.875L 13.125 13.125C 13.125 11.744288 14.244288 10.625 15.625 10.625L 21.875 10.625M 25 18.125C 25 18.815355 25.559643 19.375 26.25 19.375C 26.940357 19.375 27.5 18.815355 27.5 18.125C 27.5 17.434645 26.940357 16.875 26.25 16.875C 25.559643 16.875 25 17.434645 25 18.125M 31.25 18.125C 31.25 18.815355 31.809645 19.375 32.5 19.375C 33.190353 19.375 33.75 18.815355 33.75 18.125C 33.75 17.434645 33.190353 16.875 32.5 16.875C 31.809645 16.875 31.25 17.434645 31.25 18.125M 28.125 26.875L 28.125 23.125M 30.625 26.875L 30.625 23.125M 36.875 18.125C 36.875 13.982864 33.517136 10.625 29.375 10.625C 25.232864 10.625 21.875 13.982864 21.875 18.125L 21.875 20.625C 21.875 21.315357 22.434643 21.875 23.125 21.875L 23.31625 21.875C 23.927273 21.875282 24.448544 22.317251 24.54875 22.92L 24.82625 25.83C 24.926456 26.432749 25.447727 26.874718 26.05875 26.875L 32.69125 26.875C 33.302273 26.874718 33.823544 26.432749 33.923752 25.83L 34.201248 22.92C 34.301456 22.317251 34.822727 21.875282 35.43375 21.875L 35.625 21.875C 36.315353 21.875 36.875 21.315357 36.875 20.625Z"></path></g></g></g><g id="g-root-tx_memoryba_1lqjjhg1qh6ivd-stroke" data-item-order="1000000000" data-item-id="tx_memoryba_1lqjjhg1qh6ivd" data-item-class="Label Stroke" data-item-index="none" data-renderer-id="0" transform="translate(62, 206.1298828125)"></g><g id="g-root-hack_18fpi781qh6hai-stroke" data-item-order="1000000000" data-item-id="hack_18fpi781qh6hai" data-item-class="Icon Stroke" data-item-index="none" data-renderer-id="0" transform="translate(308, 203.1298828125)"><g id="hack_18fpi781qh6hai-stroke" fill="none" stroke-linecap="round" stroke-linejoin="round" stroke-miterlimit="4" stroke="#1AC6FF" stroke-width="2"><g><path d="M 21.875 24.375C 25.671957 24.375 28.75 21.296957 28.75 17.5C 28.75 13.703043 25.671957 10.625 21.875 10.625C 18.078043 10.625 15 13.703043 15 17.5C 15 21.296957 18.078043 24.375 21.875 24.375ZM 15.46625 20C 17.375 20.86375 21.184999 21.125 21.875 16.25M 28.283751 20C 26.377501 20.875 22.565001 21.1325 21.875 16.25M 13.75 16.25L 30 16.25M 12.5 31.25L 25.625 31.25M 10.905 35L 23.75 35M 10.625 37.5C 10.623928 33.665485 12.57602 30.09449 15.804349 28.025333C 19.032679 25.956177 23.0926 25.673849 26.57625 27.276251M 39.375 35.625L 28.125 35.625C 29.160534 35.625 30 34.785534 30 33.75L 30 30.625C 30 28.553932 31.678932 26.875002 33.75 26.875002C 35.821068 26.875002 37.5 28.553932 37.5 30.625L 37.5 33.75C 37.5 34.785534 38.339466 35.625 39.375 35.625ZM 35 38.125C 35 38.815353 34.440353 39.375 33.75 39.375C 33.059647 39.375 32.5 38.815353 32.5 38.125"></path></g></g></g><g id="g-root-brai_7r4o41qh6gaz-stroke" data-item-order="1000000000" data-item-id="brai_7r4o41qh6gaz" data-item-class="Icon Stroke" data-item-index="none" data-renderer-id="0" transform="translate(614, 194.1298828125)"><g id="brai_7r4o41qh6gaz-stroke" fill="none" stroke-linecap="round" stroke-linejoin="round" stroke-miterlimit="4" stroke="#44E095" stroke-width="2"><g><path d="M 28.125 14.40375C 28.125774 12.810039 26.98951 11.442582 25.422604 11.151506C 23.8557 10.860431 22.304136 11.728584 21.7325 13.216249C 20.368065 12.821942 18.904594 13.347359 18.102541 14.519482C 17.300488 15.691604 17.340788 17.246014 18.202499 18.375C 17.05374 19.222744 16.580101 20.712883 17.028593 22.068308C 17.477083 23.423733 18.746061 24.337269 20.17375 24.3325L 24.31625 24.3325C 26.41729 24.335955 28.122931 22.63479 28.125 20.533751C 28.125 22.633812 29.827438 24.33625 31.9275 24.33625L 36.07 24.33625C 37.498642 24.340517 38.767918 23.425337 39.215168 22.068502C 39.662422 20.711668 39.18615 19.221106 38.035004 18.375C 38.912464 17.249638 38.961983 15.686179 38.157486 14.507547C 37.352993 13.328916 35.878963 12.805379 34.511253 13.2125C 33.939613 11.724834 32.38805 10.856681 30.821148 11.147757C 29.254242 11.438832 28.117977 12.806289 28.11875 14.4ZM 28.11875 20.533751L 28.11875 13.74125M 31.429998 14.3525L 31.429998 15.015M 10.625 37.583748L 18.395 38.833748C 20.012718 39.058643 21.658806 38.726254 23.0625 37.891251L 31.1975 33.055C 32.335583 32.378128 32.709435 30.906796 32.032501 29.768749L 32.032501 29.768749C 31.354506 28.63413 29.885818 28.262764 28.75 28.938749L 22.3925 32.716251M 10.625 31.345001L 13.925 29.383751C 15.146179 28.657812 16.555017 28.309843 17.973749 28.383749L 21.26 28.555C 21.87195 28.55759 22.456135 28.810713 22.876518 29.255424C 23.296906 29.700134 23.5168 30.297621 23.484999 30.908749L 23.485001 30.908749C 23.426868 32.035477 22.538969 32.942665 21.41375 33.024998L 17.217501 33M 38.035 18.375C 36.719231 17.629633 35.049454 18.061453 34.259998 19.35125M 34.51125 13.216249C 34.786247 13.773904 34.858295 14.409965 34.715 15.014999M 33.355 21.92375C 32.292339 21.92375 31.430691 21.062658 31.429998 20M 24.799999 14.3525L 24.799999 15.015M 18.195 18.375C 19.510389 17.629759 21.179771 18.061619 21.96875 19.35125M 21.71875 13.216249C 21.442822 13.773603 21.370308 14.409852 21.51375 15.015M 22.875 21.92375C 23.937374 21.923061 24.79862 21.062374 24.799999 20"></path></g></g></g><g id="g-root-cu_1uo1yzo1qh6h39-stroke" data-item-order="1000000000" data-item-id="cu_1uo1yzo1qh6h39" data-item-class="Curve Stroke ColorStrokeBlack" data-item-index="none" data-renderer-id="0" transform="translate(350, 218.1298828125)"><g id="cu_1uo1yzo1qh6h39-stroke" fill="none" stroke-linecap="round" stroke-linejoin="round" stroke-miterlimit="4" stroke="#666666" stroke-width="2" stroke-dasharray="5.0, 7.0"><g><path d="M 46 10L 28 10L 10 10"></path></g></g></g><g id="g-root-cu_mbpx6v1ruoz5s-stroke" data-item-order="1000000000" data-item-id="cu_mbpx6v1ruoz5s" data-item-class="Curve Stroke ColorStrokeBlack" data-item-index="none" data-renderer-id="0" transform="translate(566, 209.1298828125)"><g id="cu_mbpx6v1ruoz5s-stroke" fill="none" stroke-linecap="round" stroke-linejoin="round" stroke-miterlimit="4" stroke="#666666" stroke-width="2" stroke-dasharray="5.0, 7.0"><g><path d="M 46 10L 28 10L 10 10"></path></g></g></g><g id="g-root-cu_dfgvok1qh6hvm-stroke" data-item-order="1000000000" data-item-id="cu_dfgvok1qh6hvm" data-item-class="Curve Stroke ColorStrokeBlack" data-item-index="none" data-renderer-id="0" transform="translate(311.375, 245.1298828125)"><g id="cu_dfgvok1qh6hvm-stroke" fill="none" stroke-linecap="round" stroke-linejoin="round" stroke-miterlimit="4" stroke="#666666" stroke-width="2" stroke-dasharray="5.0, 7.0"><g><path d="M 24.6 10L 24.6 15.3L 24.6 40C 24.599999 46.627415 19.227417 51.999998 12.6 51.999998L 12.5 52L 10 52"></path></g></g></g><g id="g-root-tx_memoryex_1cw5hes1qgpngr-stroke" data-item-order="1000000000" data-item-id="tx_memoryex_1cw5hes1qgpngr" data-item-class="Label Stroke" data-item-index="none" data-renderer-id="0" transform="translate(2, 275.1298828125)"></g><g id="g-root-cu_mb3vxg1qh6gb1-stroke" data-item-order="1000000000" data-item-id="cu_mb3vxg1qh6gb1" data-item-class="Curve Stroke ColorStrokeBlack" data-item-index="none" data-renderer-id="0" transform="translate(614, 263.1298828125)"><g id="cu_mb3vxg1qh6gb1-stroke" fill="none" stroke-linecap="round" stroke-linejoin="round" stroke-miterlimit="4" stroke="#666666" stroke-width="2" stroke-dasharray="5.0, 7.0"><g><path d="M 10 10L 10 16L 10 46C 10.000001 52.627416 15.372584 57.999999 22.000001 57.999999L 22.1 58L 28 58"></path></g></g></g><g id="g-root-tx_texttoim_4hbz381qgpnnt-stroke" data-item-order="1000000000" data-item-id="tx_texttoim_4hbz381qgpnnt" data-item-class="Label Stroke" data-item-index="none" data-renderer-id="0" transform="translate(638, 299.1298828125)"></g><g id="g-root-tx_jailbrea_qssq5g1qh29zf-stroke" data-item-order="1000000000" data-item-id="tx_jailbrea_qssq5g1qh29zf" data-item-class="Label Stroke" data-item-index="none" data-renderer-id="0" transform="translate(650, 23.1298828125)"></g></g></g></svg>