<?xml version="1.0" encoding="utf-8" standalone="yes"?>
<!DOCTYPE svg PUBLIC "-//W3C//DTD SVG 1.1//EN" "http://www.w3.org/Graphics/SVG/1.1/DTD/svg11.dtd">
<svg width="787" height="361" viewBox="0 0 787 361" style="fill:none;stroke:none;fill-rule:evenodd;clip-rule:evenodd;stroke-linecap:round;stroke-linejoin:round;stroke-miterlimit:1.5;" version="1.1" xmlns="http://www.w3.org/2000/svg" xmlns:xlink="http://www.w3.org/1999/xlink"><style id="fontImports">@import url("https://fonts.googleapis.com/css2?family=Roboto:wght@400;700&amp;display=block");</style><g id="items" style="isolation: isolate"><g id="blend" style="mix-blend-mode:normal"><g id="g-root-3.cu_sy_zk2i3vhsiznt-fill" data-item-order="999928488" data-item-id="3.cu_sy_zk2i3vhsiznt" data-item-class="Part Indexed Fill Stroke" data-item-index="3" data-renderer-id="0" transform="translate(423.24462890625, 156.7158203125)"></g><g id="g-root-2.cu_sy_m8lzqjhsj18q-fill" data-item-order="999928492" data-item-id="2.cu_sy_m8lzqjhsj18q" data-item-class="Part Indexed Fill Stroke" data-item-index="2" data-renderer-id="0" transform="translate(289.0224609375, 128)"></g><g id="g-root-1.cu_sy_8xrygbhsiznv-fill" data-item-order="999928496" data-item-id="1.cu_sy_8xrygbhsiznv" data-item-class="Part Indexed Indexed_1 Fill Stroke" data-item-index="1" data-renderer-id="0" transform="translate(188, 156.6083984375)"></g><g id="g-root-tx_reportin_1q6zsbvhspzpk-fill" data-item-order="1000000000" data-item-id="tx_reportin_1q6zsbvhspzpk" data-item-class="Label Stroke Indexed" data-item-index="2" data-renderer-id="0" transform="translate(338, 2)"><g id="tx_reportin_1q6zsbvhspzpk-fill" stroke="none" fill="#A8DD38"><g><text style="font: bold 20px Roboto, sans-serif; white-space: pre;" font-weight="bold" font-size="20px" font-family="Roboto, sans-serif"><tspan x="16.07" y="34" dominant-baseline="ideographic">Rapport</tspan></text></g></g></g><g id="g-root-tx_analyzin_1qf3ygbhsom4t-fill" data-item-order="1000000000" data-item-id="tx_analyzin_1qf3ygbhsom4t" data-item-class="Label Stroke Indexed ColorFillGray ColorStrokeGray" data-item-index="2" data-renderer-id="0" transform="translate(296, 38)"><g id="tx_analyzin_1qf3ygbhsom4t-fill" stroke="none" fill="#A3A3A3"><g><text style="font: 15px Roboto, sans-serif; white-space: pre;" font-size="15px" font-family="Roboto, sans-serif"><tspan x="12.58" y="28" dominant-baseline="ideographic">Analyse et synthèse des </tspan><tspan x="63.8" y="46" dominant-baseline="ideographic">résultats</tspan></text></g></g></g><g id="g-root-tx_recordke_1cvj9yjhsq1ah-fill" data-item-order="1000000000" data-item-id="tx_recordke_1cvj9yjhsq1ah" data-item-class="Label Stroke Indexed Indexed_1" data-item-index="1" data-renderer-id="0" transform="translate(20, 134)"><g id="tx_recordke_1cvj9yjhsq1ah-fill" stroke="none" fill="#44E095"><g><text style="font: bold 20px Roboto, sans-serif; white-space: pre;" font-weight="bold" font-size="20px" font-family="Roboto, sans-serif"><tspan x="17.5" y="34" dominant-baseline="ideographic">Prise de notes</tspan></text></g></g></g><g id="g-root-tx_clientbr_hs6a0bhspzwn-fill" data-item-order="1000000000" data-item-id="tx_clientbr_hs6a0bhspzwn" data-item-class="Label Stroke Indexed" data-item-index="3" data-renderer-id="0" transform="translate(572.076171875, 134)"><g id="tx_clientbr_hs6a0bhspzwn-fill" stroke="none" fill="#1AC6FF"><g><text style="font: bold 20px Roboto, sans-serif; white-space: pre;" font-weight="bold" font-size="20px" font-family="Roboto, sans-serif"><tspan x="13.66" y="34" dominant-baseline="ideographic">Compte-rendu client</tspan></text></g></g></g><g id="g-root-tx_maintain_zittezhsq0pa-fill" data-item-order="1000000000" data-item-id="tx_maintain_zittezhsq0pa" data-item-class="Label Stroke Indexed Indexed_1 ColorFillGray ColorStrokeGray" data-item-index="1" data-renderer-id="0" transform="translate(2, 170)"><g id="tx_maintain_zittezhsq0pa-fill" stroke="none" fill="#A3A3A3"><g><text style="font: 15px Roboto, sans-serif; white-space: pre;" font-size="15px" font-family="Roboto, sans-serif"><tspan x="17.54" y="28" dominant-baseline="ideographic">Prise de notes détaillées </tspan><tspan x="57.01" y="46" dominant-baseline="ideographic">des activités</tspan></text></g></g></g><g id="g-root-news_zpoy7fhsx24r-fill" data-item-order="1000000000" data-item-id="news_zpoy7fhsx24r" data-item-class="Icon Stroke Indexed InsideFill InsideColorFill" data-item-index="2" data-renderer-id="0" transform="translate(356, 164)"></g><g id="g-root-tx_conducti_i0ag4rhsombw-fill" data-item-order="1000000000" data-item-id="tx_conducti_i0ag4rhsombw" data-item-class="Label Stroke Indexed ColorFillGray ColorStrokeGray" data-item-index="3" data-renderer-id="0" transform="translate(584, 170)"><g id="tx_conducti_i0ag4rhsombw-fill" stroke="none" fill="#A3A3A3"><g><text style="font: 15px Roboto, sans-serif; white-space: pre;" font-size="15px" font-family="Roboto, sans-serif"><tspan x="23.09" y="31" dominant-baseline="ideographic">Comptes-rendus des </tspan><tspan x="13.98" y="49" dominant-baseline="ideographic">découvertes et réponse </tspan><tspan x="45.55" y="67" dominant-baseline="ideographic">aux questions</tspan></text></g></g></g><g id="g-root-book_145igbvhske0y-fill" data-item-order="1000000000" data-item-id="book_145igbvhske0y" data-item-class="Icon Stroke Indexed Indexed_1 InsideFill InsideColorFill" data-item-index="1" data-renderer-id="0" transform="translate(236, 225)"></g><g id="g-root-assi_18mkzsbhsombv-fill" data-item-order="1000000000" data-item-id="assi_18mkzsbhsombv" data-item-class="Icon Stroke Indexed InsideFill InsideColorFill" data-item-index="3" data-renderer-id="0" transform="translate(476, 225)"></g><g id="g-root-3_qqb0a3hske0x-fill" data-item-order="1000000000" data-item-id="3_qqb0a3hske0x" data-item-class="Icon Stroke Title ColorStrokeGray" data-item-index="none" data-renderer-id="0" transform="translate(344, 266)"></g><g id="g-root-3.cu_sy_zk2i3vhsiznt-stroke" data-item-order="999928488" data-item-id="3.cu_sy_zk2i3vhsiznt" data-item-class="Part Indexed Fill Stroke" data-item-index="3" data-renderer-id="0" transform="translate(423.24462890625, 156.7158203125)"><g id="3.cu_sy_zk2i3vhsiznt-stroke" fill="none" stroke-linecap="round" stroke-linejoin="round" stroke-miterlimit="4" stroke="#1AC6FF" stroke-width="2"><g><path d="M 43.4205 167.5521L 158.5852 167.6114C 156.6529 101.0174 120.8107 42.9252 67.7238 10L 10 109.8618C 28.7255 122.7267 41.5151 143.6063 43.4205 167.5521Z"></path></g></g></g><g id="g-root-2.cu_sy_m8lzqjhsj18q-stroke" data-item-order="999928492" data-item-id="2.cu_sy_m8lzqjhsj18q" data-item-class="Part Indexed Fill Stroke" data-item-index="2" data-renderer-id="0" transform="translate(289.0224609375, 128)"><g id="2.cu_sy_m8lzqjhsj18q-stroke" fill="none" stroke-linecap="round" stroke-linejoin="round" stroke-miterlimit="4" stroke="#A8DD38" stroke-width="2"><g><path d="M 134.248 132.7676L 191.9581 32.9296C 164.8595 18.3024 133.8441 10 100.8897 10C 68.0077 10 37.0563 18.2659 10 32.8333L 67.3912 132.356C 77.403 127.6378 88.5883 125 100.3897 125C 112.5301 125 124.0184 127.7915 134.248 132.7676Z"></path></g></g></g><g id="g-root-1.cu_sy_8xrygbhsiznv-stroke" data-item-order="999928496" data-item-id="1.cu_sy_8xrygbhsiznv" data-item-class="Part Indexed Indexed_1 Fill Stroke" data-item-index="1" data-renderer-id="0" transform="translate(188, 156.6083984375)"><g id="1.cu_sy_8xrygbhsiznv-stroke" fill="none" stroke-linecap="round" stroke-linejoin="round" stroke-miterlimit="4" stroke="#44E095" stroke-width="2"><g><path d="M 124.1653 167.5795C 126.1196 143.3324 139.2345 122.2365 158.368 109.4339L 101.0281 10C 47.8989 42.8738 11.9995 100.9373 10 167.5207L 124.1653 167.5795Z"></path></g></g></g><g id="g-root-tx_reportin_1q6zsbvhspzpk-stroke" data-item-order="1000000000" data-item-id="tx_reportin_1q6zsbvhspzpk" data-item-class="Label Stroke Indexed" data-item-index="2" data-renderer-id="0" transform="translate(338, 2)"></g><g id="g-root-tx_analyzin_1qf3ygbhsom4t-stroke" data-item-order="1000000000" data-item-id="tx_analyzin_1qf3ygbhsom4t" data-item-class="Label Stroke Indexed ColorFillGray ColorStrokeGray" data-item-index="2" data-renderer-id="0" transform="translate(296, 38)"></g><g id="g-root-tx_recordke_1cvj9yjhsq1ah-stroke" data-item-order="1000000000" data-item-id="tx_recordke_1cvj9yjhsq1ah" data-item-class="Label Stroke Indexed Indexed_1" data-item-index="1" data-renderer-id="0" transform="translate(20, 134)"></g><g id="g-root-tx_clientbr_hs6a0bhspzwn-stroke" data-item-order="1000000000" data-item-id="tx_clientbr_hs6a0bhspzwn" data-item-class="Label Stroke Indexed" data-item-index="3" data-renderer-id="0" transform="translate(572.076171875, 134)"></g><g id="g-root-tx_maintain_zittezhsq0pa-stroke" data-item-order="1000000000" data-item-id="tx_maintain_zittezhsq0pa" data-item-class="Label Stroke Indexed Indexed_1 ColorFillGray ColorStrokeGray" data-item-index="1" data-renderer-id="0" transform="translate(2, 170)"></g><g id="g-root-news_zpoy7fhsx24r-stroke" data-item-order="1000000000" data-item-id="news_zpoy7fhsx24r" data-item-class="Icon Stroke Indexed InsideFill InsideColorFill" data-item-index="2" data-renderer-id="0" transform="translate(356, 164)"><g id="news_zpoy7fhsx24r-stroke" fill="none" stroke-linecap="round" stroke-linejoin="round" stroke-miterlimit="4" stroke="#A8DD38" stroke-width="2"><g><path d="M 37 48C 37.245308 50.8918 38.283363 53.659943 40 55.999996L 28 56C 29.716635 53.659943 30.754688 50.8918 30.999998 47.999996ZM 25 56L 43 56M 11 42L 57 42M 13 12L 55 12C 55 12 57 12 57 14L 57 46C 57 46 57 48 55 48L 13 48C 13 48 11 48 11 46L 11 14C 11 14 11 12 13 12M 25 38L 25 42M 34.799999 42C 33.853615 37.339352 29.755764 33.989975 25 33.989975C 20.244236 33.989975 16.146385 37.339352 15.200001 42M 18.959999 20.439999C 21.150082 22.721088 24.177757 24.007309 27.34 24C 28.940964 24.005489 30.526356 23.685688 32 23.060001M 18 24C 18 27.865993 21.134007 31 25 31C 28.865993 31 32 27.865993 32 24C 32 20.134007 28.865993 17 25 17C 21.134007 17 18 20.134007 18 24M 39 18L 51 18C 51 18 53 18 53 20L 53 26C 53 26 53 28 51 28L 39 28C 39 28 37 28 37 26L 37 20C 37 20 37 18 39 18"></path></g></g></g><g id="g-root-tx_conducti_i0ag4rhsombw-stroke" data-item-order="1000000000" data-item-id="tx_conducti_i0ag4rhsombw" data-item-class="Label Stroke Indexed ColorFillGray ColorStrokeGray" data-item-index="3" data-renderer-id="0" transform="translate(584, 170)"></g><g id="g-root-book_145igbvhske0y-stroke" data-item-order="1000000000" data-item-id="book_145igbvhske0y" data-item-class="Icon Stroke Indexed Indexed_1 InsideFill InsideColorFill" data-item-index="1" data-renderer-id="0" transform="translate(236, 225)"><g id="book_145igbvhske0y-stroke" fill="none" stroke-linecap="round" stroke-linejoin="round" stroke-miterlimit="4" stroke="#44E095" stroke-width="2"><g><path d="M 26 55C 26 56.104568 25.104568 57 24 57L 13 57C 11.895431 57 11 56.104568 11 55L 11 13C 11 11.895431 11.895431 11 13 11L 24 11C 25.104568 11 26 11.895431 26 13ZM 21 38C 21 38.552284 20.552284 39 20 39L 16 39C 15.447716 39 15 38.552284 15 38L 15 16C 15 15.447716 15.447716 15 16 15L 20 15C 20.552284 15 21 15.447716 21 16ZM 15 21L 21 21M 42 55C 42 56.104568 41.104568 57 40 57L 28 57C 26.89543 57 26 56.104568 26 55L 26 13C 26 11.895431 26.89543 11 28 11L 40 11C 41.104568 11 42 11.895431 42 13ZM 37 38C 37 38.552284 36.552284 39 36 39L 32 39C 31.447716 39 31 38.552284 31 38L 31 16C 31 15.447716 31.447716 15 32 15L 36 15C 36.552284 15 37 15.447716 37 16ZM 31 21L 37 21M 57 55C 57 56.104568 56.104568 57 55 57L 44 57C 42.895432 57 42 56.104568 42 55L 42 13C 42 11.895431 42.895432 11 44 11L 55 11C 56.104568 11 57 11.895431 57 13ZM 53 38C 53 38.552284 52.552284 39 52 39L 48 39C 47.447716 39 47 38.552284 47 38L 47 16C 47 15.447716 47.447716 15 48 15L 52 15C 52.552284 15 53 15.447716 53 16ZM 47 21L 53 21M 15 48C 15 49.656857 16.343145 51 18 51C 19.656855 51 21 49.656857 21 48C 21 46.343147 19.656855 45 18 45C 16.343145 45 15 46.343147 15 48ZM 31 48C 31 49.656857 32.343147 51 34 51C 35.656853 51 37 49.656857 37 48C 37 46.343147 35.656853 45 34 45C 32.343147 45 31 46.343147 31 48ZM 47 48C 47 49.656857 48.343147 51 50 51C 51.656857 51 53 49.656857 53 48C 53 46.343147 51.656857 45 50 45C 48.343147 45 47 46.343147 47 48Z"></path></g></g></g><g id="g-root-assi_18mkzsbhsombv-stroke" data-item-order="1000000000" data-item-id="assi_18mkzsbhsombv" data-item-class="Icon Stroke Indexed InsideFill InsideColorFill" data-item-index="3" data-renderer-id="0" transform="translate(476, 225)"><g id="assi_18mkzsbhsombv-stroke" fill="none" stroke-linecap="round" stroke-linejoin="round" stroke-miterlimit="4" stroke="#1AC6FF" stroke-width="2"><g><path d="M 28.632 45.396C 28.631388 48.361095 31.034903 50.76511 34 50.76511C 36.965096 50.76511 39.368614 48.361095 39.368 45.396C 39.368614 42.430901 36.965096 40.02689 34 40.02689C 31.034903 40.02689 28.631388 42.430901 28.632 45.396M 41.669998 56.900002C 40.158646 54.068169 37.2099 52.2995 34 52.2995C 30.7901 52.2995 27.841356 54.068169 26.33 56.900002M 44.212002 45.396C 44.211388 48.361095 46.614902 50.76511 49.579998 50.76511C 52.545097 50.76511 54.948612 48.361095 54.947998 45.396C 54.948612 42.430901 52.545097 40.02689 49.579998 40.02689C 46.614902 40.02689 44.211388 42.430901 44.211998 45.396M 57 56.138C 55.202232 53.59993 52.232258 52.156391 49.125824 52.310799C 46.01939 52.46521 43.207211 54.196159 41.669998 56.899998M 13.052 45.396C 13.051388 48.361095 15.454903 50.76511 18.42 50.76511C 21.385098 50.76511 23.788612 48.361095 23.788 45.396C 23.788612 42.430901 21.385098 40.02689 18.42 40.02689C 15.454903 40.02689 13.051388 42.430901 13.052 45.396M 11 56.138C 12.797768 53.59993 15.767741 52.156391 18.874174 52.310799C 21.980608 52.46521 24.792789 54.196159 26.33 56.899998M 55.743999 24.726L 45.344002 35.125999L 40.23 36.148003L 41.251999 31.035999L 51.652 20.636C 52.778206 19.510122 54.603798 19.510122 55.73 20.636L 55.742001 20.647999C 56.28392 21.188044 56.588692 21.92152 56.589069 22.686584C 56.589443 23.451651 56.285389 24.185425 55.743999 24.726ZM 47.414001 15.596001L 42.273998 11.1L 17.732 11.1L 17.732 34.108002M 23.868 21.836L 25.911999 23.882L 30.002001 19.792M 23.868 32.062L 25.911999 34.108002L 30.002001 30.016001M 35.115997 22.858L 38.183998 22.858M 42.273998 30.016001L 46.363998 34.108002M 14.268 42C 16.776192 44.495247 20.266575 45.74181 23.788 45.400002M 29.848 42C 32.356342 44.494999 35.846611 45.741524 39.367996 45.399998M 45.428001 42C 47.936962 44.495327 51.427975 45.741856 54.950001 45.400002"></path></g></g></g><g id="g-root-3_qqb0a3hske0x-stroke" data-item-order="1000000000" data-item-id="3_qqb0a3hske0x" data-item-class="Icon Stroke Title ColorStrokeGray" data-item-index="none" data-renderer-id="0" transform="translate(344, 266)"><g id="3_qqb0a3hske0x-stroke" fill="none" stroke-linecap="round" stroke-linejoin="round" stroke-miterlimit="4" stroke="#A3A3A3" stroke-width="2"><g><path d="M 26.5 35.5C 26.5 37.156857 27.843145 38.5 29.5 38.5L 35.5 38.5L 44.5 47.5L 44.5 38.5L 68.5 38.5C 70.156853 38.5 71.5 37.156857 71.5 35.5L 71.5 14.5C 71.5 12.843145 70.156853 11.5 68.5 11.5L 29.5 11.5C 27.843145 11.5 26.5 12.843145 26.5 14.5ZM 18.25 54.25C 18.25 57.977921 21.272078 61 25 61C 28.727921 61 31.75 57.977921 31.75 54.25C 31.75 50.522079 28.727921 47.5 25 47.5C 21.272078 47.5 18.25 50.522079 18.25 54.25M 34.510002 67.809998C 30.928883 64.423813 25.821547 63.188873 21.088957 64.564842C 16.356365 65.940811 12.707318 69.721603 11.5 74.5M 60.25 54.25C 60.25 57.977921 63.272076 61 67 61C 70.727921 61 73.75 57.977921 73.75 54.25C 73.75 50.522079 70.727921 47.5 67 47.5C 63.272076 47.5 60.25 50.522079 60.25 54.25M 57.489998 67.809998C 61.071121 64.423813 66.178459 63.188873 70.911049 64.564842C 75.643639 65.940811 79.292679 69.721603 80.5 74.5M 39.25 60.25C 39.25 63.977924 42.272079 67 46 67C 49.727921 67 52.75 63.977924 52.75 60.25C 52.75 56.522079 49.727921 53.5 46 53.5C 42.272079 53.5 39.25 56.522079 39.25 60.25M 59.5 80.5C 57.899971 74.354118 52.35075 70.064613 46 70.064613C 39.64925 70.064613 34.100029 74.354118 32.5 80.5M 58 19L 64 25L 58 31M 40 19L 34 25L 40 31M 52 19L 46 31"></path></g></g></g></g></g></svg>