<?xml version="1.0" encoding="utf-8" standalone="yes"?>
<!DOCTYPE svg PUBLIC "-//W3C//DTD SVG 1.1//EN" "http://www.w3.org/Graphics/SVG/1.1/DTD/svg11.dtd">
<svg width="720" height="378" viewBox="0 0 720 378" style="fill:none;stroke:none;fill-rule:evenodd;clip-rule:evenodd;stroke-linecap:round;stroke-linejoin:round;stroke-miterlimit:1.5;" version="1.1" xmlns="http://www.w3.org/2000/svg" xmlns:xlink="http://www.w3.org/1999/xlink"><style id="fontImports">@import url("https://fonts.googleapis.com/css2?family=Roboto:wght@400;700&amp;display=block");</style><g id="items" style="isolation: isolate"><g id="blend" style="mix-blend-mode:normal"><g id="g-root-4.cu_sy_1q6yqjflooikn-fill" data-item-order="999829325" data-item-id="4.cu_sy_1q6yqjflooikn" data-item-class="Part Indexed Fill Stroke" data-item-index="4" data-renderer-id="0" transform="translate(531.309814453125, 3)"></g><g id="g-root-4.cu_1_sy_zko6vvlooiko-fill" data-item-order="999829327" data-item-id="4.cu_1_sy_zko6vvlooiko" data-item-class="Part Indexed Fill Stroke ColorFillBlack ColorStrokeBlack" data-item-index="4" data-renderer-id="0" transform="translate(572.1494140625, 187.7001953125)"></g><g id="g-root-3.cu_sy_m97oijlook5l-fill" data-item-order="999829331" data-item-id="3.cu_sy_m97oijlook5l" data-item-class="Part Indexed Fill Stroke" data-item-index="3" data-renderer-id="0" transform="translate(376.8690185546875, 48.234375)"></g><g id="g-root-3.cu_1_sy_hte6e3lookxu-fill" data-item-order="999829333" data-item-id="3.cu_1_sy_hte6e3lookxu" data-item-class="Part Indexed Fill Stroke ColorFillBlack ColorStrokeBlack" data-item-index="3" data-renderer-id="0" transform="translate(392.1484375, 187.7001953125)"></g><g id="g-root-2.cu_sy_4ik53vloojcz-fill" data-item-order="999829337" data-item-id="2.cu_sy_4ik53vloojcz" data-item-class="Part Indexed Fill Stroke" data-item-index="2" data-renderer-id="0" transform="translate(221.16775512695312, 96.5966796875)"></g><g id="g-root-2.cu_1_sy_1uo16u3loojyk-fill" data-item-order="999829339" data-item-id="2.cu_1_sy_1uo16u3loojyk" data-item-class="Part Indexed Fill Stroke ColorFillBlack ColorStrokeBlack" data-item-index="2" data-renderer-id="0" transform="translate(212.1494140625, 187.7001953125)"></g><g id="g-root-1.cu_sy_1hckogrlooljh-fill" data-item-order="999829343" data-item-id="1.cu_sy_1hckogrlooljh" data-item-class="Part Indexed Indexed_1 Fill Stroke" data-item-index="1" data-renderer-id="0" transform="translate(39.18135070800781, 148.494140625)"></g><g id="g-root-1.cu_1_sy_zlx523lookqu-fill" data-item-order="999829345" data-item-id="1.cu_1_sy_zlx523lookqu" data-item-class="Part Indexed Indexed_1 Fill Stroke ColorFillBlack ColorStrokeBlack" data-item-index="1" data-renderer-id="0" transform="translate(32.1494140625, 187.7001953125)"></g><g id="g-root-chip_146qsijlox0jp-fill" data-item-order="1000000000" data-item-id="chip_146qsijlox0jp" data-item-class="Icon Stroke Indexed Indexed_1 InsideFill InsideColorFill InsideBlackFill" data-item-index="1" data-renderer-id="0" transform="translate(56, 211.7001953125)"></g><g id="g-root-chec_dfgd0blowz63-fill" data-item-order="1000000000" data-item-id="chec_dfgd0blowz63" data-item-class="Icon Stroke Indexed InsideFill InsideColorFill InsideBlackFill" data-item-index="2" data-renderer-id="0" transform="translate(236, 211.7001953125)"></g><g id="g-root-assi_qrjcgrlodbev-fill" data-item-order="1000000000" data-item-id="assi_qrjcgrlodbev" data-item-class="Icon Stroke Indexed InsideFill InsideColorFill InsideBlackFill" data-item-index="3" data-renderer-id="0" transform="translate(416, 211.7001953125)"></g><g id="g-root-knig_145hkuzlossug-fill" data-item-order="1000000000" data-item-id="knig_145hkuzlossug" data-item-class="Icon Stroke Indexed InsideFill InsideColorFill InsideBlackFill" data-item-index="4" data-renderer-id="0" transform="translate(596, 211.7001953125)"></g><g id="g-root-tx_understa_znskbfloojr6-fill" data-item-order="1000000000" data-item-id="tx_understa_znskbfloojr6" data-item-class="Label Stroke Indexed Indexed_1 ColorStrokeGray" data-item-index="1" data-renderer-id="0" transform="translate(2, 283.7001953125)"><g id="tx_understa_znskbfloojr6-fill" stroke="none" fill="#A3A3A3"><g><text style="font: 20px Roboto, sans-serif; white-space: pre;" font-size="20px" font-family="Roboto, sans-serif"><tspan x="14.4" y="34" dominant-baseline="ideographic">Comprendre le </tspan><tspan x="22.65" y="58" dominant-baseline="ideographic">système d'IA</tspan></text></g></g></g><g id="g-root-tx_identify_1cymllnloolc1-fill" data-item-order="1000000000" data-item-id="tx_identify_1cymllnloolc1" data-item-class="Label Stroke Indexed ColorStrokeGray" data-item-index="2" data-renderer-id="0" transform="translate(164, 283.7001953125)"><g id="tx_identify_1cymllnloolc1-fill" stroke="none" fill="#A3A3A3"><g><text style="font: 20px Roboto, sans-serif; white-space: pre;" font-size="20px" font-family="Roboto, sans-serif"><tspan x="44.23" y="34" dominant-baseline="ideographic">Identifier les </tspan><tspan x="13.31" y="58" dominant-baseline="ideographic">éléments à prendre </tspan><tspan x="51.52" y="82" dominant-baseline="ideographic">en compte</tspan></text></g></g></g><g id="g-root-tx_brainsto_1upwm3flooiyw-fill" data-item-order="1000000000" data-item-id="tx_brainsto_1upwm3flooiyw" data-item-class="Label Stroke Indexed ColorStrokeGray" data-item-index="3" data-renderer-id="0" transform="translate(362, 283.7001953125)"><g id="tx_brainsto_1upwm3flooiyw-fill" stroke="none" fill="#A3A3A3"><g><text style="font: 20px Roboto, sans-serif; white-space: pre;" font-size="20px" font-family="Roboto, sans-serif"><tspan x="14.05" y="34" dominant-baseline="ideographic">Réfléchir à des </tspan><tspan x="36.2" y="58" dominant-baseline="ideographic">scénarios</tspan></text></g></g></g><g id="g-root-tx_developa_mb33rvlooj5z-fill" data-item-order="1000000000" data-item-id="tx_developa_mb33rvlooj5z" data-item-class="Label Stroke Indexed ColorStrokeGray" data-item-index="4" data-renderer-id="0" transform="translate(554, 283.7001953125)"><g id="tx_developa_mb33rvlooj5z-fill" stroke="none" fill="#A3A3A3"><g><text style="font: 20px Roboto, sans-serif; white-space: pre;" font-size="20px" font-family="Roboto, sans-serif"><tspan x="13.3" y="34" dominant-baseline="ideographic">Élaborer des </tspan><tspan x="25.38" y="58" dominant-baseline="ideographic">scénarios </tspan><tspan x="27.66" y="82" dominant-baseline="ideographic">d'attaque</tspan></text></g></g></g><g id="g-root-4.cu_sy_1q6yqjflooikn-stroke" data-item-order="999829325" data-item-id="4.cu_sy_1q6yqjflooikn" data-item-class="Part Indexed Fill Stroke" data-item-index="4" data-renderer-id="0" transform="translate(531.309814453125, 3)"><g id="4.cu_sy_1q6yqjflooikn-stroke" fill="none" stroke-linecap="round" stroke-linejoin="round" stroke-miterlimit="4" stroke="#A8DD38" stroke-width="2"><g><path d="M 77.928833 80.160805C 84.769471 71.868538 84.805726 59.808311 76.177063 52.690147C 63.227295 42.007332 38.280518 44.870194 35.570984 45.218048C 35.744507 47.944359 37.676331 72.9804 50.626099 83.663231C 59.254761 90.78138 71.088196 88.453072 77.928833 80.160805ZM 77.9292 80.1605L 40.377686 49.182686M 43.93396 59.947304C 46.112915 58.981117 51.937317 59.179573 55.178467 61.392769C 52.389527 58.63134 51.087403 52.950966 51.621827 50.627998M 48.121399 69.390251C 51.490113 67.292 59.703492 65.938896 63.675965 68.403008C 60.501526 64.971489 60.268677 56.650597 61.688233 52.944405M 54.53479 78.36602C 58.785645 75.694786 69.118897 73.922737 74.091126 76.994835C 70.129761 72.69738 69.905091 62.215645 71.719544 57.534554M 109.270752 140.337791C 114.19159 136.390327 121.268738 136.46592 125.376282 141.586296C 131.540894 149.271034 129.660645 163.88662 129.434693 165.473824C 127.836304 165.350105 113.160828 164.015404 106.996155 156.330681C 102.888672 151.210304 104.349915 144.285255 109.270752 140.337791ZM 109.270691 140.336876L 125.36792 160.403389M 116.817994 158.884209C 117.968018 157.092842 118.75409 152.69767 117.461609 150.549004C 119.278809 152.276726 123.739869 152.4627 125.738038 151.728584M 110.787415 153.691963C 112.237366 151.453072 113.254029 145.976326 111.658082 143.312492C 113.912354 145.448204 119.479126 145.643776 121.979249 144.713936M 104.710328 48.219978C 99.879578 44.162804 98.574463 37.206635 102.796143 32.179962C 109.132142 24.635864 123.833924 23.631676 125.434693 23.543945C 125.624878 25.135826 127.175843 39.790024 120.839844 47.334129C 116.618165 52.360786 109.541138 52.277153 104.710328 48.219978ZM 104.709961 48.219994L 121.254578 28.520699M 121.431397 37.201241C 119.450257 36.422363 114.986145 36.507912 113.130555 38.194389C 114.471009 36.075287 113.783997 31.663536 112.674561 29.846748M 117.5141 44.129952C 115.035584 43.144096 109.465699 43.214317 107.164002 45.298775C 108.819397 42.671516 107.926331 37.173363 106.5271 34.902412M 80.983521 34.676033C 85.81427 30.618858 87.119385 23.662689 82.897706 18.636017C 76.561707 11.091919 61.859925 10.08773 60.259156 10C 60.06897 11.591881 58.518006 26.246079 64.854004 33.790176C 69.075684 38.816849 76.15271 38.733208 80.983521 34.676033ZM 80.983887 34.676048L 64.43927 14.976753M 64.262452 23.657295C 66.243592 22.878418 70.707703 22.963966 72.563294 24.650444C 71.22284 22.531342 71.909852 18.119591 73.019288 16.302803M 68.179749 30.586006C 70.658265 29.600151 76.22815 29.670372 78.529847 31.754829C 76.874451 29.127571 77.767518 23.629417 79.166749 21.358467M 111.716736 109.679314C 106.168885 97.21624 110.221009 82.457191 123.189698 76.684288C 142.652832 68.020378 172.184388 79.994606 175.379395 81.340294C 174.24115 84.614998 163.374939 114.571922 143.911805 123.235817C 130.943177 129.008736 117.264649 122.142387 111.716736 109.679314ZM 111.717041 109.679176L 168.155823 84.555794M 160.150757 96.509651C 157.814576 94.58802 150.625306 92.852394 145.91034 94.45768C 150.258545 92.02845 153.780152 85.52491 153.915772 82.502998M 151.822999 106.633751C 148.416565 102.923821 138.833191 98.479393 133.138733 100.14315C 138.185914 97.025353 141.297059 86.930046 140.820069 81.916084M 140.930909 115.430946C 136.640564 110.720833 124.6073 105.044106 117.484009 107.111748C 123.787476 103.202431 127.622498 90.462044 126.993897 84.121925M 73.662659 133.218376C 79.210511 120.755302 75.158387 105.996254 62.189698 100.223351C 42.726563 91.559441 13.195008 103.533669 10 104.879356C 11.138245 108.15406 22.004456 138.110985 41.467591 146.774879C 54.436219 152.547798 68.114747 145.68145 73.662659 133.218376ZM 73.976624 133.130287L 17.537842 108.006905M 25.544068 119.960823C 27.880249 118.039192 35.069519 116.303566 39.784485 117.908852C 35.43628 115.479622 31.914673 108.976082 31.779053 105.95417M 33.87085 130.083946C 37.277283 126.374016 46.860657 121.929588 52.555115 123.593346C 47.507935 120.475548 44.39679 110.380241 44.87378 105.36628M 44.76294 138.882332C 49.053284 134.172218 61.086548 128.495491 68.209839 130.563133C 61.906373 126.653816 58.071351 113.913429 58.699952 107.573311M 91.322963 58.441989C 91.322963 52.183689 88.717463 41.685589 81.106663 34.715889C 89.274763 41.228289 93.999263 51.797389 94.450663 62.249789C 95.442563 59.084089 96.917663 54.376989 104.588963 48.260689C 98.547063 56.162289 94.602163 65.849989 94.602163 71.716989L 95.382063 124.005189C 96.793263 120.748289 101.983763 113.542989 112.066363 109.621989C 101.952663 115.743389 95.602963 128.719289 95.532263 134.076689L 95.602963 138.815989C 96.924663 135.632789 102.562863 131.641989 109.820763 141.109289C 100.443563 130.962889 95.761163 143.584889 95.761163 149.419189L 96.436563 194.700389L 89.283463 194.700389L 89.858563 156.281489C 89.858563 150.228389 83.079063 138.793489 73.628663 133.073589C 83.075263 136.747189 88.227463 143.303989 90.000563 146.795189L 90.627263 104.922589C 90.627263 98.856589 85.205763 86.130989 77.553663 80.081889C 85.277763 84.005089 89.697063 90.971789 90.787463 94.219089L 91.322963 58.441989Z"></path></g></g></g><g id="g-root-4.cu_1_sy_zko6vvlooiko-stroke" data-item-order="999829327" data-item-id="4.cu_1_sy_zko6vvlooiko" data-item-class="Part Indexed Fill Stroke ColorFillBlack ColorStrokeBlack" data-item-index="4" data-renderer-id="0" transform="translate(572.1494140625, 187.7001953125)"><g id="4.cu_1_sy_zko6vvlooiko-stroke" fill="none" stroke-linecap="round" stroke-linejoin="round" stroke-miterlimit="4" stroke="#666666" stroke-width="2"><g><path d="M 10.0865 13.3142C 9.6373 11.631 10.9943 10 12.844 10L 90.8563 10C 92.706 10 94.063 11.631 93.6139 13.3142L 91.8349 19.9809C 91.5182 21.1676 90.3814 22 89.0774 22L 14.623 22C 13.3189 22 12.1821 21.1676 11.8655 19.9809L 10.0865 13.3142ZM 15.735352 22L 87.369352 22L 77.592952 79.7212C 77.327152 81.0462 76.160552 82 74.805552 82L 28.299152 82C 26.944152 82 25.777452 81.0462 25.511752 79.7212L 15.735352 22Z"></path></g></g></g><g id="g-root-3.cu_sy_m97oijlook5l-stroke" data-item-order="999829331" data-item-id="3.cu_sy_m97oijlook5l" data-item-class="Part Indexed Fill Stroke" data-item-index="3" data-renderer-id="0" transform="translate(376.8690185546875, 48.234375)"><g id="3.cu_sy_m97oijlook5l-stroke" fill="none" stroke-linecap="round" stroke-linejoin="round" stroke-miterlimit="4" stroke="#44E095" stroke-width="2"><g><path d="M 81.902069 78.986985C 75.061432 70.694718 75.025147 58.634491 83.653839 51.516327C 96.603638 40.833512 121.550354 43.696366 124.259918 44.044236C 124.086395 46.770539 122.154602 71.80658 109.204804 82.489411C 100.576111 89.60756 88.742706 87.279251 81.902069 78.986985ZM 81.901672 78.986679L 119.453217 48.008866M 115.896942 58.773484C 113.717987 57.807297 107.893616 58.005753 104.652435 60.218949C 107.441345 57.45752 108.743469 51.777146 108.209076 49.454178M 111.709534 68.216431C 108.34079 66.11818 100.127411 64.765076 96.154938 67.229187C 99.329346 63.797669 99.562256 55.476777 98.14267 51.770585M 105.296112 77.192185C 101.045319 74.520951 90.712036 72.748902 85.739807 75.821C 89.701172 71.523545 89.925812 61.041809 88.111389 56.360718M 52.35788 59.798508C 59.198517 51.506241 59.234802 39.446015 50.60611 32.327851C 37.656311 21.645035 12.709595 24.507889 10 24.855759C 10.173584 27.582062 12.105347 52.618103 25.055145 63.300934C 33.683838 70.419083 45.517243 68.090775 52.35788 59.798508ZM 52.358276 59.798203L 14.806732 28.820389M 18.248749 39.585007C 20.427704 38.618821 26.252075 38.817276 29.493256 41.030472C 26.704346 38.269043 25.402222 32.588669 25.936615 30.265702M 22.436157 49.027954C 25.804901 46.929703 34.01828 45.5766 37.990753 48.040711C 34.816345 44.609192 34.583435 36.2883 36.003021 32.582108M 28.850525 58.003724C 33.101318 55.332489 43.434601 53.56044 48.40683 56.632538C 44.445465 52.335083 44.220825 41.853348 46.035248 37.172257M 51.387299 95.102448C 46.466461 91.154984 39.389313 91.230576 35.281799 96.350953C 29.117157 104.035691 30.997406 118.651276 31.223328 120.23848C 32.821747 120.114762 47.497223 118.78006 53.661865 111.095337C 57.769409 105.974961 56.308136 99.049912 51.387299 95.102448ZM 51.387421 95.102646L 35.290192 115.169159M 43.840088 113.648865C 42.690033 111.857499 41.903961 107.462326 43.196472 105.31366C 41.379242 107.041382 36.918182 107.227356 34.920014 106.493241M 49.870636 108.45662C 48.420654 106.217728 47.404022 100.740982 48.999939 98.077149C 46.745697 100.212861 41.178894 100.408432 38.678803 99.478592M 78.847412 34.676041C 74.016602 30.618866 72.711517 23.66269 76.933197 18.636032C 83.269165 11.091935 97.970947 10.087738 99.571747 10C 99.761902 11.591889 101.312897 26.246079 94.976929 33.790192C 90.755249 38.816849 83.678192 38.733216 78.847412 34.676041ZM 78.846985 34.676056L 95.391602 14.976761M 95.568451 23.65828C 93.587311 22.879395 89.1232 22.964951 87.267639 24.651429C 88.608063 22.532319 87.921082 18.120575 86.811615 16.303788M 91.651184 30.586014C 89.172638 29.600159 83.602783 29.67038 81.301056 31.754837C 82.956482 29.127579 82.063416 23.629425 80.664154 21.358475M 68.670382 60.242416C 68.670382 50.042516 72.089782 42.089316 78.723482 34.727616C 69.362682 42.788616 65.372582 50.855016 65.372582 63.304816L 65.220282 73.870216C 64.137182 70.628516 59.716482 63.648616 51.982182 59.720216C 59.656582 65.787016 65.065382 78.325516 65.065382 84.614116L 64.937282 93.501816C 63.564482 90.331016 58.043282 86.476316 50.837982 95.874916C 59.899682 86.070016 64.791782 97.715616 64.791782 103.595616L 64.130482 149.465816L 69.862182 149.465816L 69.208982 103.721816C 69.208982 97.476216 74.636782 84.948116 82.277682 78.907916C 74.581782 82.816816 70.166682 89.746916 69.055982 93.009316L 68.670382 60.242416Z"></path></g></g></g><g id="g-root-3.cu_1_sy_hte6e3lookxu-stroke" data-item-order="999829333" data-item-id="3.cu_1_sy_hte6e3lookxu" data-item-class="Part Indexed Fill Stroke ColorFillBlack ColorStrokeBlack" data-item-index="3" data-renderer-id="0" transform="translate(392.1484375, 187.7001953125)"><g id="3.cu_1_sy_hte6e3lookxu-stroke" fill="none" stroke-linecap="round" stroke-linejoin="round" stroke-miterlimit="4" stroke="#666666" stroke-width="2"><g><path d="M 10.086501 13.3142C 9.6373 11.631 10.994301 10 12.844 10L 90.8563 10C 92.706001 10 94.063 11.631 93.613901 13.3142L 91.834901 19.9809C 91.5182 21.1676 90.3814 22 89.077401 22L 14.623 22C 13.3189 22 12.1821 21.1676 11.8655 19.9809L 10.086501 13.3142ZM 15.836914 22L 87.470914 22L 77.694515 79.7212C 77.428715 81.0462 76.262115 82 74.907114 82L 28.400714 82C 27.045714 82 25.879014 81.0462 25.613315 79.7212L 15.836914 22Z"></path></g></g></g><g id="g-root-2.cu_sy_4ik53vloojcz-stroke" data-item-order="999829337" data-item-id="2.cu_sy_4ik53vloojcz" data-item-class="Part Indexed Fill Stroke" data-item-index="2" data-renderer-id="0" transform="translate(221.16775512695312, 96.5966796875)"><g id="2.cu_sy_4ik53vloojcz-stroke" fill="none" stroke-linecap="round" stroke-linejoin="round" stroke-miterlimit="4" stroke="#1AC6FF" stroke-width="2"><g><path d="M 57.099457 45.548294C 50.25882 37.256027 50.222534 25.1958 58.851227 18.077636C 71.801026 7.394821 96.747742 10.257675 99.457337 10.605545C 99.283753 13.331848 97.35199 38.367889 84.402191 49.05072C 75.773499 56.168869 63.940094 53.840561 57.099457 45.548294ZM 57.09906 45.547989L 94.650604 14.570175M 91.09433 25.334793C 88.915375 24.368606 83.091004 24.567062 79.849823 26.780258C 82.638733 24.018829 83.940857 18.338455 83.406464 16.015487M 86.906922 34.77774C 83.538178 32.679489 75.324799 31.326385 71.352326 33.790497C 74.526734 30.358978 74.759644 22.038086 73.340058 18.331894M 80.4935 43.753494C 76.242706 41.08226 65.909424 39.310211 60.937195 42.382309C 64.89856 38.084854 65.1232 27.603119 63.308777 22.922027M 31.027649 57.824264C 35.85846 53.76709 37.163544 46.810913 32.941864 41.784256C 26.605896 34.240158 11.904099 33.235962 10.303299 33.148224C 10.113144 34.740112 8.562164 49.394302 14.898148 56.938415C 19.119827 61.965072 26.196869 61.881439 31.027649 57.824264ZM 31.028046 57.824279L 14.483444 38.124984M 14.30661 46.806503C 16.287766 46.027618 20.751862 46.113174 22.607437 47.799652C 21.266983 45.680542 21.953995 41.268799 23.063446 39.452011M 18.223877 53.734237C 20.702423 52.748382 26.272278 52.818603 28.574005 54.903061C 26.918579 52.275802 27.811646 46.777649 29.210907 44.506698M 57.47496 45.469589C 50.02096 51.362089 44.49366 61.969489 44.49366 69.824589L 45.05946 101.103789L 40.74906 101.103789L 40.91526 78.435689C 41.01466 72.047789 36.67036 64.001889 31.15036 57.876189C 38.49966 64.205089 40.41016 67.978789 41.45666 70.046289C 43.37256 59.271689 47.10786 50.735189 57.47496 45.469589Z"></path></g></g></g><g id="g-root-2.cu_1_sy_1uo16u3loojyk-stroke" data-item-order="999829339" data-item-id="2.cu_1_sy_1uo16u3loojyk" data-item-class="Part Indexed Fill Stroke ColorFillBlack ColorStrokeBlack" data-item-index="2" data-renderer-id="0" transform="translate(212.1494140625, 187.7001953125)"><g id="2.cu_1_sy_1uo16u3loojyk-stroke" fill="none" stroke-linecap="round" stroke-linejoin="round" stroke-miterlimit="4" stroke="#666666" stroke-width="2"><g><path d="M 10.0865 13.3142C 9.6373 11.631 10.9943 10 12.844 10L 90.8563 10C 92.706 10 94.063 11.631 93.6139 13.3142L 91.8349 19.9809C 91.5182 21.1676 90.3814 22 89.0774 22L 14.623 22C 13.3189 22 12.1821 21.1676 11.8655 19.9809L 10.0865 13.3142ZM 15.836914 22L 87.470914 22L 77.694514 79.7212C 77.428714 81.0462 76.262114 82 74.907114 82L 28.400714 82C 27.045714 82 25.879014 81.0462 25.613314 79.7212L 15.836914 22Z"></path></g></g></g><g id="g-root-1.cu_sy_1hckogrlooljh-stroke" data-item-order="999829343" data-item-id="1.cu_sy_1hckogrlooljh" data-item-class="Part Indexed Indexed_1 Fill Stroke" data-item-index="1" data-renderer-id="0" transform="translate(39.18135070800781, 148.494140625)"><g id="1.cu_sy_1hckogrlooljh-stroke" fill="none" stroke-linecap="round" stroke-linejoin="round" stroke-miterlimit="4" stroke="#4F92FF" stroke-width="2"><g><path d="M 58.517131 16.041931C 59.625003 11.907288 63.527233 9.108185 67.829563 10.260987C 74.286579 11.99115 79.123912 20.74202 79.637294 21.701065C 78.713192 22.274842 70.148479 27.434754 63.691455 25.704605C 59.389125 24.551789 57.409252 20.176575 58.517131 16.041931ZM 58.517597 16.04155L 75.378215 20.559342M 69.802387 21.921585C 69.738597 20.896958 68.790485 18.963593 67.674999 18.496781C 68.874446 18.650238 70.66222 17.449951 71.22977 16.594498M 64.32423 21.050873C 64.252056 19.812607 63.126873 17.479477 61.795703 16.919678C 63.228458 17.100357 65.369426 15.642502 66.051067 14.606217M 31.120159 16.041931C 30.012287 11.907288 26.110057 9.108185 21.807727 10.260987C 15.350711 11.99115 10.513374 20.74202 10 21.701065C 10.924095 22.274842 19.488811 27.434754 25.945835 25.704605C 30.248165 24.551789 32.228038 20.176575 31.120159 16.041931ZM 31.119693 16.04155L 14.259075 20.559342M 19.834903 21.921585C 19.898693 20.896958 20.846805 18.963593 21.962291 18.496781C 20.762844 18.650238 18.97507 17.449951 18.40752 16.594498M 25.31306 21.050873C 25.385234 19.812607 26.510417 17.479477 27.841587 16.919678C 26.408832 17.100357 24.267864 15.642502 23.586223 14.606217M 44.819115 21.557595C 43.418515 18.374095 38.784015 13.708795 30.753215 16.207695C 38.990515 14.507895 43.462715 22.591595 43.462715 26.873295L 43.310015 48.452495L 46.199215 48.452495L 46.175615 26.873295C 46.199215 22.134495 50.647815 14.507895 58.885115 16.207695C 50.854315 13.708795 46.219815 18.374095 44.819115 21.557595Z"></path></g></g></g><g id="g-root-1.cu_1_sy_zlx523lookqu-stroke" data-item-order="999829345" data-item-id="1.cu_1_sy_zlx523lookqu" data-item-class="Part Indexed Indexed_1 Fill Stroke ColorFillBlack ColorStrokeBlack" data-item-index="1" data-renderer-id="0" transform="translate(32.1494140625, 187.7001953125)"><g id="1.cu_1_sy_zlx523lookqu-stroke" fill="none" stroke-linecap="round" stroke-linejoin="round" stroke-miterlimit="4" stroke="#666666" stroke-width="2"><g><path d="M 10.086504 13.3142C 9.637304 11.631 10.994304 10 12.844004 10L 90.856304 10C 92.706004 10 94.063004 11.631 93.613904 13.3142L 91.834904 19.9809C 91.518204 21.1676 90.381404 22 89.077404 22L 14.623004 22C 13.318904 22 12.182104 21.1676 11.865504 19.9809L 10.086504 13.3142ZM 15.836918 22L 87.470918 22L 77.694518 79.7212C 77.428718 81.0462 76.262118 82 74.907118 82L 28.400718 82C 27.045718 82 25.879018 81.0462 25.613318 79.7212L 15.836918 22Z"></path></g></g></g><g id="g-root-chip_146qsijlox0jp-stroke" data-item-order="1000000000" data-item-id="chip_146qsijlox0jp" data-item-class="Icon Stroke Indexed Indexed_1 InsideFill InsideColorFill InsideBlackFill" data-item-index="1" data-renderer-id="0" transform="translate(56, 211.7001953125)"><g id="chip_146qsijlox0jp-stroke" fill="none" stroke-linecap="round" stroke-linejoin="round" stroke-miterlimit="4" stroke="#4F92FF" stroke-width="2"><g><path d="M 23.7085 16.579C 25.161127 16.089195 26.010798 14.583023 25.678745 13.086435C 25.346693 11.589848 23.939753 10.584355 22.416283 10.754868C 20.892813 10.925379 19.742975 12.217034 19.75 13.75C 19.754065 14.020776 19.794939 14.289742 19.8715 14.5495C 19.705 14.5345 19.5445 14.5 19.375 14.5C 17.232437 14.48954 15.271848 15.702943 14.325418 17.62517C 13.378987 19.547396 13.612757 21.841215 14.9275 23.533001C 12.579105 23.694111 10.756458 25.646086 10.756458 28C 10.756458 30.353914 12.579105 32.305889 14.9275 32.466999C 13.612757 34.158783 13.378987 36.452602 14.325418 38.374832C 15.271848 40.297058 17.232437 41.51046 19.375 41.5C 19.5445 41.5 19.705 41.4655 19.8715 41.4505C 19.425758 43.027332 20.327715 44.670101 21.897406 45.140369C 23.467094 45.610634 25.123728 44.734394 25.618404 43.172226C 26.113081 41.610054 25.26277 39.939968 23.7085 39.421001M 32.2915 16.579C 30.838873 16.089195 29.989202 14.583023 30.321255 13.086435C 30.653307 11.589848 32.060249 10.584355 33.583717 10.754868C 35.107185 10.925379 36.257027 12.217034 36.25 13.75C 36.245934 14.020776 36.205059 14.289742 36.128502 14.5495C 36.295002 14.5345 36.455498 14.5 36.625 14.5C 38.767563 14.48954 40.728153 15.702943 41.674583 17.62517C 42.62101 19.547396 42.387245 21.841215 41.072502 23.533001C 43.420895 23.694111 45.243542 25.646086 45.243542 28C 45.243542 30.353914 43.420895 32.305889 41.072502 32.466999C 42.387245 34.158783 42.62101 36.452602 41.674583 38.374832C 40.728153 40.297058 38.767563 41.51046 36.625 41.5C 36.455498 41.5 36.295002 41.4655 36.128502 41.4505C 36.574242 43.027332 35.672287 44.670101 34.102596 45.140369C 32.532906 45.610634 30.876272 44.734394 30.381596 43.172226C 29.886919 41.610054 30.73723 39.939968 32.2915 39.421001M 25.75 13.6C 27.142305 12.796152 28.857697 12.796152 30.25 13.6M 30.25 42.400002C 28.857697 43.20385 27.142305 43.20385 25.75 42.400002M 23.5 22L 32.5 22C 32.5 22 34 22 34 23.5L 34 32.5C 34 32.5 34 34 32.5 34L 23.5 34C 23.5 34 22 34 22 32.5L 22 23.5C 22 23.5 22 22 23.5 22M 25 19L 25 22M 31 19L 31 22M 19 31L 22 31M 19 25L 22 25M 31 37L 31 34M 25 37L 25 34M 37 25L 34 25M 37 31L 34 31"></path></g></g></g><g id="g-root-chec_dfgd0blowz63-stroke" data-item-order="1000000000" data-item-id="chec_dfgd0blowz63" data-item-class="Icon Stroke Indexed InsideFill InsideColorFill InsideBlackFill" data-item-index="2" data-renderer-id="0" transform="translate(236, 211.7001953125)"><g id="chec_dfgd0blowz63-stroke" fill="none" stroke-linecap="round" stroke-linejoin="round" stroke-miterlimit="4" stroke="#1AC6FF" stroke-width="2"><g><path d="M 34.42857 13.857142L 38.285713 13.857142C 39.705875 13.857142 40.857143 15.00841 40.857143 16.428572L 40.857143 42.142857C 40.857143 43.563019 39.705875 44.714287 38.285713 44.714287L 17.714285 44.714287C 16.294125 44.714287 15.142857 43.563019 15.142857 42.142857L 15.142857 16.428572C 15.142857 15.00841 16.294125 13.857142 17.714285 13.857142L 21.571428 13.857142M 24.142857 11.285714L 31.857143 11.285714C 31.857143 11.285714 34.42857 11.285714 34.42857 13.857142L 34.42857 15.142857C 34.42857 15.142857 34.42857 17.714285 31.857143 17.714285L 24.142857 17.714285C 24.142857 17.714285 21.571428 17.714285 21.571428 15.142857L 21.571428 13.857142C 21.571428 13.857142 21.571428 11.285714 24.142857 11.285714M 21.571428 31.857143L 26.714285 35.714287L 33.142857 25.428572"></path></g></g></g><g id="g-root-assi_qrjcgrlodbev-stroke" data-item-order="1000000000" data-item-id="assi_qrjcgrlodbev" data-item-class="Icon Stroke Indexed InsideFill InsideColorFill InsideBlackFill" data-item-index="3" data-renderer-id="0" transform="translate(416, 211.7001953125)"><g id="assi_qrjcgrlodbev-stroke" fill="none" stroke-linecap="round" stroke-linejoin="round" stroke-miterlimit="4" stroke="#44E095" stroke-width="2"><g><path d="M 23.973999 36.547001C 23.973541 38.770821 25.776176 40.573833 28 40.573833C 30.223824 40.573833 32.026459 38.770821 32.026001 36.547001C 32.026459 34.323174 30.223824 32.520168 28 32.520168C 25.776176 32.520168 23.973541 34.323174 23.973999 36.547001M 33.752499 45.175003C 32.618984 43.051125 30.407427 41.724625 28 41.724625C 25.592575 41.724625 23.381018 43.051125 22.247499 45.175003M 35.659 36.547001C 35.658539 38.770821 37.461178 40.573833 39.684998 40.573833C 41.908821 40.573833 43.71146 38.770821 43.710999 36.547001C 43.71146 34.323174 41.908821 32.520168 39.684998 32.520168C 37.461178 32.520168 35.658539 34.323174 35.658997 36.547001M 45.25 44.6035C 43.901672 42.699947 41.674194 41.617294 39.344368 41.733101C 37.014542 41.848907 34.905407 43.147118 33.752499 45.174999M 12.289 36.547001C 12.288541 38.770821 14.091177 40.573833 16.315001 40.573833C 18.538822 40.573833 20.341459 38.770821 20.341 36.547001C 20.341459 34.323174 18.538822 32.520168 16.315001 32.520168C 14.091177 32.520168 12.288541 34.323174 12.289 36.547001M 10.75 44.6035C 12.098326 42.699947 14.325806 41.617294 16.65563 41.733101C 18.985456 41.848907 21.094591 43.147118 22.247499 45.174999M 44.307999 21.0445L 36.508003 28.8445L 32.672501 29.611L 33.438999 25.777L 41.238998 17.976999C 42.083656 17.132591 43.45285 17.132591 44.297501 17.976999L 44.306499 17.986C 44.71294 18.391033 44.941521 18.941139 44.941803 19.514938C 44.942081 20.088737 44.714043 20.639069 44.307999 21.0445ZM 38.060501 14.197001L 34.205498 10.825L 15.799 10.825L 15.799 28.080999M 20.401001 18.877001L 21.934 20.411499L 25.001501 17.344M 20.401001 26.546501L 21.934 28.080999L 25.001501 25.012001M 28.837 19.643499L 31.138 19.643499M 34.205498 25.012001L 37.272999 28.080999M 13.201 34C 15.082143 35.871437 17.699932 36.806358 20.341 36.550003M 24.886 34C 26.767258 35.87125 29.384956 36.806145 32.025997 36.549999M 36.570999 34C 38.452721 35.871494 41.07098 36.806393 43.712502 36.550003"></path></g></g></g><g id="g-root-knig_145hkuzlossug-stroke" data-item-order="1000000000" data-item-id="knig_145hkuzlossug" data-item-class="Icon Stroke Indexed InsideFill InsideColorFill InsideBlackFill" data-item-index="4" data-renderer-id="0" transform="translate(596, 211.7001953125)"><g id="knig_145hkuzlossug-stroke" fill="none" stroke-linecap="round" stroke-linejoin="round" stroke-miterlimit="4" stroke="#A8DD38" stroke-width="2"><g><path d="M 37.75 12.25L 42.25 12.25C 43.078426 12.25 43.75 12.921573 43.75 13.75L 43.75 42.25C 43.75 43.078426 43.078426 43.75 42.25 43.75L 31.75 43.75M 27.25 45.25L 27.25 37.75L 21.25 37.75L 21.25 28.75L 25.75 28.75L 25.75 21.25L 30.25 21.25L 30.25 10.75M 25.75 15.25L 30.25 10.75L 34.703499 15.25M 16.75 12.25L 16.75 19.75M 12.25 24.25L 21.25 24.25L 21.25 18.25M 24.25 33.25L 31.75 33.25L 31.75 39.25M 16.75 28.75L 16.75 40.75L 22.75 40.75L 22.75 43.75L 13.75 43.75C 12.921573 43.75 12.25 43.078426 12.25 42.25L 12.25 13.75C 12.25 12.921573 12.921573 12.25 13.75 12.25L 22.75 12.25M 36.25 43.75L 36.25 30.25L 39.25 30.25M 43.75 39.25L 40.75 39.25M 43.75 34.75L 40.75 34.75M 43.75 25.75L 30.25 25.75L 30.25 28.75M 34.75 25.75L 34.75 18.25L 39.25 18.25L 39.25 21.25"></path></g></g></g><g id="g-root-tx_understa_znskbfloojr6-stroke" data-item-order="1000000000" data-item-id="tx_understa_znskbfloojr6" data-item-class="Label Stroke Indexed Indexed_1 ColorStrokeGray" data-item-index="1" data-renderer-id="0" transform="translate(2, 283.7001953125)"></g><g id="g-root-tx_identify_1cymllnloolc1-stroke" data-item-order="1000000000" data-item-id="tx_identify_1cymllnloolc1" data-item-class="Label Stroke Indexed ColorStrokeGray" data-item-index="2" data-renderer-id="0" transform="translate(164, 283.7001953125)"></g><g id="g-root-tx_brainsto_1upwm3flooiyw-stroke" data-item-order="1000000000" data-item-id="tx_brainsto_1upwm3flooiyw" data-item-class="Label Stroke Indexed ColorStrokeGray" data-item-index="3" data-renderer-id="0" transform="translate(362, 283.7001953125)"></g><g id="g-root-tx_developa_mb33rvlooj5z-stroke" data-item-order="1000000000" data-item-id="tx_developa_mb33rvlooj5z" data-item-class="Label Stroke Indexed ColorStrokeGray" data-item-index="4" data-renderer-id="0" transform="translate(554, 283.7001953125)"></g></g></g></svg>