<?xml version="1.0" encoding="utf-8" standalone="yes"?>
<!DOCTYPE svg PUBLIC "-//W3C//DTD SVG 1.1//EN" "http://www.w3.org/Graphics/SVG/1.1/DTD/svg11.dtd">
<svg width="696" height="458" viewBox="0 0 696 458" style="fill:none;stroke:none;fill-rule:evenodd;clip-rule:evenodd;stroke-linecap:round;stroke-linejoin:round;stroke-miterlimit:1.5;" version="1.1" xmlns="http://www.w3.org/2000/svg" xmlns:xlink="http://www.w3.org/1999/xlink"><style id="fontImports">@import url("https://fonts.googleapis.com/css2?family=Roboto:wght@400;700&amp;display=block");</style><g id="items" style="isolation: isolate"><g id="blend" style="mix-blend-mode:normal"><g id="g-root-0.cu_sy_8vvqpf1izd7gp-fill" data-item-order="999891782" data-item-id="0.cu_sy_8vvqpf1izd7gp" data-item-class="Part Indexed_0 Fill Stroke ColorFillBlack ColorStrokeBlack" data-item-index="0" data-renderer-id="0" transform="translate(150, 128)"></g><g id="g-root-1.cu_sy_1q5ps6r1izd9mq-fill" data-item-order="999891786" data-item-id="1.cu_sy_1q5ps6r1izd9mq" data-item-class="Part Indexed Indexed_1 Fill Stroke" data-item-index="1" data-renderer-id="0" transform="translate(285.8818359375, 242)"></g><g id="g-root-tx_grayboxt_dcy7031izd8ul-fill" data-item-order="1000000000" data-item-id="tx_grayboxt_dcy7031izd8ul" data-item-class="Label Stroke Indexed ColorStrokeGray" data-item-index="2" data-renderer-id="0" transform="translate(278, 2)"><g id="tx_grayboxt_dcy7031izd8ul-fill" stroke="none" fill="#A3A3A3"><g><text style="font: bold 20px Roboto, sans-serif; white-space: pre;" font-weight="bold" font-size="20px" font-family="Roboto, sans-serif"><tspan x="17.23" y="33.47" dominant-baseline="ideographic">Gray-box</tspan></text></g></g></g><g id="g-root-tx_blackbox_magmib1izd729-fill" data-item-order="1000000000" data-item-id="tx_blackbox_magmib1izd729" data-item-class="Label Stroke Indexed Indexed_1" data-item-index="1" data-renderer-id="0" transform="translate(86, 26)"><g id="tx_blackbox_magmib1izd729-fill" stroke="none" fill="#000000"><g><text style="font: bold 20px Roboto, sans-serif; white-space: pre;" font-weight="bold" font-size="20px" font-family="Roboto, sans-serif"><tspan x="12.9" y="33.47" dominant-baseline="ideographic">Black-box</tspan></text></g></g></g><g id="g-root-tx_bestwhen_zjf8j71izd9ms-fill" data-item-order="1000000000" data-item-id="tx_bestwhen_zjf8j71izd9ms" data-item-class="Label Stroke Indexed ColorFillGray ColorStrokeGray" data-item-index="2" data-renderer-id="0" transform="translate(230, 38)"><g id="tx_bestwhen_zjf8j71izd9ms-fill" stroke="none" fill="#A3A3A3"><g><text style="font: 15px Roboto, sans-serif; white-space: pre;" font-size="15px" font-family="Roboto, sans-serif"><tspan x="43.58" y="45.07" dominant-baseline="ideographic">Optimal lorsqu'une </tspan><tspan x="18.9" y="63.07" dominant-baseline="ideographic">connaissance partielle est </tspan><tspan x="23.25" y="81.07" dominant-baseline="ideographic">disponible, en équilibrant </tspan><tspan x="14.63" y="99.07" dominant-baseline="ideographic">exhaustivité et adaptabilité.</tspan></text></g></g></g><g id="g-root-tx_whitebox_1hby7771izd9fr-fill" data-item-order="1000000000" data-item-id="tx_whitebox_1hby7771izd9fr" data-item-class="Label Stroke Indexed" data-item-index="3" data-renderer-id="0" transform="translate(470, 26)"><g id="tx_whitebox_1hby7771izd9fr-fill" stroke="none" fill="#E9E9E9"><g><text style="font: bold 20px Roboto, sans-serif; white-space: pre;" font-weight="bold" font-size="20px" font-family="Roboto, sans-serif"><tspan x="12.07" y="33.47" dominant-baseline="ideographic">White-box</tspan></text></g></g></g><g id="g-root-tx_suitable_14145wz1izd7uw-fill" data-item-order="1000000000" data-item-id="tx_suitable_14145wz1izd7uw" data-item-class="Label Stroke Indexed Indexed_1 ColorFillGray ColorStrokeGray" data-item-index="1" data-renderer-id="0" transform="translate(2, 62)"><g id="tx_suitable_14145wz1izd7uw-fill" stroke="none" fill="#A3A3A3"><g><text style="font: 15px Roboto, sans-serif; white-space: pre;" font-size="15px" font-family="Roboto, sans-serif"><tspan x="43.16" y="39.07" dominant-baseline="ideographic">Approprié lorsqu'aucune </tspan><tspan x="35.07" y="57.07" dominant-baseline="ideographic">connaissance préalable du </tspan><tspan x="41.07" y="75.07" dominant-baseline="ideographic">système n'est disponible, </tspan><tspan x="19.71" y="93.07" dominant-baseline="ideographic">garantissant un test non biaisé.</tspan></text></g></g></g><g id="g-root-tx_idealwhe_245pv1izd79q-fill" data-item-order="1000000000" data-item-id="tx_idealwhe_245pv1izd79q" data-item-class="Label Stroke Indexed ColorFillGray ColorStrokeGray" data-item-index="3" data-renderer-id="0" transform="translate(410, 62)"><g id="tx_idealwhe_245pv1izd79q-fill" stroke="none" fill="#A3A3A3"><g><text style="font: 15px Roboto, sans-serif; white-space: pre;" font-size="15px" font-family="Roboto, sans-serif"><tspan x="39.61" y="45.07" dominant-baseline="ideographic">Idéal lorsqu'une connaissance </tspan><tspan x="47.39" y="63.07" dominant-baseline="ideographic">approfondie du système est </tspan><tspan x="32.14" y="81.07" dominant-baseline="ideographic">accessible, permettant des tests </tspan><tspan x="103.53" y="99.07" dominant-baseline="ideographic">exhaustifs.</tspan></text></g></g></g><g id="g-root-0.cu_sy_8vvqpf1izd7gp-stroke" data-item-order="999891782" data-item-id="0.cu_sy_8vvqpf1izd7gp" data-item-class="Part Indexed_0 Fill Stroke ColorFillBlack ColorStrokeBlack" data-item-index="0" data-renderer-id="0" transform="translate(150, 128)"><g id="0.cu_sy_8vvqpf1izd7gp-stroke" fill="none" stroke-linecap="round" stroke-linejoin="round" stroke-miterlimit="4" stroke="#666666" stroke-width="2"><g><path d="M 168.8778 236.7714C 168.8778 237.119 168.8805 237.5302 168.8859 238C 168.9255 241.4884 169.1112 248.2023 169.4282 256C 169.5073 257.9437 169.5944 259.9548 169.6896 262C 169.9461 267.5141 170.2603 273.2766 170.6279 278.6375C 170.659 279.0922 170.6907 279.5465 170.7228 280C 170.8662 282.0246 171.0186 284.0342 171.1754 286C 171.7327 292.99 172.3452 299.4248 172.8057 304L 129 304C 129 245.5419 58.3333 170.7336 10 155.4572L 10 37L 90 37L 113.6096 43L 113.6096 64L 133.4149 70.5L 133.4149 88L 138 88L 138 70.5L 138 64L 138 43L 138 37L 138 16L 138 10L 234 10L 234 16L 234 37L 234 43L 234 64L 234 70.5L 234 88L 238.5851 88L 238.5851 70.5L 258.3904 64L 258.3904 43L 282 37L 362 37L 362 155.4572C 313.6667 170.7336 243 245.5419 243 304L 200.4662 304C 200.9267 299.4248 201.5393 292.99 202.0966 286C 202.2533 284.0342 202.4057 282.0246 202.5491 280C 202.5813 279.5465 202.6129 279.0922 202.6441 278.6375C 203.0116 273.2766 203.3258 267.5141 203.5824 262C 203.6775 259.9548 203.7647 257.9437 203.8437 256C 204.1608 248.2023 204.3464 241.4884 204.3861 238C 204.3914 237.5302 204.3941 237.119 204.3941 236.7714M 168.8778 236.7714C 168.8778 235.0765 168.8778 233.5059 168.8778 232M 168.8778 236.7714L 168.8778 232M 168.8778 222.6827L 168.9673 219.0298L 169.1639 212.2429C 169.2069 210.9714 169.2592 209.5413 169.3235 208C 169.5455 202.6757 169.9103 196.0244 170.5256 190C 170.7323 187.9765 170.9673 186.0237 171.2346 184.2156C 169.5407 185.1847 165.4659 187.5929 161.9251 190C 158.821 192.1102 156.1273 194.2195 155.8079 195.3576C 155.4843 197.1482 157.8132 200.3383 160.2104 203.6219C 161.291 205.1021 162.3855 206.6013 163.2572 208C 163.4244 208.2683 163.5835 208.5329 163.7326 208.7929C 164.1798 209.2833 166.0695 210.3923 167.5157 211.2411C 168.0705 211.5667 168.7486 211.9998 169.0664 212.1992L 168.8778 219.1296C 168.4999 219.5388 166.9981 221.0436 165.7561 220.5601C 165.1243 220.3141 164.0247 219.2736 162.9929 218.1872C 161.6849 216.8101 160.4856 214.3592 160.4856 214.3592C 160.4856 214.3592 160.2689 214.2361 159.8882 214C 158.5836 213.1908 155.3532 211.0544 152.3232 208C 148.7591 204.4072 145.4724 199.5441 145.9235 194.0766C 146.0334 192.7441 146.4556 191.3805 147.1277 190C 148.0912 188.0209 149.5682 186.0069 151.3749 184C 156.1728 178.6702 163.2951 173.3896 169.2969 168.9398C 170.5406 168.0177 171.7363 167.1312 172.8531 166.2874C 172.9871 166.1862 173.1225 166.0906 173.2592 166C 174.1238 165.4269 175.0424 165.0487 176.0038 164.6529C 177.1087 164.198 178.2701 163.7198 179.4712 162.8957C 179.9536 162.5302 180.145 162.0461 180.3267 161.5868C 180.5401 161.0472 180.7399 160.5419 181.3819 160.3037C 181.7032 160.1844 182.1135 160.0711 182.5697 160L 182.5697 154.8891C 179.6198 153.5729 177.4598 150.8175 176.3634 147.3199C 176.2276 147.5458 176.0462 147.7257 175.8203 147.8445C 174.8219 148.3696 173.3319 147.5012 172.4924 145.905C 171.6529 144.3087 171.7818 142.589 172.7803 142.0639C 172.8264 142.0396 172.8735 142.0184 172.9216 142C 173.2414 141.8778 173.6024 141.8844 173.9719 142C 173.252 140.0196 172.8533 137.7212 172.8533 136.0978M 168.8778 222.6827C 168.8779 225.8776 168.8778 228.7917 168.8778 232M 168.8778 222.6827L 168.8778 232M 204.3941 236.7714C 204.3942 235.0674 204.3942 233.5009 204.3942 232M 204.3941 236.7714L 204.3942 232M 204.3941 222.6827C 204.3941 222.6827 204.3352 219.9707 204.1975 215.8959C 204.1771 215.2924 204.155 214.659 204.131 214C 204.0645 212.1662 203.984 210.1348 203.8883 208C 203.6465 202.6086 203.3073 196.5582 202.848 191.369C 202.8077 190.9137 202.7722 190.4571 202.743 190C 202.6146 187.9891 202.6083 185.9683 202.8529 184C 203.1132 181.9057 203.6576 179.8709 204.6414 177.9707C 206.2417 174.8796 208.6113 171.2785 211.9214 168.0226C 212.6153 167.3399 213.2794 166.6661 213.9117 166C 215.8727 163.9342 217.5277 161.9436 218.8197 160C 222.9225 153.8281 223.3644 148.1298 218.3189 142C 216.7165 140.0532 214.5605 138.0629 211.7926 136C 211.0669 135.4591 210.299 134.9132 209.4881 134.3619C 209.0478 134.0625 208.6248 133.7399 208.2086 133.4224C 207.2038 132.6559 206.1387 131.9551 205.0633 131.6484C 202.6384 130.4717 201.1352 125.3313 199.1016 125.3309C 197.8747 125.3307 196.2899 125.2738 194.9526 125.6076C 191.3343 123.3965 186.2854 123.2701 180.9482 126.4679C 175.1221 126.4679 172.8844 131.3447 172.8536 136C 172.8534 136.0209 172.8533 136.0418 172.8533 136.0627M 204.3941 222.6827C 204.3941 225.9478 204.3942 228.8273 204.3942 232M 204.3941 222.6827L 204.3942 232M 207.1427 139.4727C 207.5666 139.8184 206.7485 139.1354 207.1427 139.4727ZM 207.1427 139.4727C 206.7992 139.1927 206.2444 138.8577 205.6288 138.4861C 204.4155 137.7535 202.9661 136.8785 202.4327 136C 202.3569 135.8752 202.33 135.7356 202.2945 135.611C 201.7368 135.4103 201.0271 134.8346 200.2786 134.082C 200.366 134.7031 200.4132 135.3433 200.4174 136C 200.4176 136.0326 200.4177 136.0652 200.4177 136.0978C 200.4177 137.7194 200.0198 140.0146 199.3015 141.9935C 199.6639 141.884 200.0177 141.8801 200.3316 142C 200.3797 142.0184 200.4268 142.0396 200.4729 142.0639C 201.4713 142.589 201.6002 144.3087 200.7607 145.905C 199.9212 147.5012 198.4313 148.3696 197.4328 147.8445C 197.2135 147.7292 197.0361 147.5562 196.9018 147.3396C 195.8033 150.8283 193.6455 153.5761 190.7005 154.8896L 190.7005 160C 191.1569 160.0711 191.5674 160.1844 191.8888 160.3037C 192.5308 160.5419 192.7307 161.0472 192.9442 161.5868C 193.1259 162.0461 193.3175 162.5303 193.7999 162.8957C 194.9495 163.6845 195.4226 163.2787 196.1694 162.6379C 196.989 161.9347 198.1383 160.9487 200.8735 160.9487C 201.6896 160.6317 202.4658 160.3156 203.2029 160C 215.9984 154.5208 216.9957 149.1825 209.8818 142C 209.072 141.1824 208.1572 140.341 207.1427 139.4727ZM 172.8533 136.0978L 172.8533 136.0627M 172.8533 136.0978C 172.8533 136.0861 172.8533 136.0744 172.8533 136.0627M 185.171 236.7714L 188.101 236.7714C 188.101 236.7714 188.1337 237.2065 188.1915 238C 188.3921 240.7532 188.8948 247.821 189.381 256C 189.4969 257.9513 189.612 259.9658 189.7218 262C 190.03 267.7111 190.2966 273.5778 190.426 278.6375C 190.4376 279.0924 190.4486 279.5467 190.459 280C 190.5055 282.0292 190.5397 284.0383 190.5641 286C 190.6512 293.0246 190.6112 299.4415 190.5524 304L 182.7196 304C 182.6607 299.4415 182.6208 293.0246 182.7079 286C 182.7322 284.0383 182.7664 282.0292 182.8129 280C 182.8233 279.5467 182.8343 279.0924 182.8459 278.6375C 182.9753 273.5778 183.242 267.7111 183.5502 262C 183.66 259.9658 183.775 257.9513 183.891 256C 184.3772 247.821 184.8799 240.7532 185.0805 238C 185.1383 237.2065 185.171 236.7714 185.171 236.7714ZM 129 304L 129 286L 126.2459 280L 126.2459 262L 122 256L 122 238L 116.389 232L 116.389 214L 109.5228 208L 109.5228 190L 101.4098 184L 101.4098 166L 92 160L 92 142L 81.1427 136L 81.1427 118L 68.5221 112L 68.5221 94L 53.4149 88L 53.4149 70.5L 33.6096 64L 33.6096 43L 10 37M 243 304L 243 286L 245.7541 280L 245.7541 262L 250 256L 250 238L 255.6111 232L 255.6111 214L 262.4772 208L 262.4772 190L 270.5902 184L 270.5902 166L 280 160L 280 142L 290.8574 136L 290.8574 118L 303.4779 112L 303.4779 94L 318.5851 88L 318.5851 70.5L 338.3904 64L 338.3904 43L 362 37M 129 304L 172.8057 304M 113.6096 43L 33.6096 43M 113.6096 64L 33.6096 64M 133.4149 70.5L 53.4149 70.5M 90 37L 10 37M 122 256L 169.4282 256M 116.389 232L 168.8778 232M 109.5228 208L 152.3232 208M 101.4098 184L 151.3749 184M 92 160L 182.5697 160M 81.1427 136L 172.8536 136M 68.5221 112L 303.4779 112M 138 64L 234 64M 138 43L 234 43M 138 16L 234 16M 138 10L 234 10M 53.4149 88L 133.4149 88L 138 88L 234 88L 238.5851 88L 318.5851 88M 68.5221 94L 303.4779 94M 81.1427 118L 290.8574 118M 92 142L 172.9216 142M 101.4098 166L 173.2592 166M 109.5228 190L 147.1277 190M 116.389 214L 159.8882 214M 122 238L 168.8859 238M 126.2459 262L 169.6896 262M 126.2459 280L 170.7228 280M 129 286L 171.1754 286M 138 70.5L 234 70.5M 138 37L 234 37M 243 304L 200.4662 304M 258.3904 43L 338.3904 43M 258.3904 64L 338.3904 64M 238.5851 70.5L 318.5851 70.5M 282 37L 362 37M 250 256L 203.8437 256M 255.6111 232L 204.3942 232M 262.4772 208L 203.8883 208M 270.5902 184L 202.8529 184M 280 160L 218.8197 160M 290.8574 136L 211.7926 136M 280 142L 218.3189 142M 270.5902 166L 213.9117 166M 262.4772 190L 202.743 190M 255.6111 214L 204.131 214M 250 238L 204.3861 238M 245.7541 262L 203.5824 262M 245.7541 280L 202.5491 280M 243 286L 202.0966 286M 190.7005 160L 203.2029 160M 182.7196 304L 190.5524 304M 182.7079 286L 190.5641 286M 190.459 280L 182.8129 280M 189.7218 262L 183.5502 262M 183.891 256L 189.381 256M 188.1915 238L 185.0805 238M 169.3235 208L 163.2572 208M 161.9251 190L 170.5256 190M 200.4174 136L 202.4327 136M 209.8818 142L 200.3316 142"></path></g></g></g><g id="g-root-1.cu_sy_1q5ps6r1izd9mq-stroke" data-item-order="999891786" data-item-id="1.cu_sy_1q5ps6r1izd9mq" data-item-class="Part Indexed Indexed_1 Fill Stroke" data-item-index="1" data-renderer-id="0" transform="translate(285.8818359375, 242)"><g id="1.cu_sy_1q5ps6r1izd9mq-stroke" fill="none" stroke-linecap="round" stroke-linejoin="round" stroke-miterlimit="4" stroke="#4F92FF" stroke-width="2"><g><path d="M 46.964131 196.890169L 46.964131 201.999469C 46.964131 201.999469 42.869231 203.270969 38.407531 201.999469C 35.675931 202.724569 32.370231 200.999469 32.370231 200.999469L 32.370231 199.890169C 32.370231 197.263169 34.904931 196.453169 36.672931 196.715569C 36.996531 196.763669 37.319731 196.828069 37.644831 196.863669C 37.563931 196.138969 35.843831 180.649469 34.746031 164.637369C 33.621631 148.236969 32.996131 128.077469 32.996031 122.771369C 32.995831 117.465369 33.085631 113.376569 33.085531 108.682069L 33.085531 105.029769C 33.085531 105.029769 31.306931 107.117869 29.874231 106.560069C 29.242431 106.314069 28.142931 105.273569 27.111031 104.187169C 25.803031 102.810069 24.603731 100.359169 24.603731 100.359169C 24.603731 100.359169 9.095231 91.548269 10.041631 80.076569C 10.727731 71.760569 23.576931 62.233869 33.415031 54.939769C 34.658831 54.017669 35.854431 53.131169 36.971331 52.287369C 37.952531 51.546069 39.008531 51.111269 40.121931 50.652869C 41.226831 50.197969 42.388331 49.719769 43.589331 48.895669C 44.071731 48.530169 44.263231 48.046069 44.444831 47.586769C 44.658231 47.047169 44.858031 46.541869 45.500031 46.303669C 45.821331 46.184369 46.231731 46.092269 46.687831 46.021169L 46.687831 40.889069C 43.737931 39.572869 41.578031 36.817469 40.481531 33.319869C 40.345831 33.545769 40.164431 33.725669 39.938531 33.844469C 38.940031 34.369569 37.450131 33.501169 36.610631 31.904969C 35.771131 30.308669 35.900031 28.588969 36.898431 28.063869C 37.251131 27.878369 37.665031 27.866769 38.089931 27.999569C 37.370131 26.019269 36.971431 23.721069 36.971431 22.097769C 36.971431 17.413269 39.199431 12.467869 45.066431 12.467869C 50.378531 9.285069 55.405031 9.395369 59.019731 11.576569C 57.735431 11.820269 56.807731 12.664669 56.472531 13.614269C 55.973531 15.028969 57.163331 16.558169 58.185031 16.418969C 58.631831 16.358069 58.613031 15.442769 58.872331 14.909269C 59.055631 14.532269 59.409831 14.473469 59.921831 14.473469C 61.215831 16.542869 62.780531 18.404169 64.413831 20.207669C 64.756631 22.825469 64.315831 25.524469 63.419631 27.993469C 65.730931 27.295069 65.569231 30.592269 64.878831 31.904969C 64.276031 33.051169 62.095031 35.073069 61.019931 33.339569C 59.921431 36.828269 57.763631 39.576169 54.818631 40.889669L 54.818631 46.021169C 55.275031 46.092269 55.685531 46.184369 56.006831 46.303669C 57.195331 46.744669 56.868831 48.100969 57.918031 48.895669C 60.329331 50.550369 59.764131 46.948669 64.991631 46.948669C 81.587331 40.503369 81.701331 34.408369 71.260831 25.472769C 70.143931 24.562169 66.794331 23.071669 66.382231 21.625769C 65.824431 21.424969 65.145231 20.834569 64.396731 20.081969C 62.643331 18.318869 60.677131 15.584469 59.951131 14.423369C 59.439031 14.423369 58.998531 14.522569 58.815231 14.899469C 58.555831 15.433069 58.631031 16.306169 58.184231 16.367069C 57.162531 16.506269 56.061531 15.019469 56.560631 13.604869C 56.962731 12.465369 57.925931 11.893369 59.070831 11.607569C 60.408031 11.273769 61.992831 11.330669 63.219731 11.330869C 65.253331 11.331269 66.756631 16.471669 69.181531 17.648369C 70.256931 17.955069 71.321931 18.655869 72.326831 19.422369C 72.743031 19.739869 73.165931 20.062469 73.606231 20.361869C 91.304031 32.394769 88.461031 41.803969 76.039531 54.022569C 72.729531 57.278469 70.359931 60.879569 68.759531 63.970669C 66.641031 68.062769 66.560031 72.778869 66.966231 77.368969C 67.672631 85.351269 68.095131 95.371369 68.315631 101.895869C 68.453431 105.970769 68.512331 108.682669 68.512331 108.682669L 68.512331 113.329769L 68.512331 122.771369C 68.512131 128.077469 67.886631 148.236969 66.762331 164.637369C 65.669131 180.583269 63.958631 196.010969 63.864631 196.853969C 64.246531 196.805669 64.626031 196.720069 65.007331 196.667869C 66.737231 196.430869 69.191431 197.332469 69.191431 199.890169L 69.191431 200.999469C 69.191431 200.999469 66.088231 202.633569 63.356631 201.999469C 58.986031 203.453069 54.544231 201.999469 54.544231 201.999469L 54.544231 196.890169C 54.544231 196.890169 54.968531 181.230669 54.544231 164.637369C 54.119831 148.044169 52.219131 122.771369 52.219131 122.771369L 49.289231 122.771369C 49.289231 122.771369 47.388431 148.044169 46.964131 164.637369C 46.539831 181.230669 46.964131 196.890169 46.964131 196.890169ZM 33.282131 98.242869C 33.523431 91.103669 34.059231 78.964869 35.352731 70.215569C 32.173931 72.034269 20.609831 78.921269 19.926131 81.357569C 19.602531 83.148169 21.931331 86.338269 24.328631 89.621869C 25.616531 91.386069 26.924131 93.177169 27.850831 94.792869C 28.298031 95.283269 30.187731 96.392269 31.633931 97.241169C 32.403831 97.692969 33.048031 98.071069 33.282131 98.242869ZM 68.512331 122.771369C 68.512431 119.248169 68.512431 116.312769 68.512331 113.329769C 68.512331 111.820369 68.512331 110.298769 68.512331 108.682669M 71.260831 25.472769C 71.684731 25.818369 70.866631 25.135369 71.260831 25.472769ZM 46.964435 196.889991L 37.648035 196.889991M 41.142835 122.771191C 46.154035 124.041991 49.289435 122.771191 49.289435 122.771191M 54.544435 196.889991L 63.860835 196.889991M 60.366035 122.771191C 55.354835 124.041991 52.219435 122.771191 52.219435 122.771191M 32.996235 108.682491L 68.512535 108.682491L 33.085735 108.681891M 43.589635 48.895391L 57.918335 48.895391M 54.818935 46.020991C 53.498635 45.815291 51.794435 45.785891 50.753335 45.785891C 49.712235 45.785891 48.008235 45.815291 46.688135 46.020991M 33.282435 98.242591C 33.144635 102.317891 33.085735 105.029591 33.085735 105.029591M 27.851035 94.792691L 24.604035 100.358991M 35.353035 70.215391L 35.757235 67.481491M 69.181835 17.648191C 69.181835 17.648191 67.139535 20.629891 66.412935 21.610791M 63.419935 27.993191C 62.908635 29.401591 62.235135 30.649691 61.427135 31.380891C 60.402435 34.571791 58.993635 37.250091 57.476735 37.845591C 55.488035 38.626191 53.195135 39.045791 50.753935 39.045791C 48.312735 39.045791 46.019835 38.626191 44.031135 37.845591C 42.514235 37.250091 41.199935 34.595191 40.080735 31.380891C 39.274035 30.650791 38.601235 29.405191 38.090235 27.999391M 64.397135 20.081791C 62.643735 18.318691 60.677135 15.584491 59.951135 14.423391C 59.439135 14.423391 58.998535 14.522591 58.815235 14.899491C 58.555835 15.432991 58.631035 16.306091 58.184235 16.366991C 57.162535 16.506291 56.061535 15.019491 56.560635 13.604791C 56.962735 12.465391 57.926235 11.893191 59.071035 11.607391"></path></g></g></g><g id="g-root-tx_grayboxt_dcy7031izd8ul-stroke" data-item-order="1000000000" data-item-id="tx_grayboxt_dcy7031izd8ul" data-item-class="Label Stroke Indexed ColorStrokeGray" data-item-index="2" data-renderer-id="0" transform="translate(278, 2)"></g><g id="g-root-tx_blackbox_magmib1izd729-stroke" data-item-order="1000000000" data-item-id="tx_blackbox_magmib1izd729" data-item-class="Label Stroke Indexed Indexed_1" data-item-index="1" data-renderer-id="0" transform="translate(86, 26)"></g><g id="g-root-tx_bestwhen_zjf8j71izd9ms-stroke" data-item-order="1000000000" data-item-id="tx_bestwhen_zjf8j71izd9ms" data-item-class="Label Stroke Indexed ColorFillGray ColorStrokeGray" data-item-index="2" data-renderer-id="0" transform="translate(230, 38)"></g><g id="g-root-tx_whitebox_1hby7771izd9fr-stroke" data-item-order="1000000000" data-item-id="tx_whitebox_1hby7771izd9fr" data-item-class="Label Stroke Indexed" data-item-index="3" data-renderer-id="0" transform="translate(470, 26)"></g><g id="g-root-tx_suitable_14145wz1izd7uw-stroke" data-item-order="1000000000" data-item-id="tx_suitable_14145wz1izd7uw" data-item-class="Label Stroke Indexed Indexed_1 ColorFillGray ColorStrokeGray" data-item-index="1" data-renderer-id="0" transform="translate(2, 62)"></g><g id="g-root-tx_idealwhe_245pv1izd79q-stroke" data-item-order="1000000000" data-item-id="tx_idealwhe_245pv1izd79q" data-item-class="Label Stroke Indexed ColorFillGray ColorStrokeGray" data-item-index="3" data-renderer-id="0" transform="translate(410, 62)"></g></g></g></svg>