<?xml version="1.0" encoding="utf-8" standalone="yes"?>
<!DOCTYPE svg PUBLIC "-//W3C//DTD SVG 1.1//EN" "http://www.w3.org/Graphics/SVG/1.1/DTD/svg11.dtd">
<svg width="1052" height="690" viewBox="0 0 1052 690" style="fill:none;stroke:none;fill-rule:evenodd;clip-rule:evenodd;stroke-linecap:round;stroke-linejoin:round;stroke-miterlimit:1.5;" version="1.1" xmlns="http://www.w3.org/2000/svg" xmlns:xlink="http://www.w3.org/1999/xlink"><style id="fontImports">@import url("https://fonts.googleapis.com/css2?family=Roboto:wght@400;700&amp;display=block");</style><g id="items" style="isolation: isolate"><g id="blend" style="mix-blend-mode:normal"><g id="g-root--1.cu_sy_deu55k1np0q2p-fill" data-item-order="999548813" data-item-id="-1.cu_sy_deu55k1np0q2p" data-item-class="Part Decor Fill Stroke ColorFillBlack ColorStrokeBlack" data-item-index="-1" data-renderer-id="0" transform="translate(392.41925048828125, 133.65625)"><g id="-1.cu_sy_deu55k1np0q2p-fill" stroke="none" fill="#353535"><g><path d="M 68.031334 88.64119L 56.539906 88.64119L 46.380375 81.126053L 33.454819 96.865387L 27.440001 96.865387L 9.999989 118.101959L 70.046806 118.101959L 97.505989 118.101959L 93.077759 112.63427L 87.109169 112.63427L 81.136101 104.598701L 68.031334 88.64119ZM 133.621262 90.851555L 133.621262 10.000051L 122.331299 10.000051L 115.34259 19.49312L 105.127686 23.093784L 81.136131 52.308056L 70.046837 52.308056L 48.813396 78.163811L 57.341164 84.795921L 70.046837 84.795921L 86.309761 104.599106L 95.979599 104.63562L 101.51133 108.683067L 122.315514 108.683067L 133.621262 90.851555ZM 178.755463 118.102425L 187.208374 118.102425L 219.374069 118.102425L 264.802643 118.102425L 249.211777 99.034836L 243.029053 99.034836L 212.485504 60.736923L 205.395111 60.736923L 200.018768 49.158157L 188.291962 49.158157L 168.83696 72.848274L 161.842728 72.848274L 154.858932 78.219429L 154.858932 90.851509L 178.755463 118.102425ZM 168.83696 64.992249L 186.309891 44.370335L 170.449188 10.000051L 154.858932 10.000051L 154.858932 64.992249L 168.83696 64.992249Z"></path></g></g></g><g id="g-root--1.cu_1_sy_403vc1np0ohu-fill" data-item-order="999548815" data-item-id="-1.cu_1_sy_403vc1np0ohu" data-item-class="Part Decor Fill Stroke ColorFillBlack ColorStrokeBlack" data-item-index="-1" data-renderer-id="0" transform="translate(468.96661376953125, 3)"><g id="-1.cu_1_sy_403vc1np0ohu-fill" stroke="none" fill="#353535"><g><path d="M 113.143539 79.587395C 112.629478 79.587395 112.127525 79.535683 111.643852 79.437119C 110.514015 85.142204 106.14238 89.681145 100.528625 91.053833C 100.51207 95.172813 97.167816 98.506836 93.044907 98.506836C 91.842499 98.506836 90.706413 98.223289 89.69973 97.719345C 87.788765 100.298668 84.722816 101.970482 81.266335 101.970482C 80.240379 101.970482 79.248764 101.82325 78.31163 101.548615L 78.31163 92.465279C 77.607216 92.704094 76.869507 92.878456 76.104507 92.980659C 71.708725 93.567581 67.559196 91.616768 65.132256 88.257042C 64.113777 88.968536 62.914509 89.453758 61.597988 89.629532C 59.992535 89.843857 58.434578 89.568512 57.074726 88.918449L 57.074726 102.366959C 54.098618 100.804031 51.713181 98.268425 50.340916 95.182732C 49.339203 95.680397 48.210072 95.960197 47.015686 95.960197C 42.99234 95.960197 39.710625 92.785355 39.539013 88.804298C 38.566822 89.002739 37.560478 89.106865 36.529705 89.106865C 28.263321 89.106865 21.562183 82.405731 21.562183 74.139328C 21.562183 73.911644 21.567217 73.685074 21.577347 73.459824C 18.191124 73.071739 15.491961 70.423607 15.026171 67.06176C 12.070008 65.790367 10 62.851807 10 59.429745C 10 54.843552 13.717862 51.125698 18.304028 51.125698C 19.125546 51.125698 19.919302 51.245007 20.668741 51.467228C 21.185116 47.837925 24.305414 45.047211 28.077505 45.047211C 28.932005 45.047211 29.753092 45.190395 30.518003 45.454208C 30.919836 44.315681 31.512737 43.267418 32.258038 42.347668C 31.134775 41.242634 30.438358 39.705303 30.438358 38.005154C 30.438358 34.640972 33.165531 31.913807 36.529705 31.913807C 37.246471 31.913807 37.934364 32.037567 38.572998 32.26495C 38.569263 32.148373 38.56744 32.031292 38.56744 31.913807C 38.56744 25.991558 43.368359 21.190632 49.290504 21.190632C 49.914162 21.190632 50.52528 21.24386 51.119694 21.346066C 52.109455 16.58147 56.331249 13.001243 61.38932 13.001243C 62.154137 13.001243 62.899933 13.083108 63.618183 13.238543C 64.968216 11.282168 67.225426 10.000046 69.782196 10.000046C 73.523155 10.000046 76.622887 12.74482 77.17765 16.330208C 77.86866 16.119724 78.602165 16.006489 79.361977 16.006489C 82.740021 16.006489 85.595291 18.244484 86.525879 21.318743C 91.170074 21.928333 95.143944 24.667034 97.435257 28.52261C 98.896088 27.595575 100.629051 27.058641 102.487335 27.058641C 107.587219 27.058641 111.74305 31.102234 111.923149 36.158169L 111.929199 36.158169C 115.292908 36.158169 118.02002 38.885334 118.02002 42.249508C 118.02002 45.008148 116.186447 47.338432 113.671738 48.087971C 113.687981 48.372227 113.696075 48.658501 113.696075 48.946701C 113.696075 49.689358 113.641411 50.41927 113.537155 51.132988C 118.434952 51.313313 122.474602 54.851749 123.422798 59.513836C 126.459595 60.466873 128.663559 63.30394 128.663559 66.655563C 128.663559 70.788719 125.313072 74.139328 121.179291 74.139328C 120.902039 74.139328 120.628792 74.124252 120.359627 74.09491C 119.487343 77.261459 116.587166 79.587395 113.143539 79.587395ZM 71.661781 127.432587C 67.676422 127.432587 64.354897 130.275314 63.614601 134.043854C 62.626137 133.184433 61.334999 132.664185 59.92234 132.664185C 58.883385 132.664185 57.910206 132.945602 57.07476 133.436295L 57.07476 88.918434C 58.434608 89.568497 59.992565 89.843842 61.598019 89.629517C 62.914448 89.453743 64.113647 88.968521 65.132317 88.257027C 67.559135 91.616753 71.708664 93.567566 76.104507 92.980644C 76.869507 92.878441 77.607216 92.704079 78.311569 92.465263L 78.311569 130.832581C 76.821762 128.772797 74.398285 127.432587 71.661781 127.432587Z"></path></g></g></g><g id="g-root--1.cu_2_sy_1cy0n881np0qob-fill" data-item-order="999548818" data-item-id="-1.cu_2_sy_1cy0n881np0qob" data-item-class="Curve Stroke Part Decor ColorStrokeBlack" data-item-index="-1" data-renderer-id="0" transform="translate(3, 229.67333984375)"></g><g id="g-root--1.cu_3_sy_zn6ly01np0p3g-fill" data-item-order="999548819" data-item-id="-1.cu_3_sy_zn6ly01np0p3g" data-item-class="Part Decor Fill Stroke" data-item-index="-1" data-renderer-id="0" transform="translate(406.1376647949219, 98.65283203125)"><g id="-1.cu_3_sy_zn6ly01np0p3g-fill" stroke="none" fill="#f87c0b"><g><path d="M 134.490265 31.780123C 137.987579 31.780123 140.972733 33.968132 142.152664 37.04958C 142.328751 37.024673 142.508865 37.011734 142.692047 37.011734C 144.798874 37.011734 146.506012 38.719574 146.506012 40.826317L 146.734726 40.826317C 147.195175 39.772289 148.246582 39.035606 149.470978 39.035606C 150.694397 39.035606 151.745789 39.772289 152.206238 40.826317L 154.433502 40.826317C 154.698654 40.826317 154.952621 40.929943 155.141861 41.115124L 155.982773 41.938942C 156.172028 42.124126 156.425995 42.227749 156.691147 42.227749L 159.062134 42.227749C 159.460815 42.227749 159.82312 42.462112 159.985992 42.82621L 166.419907 57.200642C 167.068542 58.649632 166.491745 60.353737 165.096313 61.110157L 164.362625 61.507435L 156.780212 45.023327L 141.142776 45.023327L 141.142776 100.015617L 155.120621 100.015617L 172.13533 79.3937L 186.048386 79.3937C 187.230362 79.3937 188.304001 80.079079 188.80188 81.150627L 194.015335 92.37439L 194.649841 92.37439C 195.768066 92.37439 196.673706 93.280479 196.673706 94.398262L 196.673706 95.640312C 196.673706 95.696289 196.629181 95.741516 196.57254 95.741516L 191.680862 95.741516L 186.309464 84.161949L 174.575058 84.181465L 155.120621 107.871384L 148.131195 107.871384L 141.142776 113.259621L 141.142776 125.874611L 165.07402 153.114197L 173.570221 153.114197L 194.171234 181.455475L 193.878784 228.679443L 206.79306 249.23082L 225.94899 277.049957L 225.94899 321.317078L 255.223282 360.285675L 255.223282 448.344269L 196.673706 501.903961L 196.673706 533.711121L 143.385223 577.84668L 101.793961 550.596313L 72.593758 550.596313L 56.330833 532.700256L 56.330833 501.139954L 33.515842 474.602966L 33.110146 429.619385L 9.999988 403.944611L 9.999988 315.529816L 49.260349 270.664612L 49.260349 213.518631L 87.759842 170.946518L 87.759842 158.004868L 79.355515 147.6194L 73.389549 147.6194L 67.420029 139.62207L 54.315269 123.664757L 42.823929 123.664757L 32.667641 116.131714L 26.476208 123.664757C 24.919548 122.354904 24.722429 120.029984 26.036236 118.476768L 29.189732 114.748283C 30.940361 112.678581 34.011185 112.35627 36.153366 114.017372L 43.635197 119.819092L 56.330833 119.819092L 72.593758 139.62207L 82.253586 139.62207L 87.759842 143.680923L 108.615326 143.680923L 119.905281 125.923897L 119.905281 45.023327L 108.615326 45.023327L 101.760361 54.317947L 101.471153 54.166565C 99.808945 53.296299 99.326256 51.141785 100.458199 49.645439L 106.826401 41.227657C 107.017685 40.974873 107.316406 40.826317 107.633438 40.826317L 111.627632 40.826317C 112.04657 39.776939 113.072678 39.035606 114.27182 39.035606C 115.471985 39.035606 116.498093 39.776939 116.917038 40.826317L 117.419975 40.826317C 118.175873 38.607643 120.276665 37.011734 122.750824 37.011734C 124.163483 37.011734 125.454742 37.532063 126.443398 38.391396C 127.184128 34.622948 130.50528 31.780123 134.490265 31.780123ZM 169.672501 32.131775C 165.903259 30.49507 158.867691 31.999414 155.1297 34.461655C 160.076233 32.610722 164.628952 33.35054 168.664154 35.15583C 170.639908 36.039761 172.114212 33.191978 169.672501 32.131775ZM 159.329376 15.544728C 154.147171 17.054031 148.300369 24.478197 146.589523 30.102932C 150.034637 24.08172 155.255753 21.008671 160.847961 19.446754C 163.58638 18.681828 162.686295 14.567096 159.329376 15.544728ZM 105.961708 33.060776C 103.2472 30.609966 97.750977 28.524872 94.50428 29.380669C 92.401169 29.934904 93.23967 32.417294 94.94487 31.947641C 98.42704 30.988638 102.195488 30.954235 105.961708 33.060776ZM 115.553604 28.00527C 114.914749 24.99061 112.245483 17.715296 106.679741 12.731519C 99.722473 6.501839 96.853951 12.604927 99.771263 14.567875C 100.452087 15.025984 101.190903 15.292826 102.036476 15.598131C 104.814545 16.601257 108.744781 18.0203 115.553604 28.00527Z"></path></g></g></g><g id="g-root--1.cu_4_sy_v7d3tk1np0pvp-fill" data-item-order="999548821" data-item-id="-1.cu_4_sy_v7d3tk1np0pvp" data-item-class="Part Decor Fill Stroke" data-item-index="-1" data-renderer-id="0" transform="translate(452.2992858886719, 234.3251953125)"><g id="-1.cu_4_sy_v7d3tk1np0pvp-fill" stroke="none" fill="#4f4a20"><g><path d="M 119.289032 105.956131L 119.289032 45.5518L 89.63353 9.999885L 80.07888 9.999885L 65.52005 35.64859L 65.52005 45.5518L 34.286461 79.827553L 34.286461 148.639053L 22.143234 160.782288L 10.000011 172.925507L 10.000011 251.856445L 24.167107 266.02356L 24.167107 320.668091L 72.096611 378.716675L 95.645973 378.716675L 167.861923 306.500977L 167.861923 227.570007L 143.57547 191.140335L 143.57547 140.569885L 119.289032 105.956131Z"></path></g></g></g><g id="g-root--1.line_sy_hwj2jc1np0oau-fill" data-item-order="999548826" data-item-id="-1.line_sy_hwj2jc1np0oau" data-item-class="Curve Stroke Part LeaderLine" data-item-index="-1" data-renderer-id="0" transform="translate(355.15350341796875, 156.81005859375)"></g><g id="g-root-1.line_sy_18gy0m01p3crgp-fill" data-item-order="999548832" data-item-id="1.line_sy_18gy0m01p3crgp" data-item-class="Curve Stroke Part LeaderLine Indexed Indexed_1" data-item-index="1" data-renderer-id="0" transform="translate(355.15350341796875, 326.8154296875)"></g><g id="g-root-1.line_sy_90w2ag1np0p3j-fill" data-item-order="999548838" data-item-id="1.line_sy_90w2ag1np0p3j" data-item-class="Curve Stroke Part LeaderLine Indexed" data-item-index="2" data-renderer-id="0" transform="translate(355.15350341796875, 387.53564453125)"></g><g id="g-root-2.line_sy_4l2k601np0pvs-fill" data-item-order="999548844" data-item-id="2.line_sy_4l2k601np0pvs" data-item-class="Curve Stroke Part LeaderLine Indexed" data-item-index="3" data-renderer-id="0" transform="translate(355.15350341796875, 448.24755859375)"></g><g id="g-root-3.line_sy_5921k1np0qo1-fill" data-item-order="999548850" data-item-id="3.line_sy_5921k1np0qo1" data-item-class="Curve Stroke Part LeaderLine Indexed" data-item-index="4" data-renderer-id="0" transform="translate(355.15350341796875, 508.9638671875)"></g><g id="g-root-4.line_sy_1qaq3rs1np0r9m-fill" data-item-order="999548856" data-item-id="4.line_sy_1qaq3rs1np0r9m" data-item-class="Curve Stroke Part LeaderLine Indexed" data-item-index="5" data-renderer-id="0" transform="translate(355.15350341796875, 569.6796875)"></g><g id="g-root-brok_ddlmox1rv7b42-fill" data-item-order="1000000000" data-item-id="brok_ddlmox1rv7b42" data-item-class="Icon Stroke" data-item-index="none" data-renderer-id="0" transform="translate(719.5, 330.32568359375)"></g><g id="g-root-tx_neweleme_qp1vqg1mldla9-fill" data-item-order="1000000000" data-item-id="tx_neweleme_qp1vqg1mldla9" data-item-class="Label Stroke" data-item-index="none" data-renderer-id="0" transform="translate(765, 338.82568359375)"><g id="tx_neweleme_qp1vqg1mldla9-fill" stroke="none" fill="#A3A3A3"><g><text style="font: 15px Roboto, sans-serif; white-space: pre;" font-size="15px" font-family="Roboto, sans-serif"><tspan x="22.7" y="28" dominant-baseline="ideographic">LLM02 : Sensitive Information </tspan><tspan x="87.07" y="46" dominant-baseline="ideographic">Disclosure</tspan></text></g></g></g><g id="g-root-deli_mg35lt1s4zvnk-fill" data-item-order="1000000000" data-item-id="deli_mg35lt1s4zvnk" data-item-class="Icon Stroke Indexed" data-item-index="2" data-renderer-id="0" transform="translate(294.4373779296875, 363.2490234375)"></g><g id="g-root-tx_aivulner_hxs0pk1np0qh3-fill" data-item-order="1000000000" data-item-id="tx_aivulner_hxs0pk1np0qh3" data-item-class="Label Stroke" data-item-index="none" data-renderer-id="0" transform="translate(126.29417419433594, 144.81396484375)"><g id="tx_aivulner_hxs0pk1np0qh3-fill" stroke="none" fill="#A3A3A3"><g><text style="font: 20px Roboto, sans-serif; white-space: pre;" font-size="20px" font-family="Roboto, sans-serif"><tspan x="15.27" y="33.47" dominant-baseline="ideographic">AI Vulnerabilities</tspan></text></g></g></g><g id="g-root-tx_designfl_mdliu01np0pou-fill" data-item-order="1000000000" data-item-id="tx_designfl_mdliu01np0pou" data-item-class="Label Stroke Indexed" data-item-index="2" data-renderer-id="0" transform="translate(126.29415893554688, 375.53564453125)"><g id="tx_designfl_mdliu01np0pou-fill" stroke="none" fill="#A3A3A3"><g><text style="font: 15px Roboto, sans-serif; white-space: pre;" font-size="15px" font-family="Roboto, sans-serif"><tspan x="20.3" y="31" dominant-baseline="ideographic">LLM03 : Supply Chain</tspan></text></g></g></g><g id="g-root-tx_neweleme_3zxjs1p3cqo2-fill" data-item-order="1000000000" data-item-id="tx_neweleme_3zxjs1p3cqo2" data-item-class="Label Stroke Indexed Indexed_1" data-item-index="1" data-renderer-id="0" transform="translate(102.29417419433594, 314.8193359375)"><g id="tx_neweleme_3zxjs1p3cqo2-fill" stroke="none" fill="#A3A3A3"><g><text style="font: 15px Roboto, sans-serif; white-space: pre;" font-size="15px" font-family="Roboto, sans-serif"><tspan x="16.91" y="31" dominant-baseline="ideographic">LLM01 : Prompt Injection </tspan></text></g></g></g><g id="g-root-comp_1q6yzox1q6yhal-fill" data-item-order="1000000000" data-item-id="comp_1q6yzox1q6yhal" data-item-class="Icon Stroke" data-item-index="none" data-renderer-id="0" transform="translate(723, 398.0576171875)"></g><g id="g-root-bomb_18i71wx1rau03o-fill" data-item-order="1000000000" data-item-id="bomb_18i71wx1rau03o" data-item-class="Icon Stroke" data-item-index="none" data-renderer-id="0" transform="translate(723, 590.82568359375)"></g><g id="g-root-tx_neweleme_1uuazfs1mlc7in-fill" data-item-order="1000000000" data-item-id="tx_neweleme_1uuazfs1mlc7in" data-item-class="Label Stroke" data-item-index="none" data-renderer-id="0" transform="translate(777, 405.5576171875)"><g id="tx_neweleme_1uuazfs1mlc7in-fill" stroke="none" fill="#A3A3A3"><g><text style="font: 15px Roboto, sans-serif; white-space: pre;" font-size="15px" font-family="Roboto, sans-serif"><tspan x="13.8" y="31" dominant-baseline="ideographic">LLM04 : Data and Model Poisoning</tspan></text></g></g></g><g id="g-root-lear_hvaald1sezg1t-fill" data-item-order="1000000000" data-item-id="lear_hvaald1sezg1t" data-item-class="Icon Stroke Indexed" data-item-index="3" data-renderer-id="0" transform="translate(294.4373779296875, 423.96533203125)"></g><g id="g-root-tx_inadequa_v98j2w1np0ow5-fill" data-item-order="1000000000" data-item-id="tx_inadequa_v98j2w1np0ow5" data-item-class="Label Stroke Indexed" data-item-index="3" data-renderer-id="0" transform="translate(42.294158935546875, 436.25146484375)"><g id="tx_inadequa_v98j2w1np0ow5-fill" stroke="none" fill="#A3A3A3"><g><text style="font: 15px Roboto, sans-serif; white-space: pre;" font-size="15px" font-family="Roboto, sans-serif"><tspan x="18.23" y="31" dominant-baseline="ideographic">LLM05 : Improper Output Handling</tspan></text></g></g></g><g id="g-root-syri_qvx3j51q75h52-fill" data-item-order="1000000000" data-item-id="syri_qvx3j51q75h52" data-item-class="Icon Stroke Indexed Indexed_1" data-item-index="1" data-renderer-id="0" transform="translate(294.4373779296875, 302.53271484375)"></g><g id="g-root-robo_18hknzl1r11h4w-fill" data-item-order="1000000000" data-item-id="robo_18hknzl1r11h4w" data-item-class="Icon Stroke" data-item-index="none" data-renderer-id="0" transform="translate(723, 464.82568359375)"></g><g id="g-root-tx_neweleme_qu0vzc1mvbrwk-fill" data-item-order="1000000000" data-item-id="tx_neweleme_qu0vzc1mvbrwk" data-item-class="Label Stroke" data-item-index="none" data-renderer-id="0" transform="translate(777, 464.82568359375)"><g id="tx_neweleme_qu0vzc1mvbrwk-fill" stroke="none" fill="#A3A3A3"><g><text style="font: 15px Roboto, sans-serif; white-space: pre;" font-size="15px" font-family="Roboto, sans-serif"><tspan x="11.92" y="31" dominant-baseline="ideographic">LLM06 : Excessive Agency</tspan></text></g></g></g><g id="g-root-tx_neweleme_mg3c2w1mvejnr-fill" data-item-order="1000000000" data-item-id="tx_neweleme_mg3c2w1mvejnr" data-item-class="Label Stroke" data-item-index="none" data-renderer-id="0" transform="translate(777, 602.82568359375)"><g id="tx_neweleme_mg3c2w1mvejnr-fill" stroke="none" fill="#A3A3A3"><g><text style="font: 15px Roboto, sans-serif; white-space: pre;" font-size="15px" font-family="Roboto, sans-serif"><tspan x="22.61" y="37" dominant-baseline="ideographic">LLM10 : Unbounded Consumption</tspan></text></g></g></g><g id="g-root-tx_lackofse_18k2kd41np0qh0-fill" data-item-order="1000000000" data-item-id="tx_lackofse_18k2kd41np0qh0" data-item-class="Label Stroke Indexed" data-item-index="4" data-renderer-id="0" transform="translate(54.294151306152344, 496.9677734375)"><g id="tx_lackofse_18k2kd41np0qh0-fill" stroke="none" fill="#A3A3A3"><g><text style="font: 15px Roboto, sans-serif; white-space: pre;" font-size="15px" font-family="Roboto, sans-serif"><tspan x="15.98" y="31" dominant-baseline="ideographic">LLM07 : System Prompt Leakage</tspan></text></g></g></g><g id="g-root-aler_144vmhk1npaioa-fill" data-item-order="1000000000" data-item-id="aler_144vmhk1npaioa" data-item-class="Icon Stroke" data-item-index="none" data-renderer-id="0" transform="translate(294.4374084472656, 132.52734375)"></g><g id="g-root-codi_18hkhlt1uco741-fill" data-item-order="1000000000" data-item-id="codi_18hkhlt1uco741" data-item-class="Icon Stroke" data-item-index="none" data-renderer-id="0" transform="translate(722.25, 524.07568359375)"></g><g id="g-root-1_1cwqwip1sf6fwh-fill" data-item-order="1000000000" data-item-id="1_1cwqwip1sf6fwh" data-item-class="Icon Stroke Indexed" data-item-index="5" data-renderer-id="0" transform="translate(294.4373779296875, 545.3974609375)"></g><g id="g-root-1_142dq541notp8r-fill" data-item-order="1000000000" data-item-id="1_142dq541notp8r" data-item-class="Icon Stroke Indexed" data-item-index="4" data-renderer-id="0" transform="translate(294.4374084472656, 484.68115234375)"></g><g id="g-root-tx_neweleme_1huy01mvbrbd-fill" data-item-order="1000000000" data-item-id="tx_neweleme_1huy01mvbrbd" data-item-class="Label Stroke" data-item-index="none" data-renderer-id="0" transform="translate(777, 530.82568359375)"><g id="tx_neweleme_1huy01mvbrbd-fill" stroke="none" fill="#A3A3A3"><g><text style="font: 15px Roboto, sans-serif; white-space: pre;" font-size="15px" font-family="Roboto, sans-serif"><tspan x="12.96" y="28" dominant-baseline="ideographic">LLM08 : Vector and Embedding </tspan><tspan x="74.95" y="46" dominant-baseline="ideographic">Weaknesses</tspan></text></g></g></g><g id="g-root-tx_insuffic_1lvj2qg1np0ow3-fill" data-item-order="1000000000" data-item-id="tx_insuffic_1lvj2qg1np0ow3" data-item-class="Label Stroke Indexed" data-item-index="5" data-renderer-id="0" transform="translate(114.29417419433594, 557.68408203125)"><g id="tx_insuffic_1lvj2qg1np0ow3-fill" stroke="none" fill="#A3A3A3"><g><text style="font: 15px Roboto, sans-serif; white-space: pre;" font-size="15px" font-family="Roboto, sans-serif"><tspan x="16.95" y="31" dominant-baseline="ideographic">LLM09 : Misinformation</tspan></text></g></g></g><g id="g-root-sk_18nspmw1nf2kg6-fill" data-item-order="1000000002" data-item-id="sk_18nspmw1nf2kg6" data-item-class="Curve Stroke" data-item-index="none" data-renderer-id="0" transform="translate(528, 359.02587890625)"></g><g id="g-root-sk_1hf2x8o1n4yrcy-fill" data-item-order="1000000002" data-item-id="sk_1hf2x8o1n4yrcy" data-item-class="Curve Stroke" data-item-index="none" data-renderer-id="0" transform="translate(519, 417.5576171875)"></g><g id="g-root-sk_1hhlfpk1mb1ddz-fill" data-item-order="1000000002" data-item-id="sk_1hhlfpk1mb1ddz" data-item-class="Curve Stroke" data-item-index="none" data-renderer-id="0" transform="translate(507.0000305175781, 482.82568359375)"></g><g id="g-root-sk_dgpnm01oj9b0s-fill" data-item-order="1000000002" data-item-id="sk_dgpnm01oj9b0s" data-item-class="Curve Stroke" data-item-index="none" data-renderer-id="0" transform="translate(531, 626.82568359375)"></g><g id="g-root-sk_zpoy4o1nf14pb-fill" data-item-order="1000000002" data-item-id="sk_zpoy4o1nf14pb" data-item-class="Curve Stroke" data-item-index="none" data-renderer-id="0" transform="translate(565, 537.02587890625)"></g><g id="g-root--1.cu_sy_deu55k1np0q2p-stroke" data-item-order="999548813" data-item-id="-1.cu_sy_deu55k1np0q2p" data-item-class="Part Decor Fill Stroke ColorFillBlack ColorStrokeBlack" data-item-index="-1" data-renderer-id="0" transform="translate(392.41925048828125, 133.65625)"><g id="-1.cu_sy_deu55k1np0q2p-stroke" fill="none" stroke-linecap="round" stroke-linejoin="round" stroke-miterlimit="4" stroke="#666666" stroke-width="2"><g><path d="M 56.539906 88.64119L 68.031334 88.64119L 81.136101 104.598701L 87.109169 112.63427L 93.077759 112.63427L 97.505989 118.101959L 70.046806 118.101959L 9.999989 118.101959L 27.440001 96.865387L 33.454819 96.865387L 46.380375 81.126053L 56.539906 88.64119ZM 133.621262 10.000051L 133.621262 90.851555L 122.315514 108.683067L 101.51133 108.683067L 95.979599 104.63562L 86.309761 104.599106L 70.046837 84.795921L 57.341164 84.795921L 48.813396 78.163811L 70.046837 52.308056L 81.136131 52.308056L 105.127686 23.093784L 115.34259 19.49312L 122.331299 10.000051L 133.621262 10.000051ZM 219.374069 118.102425L 264.802948 118.102425L 249.211777 99.034836L 243.029053 99.034836L 212.485504 60.736923L 205.395111 60.736923L 200.018768 49.158157L 188.291962 49.158157L 168.83696 72.848274L 161.842728 72.848274L 154.858932 78.219429L 154.858932 90.851509L 178.755463 118.102425L 187.208374 118.102425L 219.374069 118.102425ZM 186.309891 44.370335L 168.83696 64.992249L 154.858932 64.992249L 154.858932 10.000051L 170.449188 10.000051L 186.309891 44.370335ZM 33.450405 96.919998L 52.171207 96.919998L 58.764786 89.196106M 82.0233 76.175331L 69.880074 76.175331L 62.220245 85.148361M 243.716904 99.030586L 229.830536 99.030586L 218.629196 85.909027L 206.787872 85.909027L 197.670517 74.800606"></path></g></g></g><g id="g-root--1.cu_1_sy_403vc1np0ohu-stroke" data-item-order="999548815" data-item-id="-1.cu_1_sy_403vc1np0ohu" data-item-class="Part Decor Fill Stroke ColorFillBlack ColorStrokeBlack" data-item-index="-1" data-renderer-id="0" transform="translate(468.96661376953125, 3)"><g id="-1.cu_1_sy_403vc1np0ohu-stroke" fill="none" stroke-linecap="round" stroke-linejoin="round" stroke-miterlimit="4" stroke="#666666" stroke-width="2"><g><path d="M 111.643425 79.437119C 112.128082 79.535683 112.629662 79.587395 113.143349 79.587395C 116.586922 79.587395 119.487343 77.261459 120.359261 74.09491C 120.628609 74.124252 120.902222 74.139328 121.179543 74.139328C 125.312637 74.139328 128.663254 70.788719 128.663254 66.655563C 128.663254 63.30394 126.460022 60.466873 123.422798 59.513836C 122.474976 54.851749 118.434952 51.313313 113.537155 51.132988C 113.641602 50.41927 113.695763 49.689358 113.695763 48.946701C 113.695763 48.658501 113.687553 48.372227 113.671432 48.087971C 116.186447 47.338432 118.020149 45.008148 118.020149 42.249508C 118.020149 38.885334 115.292976 36.158169 111.928833 36.158169L 111.922714 36.158169C 111.742737 31.102234 107.587219 27.058641 102.487335 27.058641C 100.629051 27.058641 98.896088 27.595575 97.435257 28.52261C 95.143944 24.667034 91.170074 21.928333 86.525879 21.318743C 85.595291 18.244484 82.740021 16.006386 79.361977 16.006386C 78.602165 16.006386 77.86866 16.119724 77.17765 16.330208C 76.622887 12.74482 73.523155 10.000046 69.782196 10.000046C 67.225426 10.000046 64.968216 11.282168 63.618183 13.238543C 62.899933 13.083108 62.154137 13.001243 61.38932 13.001243C 56.331249 13.001243 52.109455 16.58147 51.119694 21.346066C 50.52528 21.24386 49.914162 21.190632 49.290504 21.190632C 43.368359 21.190632 38.56744 25.991558 38.56744 31.913807C 38.56744 32.031292 38.569263 32.148373 38.572998 32.26495C 37.934364 32.037567 37.246471 31.913807 36.529705 31.913807C 33.165531 31.913807 30.438358 34.640972 30.438358 38.005154C 30.438358 39.705303 31.134775 41.242634 32.258038 42.347668C 31.512737 43.267418 30.919836 44.315681 30.518003 45.454208C 29.753092 45.190395 28.932005 45.047211 28.077505 45.047211C 24.305414 45.047211 21.185116 47.837925 20.668741 51.467228C 19.919302 51.245007 19.125546 51.125698 18.304028 51.125698C 13.717862 51.125698 10 54.843552 10 59.429745C 10 62.851807 12.070008 65.790367 15.026171 67.06176C 15.491961 70.423607 18.191124 73.071739 21.577347 73.459824C 21.567217 73.685074 21.562183 73.911644 21.562183 74.139328C 21.562183 82.405731 28.263321 89.106865 36.529705 89.106865C 37.560478 89.106865 38.566822 89.002739 39.539013 88.804298C 39.710625 92.785355 42.99234 95.960197 47.015686 95.960197C 48.210072 95.960197 49.339203 95.680397 50.340916 95.182732C 51.713181 98.268425 54.098618 100.804031 57.074726 102.366959L 57.074726 88.918449C 58.434578 89.568512 59.992535 89.843857 61.597988 89.629532C 62.914509 89.453758 64.113777 88.968536 65.132256 88.257042C 67.559196 91.616768 71.708725 93.567581 76.104507 92.980659C 76.869507 92.878456 77.607216 92.704094 78.31163 92.465279L 78.31163 101.548615C 79.248764 101.82325 80.240379 101.970482 81.266335 101.970482C 84.722816 101.970482 87.788765 100.298668 89.69973 97.719345C 90.706413 98.223289 91.842499 98.506836 93.044907 98.506836C 97.167816 98.506836 100.51207 95.172813 100.528625 91.053833C 106.14238 89.681145 110.514015 85.142204 111.643425 79.437119ZM 71.661781 127.432587C 67.676422 127.432587 64.354897 130.275314 63.614601 134.043854C 62.626137 133.184433 61.334999 132.664185 59.92234 132.664185C 58.883385 132.664185 57.910206 132.945602 57.07476 133.436295L 57.07476 88.918434C 58.434608 89.568497 59.992565 89.843842 61.598019 89.629517C 62.914448 89.453743 64.113647 88.968521 65.132317 88.257027C 67.559135 91.616753 71.708664 93.567566 76.104507 92.980644C 76.869507 92.878441 77.607216 92.704079 78.311569 92.465263L 78.311569 130.832581C 76.821762 128.772797 74.398285 127.432587 71.661781 127.432587ZM 52.568485 82.727478C 52.941597 85.52153 54.708221 87.78756 57.074821 88.918907C 58.434669 89.568863 59.992657 89.844215 61.59808 89.62989C 62.914635 89.454117 64.113838 88.968994 65.132378 88.257401C 67.559319 91.617226 71.708847 93.56794 76.104568 92.98101C 76.869629 92.878906 77.607277 92.704552 78.311691 92.465736C 81.706963 91.31456 84.32827 88.666321 85.509003 85.392609C 86.838715 85.882187 88.303749 86.064125 89.805962 85.863564C 94.736427 85.205307 98.199699 80.674667 97.541428 75.744209M 51.641689 39.289177C 48.183266 38.362492 44.657398 39.519924 42.397404 41.991566C 41.569061 41.224007 40.54681 40.641258 39.380127 40.32864C 35.550751 39.302567 31.614553 41.575043 30.588474 45.404415M 105.860985 43.067646C 106.828392 42.856152 107.859413 42.866623 108.881905 43.14061C 112.29892 44.056183 114.326683 47.568417 113.411095 50.985397M 32.649773 74.268883C 32.115273 75.10247 31.378864 75.824089 30.462107 76.353386C 27.398506 78.122147 23.481117 77.072487 21.712362 74.008904M 52.623238 82.510704C 51.784424 83.102295 50.795559 83.507538 49.708736 83.657654C 46.076569 84.159332 42.725491 81.621605 42.223816 77.989441M 100.823174 90.981544C 96.350685 92.374031 91.648621 90.600586 89.131569 86.929199M 94.496605 42.347202C 94.496605 39.501541 92.611084 37.096272 90.02121 36.312428C 89.861053 31.958879 86.281113 28.478735 81.88842 28.478735C 77.905594 28.478735 74.591049 31.33968 73.887497 35.118549C 73.841919 35.117535 73.79615 35.116928 73.750198 35.116928C 70.643486 35.116928 68.125076 37.635429 68.125076 40.742176M 70.77739 93.084473L 70.77739 109.745781M 64.606956 102.722565L 64.606956 124.226189M 70.77739 114.836143L 70.77739 121.088791M 64.606956 88.257027L 64.606956 96.355446"></path></g></g></g><g id="g-root--1.cu_2_sy_1cy0n881np0qob-stroke" data-item-order="999548818" data-item-id="-1.cu_2_sy_1cy0n881np0qob" data-item-class="Curve Stroke Part Decor ColorStrokeBlack" data-item-index="-1" data-renderer-id="0" transform="translate(3, 229.67333984375)"><g id="-1.cu_2_sy_1cy0n881np0qob-stroke" fill="none" stroke-linecap="round" stroke-linejoin="round" stroke-miterlimit="4" stroke="#666666" stroke-width="2"><g><path d="M 484.35553 22.143067L 374.296235 22.143067L 362.153016 10L 350.009797 10L 337.866547 16.918946L 325.723328 16.918946L 313.580109 22.143067L 240.720749 22.143067L 228.57753 16.918946L 216.434296 16.918946L 210.205124 22.143067L 192.148362 22.143067L 185.406052 16.918946L 172.676499 22.143067L 10 22.143067M 579.236908 22.143067L 665.734101 22.143067L 677.87735 16.918946L 690.020539 22.143067"></path></g></g></g><g id="g-root--1.cu_3_sy_zn6ly01np0p3g-stroke" data-item-order="999548819" data-item-id="-1.cu_3_sy_zn6ly01np0p3g" data-item-class="Part Decor Fill Stroke" data-item-index="-1" data-renderer-id="0" transform="translate(406.1376647949219, 98.65283203125)"><g id="-1.cu_3_sy_zn6ly01np0p3g-stroke" fill="none" stroke-linecap="round" stroke-linejoin="round" stroke-miterlimit="4" stroke="#F99539" stroke-width="2"><g><path d="M 134.490829 31.780123C 137.987259 31.780123 140.972672 33.968132 142.152481 37.04958C 142.328751 37.024673 142.508865 37.011734 142.692047 37.011734C 144.798676 37.011734 146.506516 38.719574 146.506516 40.826317L 146.734909 40.826317C 147.195236 39.772289 148.246948 39.035606 149.470673 39.035606C 150.694397 39.035606 151.746048 39.772289 152.206421 40.826317L 154.433502 40.826317C 154.698151 40.826317 154.952316 40.929943 155.141495 41.115124L 155.983032 41.938942C 156.17215 42.124126 156.426239 42.227749 156.690842 42.227749L 159.061874 42.227749C 159.460938 42.227749 159.822556 42.462112 159.985626 42.82621L 166.420273 57.200642C 167.068985 58.649632 166.491608 60.353737 165.095886 61.110157L 164.362808 61.507435L 156.780518 45.023327L 141.142578 45.023327L 141.142578 100.015617L 155.120621 100.015617L 172.134903 79.3937L 186.048508 79.3937C 187.229935 79.3937 188.304123 80.079079 188.801758 81.150627L 194.014969 92.37439L 194.650146 92.37439C 195.767944 92.37439 196.674026 93.280479 196.674026 94.398262L 196.674026 95.640312C 196.674026 95.696289 196.628677 95.741516 196.572845 95.741516L 191.680862 95.741516L 186.309097 84.161949L 174.575485 84.181465L 155.120621 107.871384L 148.131577 107.871384L 141.142578 113.259621L 141.142578 125.874611L 165.0737 153.113785L 173.570404 153.113785L 194.170685 181.455154L 193.878357 228.679962L 206.793365 249.230423L 225.948624 277.049744L 225.948624 321.317474L 255.223282 360.286163L 255.223282 448.343781L 196.674026 501.903961L 196.674026 533.711121L 143.384735 577.84668L 101.793961 550.596069L 72.593758 550.596069L 56.330833 532.700256L 56.330833 501.139771L 33.515842 474.60321L 33.110146 429.619385L 9.999988 403.944092L 9.999988 315.529602L 49.260349 270.664825L 49.260349 213.519028L 87.759842 170.946106L 87.759842 158.004776L 79.355515 147.619278L 73.389549 147.619278L 67.420029 139.622269L 54.315269 123.664757L 42.823929 123.664757L 32.667641 116.131714L 26.476208 123.664757C 24.919548 122.354904 24.722429 120.029984 26.036236 118.476768L 29.189732 114.748283C 30.940361 112.678581 34.011185 112.35627 36.153366 114.017372L 43.635197 119.819092L 56.330833 119.819092L 72.593758 139.622269L 82.253586 139.622269L 87.759842 143.68103L 108.615326 143.68103L 119.905159 125.923897L 119.905159 45.023327L 108.615326 45.023327L 101.760361 54.317947L 101.471153 54.166565C 99.808945 53.296299 99.326256 51.141785 100.458199 49.645439L 106.826401 41.227657C 107.017685 40.974873 107.316406 40.826317 107.633438 40.826317L 111.62735 40.826317C 112.047096 39.776939 113.073082 39.035606 114.272346 39.035606C 115.471489 39.035606 116.497566 39.776939 116.917221 40.826317L 117.420067 40.826317C 118.17556 38.607643 120.277069 37.011734 122.751228 37.011734C 124.163918 37.011734 125.455055 37.531971 126.443581 38.391396C 127.183945 34.622948 130.50528 31.780123 134.490829 31.780123ZM 169.672501 32.131775C 165.903259 30.49507 158.867691 31.999414 155.1297 34.461655C 160.076233 32.610722 164.628952 33.35054 168.664154 35.15583C 170.639908 36.039761 172.114212 33.191978 169.672501 32.131775ZM 159.329376 15.544728C 154.147171 17.054031 148.300369 24.478197 146.589523 30.102932C 150.034637 24.08172 155.255753 21.008671 160.847961 19.446653C 163.58638 18.681828 162.686295 14.567096 159.329376 15.544728ZM 105.961708 33.060776C 103.2472 30.609966 97.750977 28.524872 94.50428 29.380669C 92.401169 29.934904 93.23967 32.417294 94.94487 31.947641C 98.42704 30.988638 102.195488 30.954235 105.961708 33.060776ZM 115.553604 28.00527C 114.914749 24.99061 112.245483 17.715296 106.679741 12.731519C 99.722473 6.501839 96.853951 12.604927 99.771263 14.567875C 100.452087 15.025984 101.190903 15.292826 102.036476 15.598131C 104.814545 16.601156 108.744781 18.0203 115.553604 28.00527ZM 127.435875 46.425514L 127.435875 69.932259M 127.435875 91.070236L 127.435875 120.862221M 133.606308 67.972618L 133.606308 76.368553M 127.435875 78.046516L 127.435875 83.086456M 133.606308 112.330765L 133.606308 131.541748M 133.606308 46.425514L 133.606308 61.857525M 133.606308 83.08445L 133.606308 105.818588"></path></g></g></g><g id="g-root--1.cu_4_sy_v7d3tk1np0pvp-stroke" data-item-order="999548821" data-item-id="-1.cu_4_sy_v7d3tk1np0pvp" data-item-class="Part Decor Fill Stroke" data-item-index="-1" data-renderer-id="0" transform="translate(452.2992858886719, 234.3251953125)"><g id="-1.cu_4_sy_v7d3tk1np0pvp-stroke" fill="none" stroke-linecap="round" stroke-linejoin="round" stroke-miterlimit="4" stroke="#FFE60A" stroke-width="2"><g><path d="M 119.289032 45.5518L 119.289032 105.956131L 143.57547 140.569794L 143.57547 191.140335L 167.861923 227.570007L 167.861923 306.500977L 95.645973 378.716797L 72.096611 378.716797L 24.167107 320.668091L 24.167107 266.02356L 10.000011 251.856445L 10.000011 172.925507L 22.143234 160.782288L 34.286461 148.639145L 34.286461 79.827553L 65.52005 45.5518L 65.52005 35.64859L 80.07888 9.999885L 89.63353 9.999885L 119.289032 45.5518Z"></path></g></g></g><g id="g-root--1.line_sy_hwj2jc1np0oau-stroke" data-item-order="999548826" data-item-id="-1.line_sy_hwj2jc1np0oau" data-item-class="Curve Stroke Part LeaderLine" data-item-index="-1" data-renderer-id="0" transform="translate(355.15350341796875, 156.81005859375)"><g id="-1.line_sy_hwj2jc1np0oau-stroke" fill="none" stroke-linecap="round" stroke-linejoin="round" stroke-miterlimit="4" stroke="#A3A3A3" stroke-width="2"><g><path d="M 9.996521 10.005605L 153.716521 9.995605"></path><path d="M 147.696521 16.495605L 154.196521 9.995605L 147.696521 3.495605" stroke-dasharray="none"></path></g></g></g><g id="g-root-1.line_sy_18gy0m01p3crgp-stroke" data-item-order="999548832" data-item-id="1.line_sy_18gy0m01p3crgp" data-item-class="Curve Stroke Part LeaderLine Indexed Indexed_1" data-item-index="1" data-renderer-id="0" transform="translate(355.15350341796875, 326.8154296875)"><g id="1.line_sy_18gy0m01p3crgp-stroke" fill="none" stroke-linecap="round" stroke-linejoin="round" stroke-miterlimit="4" stroke="#A3A3A3" stroke-width="2"><g><path d="M 9.996521 10.000488L 190.146521 10.000488"></path><path d="M 184.196521 16.500488L 190.696521 10.000488L 184.196521 3.500488" stroke-dasharray="none"></path></g></g></g><g id="g-root-1.line_sy_90w2ag1np0p3j-stroke" data-item-order="999548838" data-item-id="1.line_sy_90w2ag1np0p3j" data-item-class="Curve Stroke Part LeaderLine Indexed" data-item-index="2" data-renderer-id="0" transform="translate(355.15350341796875, 387.53564453125)"><g id="1.line_sy_90w2ag1np0p3j-stroke" fill="none" stroke-linecap="round" stroke-linejoin="round" stroke-miterlimit="4" stroke="#A3A3A3" stroke-width="2"><g><path d="M 9.996521 10L 151.696521 10"></path><path d="M 145.696521 16.5L 152.196521 10L 145.696521 3.5" stroke-dasharray="none"></path></g></g></g><g id="g-root-2.line_sy_4l2k601np0pvs-stroke" data-item-order="999548844" data-item-id="2.line_sy_4l2k601np0pvs" data-item-class="Curve Stroke Part LeaderLine Indexed" data-item-index="3" data-renderer-id="0" transform="translate(355.15350341796875, 448.24755859375)"><g id="2.line_sy_4l2k601np0pvs-stroke" fill="none" stroke-linecap="round" stroke-linejoin="round" stroke-miterlimit="4" stroke="#A3A3A3" stroke-width="2"><g><path d="M 9.996521 10.008047L 214.436521 9.998047"></path><path d="M 208.396521 16.498047L 214.896521 9.998047L 208.396521 3.498047" stroke-dasharray="none"></path></g></g></g><g id="g-root-3.line_sy_5921k1np0qo1-stroke" data-item-order="999548850" data-item-id="3.line_sy_5921k1np0qo1" data-item-class="Curve Stroke Part LeaderLine Indexed" data-item-index="4" data-renderer-id="0" transform="translate(355.15350341796875, 508.9638671875)"><g id="3.line_sy_5921k1np0qo1-stroke" fill="none" stroke-linecap="round" stroke-linejoin="round" stroke-miterlimit="4" stroke="#A3A3A3" stroke-width="2"><g><path d="M 9.996521 10.001953L 178.006521 10.001953"></path><path d="M 171.996521 16.501953L 178.496521 10.001953L 171.996521 3.501953" stroke-dasharray="none"></path></g></g></g><g id="g-root-4.line_sy_1qaq3rs1np0r9m-stroke" data-item-order="999548856" data-item-id="4.line_sy_1qaq3rs1np0r9m" data-item-class="Curve Stroke Part LeaderLine Indexed" data-item-index="5" data-renderer-id="0" transform="translate(355.15350341796875, 569.6796875)"><g id="4.line_sy_1qaq3rs1np0r9m-stroke" fill="none" stroke-linecap="round" stroke-linejoin="round" stroke-miterlimit="4" stroke="#A3A3A3" stroke-width="2"><g><path d="M 9.996521 10.006094L 202.296521 9.996094"></path><path d="M 196.296521 16.496094L 202.796521 9.996094L 196.296521 3.496094" stroke-dasharray="none"></path></g></g></g><g id="g-root-brok_ddlmox1rv7b42-stroke" data-item-order="1000000000" data-item-id="brok_ddlmox1rv7b42" data-item-class="Icon Stroke" data-item-index="none" data-renderer-id="0" transform="translate(719.5, 330.32568359375)"><g id="brok_ddlmox1rv7b42-stroke" fill="none" stroke-linecap="round" stroke-linejoin="round" stroke-miterlimit="4" stroke="#A3A3A3" stroke-width="2"><g><path d="M 46.28125 34.46875C 46.28125 38.198124 39.102627 41.21875 30.25 41.21875C 21.397375 41.21875 14.21875 38.198124 14.21875 34.46875M 14.21875 17.59375L 14.21875 42.90625C 14.21875 46.635624 21.397375 49.65625 30.25 49.65625C 39.102627 49.65625 46.28125 46.635624 46.28125 42.90625L 46.28125 17.59375M 28.5625 15.0625L 26.03125 18.4375L 37.791439 23.550625L 35.187626 32.455563L 39.543064 39.968315M 14.21875 17.59375C 14.21875 21.321672 21.396185 24.34375 30.25 24.34375C 39.103817 24.34375 46.28125 21.321672 46.28125 17.59375C 46.28125 13.865828 39.103817 10.84375 30.25 10.84375C 21.396185 10.84375 14.21875 13.865828 14.21875 17.59375M 46.28125 26.03125C 46.28125 29.760626 39.102627 32.78125 30.25 32.78125C 21.397375 32.78125 14.21875 29.760626 14.21875 26.03125"></path></g></g></g><g id="g-root-tx_neweleme_qp1vqg1mldla9-stroke" data-item-order="1000000000" data-item-id="tx_neweleme_qp1vqg1mldla9" data-item-class="Label Stroke" data-item-index="none" data-renderer-id="0" transform="translate(765, 338.82568359375)"></g><g id="g-root-deli_mg35lt1s4zvnk-stroke" data-item-order="1000000000" data-item-id="deli_mg35lt1s4zvnk" data-item-class="Icon Stroke Indexed" data-item-index="2" data-renderer-id="0" transform="translate(294.4373779296875, 363.2490234375)"><g id="deli_mg35lt1s4zvnk-stroke" fill="none" stroke-linecap="round" stroke-linejoin="round" stroke-miterlimit="4" stroke="#A3A3A3" stroke-width="2"><g><path d="M 38.692421 17.589493C 38.692421 20.383867 40.957718 22.649155 43.752098 22.649155C 46.546486 22.649155 48.811779 20.383867 48.811779 17.589493C 48.811779 14.795119 46.546486 12.529831 43.752098 12.529831C 40.957718 12.529831 38.692421 14.795119 38.692421 17.589493M 55.767822 50.63718C 52.580223 48.085087 51.8577 41.983135 51.847584 39.845932C 51.842377 39.710217 51.828178 39.574997 51.805084 39.441162C 51.805084 39.412827 51.805084 39.386517 51.805084 39.358181L 49.781212 27.214993C 49.579319 26.008709 48.67326 25.041382 47.482738 24.761105C 46.292217 24.480827 45.04977 24.942341 44.330929 25.931864C 42.144276 28.967144 38.21011 30.184643 34.691227 28.915039C 33.133316 28.368454 31.4242 29.167112 30.844007 30.712818C 30.263815 32.258526 31.025282 33.984528 32.558067 34.598053C 36.540424 36.154156 41.020554 35.765038 44.674988 33.545643L 45.448101 38.200531C 40.387211 41.366871 37.133251 46.750801 36.682716 52.703548C 36.516884 54.371742 37.734631 55.858585 39.402802 56.024712C 39.504257 56.036156 39.606304 56.041561 39.708405 56.040901C 41.265629 56.039467 42.569237 54.860012 42.725998 53.310707C 42.957371 50.258831 44.24564 47.383137 46.368969 45.178818C 47.0186 49.116852 48.992737 52.71526 51.96497 55.379097C 52.809402 56.081135 53.967144 56.272411 54.992516 55.879295C 56.017891 55.486179 56.751022 54.569962 56.909698 53.483337C 57.068375 52.396717 56.627846 51.309113 55.757706 50.639202ZM 20.477581 53.007126C 20.477581 54.683754 21.83676 56.042923 23.513388 56.042923C 25.190018 56.042923 26.549194 54.683754 26.549194 53.007126C 26.549194 51.330502 25.190018 49.971329 23.513388 49.971329C 21.83676 49.971329 20.477581 51.330502 20.477581 53.007126M 29.585001 30.744614L 24.310793 50.076569M 12.784847 49.281193L 15.774104 38.334106L 26.723248 41.323357M 20.888428 51.493279L 11.665646 48.975586"></path></g></g></g><g id="g-root-tx_aivulner_hxs0pk1np0qh3-stroke" data-item-order="1000000000" data-item-id="tx_aivulner_hxs0pk1np0qh3" data-item-class="Label Stroke" data-item-index="none" data-renderer-id="0" transform="translate(126.29417419433594, 144.81396484375)"></g><g id="g-root-tx_designfl_mdliu01np0pou-stroke" data-item-order="1000000000" data-item-id="tx_designfl_mdliu01np0pou" data-item-class="Label Stroke Indexed" data-item-index="2" data-renderer-id="0" transform="translate(126.29415893554688, 375.53564453125)"></g><g id="g-root-tx_neweleme_3zxjs1p3cqo2-stroke" data-item-order="1000000000" data-item-id="tx_neweleme_3zxjs1p3cqo2" data-item-class="Label Stroke Indexed Indexed_1" data-item-index="1" data-renderer-id="0" transform="translate(102.29417419433594, 314.8193359375)"></g><g id="g-root-comp_1q6yzox1q6yhal-stroke" data-item-order="1000000000" data-item-id="comp_1q6yzox1q6yhal" data-item-class="Icon Stroke" data-item-index="none" data-renderer-id="0" transform="translate(723, 398.0576171875)"><g id="comp_1q6yzox1q6yhal-stroke" fill="none" stroke-linecap="round" stroke-linejoin="round" stroke-miterlimit="4" stroke="#A3A3A3" stroke-width="2"><g><path d="M 10.8125 36.8125L 44.9375 36.8125M 44.9375 33.5625L 44.9375 40.0625C 44.9375 40.959961 44.209961 41.6875 43.3125 41.6875L 12.4375 41.6875C 11.540037 41.6875 10.8125 40.959961 10.8125 40.0625L 10.8125 18.9375C 10.8125 18.040037 11.540037 17.3125 12.4375 17.3125L 23 17.3125M 23 48.1875C 24.47196 46.328884 25.324409 44.055691 25.4375 41.6875M 32.75 48.1875C 31.27804 46.328884 30.425591 44.055691 30.3125 41.6875M 20.5625 48.1875L 35.1875 48.1875M 27.875 10.8125L 29.5 12.4375M 33.5625 10.8125L 33.5625 12.4375M 27.875 16.5L 29.5 16.5M 33.5625 23.8125C 33.5625 27.851082 36.836418 31.125 40.875 31.125C 44.913582 31.125 48.1875 27.851082 48.1875 23.8125C 48.1875 19.773918 44.913582 16.5 40.875 16.5C 36.836418 16.5 33.5625 19.773918 33.5625 23.8125M 32.75 15.6875L 35.70425 18.64175"></path></g></g></g><g id="g-root-bomb_18i71wx1rau03o-stroke" data-item-order="1000000000" data-item-id="bomb_18i71wx1rau03o" data-item-class="Icon Stroke" data-item-index="none" data-renderer-id="0" transform="translate(723, 590.82568359375)"><g id="bomb_18i71wx1rau03o-stroke" fill="none" stroke-linecap="round" stroke-linejoin="round" stroke-miterlimit="4" stroke="#A3A3A3" stroke-width="2"><g><path d="M 26.6875 53.572914C 28.367044 51.45219 29.33971 48.858414 29.46875 46.15625M 37.8125 53.572914C 36.132954 51.45219 35.16029 48.858414 35.03125 46.15625M 23.904396 53.572914L 40.591896 53.572914M 10.927083 40.59375L 53.572914 40.59375M 49.864582 14.635417L 51.71875 14.635417C 52.742775 14.635417 53.572914 15.465555 53.572914 16.489584L 53.572914 44.302082C 53.572914 45.326111 52.742775 46.15625 51.71875 46.15625L 12.78125 46.15625C 11.757222 46.15625 10.927083 45.326111 10.927083 44.302082L 10.927083 16.489584C 10.927083 15.465555 11.757222 14.635417 12.78125 14.635417L 14.635417 14.635417M 24.833332 23.90625C 22.785276 23.90625 21.125 25.566526 21.125 27.614582L 21.125 33.177082C 21.125 35.22514 22.785276 36.885418 24.833332 36.885418C 26.88139 36.885418 28.541666 35.22514 28.541666 33.177082L 28.541666 27.614582C 28.541666 25.566526 26.88139 23.90625 24.833332 23.90625ZM 24.833332 23.90625L 20.197916 21.125L 20.197916 14.635417L 24.833332 17.416666L 29.46875 14.635417L 29.46875 21.125L 24.833332 23.90625ZM 39.666664 20.197916C 37.61861 20.197916 35.958332 21.858194 35.958332 23.90625L 35.958332 29.46875C 35.958332 31.516806 37.61861 33.177082 39.666664 33.177082C 41.714722 33.177082 43.375 31.516806 43.375 29.46875L 43.375 23.90625C 43.375 21.858194 41.714722 20.197916 39.666664 20.197916ZM 39.666664 20.197916L 35.03125 17.416666L 35.03125 10.927083L 39.666664 13.708333L 44.302082 10.927083L 44.302082 17.416666L 39.666664 20.197916Z"></path></g></g></g><g id="g-root-tx_neweleme_1uuazfs1mlc7in-stroke" data-item-order="1000000000" data-item-id="tx_neweleme_1uuazfs1mlc7in" data-item-class="Label Stroke" data-item-index="none" data-renderer-id="0" transform="translate(777, 405.5576171875)"></g><g id="g-root-lear_hvaald1sezg1t-stroke" data-item-order="1000000000" data-item-id="lear_hvaald1sezg1t" data-item-class="Icon Stroke Indexed" data-item-index="3" data-renderer-id="0" transform="translate(294.4373779296875, 423.96533203125)"><g id="lear_hvaald1sezg1t-stroke" fill="none" stroke-linecap="round" stroke-linejoin="round" stroke-miterlimit="4" stroke="#A3A3A3" stroke-width="2"><g><path d="M 11.734747 16.938965C 11.734747 19.813177 14.064764 22.143188 16.938986 22.143188C 19.813208 22.143188 22.143227 19.813177 22.143227 16.938965C 22.143227 14.064752 19.813208 11.734741 16.938986 11.734741C 14.064764 11.734741 11.734747 14.064752 11.734747 16.938965M 29.082212 16.938965C 29.082212 19.813177 31.412231 22.143188 34.286453 22.143188C 37.160675 22.143188 39.490692 19.813177 39.490692 16.938965C 39.490692 14.064752 37.160675 11.734741 34.286453 11.734741C 31.412231 11.734741 29.082212 14.064752 29.082212 16.938965M 46.42968 16.938965C 46.42968 19.813177 48.759697 22.143188 51.633919 22.143188C 54.508141 22.143188 56.838158 19.813177 56.838158 16.938965C 56.838158 14.064752 54.508141 11.734741 51.633919 11.734741C 48.759697 11.734741 46.42968 14.064752 46.42968 16.938965M 11.734747 34.286377C 11.734747 37.160587 14.064764 39.490597 16.938986 39.490597C 19.813208 39.490597 22.143227 37.160587 22.143227 34.286377C 22.143227 31.412163 19.813208 29.082151 16.938986 29.082151C 14.064764 29.082151 11.734747 31.412163 11.734747 34.286377M 29.082212 34.286377C 29.082212 37.160587 31.412231 39.490597 34.286453 39.490597C 37.160675 39.490597 39.490692 37.160587 39.490692 34.286377C 39.490692 31.412163 37.160675 29.082151 34.286453 29.082151C 31.412231 29.082151 29.082212 31.412163 29.082212 34.286377M 46.42968 34.286377C 46.42968 37.160587 48.759697 39.490597 51.633919 39.490597C 54.508141 39.490597 56.838158 37.160587 56.838158 34.286377C 56.838158 31.412163 54.508141 29.082151 51.633919 29.082151C 48.759697 29.082151 46.42968 31.412163 46.42968 34.286377M 11.734747 51.633785C 11.734747 54.507999 14.064764 56.838009 16.938986 56.838009C 19.813208 56.838009 22.143227 54.507999 22.143227 51.633785C 22.143227 48.759575 19.813208 46.429562 16.938986 46.429562C 14.064764 46.429562 11.734747 48.759575 11.734747 51.633785M 29.082212 51.633785C 29.082212 54.507999 31.412231 56.838009 34.286453 56.838009C 37.160675 56.838009 39.490692 54.507999 39.490692 51.633785C 39.490692 48.759575 37.160675 46.429562 34.286453 46.429562C 31.412231 46.429562 29.082212 48.759575 29.082212 51.633785M 46.42968 51.633785C 46.42968 54.507999 48.759697 56.838009 51.633919 56.838009C 54.508141 56.838009 56.838158 54.507999 56.838158 51.633785C 56.838158 48.759575 54.508141 46.429562 51.633919 46.429562C 48.759697 46.429562 46.42968 48.759575 46.42968 51.633785M 20.61665 20.616615L 30.608789 30.608725M 20.61665 47.956135L 30.608789 37.964027M 37.964115 30.608725L 47.956253 20.616615"></path></g></g></g><g id="g-root-tx_inadequa_v98j2w1np0ow5-stroke" data-item-order="1000000000" data-item-id="tx_inadequa_v98j2w1np0ow5" data-item-class="Label Stroke Indexed" data-item-index="3" data-renderer-id="0" transform="translate(42.294158935546875, 436.25146484375)"></g><g id="g-root-syri_qvx3j51q75h52-stroke" data-item-order="1000000000" data-item-id="syri_qvx3j51q75h52" data-item-class="Icon Stroke Indexed Indexed_1" data-item-index="1" data-renderer-id="0" transform="translate(294.4373779296875, 302.53271484375)"><g id="syri_qvx3j51q75h52-stroke" fill="none" stroke-linecap="round" stroke-linejoin="round" stroke-miterlimit="4" stroke="#A3A3A3" stroke-width="2"><g><path d="M 34.286453 20.408552L 18.396173 35.986683C 17.093191 37.288227 16.361061 39.054367 16.361061 40.896049C 16.361061 42.737736 17.093191 44.503876 18.396173 45.805416L 22.767736 50.17701C 24.069269 51.48 25.835398 52.212135 27.677069 52.212135C 29.518742 52.212135 31.284868 51.48 32.586403 50.17701L 48.164429 34.286621M 46.42968 11.734758L 56.838161 22.143311M 41.225441 27.347586L 51.633919 16.939034M 20.581955 47.991215L 11.734747 56.838482M 29.082214 15.204276L 53.368668 39.490898"></path></g></g></g><g id="g-root-robo_18hknzl1r11h4w-stroke" data-item-order="1000000000" data-item-id="robo_18hknzl1r11h4w" data-item-class="Icon Stroke" data-item-index="none" data-renderer-id="0" transform="translate(723, 464.82568359375)"><g id="robo_18hknzl1r11h4w-stroke" fill="none" stroke-linecap="round" stroke-linejoin="round" stroke-miterlimit="4" stroke="#A3A3A3" stroke-width="2"><g><path d="M 19 10.75L 37 10.75C 37 10.75 39.25 10.75 39.25 13L 39.25 22C 39.25 22 39.25 24.25 37 24.25L 19 24.25C 19 24.25 16.75 24.25 16.75 22L 16.75 13C 16.75 13 16.75 10.75 19 10.75M 19.75 17.5C 19.75 18.742641 20.75736 19.75 22 19.75C 23.242641 19.75 24.25 18.742641 24.25 17.5C 24.25 16.25736 23.242641 15.25 22 15.25C 20.75736 15.25 19.75 16.25736 19.75 17.5M 31.75 17.5C 31.75 18.742641 32.757362 19.75 34 19.75C 35.242641 19.75 36.25 18.742641 36.25 17.5C 36.25 16.25736 35.242641 15.25 34 15.25C 32.757362 15.25 31.75 16.25736 31.75 17.5M 25.75 27.25L 30.25 27.25M 25.75 30.25L 30.25 30.25M 33.010002 33.25L 22.99 33.25C 21.330721 33.249134 19.760065 33.99876 18.717138 35.289307C 17.674212 36.579857 17.270916 38.272858 17.620001 39.895004L 18.325001 44.650002C 18.390818 45.002525 18.701433 45.256092 19.059999 45.25L 37 45.25C 37.358566 45.256092 37.669186 45.002525 37.735001 44.650002L 38.439999 39.895C 38.791424 38.262524 38.380745 36.558842 37.324112 35.265778C 36.267479 33.972717 34.679768 33.230854 33.010002 33.25ZM 38.5 38.170002L 41.064999 35.755001C 42.718685 34.447445 43.471863 32.304684 43.000004 30.250002L 43 29.965M 44.5 24.25C 45.352238 25.386316 45.489323 26.906612 44.854103 28.177052C 44.21888 29.447491 42.920395 30.25 41.5 30.25C 40.319099 30.252373 39.206642 29.696144 38.5 28.750002M 17.5 38.170002L 14.965 35.755001C 13.30022 34.454636 12.534919 32.310619 13 30.250002L 13 29.950001M 11.5 24.25C 10.647763 25.386316 10.510678 26.906612 11.145898 28.177052C 11.781118 29.447491 13.079605 30.25 14.5 30.25C 15.680899 30.252373 16.793358 29.696144 17.5 28.750002M 34 45.25L 34 38.5C 34 38.085785 33.664215 37.75 33.25 37.75L 22.75 37.75C 22.335787 37.75 22 38.085785 22 38.5L 22 45.25"></path></g></g></g><g id="g-root-tx_neweleme_qu0vzc1mvbrwk-stroke" data-item-order="1000000000" data-item-id="tx_neweleme_qu0vzc1mvbrwk" data-item-class="Label Stroke" data-item-index="none" data-renderer-id="0" transform="translate(777, 464.82568359375)"></g><g id="g-root-tx_neweleme_mg3c2w1mvejnr-stroke" data-item-order="1000000000" data-item-id="tx_neweleme_mg3c2w1mvejnr" data-item-class="Label Stroke" data-item-index="none" data-renderer-id="0" transform="translate(777, 602.82568359375)"></g><g id="g-root-tx_lackofse_18k2kd41np0qh0-stroke" data-item-order="1000000000" data-item-id="tx_lackofse_18k2kd41np0qh0" data-item-class="Label Stroke Indexed" data-item-index="4" data-renderer-id="0" transform="translate(54.294151306152344, 496.9677734375)"></g><g id="g-root-aler_144vmhk1npaioa-stroke" data-item-order="1000000000" data-item-id="aler_144vmhk1npaioa" data-item-class="Icon Stroke" data-item-index="none" data-renderer-id="0" transform="translate(294.4374084472656, 132.52734375)"><g id="aler_144vmhk1npaioa-stroke" fill="none" stroke-linecap="round" stroke-linejoin="round" stroke-miterlimit="4" stroke="#A3A3A3" stroke-width="2"><g><path d="M 46.067406 29.024328C 46.362465 29.02351 46.628883 29.200724 46.742176 29.473166C 46.855465 29.745604 46.793262 30.059473 46.584621 30.268108C 46.375984 30.476746 46.062115 30.538952 45.789677 30.425661C 45.517235 30.31237 45.340019 30.045952 45.340839 29.750896C 45.341949 29.350086 45.666595 29.02544 46.067406 29.024328M 46.067406 24.652781L 46.067406 18.834169M 57.342396 29.856136C 57.875492 30.922783 57.818272 32.189404 57.191177 33.20364C 56.564079 34.217873 55.456535 34.835087 54.264091 34.834846L 37.870731 34.834843C 36.678288 34.835087 35.57074 34.217873 34.943645 33.20364C 34.316547 32.189404 34.259331 30.922783 34.792423 29.856138L 42.989098 13.462832C 43.57193 12.29728 44.763245 11.561038 46.066399 11.561038C 47.369553 11.561038 48.560867 12.29728 49.143696 13.462832ZM 19.973637 57.012356L 48.307835 57.012356M 33.128799 52.964626L 33.128799 57.012356M 57.415253 40.655479L 57.415253 49.928829C 57.415257 51.605453 56.05608 52.964626 54.379452 52.964626L 13.902023 52.964626C 12.225394 52.964626 10.866217 51.605453 10.866217 49.928829L 10.866217 19.570856C 10.866217 17.894232 12.225394 16.535059 13.902024 16.535059L 34.930046 16.535059M 31.509703 36.994308C 31.508883 40.352566 28.78624 43.074535 25.427971 43.074535C 22.069702 43.074535 19.347057 40.352566 19.346237 36.994308L 19.346237 33.958511C 19.347057 30.600254 22.069702 27.878283 25.427971 27.878283C 28.78624 27.878283 31.508883 30.600254 31.509703 33.958511ZM 19.346237 33.952438L 31.509703 33.952438M 14.788479 36.994308L 19.346237 36.994308M 17.320343 45.099888L 21.127245 41.292995M 16.306383 26.350803L 20.43508 30.48151M 33.535599 45.099888L 29.728697 41.292995"></path></g></g></g><g id="g-root-codi_18hkhlt1uco741-stroke" data-item-order="1000000000" data-item-id="codi_18hkhlt1uco741" data-item-class="Icon Stroke" data-item-index="none" data-renderer-id="0" transform="translate(722.25, 524.07568359375)"><g id="codi_18hkhlt1uco741-stroke" fill="none" stroke-linecap="round" stroke-linejoin="round" stroke-miterlimit="4" stroke="#A3A3A3" stroke-width="2"><g><path d="M 34.239063 20.6L 35.053127 20.6C 35.50272 20.6 35.867188 20.964468 35.867188 21.414063L 35.867188 27.112499M 34.239063 27.112499L 37.495312 27.112499M 42.93594 10.764063L 43.75 10.764063C 44.199596 10.764063 44.564064 11.128531 44.564064 11.578125L 44.564064 17.276562M 42.93594 17.276562L 46.192188 17.276562M 42.93594 30.434376L 43.75 30.434376C 44.199596 30.434376 44.564064 30.798843 44.564064 31.24844L 44.564064 36.946877M 42.93594 36.946877L 46.192188 36.946877M 46.599998 25.076563C 46.600086 26.200609 45.688892 27.111877 44.564842 27.111877C 43.440796 27.111877 42.529602 26.200609 42.529686 25.076563L 42.529686 22.634377C 42.529774 21.51045 43.440922 20.599377 44.564842 20.599377C 45.688766 20.599377 46.599915 21.51045 46.599998 22.634377ZM 37.901562 34.912498C 37.901562 36.034328 36.992138 36.943748 35.870312 36.943748C 34.748482 36.943748 33.839062 36.034328 33.839062 34.912498L 33.839062 32.47031C 33.839062 31.348484 34.748482 30.439062 35.870312 30.439062C 36.992138 30.439062 37.901562 31.348484 37.901562 32.47031ZM 42.93594 40.18906L 43.75 40.18906C 44.199596 40.189064 44.564064 40.553532 44.564064 41.003128L 44.564064 46.701565M 42.93594 46.701565L 46.192188 46.701565M 37.901562 44.667187C 37.901562 45.789017 36.992138 46.698437 35.870312 46.698437C 34.748482 46.698437 33.839062 45.789017 33.839062 44.667187L 33.839062 42.225002C 33.839062 41.103168 34.748482 40.193748 35.870312 40.193748C 36.992138 40.193748 37.901562 41.103168 37.901562 42.225002ZM 37.901562 15.392187C 37.901562 16.514015 36.992138 17.423437 35.870312 17.423437C 34.748482 17.423437 33.839062 16.514015 33.839062 15.392187L 33.839062 12.948438C 33.839062 11.826609 34.748482 10.917188 35.870312 10.917188C 36.992138 10.917188 37.901562 11.826609 37.901562 12.948438ZM 24.926563 36.97031C 24.926563 34.165741 22.653009 31.892189 19.848438 31.892189C 19.767187 31.892187 19.692188 31.9125 19.609375 31.915625M 24.398438 16.875C 25.91103 16.364986 26.79611 14.796981 26.451136 13.238441C 26.106161 11.679902 24.642038 10.63188 23.055504 10.807843C 21.468969 10.983806 20.270077 12.327183 20.275 13.923437C 20.279408 14.205482 20.321981 14.48563 20.401562 14.756249C 20.228125 14.740624 20.060938 14.704687 19.884375 14.704687C 17.652538 14.693792 15.610258 15.957752 14.624393 17.960072C 13.638529 19.962391 13.882038 22.351786 15.251562 24.114063C 12.805319 24.281887 10.906727 26.315193 10.906727 28.767187C 10.906727 31.219181 12.805319 33.252487 15.251562 33.420311C 13.882038 35.182587 13.638529 37.571983 14.624393 39.574303C 15.610258 41.576622 17.652538 42.840584 19.884375 42.829685C 20.060938 42.829685 20.228125 42.792187 20.401562 42.776562C 19.93643 44.419006 20.875343 46.130787 22.510393 46.621277C 24.145441 47.111771 25.871548 46.199459 26.387281 44.572197C 26.903017 42.944931 26.017525 41.204918 24.398438 40.664063M 19.609375 25.625C 19.690626 25.625 19.765625 25.648438 19.848438 25.648438C 22.653009 25.648438 24.926563 23.374884 24.926563 20.570313M 26.521875 13.771875C 27.234129 13.359994 28.042858 13.144332 28.865625 13.146875M 26.382813 44.543751C 27.14625 44.956444 28.000908 45.171314 28.86875 45.168751M 28.86875 20.954687L 28.86875 37.360935"></path></g></g></g><g id="g-root-1_1cwqwip1sf6fwh-stroke" data-item-order="1000000000" data-item-id="1_1cwqwip1sf6fwh" data-item-class="Icon Stroke Indexed" data-item-index="5" data-renderer-id="0" transform="translate(294.4373779296875, 545.3974609375)"><g id="1_1cwqwip1sf6fwh-stroke" fill="none" stroke-linecap="round" stroke-linejoin="round" stroke-miterlimit="4" stroke="#A3A3A3" stroke-width="2"><g><path d="M 22.042032 51.207909C 24.18778 50.850758 25.999413 49.415981 26.838608 47.409115M 14.899792 27.295948C 19.03997 28.021957 22.596914 30.654419 24.501038 34.401737M 21.704046 30.702112L 25.332848 27.980015M 30.238712 11.362061C 30.199808 13.390916 29.833494 15.400171 29.153919 17.312223M 26.190969 19.107391C 26.190969 20.225142 27.097086 21.131256 28.21484 21.131256C 29.332594 21.131256 30.238712 20.225142 30.238712 19.107391C 30.238712 17.989641 29.332594 17.083527 28.21484 17.083527C 27.097086 17.083527 26.190969 17.989641 26.190969 19.107391ZM 38.334198 23.155121C 38.334198 24.272871 39.240314 25.178986 40.358067 25.178986C 41.475822 25.178986 42.381939 24.272871 42.381939 23.155121C 42.381939 22.037371 41.475822 21.131256 40.358067 21.131256C 39.240314 21.131256 38.334198 22.037371 38.334198 23.155121ZM 45.417747 31.25058C 45.417747 32.368332 46.323864 33.274445 47.441616 33.274445C 48.559368 33.274445 49.465488 32.368332 49.465488 31.25058C 49.465488 30.13283 48.559368 29.226715 47.441616 29.226715C 46.323864 29.226715 45.417747 30.13283 45.417747 31.25058ZM 38.334198 38.334106C 38.334198 39.451859 39.240314 40.357971 40.358067 40.357971C 41.475822 40.357971 42.381939 39.451859 42.381939 38.334106C 42.381939 37.216354 41.475822 36.310242 40.358067 36.310242C 39.240314 36.310242 38.334198 37.216354 38.334198 38.334106ZM 25.179033 27.20285C 25.179033 28.320601 26.085152 29.226715 27.202906 29.226715C 28.32066 29.226715 29.226776 28.320601 29.226776 27.20285C 29.226776 26.0851 28.32066 25.178986 27.202906 25.178986C 26.085152 25.178986 25.179033 26.0851 25.179033 27.20285ZM 23.155163 36.310242C 23.155163 37.427994 24.061281 38.334106 25.179033 38.334106C 26.296787 38.334106 27.202906 37.427994 27.202906 36.310242C 27.202906 35.19249 26.296787 34.286377 25.179033 34.286377C 24.061281 34.286377 23.155163 35.19249 23.155163 36.310242ZM 57.560974 34.286377C 57.56908 31.438627 56.096706 28.791277 53.673119 27.29595C 53.810268 26.698372 53.881531 26.087568 53.885624 25.47447C 53.926174 21.266098 50.723202 17.734377 46.530872 17.364843C 46.572681 15.707702 45.94883 14.102889 44.798752 12.909076C 43.64867 11.715262 42.068241 11.031977 40.41069 11.011932C 37.790005 11.16197 35.451649 12.707475 34.286453 15.059662C 33.121262 12.707475 30.782904 11.16197 28.16222 11.011932C 26.504667 11.031977 24.92424 11.715262 23.774158 12.909076C 22.624079 14.102889 22.000227 15.707702 22.042032 17.364843C 17.848141 17.734493 14.644608 21.268597 14.687285 25.478518C 14.688057 26.091244 14.755924 26.702044 14.889672 27.299995C 12.472451 28.801329 11.00239 31.444914 11.00239 34.290424C 11.00239 37.135933 12.472451 39.779518 14.889672 41.280853C 14.755924 41.878803 14.688057 42.489605 14.687285 43.102329C 14.648859 47.309155 17.851273 50.838497 22.042032 51.207909C 22.000227 52.865051 22.624079 54.469864 23.774158 55.663677C 24.92424 56.857491 26.504667 57.540775 28.16222 57.560822C 30.579056 57.619411 32.869705 56.483932 34.286453 54.525021C 35.703201 56.483932 37.993851 57.619411 40.410686 57.560818C 42.068241 57.540775 43.64867 56.857491 44.798752 55.663677C 45.94883 54.469864 46.572681 52.865051 46.530872 51.207909C 50.724766 50.838261 53.928303 47.304153 53.885624 43.094234C 53.881531 42.481136 53.810268 41.870331 53.673115 41.272758C 56.095474 39.778183 57.567669 37.13269 57.560974 34.286377ZM 34.286453 15.059662L 34.286453 38.334106M 34.286453 46.344563L 34.286453 54.525024M 52.851425 21.461145L 47.239227 24.270271C 45.599705 25.091103 43.673374 25.110516 42.017643 24.322889M 40.358067 36.310242C 40.958191 33.805981 42.913475 31.8507 45.417751 31.250582M 46.530872 51.207909C 45.972286 49.262974 45.019043 47.767338 43.393875 47.441498M 25.179033 45.417633C 25.179033 46.535381 26.085152 47.441498 27.202906 47.441498C 28.32066 47.441498 29.226776 46.535381 29.226776 45.417633C 29.226776 44.299885 28.32066 43.393768 27.202906 43.393768C 26.085152 43.393768 25.179033 44.299885 25.179033 45.417633ZM 39.34613 47.441498C 39.34613 48.559246 40.252251 49.465363 41.370003 49.465363C 42.487755 49.465363 43.393875 48.559246 43.393875 47.441498C 43.393875 46.32375 42.487755 45.417633 41.370003 45.417633C 40.252251 45.417633 39.34613 46.32375 39.34613 47.441498Z"></path></g></g></g><g id="g-root-1_142dq541notp8r-stroke" data-item-order="1000000000" data-item-id="1_142dq541notp8r" data-item-class="Icon Stroke Indexed" data-item-index="4" data-renderer-id="0" transform="translate(294.4374084472656, 484.68115234375)"><g id="1_142dq541notp8r-stroke" fill="none" stroke-linecap="round" stroke-linejoin="round" stroke-miterlimit="4" stroke="#A3A3A3" stroke-width="2"><g><path d="M 31.756615 45.417988L 11.517903 45.417988C 11.517573 40.141544 14.449556 35.302097 19.126516 32.859432C 23.803478 30.416765 29.450394 30.775658 33.780487 33.790768M 40.864037 41.87619L 54.019199 41.87619C 54.019199 41.87619 57.055004 41.87619 57.055004 44.912018L 57.055004 54.019501C 57.055004 54.019501 57.055004 57.055328 54.019199 57.055328L 40.864037 57.055328C 40.864037 57.055328 37.828228 57.055328 37.828228 54.019501L 37.828228 44.912018C 37.828228 44.912018 37.828228 41.87619 40.864037 41.87619M 40.358067 41.91869L 40.358067 38.840363C 40.35807 34.9282 43.52948 31.756765 47.441616 31.756765C 51.353752 31.756765 54.525166 34.9282 54.525166 38.840363L 54.525166 41.91869M 44.405811 49.465759L 46.42968 51.489643L 50.477425 47.441872M 18.237156 15.628424C 20.849865 18.336967 24.45155 19.866781 28.21484 19.86644C 30.102894 19.86776 31.971325 19.483465 33.705601 18.737112M 17.083549 19.86644C 17.083549 24.477203 20.821287 28.214966 25.432018 28.214966C 30.042749 28.214966 33.780487 24.477203 33.780487 19.86644C 33.780487 15.255676 30.042749 11.517914 25.432018 11.517914C 20.821287 11.517914 17.083549 15.255676 17.083549 19.86644"></path></g></g></g><g id="g-root-tx_neweleme_1huy01mvbrbd-stroke" data-item-order="1000000000" data-item-id="tx_neweleme_1huy01mvbrbd" data-item-class="Label Stroke" data-item-index="none" data-renderer-id="0" transform="translate(777, 530.82568359375)"></g><g id="g-root-tx_insuffic_1lvj2qg1np0ow3-stroke" data-item-order="1000000000" data-item-id="tx_insuffic_1lvj2qg1np0ow3" data-item-class="Label Stroke Indexed" data-item-index="5" data-renderer-id="0" transform="translate(114.29417419433594, 557.68408203125)"></g><g id="g-root-sk_18nspmw1nf2kg6-stroke" data-item-order="1000000002" data-item-id="sk_18nspmw1nf2kg6" data-item-class="Curve Stroke" data-item-index="none" data-renderer-id="0" transform="translate(528, 359.02587890625)"><g id="sk_18nspmw1nf2kg6-stroke" fill="none" stroke-linecap="round" stroke-linejoin="round" stroke-miterlimit="4" stroke="#A3A3A3" stroke-width="2"><g><path d="M 12 10L 101.5 10L 193 10"></path><path d="M 18 3.5L 11.5 10L 18 16.5" stroke-dasharray="none"></path></g></g></g><g id="g-root-sk_1hf2x8o1n4yrcy-stroke" data-item-order="1000000002" data-item-id="sk_1hf2x8o1n4yrcy" data-item-class="Curve Stroke" data-item-index="none" data-renderer-id="0" transform="translate(519, 417.5576171875)"><g id="sk_1hf2x8o1n4yrcy-stroke" fill="none" stroke-linecap="round" stroke-linejoin="round" stroke-miterlimit="4" stroke="#A3A3A3" stroke-width="2"><g><path d="M 12 10L 106 10L 202 10"></path><path d="M 18 3.5L 11.5 10L 18 16.5" stroke-dasharray="none"></path></g></g></g><g id="g-root-sk_1hhlfpk1mb1ddz-stroke" data-item-order="1000000002" data-item-id="sk_1hhlfpk1mb1ddz" data-item-class="Curve Stroke" data-item-index="none" data-renderer-id="0" transform="translate(507.0000305175781, 482.82568359375)"><g id="sk_1hhlfpk1mb1ddz-stroke" fill="none" stroke-linecap="round" stroke-linejoin="round" stroke-miterlimit="4" stroke="#A3A3A3" stroke-width="2"><g><path d="M 12 10L 112 10L 214 10"></path><path d="M 18 3.5L 11.5 10L 18 16.5" stroke-dasharray="none"></path></g></g></g><g id="g-root-sk_dgpnm01oj9b0s-stroke" data-item-order="1000000002" data-item-id="sk_dgpnm01oj9b0s" data-item-class="Curve Stroke" data-item-index="none" data-renderer-id="0" transform="translate(531, 626.82568359375)"><g id="sk_dgpnm01oj9b0s-stroke" fill="none" stroke-linecap="round" stroke-linejoin="round" stroke-miterlimit="4" stroke="#A3A3A3" stroke-width="2"><g><path d="M 12 10L 100 10L 190 10"></path><path d="M 18 3.5L 11.5 10L 18 16.5" stroke-dasharray="none"></path></g></g></g><g id="g-root-sk_zpoy4o1nf14pb-stroke" data-item-order="1000000002" data-item-id="sk_zpoy4o1nf14pb" data-item-class="Curve Stroke" data-item-index="none" data-renderer-id="0" transform="translate(565, 537.02587890625)"><g id="sk_zpoy4o1nf14pb-stroke" fill="none" stroke-linecap="round" stroke-linejoin="round" stroke-miterlimit="4" stroke="#A3A3A3" stroke-width="2"><g><path d="M 12 10L 83 10L 156 10"></path><path d="M 18 3.5L 11.5 10L 18 16.5" stroke-dasharray="none"></path></g></g></g></g></g></svg>