<?xml version="1.0" encoding="utf-8" standalone="yes"?>
<!DOCTYPE svg PUBLIC "-//W3C//DTD SVG 1.1//EN" "http://www.w3.org/Graphics/SVG/1.1/DTD/svg11.dtd">
<svg width="529" height="617" viewBox="0 0 529 617" style="fill:none;stroke:none;fill-rule:evenodd;clip-rule:evenodd;stroke-linecap:round;stroke-linejoin:round;stroke-miterlimit:1.5;" version="1.1" xmlns="http://www.w3.org/2000/svg" xmlns:xlink="http://www.w3.org/1999/xlink"><style id="fontImports"></style><g id="items" style="isolation: isolate"><g id="blend" style="mix-blend-mode:normal"><g id="g-root--1.cu-2_sy_me89bf1ux1fk9-fill" data-item-order="999731878" data-item-id="-1.cu-2_sy_me89bf1ux1fk9" data-item-class="Part Fill Stroke ColorStrokeGray" data-item-index="-1" data-renderer-id="0" transform="translate(2.5, 2.5)"></g><g id="g-root--1.cu-1_sy_1ut1rmz1ux1fd6-fill" data-item-order="999731880" data-item-id="-1.cu-1_sy_1ut1rmz1ux1fd6" data-item-class="Part Fill Stroke ColorStrokeGray" data-item-index="-1" data-renderer-id="0" transform="translate(46.5, 30.5)"></g><g id="g-root-3.cu_sy_1qduqln1ux1czn-fill" data-item-order="999731884" data-item-id="3.cu_sy_1qduqln1ux1czn" data-item-class="Part Indexed Fill Stroke ColorStrokeGray" data-item-index="3" data-renderer-id="0" transform="translate(362.5, 234.5)"></g><g id="g-root-2.cu_sy_146r7zf1ux1fd8-fill" data-item-order="999731888" data-item-id="2.cu_sy_146r7zf1ux1fd8" data-item-class="Part Indexed Fill Stroke ColorStrokeGray" data-item-index="2" data-renderer-id="0" transform="translate(194.5, 234.44140625)"></g><g id="g-root-1.cu_sy_mg3okr1ux1ekl-fill" data-item-order="999731892" data-item-id="1.cu_sy_mg3okr1ux1ekl" data-item-class="Part Indexed Indexed_1 Fill Stroke ColorStrokeGray" data-item-index="1" data-renderer-id="0" transform="translate(26.5, 234.44140625)"></g><g id="g-root-amph_4gomcr1v7105q-fill" data-item-order="1000000000" data-item-id="amph_4gomcr1v7105q" data-item-class="Icon Stroke Title InsideFill ColorStrokeGray" data-item-index="none" data-renderer-id="0" transform="translate(230.5, 54.5)"></g><g id="g-root-tx_prsentat_1q6yn1n1v70ydr-fill" data-item-order="1000000000" data-item-id="tx_prsentat_1q6yn1n1v70ydr" data-item-class="Label Stroke Title InsideFill ColorStrokeGray" data-item-index="none" data-renderer-id="0" transform="translate(152.5, 108.5)"><g id="tx_prsentat_1q6yn1n1v70ydr-fill" stroke="none" fill="#A3A3A3"><g><text style="font: bold 25px Arial, Helvetica, sans-serif; white-space: pre;" font-weight="bold" font-size="25px" font-family="Arial, Helvetica, sans-serif"><tspan x="14.74" y="39" dominant-baseline="ideographic">Présentation de </tspan><tspan x="48.76" y="69" dominant-baseline="ideographic">recherche</tspan></text></g></g></g><g id="g-root-book_1cxeip71uwsxzi-fill" data-item-order="1000000000" data-item-id="book_1cxeip71uwsxzi" data-item-class="Icon Stroke Indexed Indexed_1 InsideFill InsideColorFill ColorStrokeGray" data-item-index="1" data-renderer-id="0" transform="translate(62.5, 354.5)"></g><g id="g-root-ques_8yeii31ux47b7-fill" data-item-order="1000000000" data-item-id="ques_8yeii31ux47b7" data-item-class="Icon Stroke Indexed InsideFill InsideColorFill ColorStrokeGray" data-item-index="2" data-renderer-id="0" transform="translate(230.5, 354.5)"></g><g id="g-root-sign_143lvsb1v6r476-fill" data-item-order="1000000000" data-item-id="sign_143lvsb1v6r476" data-item-class="Icon Stroke Indexed InsideFill InsideColorFill ColorStrokeGray" data-item-index="3" data-renderer-id="0" transform="translate(398.5, 354.55859375)"></g><g id="g-root-tx_recherch_959naj1ux1czq-fill" data-item-order="1000000000" data-item-id="tx_recherch_959naj1ux1czq" data-item-class="Label Stroke Indexed Indexed_1 ColorStrokeGray" data-item-index="1" data-renderer-id="0" transform="translate(26.5, 546.5)"><g id="tx_recherch_959naj1ux1czq-fill" stroke="none" fill="#A3A3A3"><g><text style="font: 20px Arial, Helvetica, sans-serif; white-space: pre;" font-size="20px" font-family="Arial, Helvetica, sans-serif"><tspan x="20.54" y="33" dominant-baseline="ideographic">Recherche </tspan><tspan x="17.18" y="57" dominant-baseline="ideographic">personnelle</tspan></text></g></g></g><g id="g-root-tx_vritnona_1lza6nf1ux1f67-fill" data-item-order="1000000000" data-item-id="tx_vritnona_1lza6nf1ux1f67" data-item-class="Label Stroke Indexed ColorStrokeGray" data-item-index="2" data-renderer-id="0" transform="translate(200.5, 546.5)"><g id="tx_vritnona_1lza6nf1ux1f67-fill" stroke="none" fill="#A3A3A3"><g><text style="font: 20px Arial, Helvetica, sans-serif; white-space: pre;" font-size="20px" font-family="Arial, Helvetica, sans-serif"><tspan x="15.63" y="33" dominant-baseline="ideographic">Vérité non </tspan><tspan x="26.2" y="57" dominant-baseline="ideographic">absolue</tspan></text></g></g></g><g id="g-root-tx_mthodolo_1cua23v1ux2s5c-fill" data-item-order="1000000000" data-item-id="tx_mthodolo_1cua23v1ux2s5c" data-item-class="Label Stroke Indexed ColorStrokeGray" data-item-index="3" data-renderer-id="0" transform="translate(350.5, 546.5)"><g id="tx_mthodolo_1cua23v1ux2s5c-fill" stroke="none" fill="#A3A3A3"><g><text style="font: 20px Arial, Helvetica, sans-serif; white-space: pre;" font-size="20px" font-family="Arial, Helvetica, sans-serif"><tspan x="14.48" y="33" dominant-baseline="ideographic">Méthodologies </tspan><tspan x="28.38" y="57" dominant-baseline="ideographic">alternatives</tspan></text></g></g></g><g id="g-root--1.cu-2_sy_me89bf1ux1fk9-stroke" data-item-order="999731878" data-item-id="-1.cu-2_sy_me89bf1ux1fk9" data-item-class="Part Fill Stroke ColorStrokeGray" data-item-index="-1" data-renderer-id="0" transform="translate(2.5, 2.5)"><g id="-1.cu-2_sy_me89bf1ux1fk9-stroke" fill="none" stroke-linecap="butt" stroke-linejoin="miter" stroke-miterlimit="4" stroke="#A3A3A3" stroke-width="1"><g><path d="M 502 230C 495.3726 230 490 235.3726 490 242L 34 242C 34 235.3726 28.6274 230 22 230L 502 230ZM 22 206L 502 206L 502 230L 22 230L 22 206ZM 514 518C 507.3726 518 502 512.6274 502 506L 22 506C 22 512.6274 16.6274 518 10 518L 514 518ZM 10 542L 514 542L 514 518L 10 518L 10 542ZM 262 10L 514 180.2642L 514 206L 10 206L 10 180.2642L 262 10Z"></path></g></g></g><g id="g-root--1.cu-1_sy_1ut1rmz1ux1fd6-stroke" data-item-order="999731880" data-item-id="-1.cu-1_sy_1ut1rmz1ux1fd6" data-item-class="Part Fill Stroke ColorStrokeGray" data-item-index="-1" data-renderer-id="0" transform="translate(46.5, 30.5)"><g id="-1.cu-1_sy_1ut1rmz1ux1fd6-stroke" fill="none" stroke-linecap="butt" stroke-linejoin="miter" stroke-miterlimit="4" stroke="#A3A3A3" stroke-width="1"><g><path d="M 217.6449 10L 10 154L 426 154L 217.6449 10Z"></path></g></g></g><g id="g-root-3.cu_sy_1qduqln1ux1czn-stroke" data-item-order="999731884" data-item-id="3.cu_sy_1qduqln1ux1czn" data-item-class="Part Indexed Fill Stroke ColorStrokeGray" data-item-index="3" data-renderer-id="0" transform="translate(362.5, 234.5)"><g id="3.cu_sy_1qduqln1ux1czn-stroke" fill="none" stroke-linecap="butt" stroke-linejoin="miter" stroke-miterlimit="4" stroke="#A3A3A3" stroke-width="1"><g><path d="M 34 58.058594L 106 58.058594L 118 226.058594L 22 226.058594L 34 58.058594ZM 22 10L 118 10L 118 34.0583L 22 34.0583L 22 10ZM 10 274.058594L 130 274.058594L 130 250.058777L 10 250.058777L 10 274.058594ZM 22 34.058594L 118 34.058594C 111.3726 34.058594 106 39.431194 106 46.058594L 34 46.058594C 34 39.431194 28.6274 34.058594 22 34.058594ZM 10 250.058594L 130 250.058594C 123.3726 250.058594 118 244.685994 118 238.058594L 22 238.058594C 22 244.685994 16.6274 250.058594 10 250.058594Z"></path></g></g><g id="3.cu_sy_1qduqln1ux1czn-stroke" fill="none" stroke-linecap="butt" stroke-linejoin="miter" stroke-miterlimit="4" stroke="#A3A3A3" stroke-width="1"><g><path d="M 37 46.058594L 103 46.058594C 103 46.058594 115 46.058594 115 52.058594L 115 52.058594C 115 52.058594 115 58.058594 103 58.058594L 37 58.058594C 37 58.058594 25 58.058594 25 52.058594L 25 52.058594C 25 52.058594 25 46.058594 37 46.058594M 28 226.058594L 112 226.058594C 112 226.058594 124 226.058594 124 232.058594L 124 232.058594C 124 232.058594 124 238.058594 112 238.058594L 28 238.058594C 28 238.058594 16 238.058594 16 232.058594L 16 232.058594C 16 232.058594 16 226.058594 28 226.058594"></path></g></g></g><g id="g-root-2.cu_sy_146r7zf1ux1fd8-stroke" data-item-order="999731888" data-item-id="2.cu_sy_146r7zf1ux1fd8" data-item-class="Part Indexed Fill Stroke ColorStrokeGray" data-item-index="2" data-renderer-id="0" transform="translate(194.5, 234.44140625)"><g id="2.cu_sy_146r7zf1ux1fd8-stroke" fill="none" stroke-linecap="butt" stroke-linejoin="miter" stroke-miterlimit="4" stroke="#A3A3A3" stroke-width="1"><g><path d="M 34 58.058594L 106 58.058594L 118 226.058594L 22 226.058594L 34 58.058594ZM 22 10L 118 10L 118 34.0583L 22 34.0583L 22 10ZM 10 274.058594L 130 274.058594L 130 250.058777L 10 250.058777L 10 274.058594ZM 22 34.058594L 118 34.058594C 111.3726 34.058594 106 39.431194 106 46.058594L 34 46.058594C 34 39.431194 28.6274 34.058594 22 34.058594ZM 10 250.058594L 130 250.058594C 123.3726 250.058594 118 244.685994 118 238.058594L 22 238.058594C 22 244.685994 16.6274 250.058594 10 250.058594Z"></path></g></g><g id="2.cu_sy_146r7zf1ux1fd8-stroke" fill="none" stroke-linecap="butt" stroke-linejoin="miter" stroke-miterlimit="4" stroke="#A3A3A3" stroke-width="1"><g><path d="M 37 46.058594L 103 46.058594C 103 46.058594 115 46.058594 115 52.058594L 115 52.058594C 115 52.058594 115 58.058594 103 58.058594L 37 58.058594C 37 58.058594 25 58.058594 25 52.058594L 25 52.058594C 25 52.058594 25 46.058594 37 46.058594M 28 226.058594L 112 226.058594C 112 226.058594 124 226.058594 124 232.058594L 124 232.058594C 124 232.058594 124 238.058594 112 238.058594L 28 238.058594C 28 238.058594 16 238.058594 16 232.058594L 16 232.058594C 16 232.058594 16 226.058594 28 226.058594"></path></g></g></g><g id="g-root-1.cu_sy_mg3okr1ux1ekl-stroke" data-item-order="999731892" data-item-id="1.cu_sy_mg3okr1ux1ekl" data-item-class="Part Indexed Indexed_1 Fill Stroke ColorStrokeGray" data-item-index="1" data-renderer-id="0" transform="translate(26.5, 234.44140625)"><g id="1.cu_sy_mg3okr1ux1ekl-stroke" fill="none" stroke-linecap="butt" stroke-linejoin="miter" stroke-miterlimit="4" stroke="#A3A3A3" stroke-width="1"><g><path d="M 34 58.058594L 106 58.058594L 118 226.058594L 22 226.058594L 34 58.058594ZM 22 10L 118 10L 118 34.0583L 22 34.0583L 22 10ZM 10 274.058594L 130 274.058594L 130 250.058777L 10 250.058777L 10 274.058594ZM 22 34.058594L 118 34.058594C 111.3726 34.058594 106 39.431194 106 46.058594L 34 46.058594C 34 39.431194 28.6274 34.058594 22 34.058594ZM 10 250.058594L 130 250.058594C 123.3726 250.058594 118 244.685994 118 238.058594L 22 238.058594C 22 244.685994 16.6274 250.058594 10 250.058594Z"></path></g></g><g id="1.cu_sy_mg3okr1ux1ekl-stroke" fill="none" stroke-linecap="butt" stroke-linejoin="miter" stroke-miterlimit="4" stroke="#A3A3A3" stroke-width="1"><g><path d="M 37 46.058594L 103 46.058594C 103 46.058594 115 46.058594 115 52.058594L 115 52.058594C 115 52.058594 115 58.058594 103 58.058594L 37 58.058594C 37 58.058594 25 58.058594 25 52.058594L 25 52.058594C 25 52.058594 25 46.058594 37 46.058594M 28 226.058594L 112 226.058594C 112 226.058594 124 226.058594 124 232.058594L 124 232.058594C 124 232.058594 124 238.058594 112 238.058594L 28 238.058594C 28 238.058594 16 238.058594 16 232.058594L 16 232.058594C 16 232.058594 16 226.058594 28 226.058594"></path></g></g></g><g id="g-root-amph_4gomcr1v7105q-stroke" data-item-order="1000000000" data-item-id="amph_4gomcr1v7105q" data-item-class="Icon Stroke Title InsideFill ColorStrokeGray" data-item-index="none" data-renderer-id="0" transform="translate(230.5, 54.5)"><g id="amph_4gomcr1v7105q-stroke" fill="none" stroke-linecap="butt" stroke-linejoin="miter" stroke-miterlimit="4" stroke="#A3A3A3" stroke-width="1"><g><path d="M 30.007999 15.5C 30.007999 17.709139 31.798861 19.5 34.007999 19.5C 36.21714 19.5 38.007999 17.709139 38.007999 15.5C 38.007999 13.290861 36.21714 11.5 34.007999 11.5C 31.798861 11.5 30.007999 13.290861 30.007999 15.5ZM 39 29.5L 39 34.5C 39 35.604568 39.895432 36.5 41 36.5C 42.104568 36.5 43 35.604568 43 34.5L 43 28.5C 43 25.186291 40.313709 22.5 37 22.5L 31 22.5C 27.686293 22.5 25 25.186291 25 28.5L 25 34.5C 25 35.604568 25.895432 36.5 27 36.5C 28.10457 36.5 29 35.604568 29 34.5L 29 29.5M 29.007999 39.214001L 29.007999 34.538002M 39.007999 39.214001L 39.007999 34.5M 34 47.442001C 29.160416 47.443287 24.340801 46.82151 19.66 45.591999L 16.355999 44.720001C 15.657406 44.544975 15.106859 44.007874 14.914621 43.313816C 14.722383 42.619762 14.918144 41.875946 15.427139 41.366447C 15.936135 40.856949 16.679756 40.66045 17.374001 40.851997L 20.686001 41.723999C 29.419464 44.015968 38.596535 44.015968 47.329998 41.723999L 50.641998 40.851997C 51.704475 40.585808 52.783413 41.223763 53.062191 42.283005C 53.340965 43.342247 52.715862 44.428677 51.66 44.720001L 48.346001 45.591999C 43.663319 46.822327 38.841614 47.444115 34 47.442001ZM 34 56.5C 28.382666 56.50145 22.788574 55.778831 17.355999 54.349998L 13.49 53.332001C 12.421881 53.050335 11.784335 51.95612 12.066 50.888C 12.347666 49.819881 13.441881 49.182335 14.51 49.464001L 18.374001 50.481998C 28.617804 53.171013 39.382195 53.171013 49.625999 50.481998L 53.490002 49.464001C 54.558117 49.182335 55.652336 49.819881 55.933998 50.888C 56.215664 51.95612 55.578117 53.050335 54.509998 53.332001L 50.646 54.349998C 45.212711 55.778656 39.617981 56.50127 34 56.500004Z"></path></g></g></g><g id="g-root-tx_prsentat_1q6yn1n1v70ydr-stroke" data-item-order="1000000000" data-item-id="tx_prsentat_1q6yn1n1v70ydr" data-item-class="Label Stroke Title InsideFill ColorStrokeGray" data-item-index="none" data-renderer-id="0" transform="translate(152.5, 108.5)"></g><g id="g-root-book_1cxeip71uwsxzi-stroke" data-item-order="1000000000" data-item-id="book_1cxeip71uwsxzi" data-item-class="Icon Stroke Indexed Indexed_1 InsideFill InsideColorFill ColorStrokeGray" data-item-index="1" data-renderer-id="0" transform="translate(62.5, 354.5)"><g id="book_1cxeip71uwsxzi-stroke" fill="none" stroke-linecap="butt" stroke-linejoin="miter" stroke-miterlimit="4" stroke="#A3A3A3" stroke-width="1"><g><path d="M 50 11L 19 11C 17.343145 11 16 12.343145 16 14C 16 15.656855 17.343145 17 19 17L 51 17C 51.552284 17 52 17.447716 52 18L 52 56C 52 56.552284 51.552284 57 51 57L 20 57C 17.790861 57 16 55.209141 16 53L 16 14M 24 50C 24 44.477154 28.477154 40 34 40C 39.52285 40 44 44.477154 44 50ZM 41.284 37.288002C 40.485069 35.976749 40.086746 34.460609 40.138 32.925999L 40.138 31.142C 40.138 27.752077 37.389923 25.004002 34 25.004002C 30.610077 25.004002 27.862001 27.752077 27.862001 31.142L 27.862 32.926003C 27.91325 34.460609 27.514925 35.976749 26.716 37.287998M 27.862 32.155998C 30.219196 32.152176 32.458691 31.125467 34 29.342001C 35.541309 31.125467 37.780807 32.152176 40.138 32.155998M 39.41 32.122002C 39.273907 35.01088 36.892086 37.283138 34 37.283138C 31.107914 37.283138 28.726093 35.01088 28.59 32.122002"></path></g></g></g><g id="g-root-ques_8yeii31ux47b7-stroke" data-item-order="1000000000" data-item-id="ques_8yeii31ux47b7" data-item-class="Icon Stroke Indexed InsideFill InsideColorFill ColorStrokeGray" data-item-index="2" data-renderer-id="0" transform="translate(230.5, 354.5)"><g id="ques_8yeii31ux47b7-stroke" fill="none" stroke-linecap="butt" stroke-linejoin="miter" stroke-miterlimit="4" stroke="#A3A3A3" stroke-width="1"><g><path d="M 34 11.714286C 25.78648 11.716842 18.24015 16.237019 14.361948 23.477287C 10.483745 30.717556 10.902401 39.504124 15.451428 46.342857L 11.714286 56.285713L 24.228573 54.022858C 32.478989 58.054592 42.357716 56.612949 49.111847 50.391537C 55.865974 44.170128 58.112556 34.442822 54.770702 25.889679C 51.428848 17.336535 43.182823 11.708866 34 11.714286ZM 28.857143 28.857143C 28.857143 26.016823 31.159679 23.714287 34 23.714287C 36.840321 23.714287 39.142857 26.016823 39.142857 28.857143C 39.142857 31.697466 36.840321 34 34 34L 34 37.428574"></path></g></g></g><g id="g-root-sign_143lvsb1v6r476-stroke" data-item-order="1000000000" data-item-id="sign_143lvsb1v6r476" data-item-class="Icon Stroke Indexed InsideFill InsideColorFill ColorStrokeGray" data-item-index="3" data-renderer-id="0" transform="translate(398.5, 354.55859375)"><g id="sign_143lvsb1v6r476-stroke" fill="none" stroke-linecap="butt" stroke-linejoin="miter" stroke-miterlimit="4" stroke="#A3A3A3" stroke-width="1"><g><path d="M 34 25.428572L 18.571428 25.428572L 11.714286 18.571428L 18.571428 11.714286L 34 11.714286M 34 35.714287L 49.428574 35.714287L 56.285713 28.857143L 49.428574 22L 34 22M 34 46L 18.571428 46L 11.714286 39.142857L 18.571428 32.285713L 34 32.285713M 34 11.714286L 34 56.285713"></path></g></g></g><g id="g-root-tx_recherch_959naj1ux1czq-stroke" data-item-order="1000000000" data-item-id="tx_recherch_959naj1ux1czq" data-item-class="Label Stroke Indexed Indexed_1 ColorStrokeGray" data-item-index="1" data-renderer-id="0" transform="translate(26.5, 546.5)"></g><g id="g-root-tx_vritnona_1lza6nf1ux1f67-stroke" data-item-order="1000000000" data-item-id="tx_vritnona_1lza6nf1ux1f67" data-item-class="Label Stroke Indexed ColorStrokeGray" data-item-index="2" data-renderer-id="0" transform="translate(200.5, 546.5)"></g><g id="g-root-tx_mthodolo_1cua23v1ux2s5c-stroke" data-item-order="1000000000" data-item-id="tx_mthodolo_1cua23v1ux2s5c" data-item-class="Label Stroke Indexed ColorStrokeGray" data-item-index="3" data-renderer-id="0" transform="translate(350.5, 546.5)"></g></g></g></svg>